<?xml version="1.0" encoding="UTF-8"?>
<svg width="116px" height="60px" viewBox="0 0 116 60" version="1.1" xmlns="http://www.w3.org/2000/svg" xmlns:xlink="http://www.w3.org/1999/xlink">
    <title>BAE-Logo</title>
    <g id="Page-1" stroke="none" stroke-width="1" fill="none" fill-rule="evenodd">
        <g id="BAE-Logo" transform="translate(-11.8462, -14.5628)">
            <g id="Group" transform="translate(11.8836, 14.8677)" stroke="#FFFFFF">
                <ellipse id="Oval" transform="translate(41.9603, 34.4774) scale(-1, 1) rotate(-181) translate(-41.9603, -34.4774)" cx="41.9602662" cy="34.477438" rx="7.5007166" ry="6.8227852"></ellipse>
                <ellipse id="Oval" transform="translate(39.2128, 31.339) scale(-1, 1) rotate(-181) translate(-39.2128, -31.339)" cx="39.2127834" cy="31.3390029" rx="12.4938691" ry="10.3099709"></ellipse>
                <ellipse id="Oval" transform="translate(36.008, 27.9682) scale(-1, 1) rotate(-181) translate(-36.008, -27.9682)" cx="36.0080298" cy="27.9682024" rx="17.0783341" ry="14.1960766"></ellipse>
                <ellipse id="Oval" transform="translate(32.5622, 25.5546) scale(-1, 1) rotate(-181) translate(-32.5622, -25.5546)" cx="32.5621721" cy="25.5545647" rx="22.1157701" ry="18.1406877"></ellipse>
                <ellipse id="Oval" transform="translate(28.6164, 23.1322) scale(-1, 1) rotate(-181) translate(-28.6164, -23.1322)" cx="28.6163705" cy="23.1322227" rx="27.6163705" ry="22.1322227"></ellipse>
            </g>
            <g id="BAE" transform="translate(70.8462, 31.5628)" fill="#FFFFFF" fill-rule="nonzero">
                <path d="M1.71,3.66 L1.71,25.5 L9.54,25.5 C14.85,25.5 18.18,23.37 18.33,18.99 C18.42,16.59 17.61,14.88 14.94,13.83 C15.9,13.35 17.73,12.42 17.73,9.27 C17.73,6.39 16.26,3.66 10.62,3.66 L1.71,3.66 Z M6.66,12.57 L6.66,6.42 L10.62,6.42 C13.35,6.42 14.91,7.41 14.91,9.36 C14.91,11.55 13.11,12.57 10.77,12.57 L6.66,12.57 Z M6.78,21.87 L6.78,15.18 L11.37,15.18 C13.38,15.18 15.12,16.26 15.12,18.51 C15.12,20.19 13.86,21.87 11.13,21.87 L6.78,21.87 Z" id="Shape"></path>
                <path d="M24.39,25.5 L25.89,20.97 L33.99,20.97 L35.34,25.5 L39.33,25.5 L31.59,3.63 L27.36,3.63 L19.56,25.5 L24.39,25.5 Z M27.09,18.39 L29.91,9.12 L29.97,9.12 L32.7,18.39 L27.09,18.39 Z" id="Shape"></path>
                <polygon id="Path" points="56.58 7.11 56.58 3.66 41.7 3.66 41.7 25.47 56.58 25.47 56.58 22.2 46.65 22.2 46.65 15.42 54.84 15.42 54.84 12.45 46.65 12.45 46.65 7.11"></polygon>
            </g>
            <g id="marketplace" transform="translate(47.8462, 56.5628)" fill="#FFFFFF" fill-rule="nonzero">
                <path d="M4.92578125,7.55078125 C5.51822917,7.55078125 5.95410156,7.703125 6.23339844,8.0078125 C6.51269531,8.3125 6.65234375,8.8203125 6.65234375,9.53125 L6.65234375,13.6826172 C6.65234375,13.8942057 6.54654948,14 6.33496094,14 L5.890625,14 C5.67903646,14 5.57324219,13.8942057 5.57324219,13.6826172 L5.57324219,9.55664062 C5.57324219,9.17578125 5.50130208,8.9070638 5.35742188,8.75048828 C5.21354167,8.59391276 4.96809896,8.515625 4.62109375,8.515625 C4.45182292,8.515625 4.265625,8.52832031 4.0625,8.55371094 C4.14713542,8.80761719 4.18945313,9.14192708 4.18945313,9.55664062 L4.18945313,13.6826172 C4.18945313,13.8942057 4.08365885,14 3.87207031,14 L3.42773438,14 C3.21614583,14 3.11035156,13.8942057 3.11035156,13.6826172 L3.11035156,9.55664062 C3.11035156,9.17578125 3.03841146,8.9070638 2.89453125,8.75048828 C2.75065104,8.59391276 2.50520833,8.515625 2.15820313,8.515625 C2.02278646,8.515625 1.87890625,8.52408854 1.7265625,8.54101562 L1.7265625,13.6826172 C1.7265625,13.8942057 1.62076823,14 1.40917969,14 L0.96484375,14 C0.753255208,14 0.647460938,13.8942057 0.647460938,13.6826172 L0.647460938,8.05859375 C0.647460938,7.87239583 0.744791667,7.75813802 0.939453125,7.71582031 C1.54882812,7.60579427 2.03548177,7.55078125 2.39941406,7.55078125 C2.93261719,7.55078125 3.33463542,7.65234375 3.60546875,7.85546875 C4.02018229,7.65234375 4.46028646,7.55078125 4.92578125,7.55078125 Z" id="Path"></path>
                <path d="M13.2666016,13.6318359 C13.2666016,13.8349609 13.1650391,13.9492188 12.9619141,13.9746094 C12.1240234,14.0761719 11.4427083,14.1269531 10.9179688,14.1269531 C10.3678385,14.1269531 9.89176432,14.0444336 9.48974609,13.8793945 C9.08772786,13.7143555 8.78515625,13.4921875 8.58203125,13.2128906 C8.37890625,12.9335938 8.27734375,12.6289063 8.27734375,12.2988281 C8.27734375,11.96875 8.37890625,11.6640625 8.58203125,11.3847656 C8.78515625,11.1054687 9.08984375,10.8811849 9.49609375,10.7119141 C9.90234375,10.5426432 10.3889974,10.4580078 10.9560547,10.4580078 L12.1875,10.4580078 L12.1875,9.95019531 C12.1875,9.41699219 12.0478516,9.0382487 11.7685547,8.81396484 C11.4892578,8.58968099 11.0745443,8.47753906 10.5244141,8.47753906 C10.1774089,8.47753906 9.79231771,8.51985677 9.36914062,8.60449219 L9.26757812,8.6171875 C9.10677083,8.6171875 9.01367188,8.53678385 8.98828125,8.37597656 L8.95019531,8.03320312 L8.95019531,7.95703125 C8.95019531,7.87239583 8.96923828,7.80680339 9.00732422,7.76025391 C9.04541016,7.71370443 9.10677083,7.68196615 9.19140625,7.66503906 C9.74153646,7.55501302 10.266276,7.5 10.765625,7.5 C11.5865885,7.5 12.2086589,7.69466146 12.6318359,8.08398438 C13.055013,8.47330729 13.2666016,9.0953776 13.2666016,9.95019531 L13.2666016,13.6318359 Z M9.36914062,12.3115234 C9.36914062,12.5569661 9.50878906,12.762207 9.78808594,12.9272461 C10.0673828,13.0922852 10.469401,13.1748047 10.9941406,13.1748047 C11.2311198,13.1748047 11.6289062,13.1494141 12.1875,13.0986328 L12.1875,11.4355469 L10.9560547,11.4355469 C10.4482422,11.4355469 10.0568034,11.5201823 9.78173828,11.6894531 C9.50667318,11.858724 9.36914062,12.0660807 9.36914062,12.3115234 Z" id="Shape"></path>
                <path d="M15.6787109,8.02050781 C15.6787109,7.8343099 15.7760417,7.72005208 15.9707031,7.67773438 C16.6477865,7.57617188 17.3671875,7.52539062 18.1289062,7.52539062 C18.797526,7.52539062 19.3243815,7.59309896 19.7094727,7.72851562 C20.0945638,7.86393229 20.3759766,8.0797526 20.5537109,8.37597656 C20.7314453,8.67220052 20.8203125,9.07421875 20.8203125,9.58203125 C20.8203125,9.79361979 20.7145182,9.89941406 20.5029297,9.89941406 L20.0585938,9.89941406 C19.8470052,9.89941406 19.7412109,9.79361979 19.7412109,9.58203125 C19.7412109,9.18424479 19.6184896,8.90283203 19.3730469,8.73779297 C19.1276042,8.57275391 18.7128906,8.49023437 18.1289062,8.49023437 C17.7226562,8.49023437 17.265625,8.50716146 16.7578125,8.54101562 L16.7578125,13.6826172 C16.7578125,13.8942057 16.6520182,14 16.4404297,14 L15.9960938,14 C15.7845052,14 15.6787109,13.8942057 15.6787109,13.6826172 L15.6787109,8.02050781 Z" id="Path"></path>
                <path d="M28.3359375,13.6064453 C28.4121094,13.6826172 28.4501953,13.7545573 28.4501953,13.8222656 C28.4501953,13.8730469 28.4248047,13.9153646 28.3740234,13.9492188 C28.3232422,13.9830729 28.2555339,14 28.1708984,14 L27.4345703,14 C27.2822266,14 27.1510417,13.944987 27.0410156,13.8349609 L24.5019531,11.2832031 C24.4003906,11.1816406 24.3178711,11.1097005 24.2543945,11.0673828 C24.190918,11.0250651 24.1253255,11.0039062 24.0576172,11.0039062 L24.0576172,13.6826172 C24.0576172,13.8942057 23.9518229,14 23.7402344,14 L23.2958984,14 C23.0843099,14 22.9785156,13.8942057 22.9785156,13.6826172 L22.9785156,4.79589844 C22.9785156,4.5843099 23.0843099,4.47851562 23.2958984,4.47851562 L23.7402344,4.47851562 C23.9518229,4.47851562 24.0576172,4.5843099 24.0576172,4.79589844 L24.0576172,10.3818359 C24.116862,10.3818359 24.1803385,10.3606771 24.2480469,10.3183594 C24.3157552,10.2760417 24.4003906,10.2041016 24.5019531,10.1025391 L26.7871094,7.81738281 C26.8971354,7.70735677 27.0283203,7.65234375 27.1806641,7.65234375 L27.9169922,7.65234375 C28.0016276,7.65234375 28.0693359,7.66927083 28.1201172,7.703125 C28.1708984,7.73697917 28.1962891,7.77929688 28.1962891,7.83007812 C28.1962891,7.89778646 28.1582031,7.96972656 28.0820313,8.04589844 L25.8984375,10.2294922 C25.7799479,10.3479818 25.6762695,10.436849 25.5874023,10.4960938 C25.4985352,10.5553385 25.3610026,10.6230469 25.1748047,10.6992187 C25.3610026,10.7753906 25.4985352,10.843099 25.5874023,10.9023438 C25.6762695,10.9615885 25.7799479,11.0504557 25.8984375,11.1689453 L28.3359375,13.6064453 Z" id="Path"></path>
                <path d="M35.4326172,13.3271484 C35.4580078,13.3779297 35.4707031,13.4287109 35.4707031,13.4794922 C35.4707031,13.6064453 35.4029948,13.6953125 35.2675781,13.7460937 C34.6751302,14 34.0403646,14.1269531 33.3632812,14.1269531 C32.4746094,14.1269531 31.7382812,13.8582357 31.1542969,13.3208008 C30.5703125,12.7833659 30.2783203,11.9518229 30.2783203,10.8261719 C30.2783203,10.140625 30.3968099,9.54817708 30.6337891,9.04882813 C30.8707682,8.54947917 31.188151,8.17073568 31.5859375,7.91259766 C31.983724,7.65445964 32.4238281,7.52539062 32.90625,7.52539062 C33.3463542,7.52539062 33.7589518,7.63753255 34.144043,7.86181641 C34.5291341,8.08610026 34.8380534,8.4140625 35.0708008,8.84570312 C35.3035482,9.27734375 35.4199219,9.78938802 35.4199219,10.3818359 L35.4199219,10.6738281 C35.4199219,10.8854167 35.3141276,10.9912109 35.1025391,10.9912109 L31.3701172,10.9912109 C31.3955078,11.7360026 31.6007487,12.2797852 31.9858398,12.6225586 C32.370931,12.965332 32.8470052,13.1367188 33.4140625,13.1367188 C33.8541667,13.1367188 34.3492839,13.039388 34.8994141,12.8447266 C34.9332682,12.8277995 34.9798177,12.8193359 35.0390625,12.8193359 C35.1660156,12.8193359 35.2548828,12.8870443 35.3056641,13.0224609 L35.4326172,13.3271484 Z M34.3408203,10.0136719 C34.3408203,9.69205729 34.2688802,9.41699219 34.125,9.18847656 C33.9811198,8.95996094 33.8012695,8.78645833 33.5854492,8.66796875 C33.3696289,8.54947917 33.1474609,8.49023438 32.9189453,8.49023438 C32.5634766,8.49023438 32.241862,8.62565104 31.9541016,8.89648438 C31.6663411,9.16731771 31.5013021,9.53971354 31.4589844,10.0136719 L34.3408203,10.0136719 Z" id="Shape"></path>
                <path d="M42.6816406,13.4667969 C42.7070312,13.5175781 42.7197266,13.5683594 42.7197266,13.6191406 C42.7197266,13.7376302 42.6477865,13.8222656 42.5039062,13.8730469 C42.0384115,14.0423177 41.5940755,14.1269531 41.1708984,14.1269531 C40.4938151,14.1269531 39.9394531,13.9111328 39.5078125,13.4794922 C39.0761719,13.0478516 38.8603516,12.3580729 38.8603516,11.4101562 L38.8603516,8.6171875 L37.8955078,8.6171875 C37.6839193,8.6171875 37.578125,8.51139323 37.578125,8.29980469 L37.578125,7.96972656 C37.578125,7.75813802 37.6839193,7.65234375 37.8955078,7.65234375 L38.8603516,7.65234375 L38.8603516,5.93847656 C38.8603516,5.72688802 38.9661458,5.62109375 39.1777344,5.62109375 L39.6220703,5.62109375 C39.8336589,5.62109375 39.9394531,5.72688802 39.9394531,5.93847656 L39.9394531,7.65234375 L42.0214844,7.65234375 C42.2330729,7.65234375 42.3388672,7.75813802 42.3388672,7.96972656 L42.3388672,8.29980469 C42.3388672,8.51139323 42.2330729,8.6171875 42.0214844,8.6171875 L39.9394531,8.6171875 L39.9394531,11.4101562 C39.9394531,12.0533854 40.0452474,12.5019531 40.2568359,12.7558594 C40.4684245,13.0097656 40.773112,13.1367188 41.1708984,13.1367188 C41.4840495,13.1367188 41.8014323,13.077474 42.1230469,12.9589844 C42.156901,12.9420573 42.2076823,12.9335938 42.2753906,12.9335938 C42.3938802,12.9335938 42.4827474,13.0013021 42.5419922,13.1367188 L42.6816406,13.4667969 Z" id="Path"></path>
                <path d="M44.8779297,8.16015625 C44.8779297,8.03320312 44.9329427,7.94433594 45.0429688,7.89355469 C45.6523438,7.64811198 46.2828776,7.52539062 46.9345703,7.52539062 C47.8232422,7.52539062 48.5595703,7.79410807 49.1435547,8.33154297 C49.7275391,8.86897786 50.0195312,9.70052083 50.0195312,10.8261719 C50.0195312,11.9518229 49.7275391,12.7833659 49.1435547,13.3208008 C48.5595703,13.8582357 47.8232422,14.1269531 46.9345703,14.1269531 C46.6214193,14.1269531 46.2955729,14.093099 45.9570312,14.0253906 L45.9570312,16.8564453 C45.9570312,17.0680339 45.851237,17.1738281 45.6396484,17.1738281 L45.1953125,17.1738281 C44.983724,17.1738281 44.8779297,17.0680339 44.8779297,16.8564453 L44.8779297,8.16015625 Z M45.9570312,13.0986328 C46.2871094,13.1578776 46.570638,13.1875 46.8076172,13.1875 C47.4423828,13.1875 47.9544271,13.0076497 48.34375,12.6479492 C48.7330729,12.2882487 48.9277344,11.6809896 48.9277344,10.8261719 C48.9277344,10.0136719 48.7478841,9.42545573 48.3881836,9.06152344 C48.0284831,8.69759115 47.5439453,8.515625 46.9345703,8.515625 C46.6129557,8.515625 46.2871094,8.55371094 45.9570312,8.62988281 L45.9570312,13.0986328 Z" id="Shape"></path>
                <path d="M57.3701172,13.6064453 C57.3870443,13.6402995 57.3955078,13.686849 57.3955078,13.7460938 C57.3955078,13.8815104 57.3151042,13.9661458 57.1542969,14 C56.8072917,14.0846354 56.4348958,14.1269531 56.0371094,14.1269531 C55.3177083,14.1269531 54.7908529,13.9640299 54.456543,13.6381836 C54.1222331,13.3123372 53.9550781,12.7981771 53.9550781,12.0957031 L53.9550781,5.44335938 L52.5332031,5.44335938 C52.3216146,5.44335938 52.2158203,5.3375651 52.2158203,5.12597656 L52.2158203,4.79589844 C52.2158203,4.5843099 52.3216146,4.47851562 52.5332031,4.47851562 L54.7167969,4.47851562 C54.9283854,4.47851562 55.0341797,4.5843099 55.0341797,4.79589844 L55.0341797,12.0957031 C55.0341797,12.4765625 55.1082357,12.7452799 55.2563477,12.9018555 C55.4044596,13.058431 55.6647135,13.1409505 56.0371094,13.1494141 C56.3417969,13.1494141 56.616862,13.1197917 56.8623047,13.0605469 C56.8876953,13.0520833 56.9215495,13.0478516 56.9638672,13.0478516 C57.1077474,13.0478516 57.2093099,13.1240234 57.2685547,13.2763672 L57.3701172,13.6064453 Z" id="Path"></path>
                <path d="M64.3652344,13.6318359 C64.3652344,13.8349609 64.2636719,13.9492188 64.0605469,13.9746094 C63.2226562,14.0761719 62.5413411,14.1269531 62.0166016,14.1269531 C61.4664714,14.1269531 60.9903971,14.0444336 60.5883789,13.8793945 C60.1863607,13.7143555 59.8837891,13.4921875 59.6806641,13.2128906 C59.4775391,12.9335938 59.3759766,12.6289063 59.3759766,12.2988281 C59.3759766,11.96875 59.4775391,11.6640625 59.6806641,11.3847656 C59.8837891,11.1054687 60.1884766,10.8811849 60.5947266,10.7119141 C61.0009766,10.5426432 61.4876302,10.4580078 62.0546875,10.4580078 L63.2861328,10.4580078 L63.2861328,9.95019531 C63.2861328,9.41699219 63.1464844,9.0382487 62.8671875,8.81396484 C62.5878906,8.58968099 62.1731771,8.47753906 61.6230469,8.47753906 C61.2760417,8.47753906 60.8909505,8.51985677 60.4677734,8.60449219 L60.3662109,8.6171875 C60.2054036,8.6171875 60.1123047,8.53678385 60.0869141,8.37597656 L60.0488281,8.03320312 L60.0488281,7.95703125 C60.0488281,7.87239583 60.0678711,7.80680339 60.105957,7.76025391 C60.144043,7.71370443 60.2054036,7.68196615 60.2900391,7.66503906 C60.8401693,7.55501302 61.3649089,7.5 61.8642578,7.5 C62.6852214,7.5 63.3072917,7.69466146 63.7304688,8.08398438 C64.1536458,8.47330729 64.3652344,9.0953776 64.3652344,9.95019531 L64.3652344,13.6318359 Z M60.4677734,12.3115234 C60.4677734,12.5569661 60.6074219,12.762207 60.8867188,12.9272461 C61.1660156,13.0922852 61.5680339,13.1748047 62.0927734,13.1748047 C62.3297526,13.1748047 62.7275391,13.1494141 63.2861328,13.0986328 L63.2861328,11.4355469 L62.0546875,11.4355469 C61.546875,11.4355469 61.1554362,11.5201823 60.8803711,11.6894531 C60.605306,11.858724 60.4677734,12.0660807 60.4677734,12.3115234 Z" id="Shape"></path>
                <path d="M71.8046875,8.62988281 C71.7539062,8.76529948 71.6650391,8.83300781 71.5380859,8.83300781 C71.4788411,8.83300781 71.4322917,8.82454427 71.3984375,8.80761719 C70.8652344,8.61295573 70.3531901,8.515625 69.8623047,8.515625 C69.2529297,8.515625 68.7683919,8.69759115 68.4086914,9.06152344 C68.0489909,9.42545573 67.8691406,10.0136719 67.8691406,10.8261719 C67.8691406,11.6386719 68.0489909,12.226888 68.4086914,12.5908203 C68.7683919,12.9547526 69.2529297,13.1367188 69.8623047,13.1367188 C70.336263,13.1367188 70.8483073,13.039388 71.3984375,12.8447266 C71.4322917,12.8277995 71.4788411,12.8193359 71.5380859,12.8193359 C71.6650391,12.8193359 71.7539062,12.8870443 71.8046875,13.0224609 L71.9316406,13.3271484 C71.9570312,13.3779297 71.9697266,13.4287109 71.9697266,13.4794922 C71.9697266,13.6064453 71.9020182,13.6953125 71.7666016,13.7460937 C71.1741536,14 70.539388,14.1269531 69.8623047,14.1269531 C68.9736328,14.1269531 68.2373047,13.8582357 67.6533203,13.3208008 C67.0693359,12.7833659 66.7773438,11.9518229 66.7773438,10.8261719 C66.7773438,9.70052083 67.0693359,8.86897786 67.6533203,8.33154297 C68.2373047,7.79410807 68.9736328,7.52539062 69.8623047,7.52539062 C70.539388,7.52539062 71.1741536,7.65234375 71.7666016,7.90625 C71.9020182,7.95703125 71.9697266,8.04589844 71.9697266,8.17285156 C71.9697266,8.22363281 71.9570312,8.27441406 71.9316406,8.32519531 L71.8046875,8.62988281 Z" id="Path"></path>
                <path d="M79.2314453,13.3271484 C79.2568359,13.3779297 79.2695312,13.4287109 79.2695312,13.4794922 C79.2695312,13.6064453 79.2018229,13.6953125 79.0664062,13.7460937 C78.4739583,14 77.8391927,14.1269531 77.1621094,14.1269531 C76.2734375,14.1269531 75.5371094,13.8582357 74.953125,13.3208008 C74.3691406,12.7833659 74.0771484,11.9518229 74.0771484,10.8261719 C74.0771484,10.140625 74.195638,9.54817708 74.4326172,9.04882813 C74.6695964,8.54947917 74.9869792,8.17073568 75.3847656,7.91259766 C75.7825521,7.65445964 76.2226562,7.52539062 76.7050781,7.52539062 C77.1451823,7.52539062 77.5577799,7.63753255 77.9428711,7.86181641 C78.3279622,8.08610026 78.6368815,8.4140625 78.8696289,8.84570312 C79.1023763,9.27734375 79.21875,9.78938802 79.21875,10.3818359 L79.21875,10.6738281 C79.21875,10.8854167 79.1129557,10.9912109 78.9013672,10.9912109 L75.1689453,10.9912109 C75.1943359,11.7360026 75.3995768,12.2797852 75.784668,12.6225586 C76.1697591,12.965332 76.6458333,13.1367188 77.2128906,13.1367188 C77.6529948,13.1367188 78.148112,13.039388 78.6982422,12.8447266 C78.7320964,12.8277995 78.7786458,12.8193359 78.8378906,12.8193359 C78.9648438,12.8193359 79.0537109,12.8870443 79.1044922,13.0224609 L79.2314453,13.3271484 Z M78.1396484,10.0136719 C78.1396484,9.69205729 78.0677083,9.41699219 77.9238281,9.18847656 C77.7799479,8.95996094 77.6000977,8.78645833 77.3842773,8.66796875 C77.168457,8.54947917 76.9462891,8.49023438 76.7177734,8.49023438 C76.3623047,8.49023438 76.0406901,8.62565104 75.7529297,8.89648438 C75.4651693,9.16731771 75.3001302,9.53971354 75.2578125,10.0136719 L78.1396484,10.0136719 Z" id="Shape"></path>
            </g>
        </g>
    </g>
</svg>