<svg width="83" height="20" viewBox="0 0 83 20" fill="none" xmlns="http://www.w3.org/2000/svg">
<g clip-path="url(#clip0_3405_44203)">
<path d="M59.7728 0.00244141V19.9988H56.4287V3.33497C56.4287 1.495 57.9264 0.00365191 59.7728 0.00244141Z" fill="white"/>
<path d="M46.3954 0.00244141H37.4444L36.3633 3.33497H43.0514V20H46.3954V3.33497H49.7407C51.587 3.33497 53.0835 1.84241 53.0848 0.00244141H46.3954Z" fill="white"/>
<path d="M16.7616 19.9988H20.1408L14.2192 2.27938C13.7637 0.918775 12.4858 0 11.0464 0H6.6881L0 19.9988H3.38414L5.05677 15.0006H10.6164C12.464 15.0006 13.9605 13.508 13.9605 11.6669H6.17186L10.0722 0.00242101L16.7616 19.9988Z" fill="white"/>
<path d="M69.5436 0.00244141L62.8555 19.9988H66.2396L67.911 14.9994H73.4658C75.3121 14.9994 76.8099 13.5081 76.8111 11.6681H69.0249L72.9277 0.00244141H69.5436Z" fill="white"/>
<path d="M83.0002 19.9988L77.0737 2.27938C76.6194 0.917564 75.3404 0 73.901 0H72.9292L79.6173 19.9964L83.0002 19.9988Z" fill="white"/>
<path d="M26.8533 16.6663V0.00244141H23.5093V16.6663C23.5141 18.505 25.0082 19.994 26.8533 19.9988H35.7716L36.8867 16.6663H26.8533Z" fill="white"/>
</g>
<defs>
<clipPath id="clip0_3405_44203">
<rect width="83" height="20" fill="white"/>
</clipPath>
</defs>
</svg>
