<svg width="62" height="30" viewBox="0 0 62 30" fill="none" xmlns="http://www.w3.org/2000/svg">
<g clip-path="url(#clip0_3405_44215)">
<path fill-rule="evenodd" clip-rule="evenodd" d="M23.6206 10.1044C25.0501 7.42374 24.7442 1.30562 16.4914 0C23.5748 1.0059 27.8082 4.95212 26.7008 9.60985C25.4891 14.7061 18.0521 18.4504 10.0916 17.9719C5.69713 17.7077 2.2103 16.0561 0 13.6904C5.27162 17.6179 18.4525 18.1489 23.6206 10.1052V10.1044Z" fill="white"/>
<path fill-rule="evenodd" clip-rule="evenodd" d="M11.8754 13.8344C10.3731 16.5675 10.7113 22.7852 19.4212 24.0668C11.9464 23.0841 7.47007 19.0951 8.62695 14.3538C9.89268 9.166 17.7299 5.3185 26.1294 5.76053C30.766 6.00511 34.4489 7.66382 36.786 10.0572C31.2148 6.09405 17.3089 5.62712 11.8754 13.8335V13.8344Z" fill="white"/>
<path fill-rule="evenodd" clip-rule="evenodd" d="M11.1937 16.4315L11.3214 18.0128C10.6404 18.0466 9.33059 17.9381 8.73686 17.8447L8.4292 16.4012C8.95366 16.4608 10.6134 16.5035 11.1946 16.4315H11.1937Z" fill="white"/>
<path fill-rule="evenodd" clip-rule="evenodd" d="M48.875 15.8097L49.7881 14.417L50.7012 13.0242H48.875H47.0488L47.9619 14.417L48.875 15.8097Z" fill="white"/>
<path d="M25.2554 25.8484V13.7714H31.324C32.5853 13.7714 33.5037 14.0915 34.0831 14.7346C34.6597 15.3776 34.9503 16.1113 34.9503 16.9394C34.9503 17.5406 34.783 18.084 34.4447 18.5705C34.1101 19.057 33.6108 19.3923 32.9442 19.5764C34.4897 19.9535 35.2643 20.89 35.2643 22.3878C35.2643 23.2852 34.9926 24.0847 34.4447 24.7918C33.9005 25.4953 32.7346 25.8493 30.9471 25.8493H25.2554V25.8484ZM28.6369 18.398H30.3354C30.76 18.398 31.0622 18.2895 31.2386 18.0716C31.4122 17.8546 31.5013 17.6189 31.5013 17.3707C31.5013 16.7001 31.0919 16.3622 30.2724 16.3622H28.6369V18.398ZM28.6369 23.1571H30.4217C30.867 23.1571 31.19 23.0486 31.3996 22.828C31.6056 22.6048 31.7109 22.3566 31.7109 22.0792C31.7109 21.8017 31.6092 21.5473 31.4086 21.3152C31.2053 21.0795 30.8374 20.9647 30.2994 20.9647H28.6369V23.1571ZM42.5411 22.6199L45.7994 22.8405C45.6078 23.7254 45.1148 24.4769 44.3259 25.0995C43.5333 25.7248 42.4637 26.036 41.1152 26.036C39.6147 26.036 38.4155 25.5985 37.5249 24.7189C36.6307 23.8428 36.1827 22.7586 36.1827 21.4601C36.1827 20.1616 36.6253 18.9805 37.5069 18.0538C38.3885 17.127 39.5634 16.6645 41.0342 16.6645C42.5051 16.6645 43.6116 17.1021 44.4905 17.9755C45.3694 18.848 45.8093 20.0353 45.8093 21.5393C45.8093 21.6629 45.8066 21.8355 45.8003 22.0525H39.836C39.8477 22.6199 39.9466 23.0397 40.1347 23.3145C40.32 23.5867 40.6753 23.7254 41.2016 23.7254C41.9608 23.7254 42.4061 23.3572 42.5411 22.6199ZM42.3144 20.2826C42.3081 19.676 42.1884 19.2678 41.9527 19.0561C41.7161 18.848 41.4202 18.7422 41.0711 18.7422C40.2426 18.7422 39.8279 19.2553 39.8279 20.2826H42.3153H42.3144ZM50.6725 16.8487V25.8484H47.1776V16.8487H50.6725ZM61.4892 25.8484H58.1589C58.0779 25.4651 58.0366 25.0453 58.0366 24.5917C57.406 25.5522 56.4524 26.0352 55.1723 26.0352C54.1233 26.0352 53.3371 25.763 52.8135 25.2196C52.29 24.6762 52.0273 24.0536 52.0273 23.3528C52.0273 22.4011 52.4582 21.6345 53.3128 21.0483C54.1674 20.4596 55.6832 20.1092 57.8629 19.9918V19.7863C57.8629 19.3905 57.773 19.1282 57.594 18.9983C57.4176 18.8685 57.155 18.8053 56.8104 18.8053C56.0062 18.8053 55.5546 19.1317 55.4619 19.7872L52.2747 19.4884C52.729 17.6073 54.2781 16.6645 56.9238 16.6645C57.6416 16.6645 58.3019 16.7366 58.9029 16.8816C59.5038 17.0265 59.9824 17.2498 60.3314 17.5584C60.6814 17.8634 60.9171 18.1899 61.0367 18.5305C61.1564 18.872 61.2157 19.5302 61.2157 20.5023V24.0963C61.2157 24.7784 61.3057 25.3646 61.4874 25.8484H61.4892ZM57.8629 21.6353C56.3741 21.7954 55.6302 22.2757 55.6302 23.0788C55.6302 23.6222 55.9234 23.8944 56.5118 23.8944C56.8851 23.8944 57.2053 23.7797 57.468 23.5564C57.7307 23.3332 57.8629 22.8378 57.8629 22.0703V21.6353Z" fill="white"/>
<path fill-rule="evenodd" clip-rule="evenodd" d="M59.5037 11.0116C60.8666 11.0116 61.9776 10.0759 61.9776 8.92951C61.9776 7.78308 60.8666 6.84656 59.5037 6.84656C58.1408 6.84656 57.0298 7.7822 57.0298 8.92951C57.0298 10.0768 58.1408 11.0116 59.5037 11.0116Z" stroke="white" stroke-width="0.5" stroke-miterlimit="2.61"/>
<path d="M60.8836 10.3552H59.9219L59.5099 9.26481H59.2364V10.3552H58.3701V7.50293H59.8446C60.1693 7.50293 60.4221 7.58031 60.602 7.73417C60.7819 7.88804 60.8728 8.09082 60.8728 8.3434C60.8728 8.50705 60.8395 8.65291 60.7729 8.7792C60.7064 8.90461 60.5732 9.01578 60.3717 9.11272L60.8818 10.3561L60.8836 10.3552ZM59.2364 8.65469H59.6071C59.7159 8.65469 59.8032 8.63157 59.8697 8.58621C59.9354 8.53996 59.9687 8.47236 59.9687 8.38254C59.9687 8.2011 59.858 8.10949 59.6358 8.10949H59.2364V8.65469Z" fill="white"/>
<path d="M26.0199 28.9985L26.5938 29.0412C26.5668 29.3507 26.4742 29.5873 26.3159 29.7527C26.1575 29.9181 25.9632 30.0008 25.732 30.0008C25.454 30.0008 25.23 29.887 25.0591 29.6602C24.8882 29.4334 24.8027 29.1212 24.8027 28.7219C24.8027 28.3226 24.8837 28.0068 25.0456 27.7649C25.2076 27.5221 25.4334 27.4003 25.723 27.4003C25.9938 27.4003 26.2016 27.4928 26.3473 27.6778C26.4931 27.8628 26.5749 28.1082 26.5938 28.4133L26.0073 28.4515C26.0073 28.2834 25.9812 28.1616 25.929 28.086C25.876 28.0113 25.8148 27.9739 25.7437 27.9739C25.5458 27.9739 25.4468 28.2185 25.4468 28.7095C25.4468 28.9834 25.472 29.1702 25.5242 29.2689C25.5755 29.3676 25.6475 29.4174 25.741 29.4174C25.9065 29.4174 26.0001 29.2778 26.0199 29.0003V28.9985Z" fill="white"/>
<path d="M27.7075 30C27.4196 30 27.1848 29.8817 27.004 29.6469C26.8223 29.4112 26.7314 29.0973 26.7314 28.7024C26.7314 28.3075 26.8178 28.014 26.9914 27.7685C27.1651 27.5221 27.4052 27.3994 27.7129 27.3994C27.9981 27.3994 28.2293 27.5159 28.4092 27.7472C28.5882 27.9784 28.6782 28.2888 28.6782 28.6748C28.6782 29.0608 28.5873 29.3961 28.4065 29.6371C28.2257 29.879 27.9927 30 27.7066 30H27.7075ZM27.7048 29.4272C27.811 29.4272 27.8865 29.3703 27.9333 29.2565C27.9801 29.1426 28.0026 28.9345 28.0026 28.6312C28.0026 28.1919 27.9072 27.9731 27.7165 27.9731C27.5105 27.9731 27.407 28.223 27.407 28.7228C27.407 29.1924 27.506 29.4272 27.7039 29.4272H27.7048Z" fill="white"/>
<path d="M30.6941 29.9609H30.1832L29.6227 28.8465C29.5507 28.7042 29.4788 28.5299 29.405 28.3253C29.4383 28.4881 29.4545 28.6259 29.4545 28.7389V29.9609H28.9453V27.4386H29.539L30.0149 28.3627C30.1103 28.5459 30.1823 28.7078 30.2308 28.8465C30.1993 28.6313 30.1832 28.4107 30.1832 28.1857V27.4386H30.6941V29.9609Z" fill="white"/>
<path d="M30.8389 29.2315L31.4218 29.1026C31.4713 29.3053 31.5972 29.4076 31.7996 29.4076C31.958 29.4076 32.0362 29.356 32.0362 29.2529C32.0362 29.1986 32.0182 29.1559 31.9814 29.1257C31.9454 29.0954 31.8797 29.0688 31.7861 29.0456C31.4272 28.9603 31.1969 28.8491 31.0953 28.713C30.9927 28.576 30.9423 28.4151 30.9423 28.2301C30.9423 27.9926 31.0152 27.7943 31.1618 27.6368C31.3085 27.4794 31.519 27.4003 31.7933 27.4003C32.2098 27.4003 32.4851 27.6075 32.6192 28.0193L32.0992 28.2132C32.0452 28.0442 31.9364 27.9597 31.7708 27.9597C31.6341 27.9597 31.5648 28.0122 31.5648 28.1171C31.5648 28.1634 31.581 28.2007 31.6116 28.2265C31.6431 28.2523 31.7025 28.2772 31.7915 28.3003C32.0362 28.3644 32.2098 28.4213 32.3133 28.4711C32.4168 28.52 32.5022 28.6045 32.5715 28.7237C32.6408 28.842 32.6749 28.9825 32.6749 29.1435C32.6749 29.3987 32.5913 29.6051 32.4231 29.7634C32.2548 29.9217 32.0344 30.0008 31.7619 30.0008C31.2635 30.0008 30.9558 29.7438 30.8389 29.2315Z" fill="white"/>
<path d="M34.575 27.4386V29.1089C34.575 29.4255 34.4985 29.6532 34.3465 29.7919C34.1944 29.9307 33.9956 30 33.75 30C33.4928 30 33.2859 29.9333 33.1293 29.7999C32.9728 29.6665 32.8945 29.4495 32.8945 29.1498V27.4386H33.5332V29.0591C33.5332 29.18 33.5539 29.2681 33.5953 29.3232C33.6367 29.3784 33.7033 29.4068 33.7941 29.4068C33.8706 29.4068 33.9327 29.3864 33.9812 29.3472C34.0298 29.3072 34.0586 29.2618 34.0685 29.212C34.0784 29.1613 34.0829 29.0626 34.0829 28.9159V27.4395H34.5759L34.575 27.4386Z" fill="white"/>
<path d="M36.3446 29.3428V29.9609H34.9106V27.4386H35.5386V29.3428H36.3446Z" fill="white"/>
<path d="M37.2605 28.0434V29.9609H36.6658V28.0434H36.2412V27.4386H37.6842V28.0434H37.2605Z" fill="white"/>
<path d="M39.2583 27.4386H38.6304V29.9609H39.2583V27.4386Z" fill="white"/>
<path d="M41.364 29.9609H40.8531L40.2926 28.8465C40.2207 28.7042 40.1487 28.5299 40.0749 28.3253C40.1082 28.4881 40.1244 28.6259 40.1244 28.7389V29.9609H39.6152V27.4386H40.209L40.6849 28.3627C40.7802 28.5459 40.8522 28.7078 40.9008 28.8465C40.8693 28.6313 40.8531 28.4107 40.8531 28.1857V27.4386H41.364V29.9609Z" fill="white"/>
<path d="M42.5617 28.0434V29.9609H41.9671V28.0434H41.5425V27.4386H42.9863V28.0434H42.5617Z" fill="white"/>
<path d="M44.7033 29.3588V29.9609H43.1641V27.4386H44.7033V28.0211H43.7803V28.3867H44.5269V28.947H43.7803V29.3588H44.7033Z" fill="white"/>
<path d="M46.7733 29.9609H46.0762L45.7775 28.9968H45.5796V29.9609H44.9517V27.4386H46.0204C46.2561 27.4386 46.4387 27.5071 46.5691 27.6432C46.6996 27.7792 46.7652 27.9589 46.7652 28.1821C46.7652 28.3271 46.741 28.4561 46.6933 28.5672C46.6456 28.6784 46.5484 28.7762 46.4027 28.8616L46.7724 29.9609H46.7733ZM45.5805 28.4569H45.8495C45.9286 28.4569 45.9916 28.4365 46.0402 28.3965C46.0878 28.3556 46.1121 28.2951 46.1121 28.2168C46.1121 28.0558 46.0321 27.9749 45.871 27.9749H45.5814V28.4569H45.5805Z" fill="white"/>
<path d="M48.8201 29.9609H48.3091L47.7487 28.8465C47.6767 28.7042 47.6047 28.5299 47.531 28.3253C47.5643 28.4881 47.5805 28.6259 47.5805 28.7389V29.9609H47.0713V27.4386H47.665L48.1409 28.3627C48.2363 28.5459 48.3082 28.7078 48.3568 28.8465C48.3253 28.6313 48.3091 28.4107 48.3091 28.1857V27.4386H48.8201V29.9609Z" fill="white"/>
<path d="M50.3051 29.9609L50.1891 29.4637H49.6403L49.518 29.9609H49.0088L49.6412 27.4386H50.3051L50.9447 29.9609H50.3051ZM49.7474 28.9132H50.0802L49.9138 28.1812L49.7474 28.9132Z" fill="white"/>
<path d="M51.8571 28.0434V29.9609H51.2625V28.0434H50.8379V27.4386H52.2817V28.0434H51.8571Z" fill="white"/>
<path d="M53.0879 27.4386H52.46V29.9609H53.0879V27.4386Z" fill="white"/>
<path d="M54.3291 30C54.0412 30 53.8064 29.8817 53.6256 29.6469C53.4439 29.4112 53.353 29.0973 53.353 28.7024C53.353 28.3075 53.4394 28.014 53.613 27.7685C53.7866 27.5221 54.0268 27.3994 54.3345 27.3994C54.6197 27.3994 54.8508 27.5159 55.0308 27.7472C55.2098 27.9784 55.2997 28.2888 55.2997 28.6748C55.2997 29.0608 55.2089 29.3961 55.0281 29.6371C54.8473 29.879 54.6143 30 54.3282 30H54.3291ZM54.3255 29.4272C54.4316 29.4272 54.5072 29.3703 54.554 29.2565C54.6008 29.1426 54.6233 28.9345 54.6233 28.6312C54.6233 28.1919 54.5279 27.9731 54.3372 27.9731C54.1312 27.9731 54.0277 28.223 54.0277 28.7228C54.0277 29.1924 54.1267 29.4272 54.3246 29.4272H54.3255Z" fill="white"/>
<path d="M57.3147 29.9609H56.8038L56.2433 28.8465C56.1713 28.7042 56.0994 28.5299 56.0256 28.3253C56.0589 28.4881 56.0751 28.6259 56.0751 28.7389V29.9609H55.5659V27.4386H56.1597L56.6355 28.3627C56.7309 28.5459 56.8029 28.7078 56.8514 28.8465C56.8199 28.6313 56.8038 28.4107 56.8038 28.1857V27.4386H57.3147V29.9609Z" fill="white"/>
<path d="M58.8002 29.9609L58.6842 29.4637H58.1354L58.0131 29.9609H57.5039L58.1363 27.4386H58.8002L59.4398 29.9609H58.8002ZM58.2434 28.9132H58.5762L58.4098 28.1812L58.2434 28.9132Z" fill="white"/>
<path d="M61.0633 29.3428V29.9609H59.6294V27.4386H60.2573V29.3428H61.0633Z" fill="white"/>
</g>
<defs>
<clipPath id="clip0_3405_44215">
<rect width="62" height="30" fill="white"/>
</clipPath>
</defs>
</svg>
