<svg width="106" height="20" viewBox="0 0 106 20" fill="none" xmlns="http://www.w3.org/2000/svg">
<g clip-path="url(#clip0_3405_44223)">
<path fill-rule="evenodd" clip-rule="evenodd" d="M10.4964 0.0113384C12.426 -0.0733296 14.7084 0.309088 15.1334 1.5777C15.8304 3.6563 12.2971 6.686 9.21856 8.17334C8.46344 8.53882 8.00583 8.6376 7.81599 8.61361C7.63465 8.58962 7.60631 8.4217 7.6644 8.30457C7.77349 8.08585 8.27076 7.64134 8.93521 7.15732C12.402 4.63562 13.5283 2.78704 12.8737 2.03632C12.4544 1.55653 10.6976 1.2235 8.87287 1.2235C8.37702 1.2235 7.07645 1.33075 6.94186 0.903175C6.83278 0.553214 8.57961 0.0960064 10.495 0.0127495L10.4964 0.0113384Z" fill="white"/>
<path fill-rule="evenodd" clip-rule="evenodd" d="M6.18539 9.4843C7.78913 9.40104 9.73714 9.65081 10.8309 10.3973C11.3749 10.7684 11.7574 11.4514 11.5364 12.2346C10.9059 14.4571 8.5485 17.1468 3.31225 19.2127C1.64759 19.8702 0.337112 20.1214 0.0622654 19.945C-0.232415 19.7559 0.626125 18.2884 0.883971 17.8015C1.71984 16.2253 2.76398 14.69 3.78261 13.2845C4.15804 12.7666 4.73607 11.8705 5.26026 11.9425C5.7292 12.006 5.17951 12.9599 4.81824 13.5667C4.21046 14.5841 2.5373 17.4106 3.08982 17.5786C4.30963 17.9525 10.0361 14.0634 9.19169 11.8987C8.80068 10.894 6.31431 10.7981 4.74882 10.7981C4.0362 10.7981 2.48063 10.9476 2.39563 10.4622C2.30354 10.0135 4.75874 9.5605 6.1868 9.48571L6.18539 9.4843Z" fill="white"/>
<path fill-rule="evenodd" clip-rule="evenodd" d="M18.6852 6.85816C19.6556 7.0162 20.4462 7.13756 20.6275 7.50728C20.8315 7.92497 19.7747 7.95037 19.242 7.96025C16.689 8.00541 15.1504 8.04915 15.0725 8.83092C14.9719 9.83565 16.1634 10.8474 17.3393 12.267C18.4132 13.5625 19.6358 14.8395 19.283 16.0319C18.8439 17.5165 16.8222 17.8311 14.8968 17.8311C13.0522 17.8325 11.3054 17.5658 10.5715 17.4346C9.65776 17.2723 9.79376 16.8659 10.0374 16.7347C10.3095 16.5879 11.8636 16.5851 12.9432 16.5272C13.8315 16.4807 16.4142 16.4807 16.8165 15.8866C17.3095 15.1584 16.1025 13.9096 14.9918 12.6043C13.6076 10.9744 12.086 9.29095 12.8907 8.06185C13.932 6.47151 16.9794 6.58016 18.6823 6.85816H18.6852Z" fill="white"/>
<path d="M29.6084 9.49268C25.9943 9.49268 24.0519 11.3413 23.5787 13.5511C23.107 15.7609 24.2616 17.6095 27.8757 17.6095C31.4898 17.6095 33.4321 15.7609 33.9039 13.5511C34.3743 11.3413 33.2196 9.49268 29.6069 9.49268H29.6084ZM31.6711 13.5511C31.2872 15.3588 30.2119 16.276 28.1605 16.276C26.109 16.276 25.4262 15.3588 25.8115 13.5511C26.1969 11.7448 27.2722 10.8262 29.3222 10.8262C31.3722 10.8262 32.0565 11.7434 31.6697 13.5511H31.6711Z" fill="white"/>
<path d="M39.211 17.5503C42.7628 17.5503 44.1314 16.4426 44.6924 13.8842L45.5353 9.89774C45.592 9.63104 45.4163 9.54919 45.1939 9.54919H43.4754L43.0036 11.8423L42.733 13.0629L42.5078 14.1241C42.1933 15.5677 41.1675 16.2196 39.4278 16.2196C37.5138 16.2196 37.0024 15.5846 37.3013 14.1241C37.3013 14.1241 37.375 13.76 37.399 13.6499L37.7943 11.8423L38.2675 9.54919H36.549C36.3266 9.54919 36.1169 9.62963 36.0602 9.89774L35.2144 13.8842C34.6392 16.6938 36.1736 17.5503 39.2068 17.5503H39.211Z" fill="white"/>
<path d="M97.8776 9.9584L96.2583 17.5517H104.491L104.662 16.7403C104.733 16.4101 104.647 16.2986 104.233 16.2986H98.7645L99.2292 14.1212H104.062C104.201 14.1212 104.301 14.0394 104.324 13.9279L104.509 13.0643C104.533 12.9542 104.465 12.871 104.329 12.871H99.4955L99.9588 10.6964H105.235C105.485 10.6964 105.732 10.6964 105.796 10.3944L106 9.43628H98.5718C98.1836 9.43628 97.957 9.59997 97.879 9.9584H97.8776Z" fill="white"/>
<path d="M64.3906 16.2012C64.6343 15.6029 64.6329 14.9848 64.0393 14.3752C63.7347 14.0648 63.2898 13.7924 62.6721 13.4735C59.9251 12.0581 59.2082 11.8973 59.3825 11.2114C59.4788 10.8276 59.7707 10.8107 60.8077 10.8107H64.0294C64.4629 10.8107 64.7165 10.6484 64.7902 10.297L64.9502 9.55054H60.8715C58.5608 9.55054 57.1738 9.56465 56.8224 11.076C56.5618 12.1964 57.5251 12.7397 59.4802 13.8474C61.6209 15.0568 62.1097 15.1485 61.9142 15.7877C61.7569 16.3014 61.1931 16.3226 60.2297 16.3226H56.4201C55.9852 16.3226 55.7344 16.4848 55.6565 16.8376L55.5049 17.5503H60.3119C62.512 17.5503 63.8905 17.4261 64.3906 16.1998V16.2012Z" fill="white"/>
<path fill-rule="evenodd" clip-rule="evenodd" d="M82.0871 9.43201C79.0171 9.43201 77.266 10.1348 76.5959 13.1503L75.7345 17.1947C75.6764 17.4656 75.8493 17.5474 76.0674 17.5474H77.7293L78.211 15.2205H83.3891L82.906 17.5474H84.5693C84.786 17.5474 84.9957 17.4656 85.0538 17.1947L85.9166 13.1503C86.5513 10.0854 84.65 9.43201 82.0885 9.43201H82.0871ZM83.8977 12.9062C83.8977 12.9062 83.8212 13.2759 83.7943 13.3888C83.7575 13.5539 83.671 13.9843 83.1865 13.9843H78.4886L78.7181 12.9076C79.0497 11.3483 80.047 10.7839 81.8279 10.7839C83.7121 10.7839 84.2023 11.4274 83.8977 12.9076V12.9062Z" fill="white"/>
<path d="M65.7732 13.4199C65.1441 16.3762 66.6756 17.5475 69.5856 17.5475H74.173L74.3147 16.8603C74.4025 16.475 74.1574 16.3184 73.6134 16.3184H69.6848C68.1802 16.3184 67.7212 15.0498 68.0513 13.4792C68.4253 11.7647 69.3844 10.7853 70.8607 10.7853H74.632C75.176 10.7853 75.4792 10.6287 75.5642 10.2435L75.7215 9.552H71.0193C68.0527 9.552 66.2605 11.1508 65.7732 13.4213V13.4199Z" fill="white"/>
<path d="M82.0857 9.43201C79.0157 9.43201 77.2632 10.1348 76.5945 13.1503L75.7331 17.1932C75.675 17.4642 75.8464 17.546 76.0646 17.546H77.7279L78.2096 15.2191H83.3863L82.9046 17.546H84.5664C84.7832 17.546 84.9929 17.4642 85.051 17.1932L85.9138 13.1503C86.5484 10.084 84.6472 9.43201 82.0843 9.43201H82.0857ZM83.8977 12.9062C83.8977 12.9062 83.8212 13.2759 83.7943 13.3888C83.7561 13.5539 83.6711 13.9843 83.1851 13.9843H78.4887L78.7182 12.9076C79.0468 11.3483 80.0456 10.7839 81.8265 10.7839C83.7093 10.7839 84.2009 11.4274 83.8963 12.9076L83.8977 12.9062Z" fill="white"/>
<path d="M94.3108 16.2944H89.5321L90.9375 9.70718C90.9673 9.56889 90.8568 9.43201 90.6655 9.43201H88.76L87.0273 17.5474H94.5658L94.7287 16.7882C94.8038 16.4326 94.6692 16.2944 94.3093 16.2944H94.3108Z" fill="white"/>
<path d="M48.5459 17.5502H50.0972C50.5322 17.5502 50.7843 17.388 50.8736 16.9815L52.0141 11.5952C52.0353 11.4951 51.9588 11.4005 51.8568 11.4005H49.9825C49.9045 11.4005 49.838 11.4541 49.821 11.5303L48.5459 17.5488V17.5502Z" fill="white"/>
<path d="M47.4477 9.55054C47.0128 9.55054 46.7649 9.68459 46.7011 9.98376L46.5269 10.7909H49.2711H53.0807H55.0783C55.4863 10.7909 55.6294 10.6286 55.6988 10.3013L55.8603 9.55195H47.4463L47.4477 9.55054Z" fill="white"/>
</g>
<defs>
<clipPath id="clip0_3405_44223">
<rect width="106" height="20" fill="white"/>
</clipPath>
</defs>
</svg>
