<svg width="90" height="24" viewBox="0 0 90 24" fill="none" xmlns="http://www.w3.org/2000/svg">
<g clip-path="url(#clip0_3405_44204)">
<path d="M12.2827 23.9999L3.0708 14.9965L12.2827 5.99854L15.3533 8.99786L9.21207 14.9965L12.2827 18.0012L18.4295 11.9972L21.5001 14.9965L12.2827 23.9999Z" fill="white"/>
<path d="M9.2119 14.9966L15.3532 8.99797L12.2825 5.99865L3.07063 14.9966L0 11.9973L12.2825 0L24.5706 11.9973L21.5 14.9966L18.4293 11.9973L12.2825 18.0014L9.2119 14.9966Z" fill="white" fill-opacity="0.5"/>
<path d="M86.592 22.4815C89.0983 22.4815 90.0057 21.579 90.0057 19.5849C90.0057 17.5907 89.1039 16.6234 86.6142 16.6234C84.1245 16.6234 83.195 17.6069 83.195 19.5849C83.195 21.5628 84.1079 22.4815 86.5976 22.4815M87.5547 19.5795C87.5547 19.6984 87.5658 19.8551 87.5547 20.0118C87.5547 20.1793 87.5436 20.3523 87.4994 20.509C87.4164 20.8386 87.1896 21.1629 86.6142 21.1629C86.0388 21.1629 85.7953 20.8386 85.7123 20.509C85.6625 20.3523 85.657 20.1793 85.657 20.0118C85.6459 19.8551 85.657 19.7092 85.657 19.5795C85.657 19.4498 85.6459 19.3038 85.657 19.1471C85.657 18.9796 85.6681 18.8067 85.7123 18.6499C85.7953 18.3203 86.0332 17.996 86.6142 17.996C87.1951 17.996 87.4164 18.3203 87.4994 18.6499C87.5436 18.8067 87.5547 18.9796 87.5547 19.1471C87.5658 19.3038 87.5547 19.4606 87.5547 19.5795ZM81.6901 18.3365C81.9612 18.3365 82.2544 18.4013 82.531 18.4662V16.7531C81.9778 16.6234 81.4577 16.6126 80.8712 16.6126C79.2114 16.6126 77.9279 17.7258 77.9279 19.1525V22.395H80.3401V19.6443C80.3401 18.9742 80.6223 18.3365 81.6901 18.3365ZM76.2791 18.3365C76.5502 18.3365 76.8434 18.4013 77.1201 18.4662V16.7531C76.5668 16.6234 76.0467 16.6126 75.4603 16.6126C73.8005 16.6126 72.5224 17.7258 72.5224 19.1525V22.395H74.9347V19.6443C74.9347 18.9742 75.2168 18.3365 76.2847 18.3365M71.6649 20.0658C71.7036 19.7794 71.7202 19.5146 71.7202 19.2444C71.7202 17.5907 70.7575 16.6234 68.6883 16.6234C66.3701 16.6234 65.3632 17.7258 65.3632 19.5524C65.3632 21.552 66.7297 22.4491 69.1696 22.4491C69.911 22.4491 70.6745 22.395 71.3716 22.2383V20.8765C70.7409 20.99 70.1213 21.0224 69.5182 21.0224C68.9705 21.0224 68.0299 20.9683 67.7809 20.0658H71.6649ZM68.7049 18.0177C69.4407 18.0177 69.5735 18.4392 69.6122 19.0282H67.7367C67.8418 18.3851 67.9137 18.0177 68.7049 18.0177ZM64.7158 17.1854V15.4939H58.6465V22.395H61.2468V19.974H64.1183V18.3797H61.2468V17.1854H64.7158Z" fill="white" fill-opacity="0.5"/>
<path d="M54.2202 21.0927C53.7499 21.0927 53.4567 20.8333 53.3626 20.5144C53.3239 20.3685 53.2575 20.0983 53.2575 19.6768C53.2575 19.2066 53.3239 18.9958 53.4179 18.6716C53.5009 18.3852 53.8439 18.1852 54.3142 18.1852C54.6628 18.1852 54.873 18.3257 55.0113 18.5095L55.0279 20.6711C54.8841 20.9035 54.6406 21.0927 54.2202 21.0927ZM50.7678 19.5092C50.7678 21.1575 51.8135 22.4383 54.0874 22.4275C56.8482 22.4167 57.3738 21.3899 57.3738 19.8335V15.2507H55.0445V17.1098C54.4304 16.6882 53.8771 16.6288 53.3958 16.6288C51.4096 16.6288 50.7678 18.0285 50.7678 19.5092ZM46.9336 22.5086C48.8756 22.5086 50.126 21.9952 50.126 20.3631V16.9206H47.8078V20.3253C47.8078 20.7738 47.5644 21.0602 46.9502 21.0602C46.3361 21.0602 46.0927 20.7684 46.0927 20.3253V16.9206H43.7191V20.3631C43.7191 21.9681 45.0193 22.5086 46.9336 22.5086ZM39.5199 22.4815C42.0262 22.4815 42.9335 21.579 42.9335 19.5795C42.9335 17.5799 42.0262 16.618 39.542 16.618C37.0578 16.618 36.1228 17.6016 36.1228 19.5795C36.1228 21.5574 37.0357 22.4815 39.5254 22.4815M40.4825 19.5795C40.4825 19.6984 40.4936 19.8551 40.4825 20.0118C40.4825 20.1794 40.4715 20.3523 40.4272 20.509C40.3442 20.8387 40.1174 21.1629 39.542 21.1629C38.9666 21.1629 38.7231 20.8387 38.6346 20.509C38.5904 20.3523 38.5793 20.1794 38.5793 20.0118C38.5682 19.8551 38.5793 19.7092 38.5793 19.5795C38.5793 19.4498 38.5682 19.3039 38.5793 19.1472C38.5793 18.9796 38.5904 18.8067 38.6346 18.65C38.7176 18.3203 38.9555 17.9961 39.542 17.9961C40.1284 17.9961 40.3442 18.3203 40.4272 18.65C40.4715 18.8067 40.4825 18.9796 40.4825 19.1472C40.4936 19.3039 40.4825 19.4606 40.4825 19.5795ZM35.315 15.2886H32.6759V22.3951H35.315V15.2886ZM29.8487 22.4815C30.5071 22.4815 31.1655 22.4005 31.8018 22.2059V20.6873C31.2928 20.8279 30.7838 20.8927 30.2914 20.8927C28.5209 20.8927 28.5098 20.001 28.5098 18.931C28.5098 17.861 28.5209 17.0503 30.2416 17.0503C30.7395 17.0503 31.2762 17.1152 31.7962 17.2611V15.6939C31.2872 15.4723 30.6178 15.3642 30.0645 15.3642C27.1322 15.3642 25.7656 16.6234 25.7656 18.9256C25.7656 21.2278 26.9552 22.4815 29.8487 22.4815Z" fill="white"/>
</g>
<defs>
<clipPath id="clip0_3405_44204">
<rect width="90" height="24" fill="white"/>
</clipPath>
</defs>
</svg>
