<svg width="76" height="24" viewBox="0 0 76 24" fill="none" xmlns="http://www.w3.org/2000/svg">
<g clip-path="url(#clip0_3405_44219)">
<path d="M31.9536 20.35L30.9085 23.0574C30.6801 23.6613 30.2993 23.9755 29.7668 24L29.7243 23.7051C29.9277 23.6419 30.0875 23.5552 30.2038 23.444C30.32 23.3338 30.4134 23.1941 30.485 23.0247L30.5276 22.9146H30.4259C30.3397 22.9146 30.2868 22.8758 30.265 22.7983L29.3164 20.349H29.8042L30.4954 22.2617C30.5452 22.4055 30.5774 22.5096 30.5919 22.5728H30.6667C30.6957 22.5024 30.7331 22.3984 30.7787 22.2617L31.4596 20.349H31.9526L31.9536 20.35Z" fill="white"/>
<path d="M33.5456 20.2869C33.996 20.2869 34.3126 20.3889 34.4973 20.5929C34.682 20.7969 34.7734 21.1448 34.7734 21.6354C34.7734 22.1261 34.681 22.475 34.4973 22.679C34.3136 22.883 33.996 22.985 33.5456 22.985C33.0952 22.985 32.7828 22.883 32.597 22.679C32.4112 22.475 32.3188 22.1282 32.3188 21.6354C32.3188 21.1427 32.4112 20.7959 32.597 20.5929C32.7828 20.3899 33.0993 20.2869 33.5456 20.2869ZM34.1382 20.8714C34.0292 20.7347 33.832 20.6663 33.5456 20.6663C33.2591 20.6663 33.063 20.7347 32.9561 20.8714C32.8492 21.0081 32.7952 21.2631 32.7952 21.6354C32.7952 22.0078 32.8492 22.2628 32.9561 22.3995C33.063 22.5362 33.2602 22.6045 33.5456 22.6045C33.831 22.6045 34.0292 22.5362 34.1382 22.3995C34.2472 22.2628 34.3022 22.0078 34.3022 21.6354C34.3022 21.2631 34.2472 21.0081 34.1382 20.8714Z" fill="white"/>
<path d="M37.7052 20.3501V22.9157H37.3409L37.3087 22.5464C36.9154 22.8381 36.5407 22.984 36.1837 22.984C35.7084 22.984 35.4707 22.7484 35.4707 22.2781V20.3501H35.9263V22.1516C35.9232 22.3128 35.9533 22.427 36.0177 22.4944C36.082 22.5607 36.1889 22.5943 36.3394 22.5943C36.4712 22.5943 36.6051 22.5658 36.741 22.5076C36.877 22.4495 37.0462 22.3556 37.2506 22.2261V20.3511H37.7062L37.7052 20.3501Z" fill="white"/>
<path d="M40.1752 20.2869L40.1212 20.7082H39.9708C39.8389 20.7082 39.7019 20.7337 39.5608 20.7847C39.4197 20.8357 39.2308 20.9193 38.9952 21.0346V22.9157H38.5396V20.3501H38.8935L38.9412 20.7561C39.3449 20.444 39.7165 20.2869 40.0559 20.2869H40.1742H40.1752Z" fill="white"/>
<path d="M44.0029 19.2279V22.9156H43.649L43.6064 22.5463C43.2743 22.834 42.9287 22.9789 42.5717 22.9789C42.25 22.9789 42.0175 22.8677 41.8722 22.6443C41.7269 22.4209 41.6553 22.0812 41.6553 21.6252C41.6553 21.1366 41.7342 20.7918 41.8909 20.5898C42.0476 20.3878 42.2977 20.2868 42.6412 20.2868C42.9848 20.2868 43.2899 20.3664 43.568 20.5235C43.5535 20.3694 43.5462 20.2001 43.5462 20.0175V19.2269H44.0019L44.0029 19.2279ZM43.5473 22.2352V20.8183C43.2038 20.7234 42.9381 20.6765 42.7481 20.6765C42.5157 20.6765 42.3538 20.7418 42.2603 20.8713C42.1669 21.0009 42.1213 21.2508 42.1213 21.6191C42.1213 21.9873 42.1669 22.2413 42.2583 22.3801C42.3496 22.5188 42.5042 22.5882 42.7222 22.5882C42.8581 22.5882 42.9817 22.5627 43.0917 22.5117C43.2027 22.4607 43.3542 22.3689 43.5473 22.2352Z" fill="white"/>
<path d="M44.9838 19.2595H45.1986C45.291 19.2595 45.3377 19.3054 45.3377 19.3962V19.6961C45.3377 19.7879 45.291 19.8328 45.1986 19.8328H44.9838C44.8904 19.8328 44.8447 19.7869 44.8447 19.6961V19.3962C44.8447 19.3054 44.8914 19.2595 44.9838 19.2595ZM45.3159 22.9156H44.8655V20.35H45.3159V22.9156Z" fill="white"/>
<path d="M48.6006 20.5969L48.2145 20.6285C48.2861 20.7448 48.3214 20.9029 48.3214 21.1029C48.3214 21.3905 48.2373 21.5986 48.0692 21.7272C47.901 21.8557 47.6115 21.919 47.2005 21.919C47.0002 21.919 46.8196 21.9016 46.6587 21.8659C46.5913 21.9465 46.5716 22.0352 46.5996 22.1322C46.6286 22.2291 46.7086 22.2872 46.8404 22.3086L47.8159 22.4616C48.0588 22.4963 48.229 22.5718 48.3276 22.6861C48.4262 22.8003 48.475 22.9666 48.475 23.1839C48.475 23.4828 48.3847 23.6899 48.2041 23.8051C48.0235 23.9214 47.6997 23.9785 47.2316 23.9785C46.7636 23.9785 46.4325 23.9214 46.2477 23.8072C46.064 23.6929 45.9717 23.4899 45.9717 23.1992C45.9717 23.0482 46.0039 22.9268 46.0682 22.836C46.1325 22.7442 46.2415 22.6585 46.3951 22.5779C46.2633 22.4759 46.2021 22.3413 46.2125 22.1719C46.2228 22.0036 46.2913 21.872 46.4159 21.7772C46.1948 21.6609 46.0838 21.4385 46.0838 21.108C46.0838 20.8132 46.1668 20.602 46.3329 20.4755C46.4989 20.349 46.7895 20.2858 47.2036 20.2858C47.4506 20.2858 47.652 20.3072 47.8097 20.349H48.6244L48.5974 20.5969H48.6006ZM47.5824 22.7942L46.693 22.6728C46.5103 22.8095 46.42 22.9727 46.42 23.1625C46.42 23.342 46.474 23.4593 46.5809 23.5154C46.6878 23.5715 46.9047 23.6001 47.2296 23.6001C47.5544 23.6001 47.7609 23.5715 47.8699 23.5134C47.9789 23.4552 48.0339 23.3389 48.0339 23.1635C48.0339 23.037 48.0059 22.9513 47.9509 22.9054C47.8959 22.8595 47.7734 22.8228 47.5835 22.7952L47.5824 22.7942ZM46.6608 21.4691C46.7646 21.5415 46.9452 21.5772 47.2026 21.5772C47.46 21.5772 47.6405 21.5415 47.7443 21.4691C47.8481 21.3967 47.9 21.2753 47.9 21.1029C47.9 20.9305 47.8492 20.8091 47.7474 20.7367C47.6457 20.6642 47.4641 20.6285 47.2036 20.6285C46.9431 20.6285 46.7656 20.6642 46.6619 20.7367C46.5581 20.8091 46.5062 20.9305 46.5062 21.1029C46.5062 21.2753 46.5581 21.3967 46.6619 21.4691H46.6608Z" fill="white"/>
<path d="M49.3031 19.2595H49.518C49.6103 19.2595 49.657 19.3054 49.657 19.3962V19.6961C49.657 19.7879 49.6103 19.8328 49.518 19.8328H49.3031C49.2097 19.8328 49.1641 19.7869 49.1641 19.6961V19.3962C49.1641 19.3054 49.2108 19.2595 49.3031 19.2595ZM49.6352 22.9156H49.1848V20.35H49.6352V22.9156Z" fill="white"/>
<path d="M51.1465 20.703V22.2097C51.1465 22.3331 51.1735 22.4209 51.2274 22.4729C51.2814 22.5249 51.3717 22.5515 51.5004 22.5515H51.8968L51.9508 22.8942C51.7868 22.9401 51.5896 22.9626 51.3613 22.9626C51.133 22.9626 50.9773 22.9034 50.8631 22.783C50.749 22.6637 50.6919 22.4913 50.6919 22.2668V20.702H50.2207V20.3756L50.6919 20.3541V19.5901H51.1475V20.349H51.9778V20.702H51.1475L51.1465 20.703Z" fill="white"/>
<path d="M52.5509 20.7347L52.5084 20.4032C52.9868 20.3256 53.4072 20.2869 53.7683 20.2869C54.0724 20.2869 54.2966 20.3491 54.444 20.4735C54.5903 20.598 54.664 20.8102 54.664 21.108V22.9147H54.3049L54.2509 22.4934C54.1254 22.6168 53.9697 22.7249 53.7818 22.8198C53.594 22.9147 53.3916 22.9616 53.1737 22.9616C52.9339 22.9616 52.744 22.8994 52.6028 22.7749C52.4617 22.6504 52.3911 22.474 52.3911 22.2455V21.966C52.3911 21.766 52.4544 21.6099 52.581 21.4998C52.7077 21.3896 52.8862 21.3335 53.1145 21.3335H54.2022V21.107C54.2022 20.9459 54.1648 20.8316 54.0901 20.7643C54.0154 20.698 53.8752 20.6643 53.6718 20.6643C53.4144 20.6643 53.0408 20.6867 52.552 20.7327L52.5509 20.7347ZM52.8571 22.0302V22.1934C52.8571 22.3271 52.8893 22.424 52.9536 22.4862C53.018 22.5474 53.1218 22.578 53.265 22.578C53.4009 22.5821 53.5556 22.5505 53.7289 22.4832C53.9022 22.4158 54.06 22.3199 54.2032 22.1934V21.6773H53.1955C53.074 21.6803 52.9868 21.712 52.936 21.7721C52.8841 21.8323 52.8581 21.918 52.8581 22.0302H52.8571Z" fill="white"/>
<path d="M55.9385 19.2279V22.2097C55.9343 22.3219 55.9634 22.4076 56.0246 22.4647C56.0848 22.5229 56.1751 22.5515 56.2924 22.5515H56.5446L56.5985 22.8942C56.502 22.9401 56.3432 22.9626 56.1211 22.9626C55.925 22.9626 55.7693 22.9054 55.6551 22.7912C55.541 22.6769 55.4839 22.5168 55.4839 22.3087V19.2269H55.9395L55.9385 19.2279Z" fill="white"/>
<path d="M58.506 20.3501L58.5434 20.7612C58.6825 20.6133 58.8506 20.498 59.0467 20.4134C59.2429 20.3287 59.4359 20.2869 59.6259 20.2869C59.9372 20.2869 60.1635 20.3991 60.3067 20.6245C60.4499 20.8489 60.5215 21.1897 60.5215 21.6467C60.5215 22.1312 60.4427 22.475 60.2859 22.677C60.1282 22.879 59.8781 22.9799 59.5356 22.9799C59.1931 22.9799 58.8713 22.8922 58.5704 22.7168C58.5807 22.8361 58.587 23.0085 58.587 23.2329V23.9756H58.1313V20.3511H58.5071L58.506 20.3501ZM58.5859 21.0713V22.4301C58.9502 22.5352 59.2294 22.5882 59.4224 22.5882C59.658 22.5882 59.8231 22.5229 59.9154 22.3934C60.0078 22.2638 60.0545 22.0139 60.0545 21.6456C60.0545 21.2774 60.0109 21.0366 59.9227 20.8928C59.8355 20.749 59.6861 20.6765 59.4754 20.6765C59.3394 20.6765 59.2045 20.7071 59.0706 20.7684C58.9367 20.8296 58.7748 20.9306 58.5859 21.0713Z" fill="white"/>
<path d="M61.255 20.7347L61.2125 20.4032C61.6909 20.3256 62.1113 20.2869 62.4724 20.2869C62.7765 20.2869 63.0007 20.3491 63.1481 20.4735C63.2944 20.598 63.3681 20.8102 63.3681 21.108V22.9147H63.009L62.9551 22.4934C62.8295 22.6168 62.6738 22.7249 62.4859 22.8198C62.2981 22.9147 62.0957 22.9616 61.8778 22.9616C61.638 22.9616 61.4481 22.8994 61.3069 22.7749C61.1658 22.6504 61.0952 22.474 61.0952 22.2455V21.966C61.0952 21.766 61.1585 21.6099 61.2851 21.4998C61.4118 21.3896 61.5903 21.3335 61.8186 21.3335H62.9063V21.107C62.9063 20.9459 62.8689 20.8316 62.7942 20.7643C62.7195 20.698 62.5793 20.6643 62.3759 20.6643C62.1185 20.6643 61.7449 20.6867 61.2561 20.7327L61.255 20.7347ZM61.5602 22.0302V22.1934C61.5602 22.3271 61.5924 22.424 61.6567 22.4862C61.721 22.5474 61.8248 22.578 61.9681 22.578C62.104 22.5821 62.2586 22.5505 62.432 22.4832C62.6053 22.4158 62.763 22.3199 62.9063 22.1934V21.6773H61.8985C61.7771 21.6803 61.6899 21.712 61.639 21.7721C61.5872 21.8323 61.5612 21.918 61.5612 22.0302H61.5602Z" fill="white"/>
<path d="M65.8168 20.2869L65.7628 20.7082H65.6124C65.4805 20.7082 65.3435 20.7337 65.2024 20.7847C65.0612 20.8357 64.8724 20.9193 64.6368 21.0346V22.9157H64.1812V20.3501H64.5351L64.5828 20.7561C64.9865 20.444 65.3581 20.2869 65.6975 20.2869H65.8158H65.8168Z" fill="white"/>
<path d="M66.9844 20.703V22.2097C66.9844 22.3331 67.0113 22.4209 67.0653 22.4729C67.1193 22.5249 67.2096 22.5515 67.3383 22.5515H67.7347L67.7887 22.8942C67.6247 22.9401 67.4275 22.9626 67.1992 22.9626C66.9709 22.9626 66.8152 22.9034 66.701 22.783C66.5869 22.6637 66.5298 22.4913 66.5298 22.2668V20.702H66.0586V20.3756L66.5298 20.3541V19.5901H66.9854V20.349H67.8157V20.702H66.9854L66.9844 20.703Z" fill="white"/>
<path d="M68.7591 20.3501L68.7913 20.7561C69.2127 20.444 69.6019 20.2869 69.9599 20.2869C70.4311 20.2869 70.6677 20.5225 70.6677 20.9928V22.9157H70.2121V21.1193C70.2121 20.951 70.1831 20.8326 70.126 20.7663C70.0689 20.7 69.9724 20.6663 69.8364 20.6663C69.6932 20.6663 69.55 20.698 69.4047 20.7612C69.2604 20.8245 69.0674 20.9285 68.8287 21.0723V22.9167H68.373V20.3511H68.7591V20.3501Z" fill="white"/>
<path d="M73.0578 21.8506H71.8414C71.8663 22.1455 71.94 22.3444 72.0615 22.4454C72.1829 22.5474 72.3853 22.5984 72.6676 22.5984C72.9644 22.5984 73.2664 22.577 73.5736 22.5351L73.6213 22.8351C73.3889 22.9299 73.0516 22.9768 72.6084 22.9768C72.1652 22.9768 71.8373 22.8738 71.6463 22.6688C71.4553 22.4637 71.3599 22.1149 71.3599 21.6232C71.3599 21.1315 71.4522 20.7816 71.639 20.5827C71.8248 20.3848 72.132 20.2848 72.5607 20.2848C72.9499 20.2848 73.2342 20.3542 73.4127 20.4929C73.5912 20.6316 73.6805 20.8418 73.6805 21.1223C73.6878 21.6068 73.4802 21.8496 73.0588 21.8496L73.0578 21.8506ZM71.8352 21.5038H72.9395C73.1284 21.5038 73.2239 21.3773 73.2239 21.1243C73.2197 20.9591 73.1699 20.8418 73.0734 20.7714C72.9768 20.701 72.8129 20.6663 72.5804 20.6663C72.3053 20.6663 72.1144 20.7255 72.0064 20.8428C71.8995 20.9601 71.8425 21.1804 71.8352 21.5038Z" fill="white"/>
<path d="M75.9999 20.2869L75.9459 20.7082H75.7955C75.6636 20.7082 75.5267 20.7337 75.3855 20.7847C75.2444 20.8357 75.0555 20.9193 74.8199 21.0346V22.9157H74.3643V20.3501H74.7182L74.7659 20.7561C75.1696 20.444 75.5412 20.2869 75.8806 20.2869H75.9989H75.9999Z" fill="white"/>
<path d="M37.4968 15.2709L37.6971 16.8776C36.6862 17.1734 35.3962 17.3224 33.8259 17.3224C31.9391 17.3224 30.6127 16.8664 29.8457 15.9554C29.0788 15.0434 28.6958 13.4653 28.6958 11.2211C28.6958 8.97689 29.0788 7.39879 29.8457 6.48681C30.6127 5.57484 31.9391 5.11987 33.8259 5.11987C35.226 5.11987 36.4309 5.24535 37.4418 5.49629L37.2228 7.1203C36.1642 7.04073 35.0319 7.00095 33.827 7.00095C32.7798 7.00095 32.0647 7.29984 31.6817 7.89864C31.2987 8.49642 31.1067 9.60527 31.1067 11.2232C31.1067 12.841 31.2987 13.9499 31.6817 14.5477C32.0647 15.1455 32.7798 15.4454 33.827 15.4454C35.3723 15.4454 36.596 15.3882 37.4968 15.274V15.2709Z" fill="white"/>
<path d="M43.6615 12.4514L41.124 11.6996C40.2107 11.4262 39.5599 11.0131 39.1707 10.4602C38.7805 9.90727 38.5864 9.18095 38.5864 8.28122C38.5864 6.99385 38.9061 6.14512 39.5454 5.73402C40.1847 5.32394 41.3077 5.1189 42.9143 5.1189C44.4596 5.1189 45.7808 5.25049 46.8768 5.51164L46.7305 7.03261C45.3429 6.98671 44.0943 6.96427 42.9869 6.96427C42.1473 6.96427 41.5869 7.04077 41.3066 7.19481C41.0264 7.34884 40.8863 7.7222 40.8863 8.31488C40.8863 8.80453 40.987 9.14933 41.1873 9.34927C41.3876 9.54921 41.756 9.72875 42.2916 9.88789L44.7201 10.5887C45.6812 10.8733 46.3548 11.2926 46.7377 11.8455C47.1217 12.3984 47.3127 13.1247 47.3127 14.0244C47.3127 15.323 46.9837 16.1983 46.3267 16.6481C45.6698 17.098 44.5063 17.3234 42.8396 17.3234C41.4519 17.3234 40.0924 17.1296 38.7535 16.8787L38.9559 15.2751C41.0731 15.3669 42.359 15.4424 42.8946 15.4424C43.7342 15.4424 44.2946 15.3516 44.5748 15.169C44.8551 14.9864 44.9952 14.5997 44.9952 14.0071C44.9952 13.5062 44.9007 13.1583 44.7118 12.9645C44.523 12.7707 44.1732 12.6003 43.6615 12.4514Z" fill="white"/>
<path d="M50.9087 17.1174H48.6265V5.32397H50.9087V17.1174Z" fill="white"/>
<path d="M21.8291 10.6458C21.8291 10.6458 20.8805 11.7159 21.2832 13.294C21.3911 13.7194 21.8021 14.868 23.5665 15.7086C24.5638 16.1809 25.1917 14.92 25.3952 14.0346C25.6764 12.7982 25.1492 12.0433 24.2981 10.5275C23.9775 9.95517 23.609 9.76135 23.2561 9.76135C22.5068 9.76135 21.8291 10.6458 21.8291 10.6458Z" fill="white"/>
<path d="M0.951574 10.9243C0.693149 10.7917 0.434723 10.6775 0.176297 10.5775C0.00401335 11.0896 -0.117416 11.7068 0.186676 12.4759C0.931855 14.3448 5.16215 17.6183 7.47345 19.0209C8.80087 19.8248 10.0878 20.3338 11.821 19.5646C13.4588 18.8393 12.9886 17.9457 12.479 17.3939C9.81589 16.5064 7.31051 15.0884 5.06044 13.4899C3.71746 12.5351 2.40768 11.6741 0.951574 10.9243Z" fill="white"/>
<path d="M11.3456 7.46104C14.6729 5.2515 18.156 3.39389 18.3231 3.28372C18.4694 3.18681 20.5513 1.84129 18.2442 0.517193C17.6235 0.158116 16.8981 0 16.1083 0H16.1062C13.2095 0 9.40166 2.13508 6.24658 4.48336C6.57039 4.64352 6.88901 4.81693 7.20452 5.00361L11.3456 7.46002V7.46104Z" fill="white"/>
<path d="M16.6647 18.3384L16.2475 18.2466C16.1915 18.2405 16.1365 18.2323 16.0804 18.2252C16.0669 18.3823 15.9507 18.569 15.6196 18.7648C14.3887 19.4912 11.9996 20.9264 11.8699 21.0346C11.5575 21.2957 11.5419 21.4712 11.6727 21.7374C11.9612 22.3301 13.9051 22.7106 15.356 22.2036C16.6201 21.7629 21.1306 19.6034 22.0823 17.9467C22.1674 17.7998 22.209 17.6682 22.2297 17.5305C21.1036 17.9263 19.9412 18.1926 18.837 18.3374H16.6627L16.6647 18.3384Z" fill="white"/>
<path d="M19.9259 9.16672L22.1759 8.0293C22.6139 7.80794 23.0643 7.64268 23.5137 7.53659C23.9673 6.89086 23.8676 6.31451 23.7421 5.68918C23.6414 5.18729 22.8516 3.70508 21.2709 3.70508C20.7468 3.70508 20.1345 3.86931 19.4308 4.28552C18.4231 4.88432 15.3531 6.56953 12.9131 8.32819C13.9613 8.85253 15.0459 9.27383 16.1958 9.57272C17.4942 9.91037 18.7489 9.76042 19.9259 9.1657V9.16672Z" fill="white"/>
<path d="M6.27891 4.8435C6.53838 4.97611 6.79473 5.1179 7.04381 5.26582L10.7697 7.47639C8.95346 8.70357 7.5451 9.80426 6.58093 10.7509C6.1606 11.163 5.97482 11.5099 5.97794 11.8741C5.98105 12.228 6.16579 12.5667 6.5581 12.9401C7.05315 13.4103 9.28558 15.1823 10.7624 16.3554C10.8112 16.3941 10.86 16.4329 10.9077 16.4706C9.05414 15.6831 7.1559 14.6018 5.2421 13.242C4.09527 12.427 2.70662 11.4823 1.09483 10.653C0.922548 10.5642 0.748188 10.4826 0.566564 10.4051C0.574867 10.3816 0.584208 10.3582 0.59251 10.3347L0.5977 10.3215C0.859239 9.62371 3.02524 7.28665 6.27891 4.8435ZM6.24674 4.4834C3.11969 6.81128 0.631949 9.34624 0.306063 10.2164C0.263511 10.3306 0.217845 10.451 0.175293 10.5775C0.434757 10.6775 0.693182 10.7917 0.95057 10.9243C2.40668 11.6741 3.71645 12.5351 5.05943 13.4899C7.3095 15.0884 9.81488 16.5064 12.478 17.3938C12.3203 17.2235 12.1594 17.0848 12.0556 16.995C11.793 16.7675 7.46207 13.3736 6.77397 12.7197C6.08587 12.0658 6.1606 11.5956 6.79992 10.9672C7.95609 9.83181 9.63014 8.59952 11.3447 7.46108L7.20364 5.00467C6.88813 4.81799 6.56951 4.64457 6.2457 4.48442L6.24674 4.4834Z" fill="white"/>
<path d="M21.9726 8.47606C21.6166 8.74027 21.1931 9.05038 20.777 9.35743C19.0489 10.6285 17.9031 11.4752 17.7257 11.6618C17.5388 11.8587 17.3634 12.0444 17.3769 12.3106C17.3904 12.5738 17.5918 12.7799 17.8077 12.9645C17.9602 13.0951 18.1377 13.244 18.3318 13.4072C19.326 14.2417 20.8278 15.5036 21.6674 16.5573C21.9061 16.8572 21.9362 17.2184 21.9383 17.2561C21.9383 17.2745 21.9383 17.2918 21.9383 17.3091C20.944 17.6448 19.8699 17.8937 18.8185 18.0334H16.7003L16.3536 17.9569C16.2581 17.6917 16.0267 17.5325 15.9935 17.5101L15.9873 17.506L15.981 17.5019C12.4772 15.4352 10.2209 13.4134 9.94383 12.0933C9.8608 11.6965 10.1462 10.7295 12.9443 8.6862C14.0008 9.20135 15.0407 9.58899 16.117 9.8685C16.5954 9.99295 17.077 10.0562 17.5492 10.0562C18.4106 10.0562 19.2575 9.8481 20.0691 9.43802L21.9736 8.47504M23.5138 7.53654C23.0644 7.64365 22.614 7.80789 22.176 8.02925L19.9259 9.16667C19.1631 9.55227 18.3671 9.75119 17.5482 9.75119C17.104 9.75119 16.6525 9.69304 16.1959 9.57369C15.0449 9.2748 13.9614 8.8535 12.9131 8.32916C10.9744 9.72671 9.43217 11.1712 9.6387 12.1556C10.0621 14.1784 14.1139 16.7583 15.8202 17.7641C15.8202 17.7641 16.1056 17.9508 16.0817 18.2252C16.1377 18.2323 16.1927 18.2405 16.2488 18.2466L16.666 18.3384H18.8403C19.9446 18.1936 21.107 17.9273 22.2331 17.5315C22.2466 17.4418 22.2507 17.3499 22.2517 17.249C22.2517 17.249 22.2362 16.7726 21.9144 16.3676C20.8932 15.0843 18.9628 13.5439 18.0142 12.7319C17.5326 12.3198 17.652 12.1903 17.955 11.8689C18.2591 11.5486 22.7551 8.31794 23.0768 8.02313C23.2616 7.85482 23.4048 7.69364 23.5148 7.53552L23.5138 7.53654Z" fill="white"/>
</g>
<defs>
<clipPath id="clip0_3405_44219">
<rect width="76" height="24" fill="white"/>
</clipPath>
</defs>
</svg>
