<svg width="88" height="20" viewBox="0 0 88 20" fill="none" xmlns="http://www.w3.org/2000/svg">
<g clip-path="url(#clip0_3405_44210)">
<path d="M2.21386 13.4336C0.792738 12.0269 -0.00389988 10.1215 -0.000386594 8.13647V7.86464C-0.0223447 3.54312 3.51466 0.0215043 7.90012 -0.000137868C8.90932 -0.005332 9.9106 0.179925 10.8504 0.54438C10.702 0.604113 10.5667 0.694144 10.4543 0.806684C10.3383 0.919223 10.2452 1.05167 10.1802 1.19884C10.1082 1.34514 10.0713 1.50616 10.0713 1.66804V3.82101C9.42401 3.4808 8.6994 3.30593 7.966 3.31285C7.3582 3.30939 6.75567 3.43405 6.20057 3.67817C5.6525 3.9171 5.15361 4.25126 4.72674 4.66506C4.30339 5.07886 3.96348 5.56884 3.72458 6.10729C3.22042 7.22403 3.22042 8.49919 3.72458 9.61679C3.96875 10.1561 4.31305 10.6452 4.73992 11.059C5.16239 11.4737 5.66128 11.8053 6.20935 12.0364C6.76006 12.2719 7.35293 12.3939 7.95282 12.3939C8.5536 12.3939 9.14822 12.2701 9.69629 12.0277C10.2426 11.7888 10.7397 11.4547 11.1657 11.0417C11.5917 10.6288 11.9343 10.1397 12.1723 9.59948C12.42 9.05063 12.5456 8.45591 12.5429 7.85512V1.70354C12.5429 1.61957 12.535 1.53646 12.521 1.45335C14.6281 2.92416 15.8797 5.31173 15.8779 7.85685C15.8779 7.89148 15.8823 7.95987 15.8823 8.00402V8.13733C15.8893 10.1224 15.0936 12.0277 13.6716 13.4336L7.94316 19.9999L2.21386 13.4336ZM7.1149 9.7856C6.86019 9.67826 6.62831 9.52503 6.42981 9.33371C6.23043 9.14673 6.07146 8.92078 5.96342 8.6706C5.851 8.41349 5.79303 8.13647 5.79391 7.85598C5.7983 7.58243 5.8589 7.3132 5.97308 7.06388C6.08287 6.81196 6.24097 6.58429 6.43947 6.39211C6.63446 6.19559 6.86722 6.0389 7.12369 5.93156C7.38279 5.81729 7.66385 5.75929 7.94755 5.75929C8.22247 5.75929 8.49387 5.81469 8.74507 5.9229C8.99276 6.02332 9.21936 6.16962 9.41259 6.35315C9.60934 6.54187 9.76656 6.76695 9.87459 7.01627C9.99141 7.28117 10.0494 7.56771 10.045 7.85598C10.0485 8.133 9.99053 8.40829 9.87459 8.66107C9.76217 8.90866 9.60583 9.13461 9.41259 9.32852C9.21761 9.5207 8.98924 9.6748 8.73717 9.78474C8.48684 9.89641 8.21456 9.95441 7.93877 9.95355H7.92472C7.64541 9.95355 7.36962 9.89641 7.1149 9.7856Z" fill="white"/>
<path d="M31.9331 15.0517C31.8154 14.9054 31.7522 14.7228 31.754 14.5358C31.761 14.0709 32.1413 13.696 32.613 13.6891C32.8158 13.6943 33.0117 13.7644 33.1707 13.89C33.587 14.2267 34.1043 14.418 34.6428 14.4336C35.5896 14.4336 36.0894 13.9938 36.0894 13.161V12.7083C35.5843 12.9498 35.0275 13.071 34.4662 13.0606C33.991 13.0641 33.5194 12.9706 33.082 12.7879C32.6639 12.6157 32.2845 12.3629 31.9656 12.0452C31.6494 11.7283 31.3982 11.3552 31.2243 10.9449C31.0443 10.5198 30.9529 10.0628 30.9564 9.60134C30.9538 9.1382 31.0504 8.68025 31.2401 8.25692C31.6046 7.42933 32.2766 6.77054 33.118 6.4156C33.544 6.23468 34.0033 6.14291 34.4662 6.14464C34.9361 6.14032 35.4016 6.23641 35.8311 6.42426C36.2466 6.60346 36.6251 6.85711 36.9475 7.17222C37.2672 7.48992 37.5254 7.86304 37.709 8.27251C37.8978 8.6915 37.9944 9.14512 37.9927 9.60307L37.9839 11.5154V12.8373C37.9848 12.8511 37.9848 12.8641 37.9839 12.878C37.9479 14.992 36.8228 16.0698 34.6401 16.0698C33.4456 16.0698 32.4847 15.7088 31.934 15.0526L31.9331 15.0517ZM33.3349 8.47248C33.1883 8.61878 33.0706 8.79105 32.9871 8.97977C32.8993 9.17629 32.8554 9.38838 32.8563 9.60307C32.8545 10.2437 33.2357 10.8254 33.8286 11.0895C34.0288 11.1769 34.2466 11.221 34.4662 11.2184C34.6788 11.2184 34.8887 11.1778 35.0846 11.0972C35.2787 11.0185 35.4552 10.9042 35.6054 10.7614C35.76 10.6185 35.883 10.4454 35.9681 10.2541C36.0577 10.0489 36.1034 9.82728 36.1008 9.60394C36.1025 9.39271 36.0604 9.18321 35.9769 8.98843C35.6195 8.17209 34.6586 7.79551 33.8294 8.14785C33.6459 8.22576 33.4781 8.33657 33.3349 8.47421V8.47248ZM43.9108 12.8156C43.476 12.6555 43.0773 12.4122 42.7374 12.1014C42.3948 11.7881 42.1208 11.4089 41.932 10.9873C41.7291 10.5294 41.6228 10.0359 41.6202 9.53641V4.8288C41.6166 4.58035 41.7256 4.34401 41.9188 4.18386C42.1067 4.01765 42.3509 3.92675 42.6039 3.92848C42.8603 3.92242 43.108 4.02284 43.2855 4.2055C43.4699 4.39163 43.5779 4.63921 43.5894 4.89892V6.13166H46.0899C46.349 6.123 46.5985 6.22688 46.7724 6.41647C46.9428 6.6 47.0359 6.83979 47.0333 7.08911C47.0333 7.34016 46.9279 7.57996 46.7416 7.75309C46.5756 7.93748 46.3394 8.04483 46.0899 8.04916H43.5894V9.52429C43.5894 9.73725 43.6306 9.94848 43.7123 10.1459C43.7931 10.3406 43.9082 10.5198 44.054 10.6739C44.1998 10.8246 44.3755 10.9449 44.5704 11.0263C44.7733 11.1137 44.9938 11.1587 45.2151 11.1561C45.4347 11.1604 45.6525 11.1267 45.8598 11.0557C46.0372 10.9899 46.198 10.8869 46.3315 10.7544C46.5177 10.59 46.7575 10.4965 47.0069 10.4904C47.2643 10.4913 47.5111 10.5908 47.6946 10.7683C47.793 10.8514 47.8703 10.9553 47.9212 11.073C48.0187 11.292 48.0293 11.5387 47.9493 11.7647C47.9125 11.879 47.8483 11.982 47.7614 12.066C47.439 12.3793 47.0605 12.6312 46.645 12.8087C46.2322 12.9827 45.7878 13.071 45.3399 13.0676H45.3109C44.8331 13.0676 44.3588 12.9819 43.9108 12.8156ZM74.696 13.0676C74.1813 13.0528 73.7676 12.6451 73.7536 12.1378V8.6586C73.7562 8.48633 73.6859 8.32012 73.5586 8.20152C73.4286 8.07773 73.2529 8.01107 73.0729 8.01713C72.906 8.01713 72.7435 8.07513 72.6153 8.18074C72.4712 8.29761 72.3922 8.47594 72.4045 8.65947V12.1291C72.4089 12.3776 72.3061 12.6165 72.1225 12.7862C71.9442 12.9637 71.7009 13.0615 71.4471 13.0589C71.2056 13.0589 70.9728 12.9689 70.7954 12.807C70.6109 12.6581 70.5047 12.4347 70.5064 12.1993V8.6586C70.4915 8.30367 70.1981 8.02232 69.838 8.01626C69.6624 8.0128 69.492 8.07946 69.3664 8.20152C69.2372 8.32531 69.1617 8.49412 69.1556 8.67159V12.2174C69.102 12.7334 68.6347 13.11 68.1112 13.0572C68.0164 13.0476 67.9242 13.0243 67.8363 12.9879C67.7221 12.9429 67.6185 12.8754 67.5324 12.7888C67.4446 12.7022 67.3734 12.6009 67.3234 12.4893C67.2707 12.3793 67.2478 12.2581 67.2575 12.1369V8.60753C67.2566 8.2803 67.326 7.95566 67.4613 7.657C67.5922 7.36267 67.7792 7.09517 68.012 6.87009C68.2509 6.64674 68.5284 6.46755 68.8315 6.34202C69.1503 6.20871 69.4928 6.14118 69.8389 6.14291C70.127 6.14291 70.4133 6.18793 70.6874 6.27796C70.9658 6.37059 71.224 6.51343 71.448 6.69868C72.1849 6.12127 73.1809 5.98189 74.0522 6.33423C74.3579 6.45975 74.6381 6.63809 74.8796 6.8623C75.1185 7.08478 75.31 7.35141 75.4435 7.64748C75.584 7.95307 75.6552 8.28463 75.6525 8.61965V12.2071C75.6508 12.4391 75.5454 12.659 75.3653 12.807C75.1852 12.9732 74.9481 13.0658 74.7013 13.0658H74.6969L74.696 13.0676ZM78.1294 12.4823C77.5717 12.111 77.1299 11.5942 76.8523 10.9899C76.7574 10.7726 76.6828 10.5475 76.6292 10.3173C76.5221 9.84719 76.5221 9.35981 76.6292 8.88974C76.6837 8.65947 76.7583 8.43439 76.8523 8.2171C77.1255 7.60852 77.5681 7.08824 78.1294 6.71686C78.7021 6.33423 79.381 6.13426 80.0731 6.14464H80.2874C80.3524 6.14464 80.4174 6.14984 80.4824 6.15936C80.911 6.20438 81.3274 6.33077 81.7077 6.53074C82.081 6.72379 82.4147 6.98263 82.6931 7.29514C82.9716 7.60766 83.1929 7.96432 83.3466 8.35128C83.5065 8.7495 83.589 9.17455 83.5873 9.60307V12.1335C83.589 12.3828 83.4836 12.6217 83.2966 12.7897C82.9373 13.1498 82.3506 13.1541 81.9852 12.8001C81.9255 12.7421 81.8737 12.6763 81.8315 12.6044C81.7867 12.6209 81.7428 12.6416 81.7024 12.6676C81.6646 12.6918 81.6251 12.7126 81.5847 12.7317C81.3555 12.8356 81.1157 12.9178 80.8706 12.9767C80.6089 13.0347 80.341 13.0632 80.0722 13.0632C80.0555 13.0632 80.0389 13.0632 80.0222 13.0632C79.3459 13.0632 78.6862 12.8607 78.1294 12.4832V12.4823ZM79.4653 8.12707C79.273 8.21277 79.0982 8.33224 78.9497 8.47941C78.7987 8.62744 78.6775 8.80144 78.5923 8.99363C78.5062 9.18494 78.4614 9.39271 78.4614 9.6022C78.4596 9.81603 78.5062 10.0281 78.5984 10.222C78.6845 10.4116 78.8057 10.5848 78.9559 10.7311C79.107 10.8739 79.2817 10.9899 79.4723 11.0739C79.6594 11.1587 79.8623 11.202 80.067 11.2029C80.283 11.2037 80.4973 11.163 80.6976 11.0817C80.89 11.0046 81.0647 10.8895 81.2123 10.7449C81.3607 10.5986 81.4784 10.4263 81.561 10.2368H81.5557C81.6488 10.0376 81.6989 9.82036 81.7006 9.60134C81.7006 9.39098 81.655 9.18408 81.568 8.99189C81.3967 8.60493 81.0832 8.29588 80.6906 8.12707C80.4965 8.04223 80.2865 7.99808 80.074 7.99808H80.0661C79.8588 7.99808 79.6533 8.04223 79.4644 8.12707H79.4653ZM50.2435 12.4806C49.6849 12.1101 49.2431 11.5933 48.9664 10.9873C48.8707 10.7709 48.7952 10.5458 48.7407 10.3147C48.6336 9.8446 48.6336 9.35721 48.7407 8.88715C48.7952 8.65687 48.8707 8.43179 48.9664 8.21451C49.2378 7.60419 49.6814 7.08392 50.2435 6.71427C50.8171 6.33163 51.496 6.13252 52.1881 6.14464H52.3989C52.4648 6.14464 52.5307 6.14984 52.5957 6.1585C53.0243 6.20351 53.4406 6.3299 53.8209 6.52988C54.1942 6.72379 54.528 6.98263 54.8073 7.29428C55.084 7.60679 55.3044 7.96432 55.459 8.35042C55.6189 8.74864 55.6997 9.17369 55.6988 9.6022V12.1326C55.7014 12.3819 55.596 12.6209 55.4098 12.7888C55.0506 13.1489 54.4639 13.1541 54.0985 12.8001C54.0388 12.7421 53.9869 12.6754 53.9448 12.6035C53.8991 12.62 53.8552 12.6416 53.8148 12.6667C53.7779 12.6901 53.7392 12.7118 53.6988 12.7299C53.4696 12.8338 53.2298 12.9161 52.9848 12.9749C52.723 13.0329 52.4551 13.0624 52.1864 13.0615H52.1389C51.4626 13.0615 50.8013 12.8589 50.2444 12.4806H50.2435ZM51.5777 8.12707C51.3862 8.21277 51.2114 8.33224 51.063 8.47941C50.9119 8.62744 50.7907 8.80144 50.7055 8.99363C50.6194 9.18581 50.5747 9.39271 50.5755 9.60307C50.5755 9.81689 50.6221 10.029 50.7134 10.2229C50.7995 10.4125 50.9207 10.5856 51.0709 10.7311C51.2211 10.8739 51.395 10.9899 51.5856 11.0747C51.7727 11.1596 51.9765 11.2029 52.182 11.2029C52.398 11.2046 52.6115 11.163 52.8109 11.0817C53.0041 11.0046 53.1789 10.8903 53.3273 10.7458C53.4749 10.5995 53.5926 10.4272 53.6742 10.2368H53.669C53.7638 10.0385 53.8139 9.82209 53.8165 9.60307C53.8165 9.39357 53.7717 9.18581 53.6848 8.99363C53.6005 8.80144 53.4784 8.62657 53.3273 8.47941C53.1771 8.33137 52.9997 8.21191 52.8056 8.12707C52.6115 8.04223 52.4016 7.99895 52.1899 7.99808H52.1829C51.9747 7.99808 51.7692 8.04137 51.5795 8.12621L51.5777 8.12707ZM28.527 12.833C28.3452 12.6633 28.2328 12.4339 28.209 12.188V7.02332C28.2231 6.78698 28.3329 6.56537 28.5129 6.40868C28.6921 6.24593 28.9231 6.15244 29.1664 6.14291C29.4071 6.13772 29.6372 6.23727 29.7971 6.41387C29.9648 6.5948 30.0649 6.82594 30.0808 7.07007V12.1283C30.0878 12.3663 29.9982 12.5975 29.8322 12.7706C29.6565 12.949 29.4176 13.0528 29.1664 13.0615H29.1445C28.917 13.0615 28.6974 12.9801 28.527 12.833ZM22.4841 12.7836C21.6374 12.4269 20.9594 11.769 20.5843 10.9406C20.3902 10.519 20.2919 10.061 20.2945 9.59788C20.2927 9.13993 20.3885 8.68631 20.5764 8.26645C20.7609 7.85524 21.0209 7.48213 21.3441 7.16616C21.6708 6.85191 22.052 6.59827 22.4692 6.41647C22.8934 6.23035 23.3537 6.13512 23.8174 6.13772C24.3769 6.13339 24.9294 6.26584 25.4248 6.52295V4.87901C25.4248 4.75695 25.4529 4.63748 25.5047 4.52667C25.5565 4.415 25.6277 4.31371 25.7155 4.22714C25.8024 4.14058 25.9052 4.07219 26.0194 4.0263C26.1327 3.98042 26.2539 3.95618 26.376 3.95618C26.6219 3.95445 26.8591 4.04881 27.0347 4.21849C27.2218 4.39595 27.3228 4.64267 27.314 4.89805V9.6022C27.3167 10.0602 27.2201 10.5129 27.0321 10.931C26.8494 11.3422 26.5885 11.7162 26.2636 12.0313C25.9386 12.3464 25.5574 12.6009 25.1393 12.7819C24.7195 12.9663 24.2654 13.0615 23.8051 13.0615C23.3493 13.0598 22.8987 12.9645 22.4815 12.7836H22.4841ZM23.1789 8.12534C22.7854 8.29328 22.471 8.60233 22.2997 8.99016C22.1275 9.38318 22.1275 9.82901 22.2997 10.222C22.3831 10.4134 22.5052 10.5865 22.6572 10.7311C22.81 10.8748 22.9865 10.9916 23.1807 11.0739C23.3792 11.1604 23.5943 11.2037 23.8113 11.2029C24.0212 11.2029 24.2294 11.1596 24.42 11.0739C24.8064 10.9025 25.1156 10.5977 25.2895 10.2168C25.3773 10.0229 25.4221 9.8117 25.4204 9.59874C25.423 9.38059 25.3782 9.1633 25.2895 8.96333C25.2061 8.77201 25.084 8.59887 24.932 8.4543C24.7827 8.31233 24.6088 8.19806 24.4182 8.11841C24.2259 8.0379 24.0186 7.99635 23.8095 7.99635H23.799C23.5856 7.99635 23.3748 8.03964 23.1789 8.12447V8.12534ZM85.986 12.8503C85.6909 12.7161 85.4239 12.53 85.1964 12.3006C84.968 12.0694 84.7862 11.7976 84.6606 11.4998C84.5306 11.1977 84.4638 10.8722 84.4638 10.5441V4.84092C84.4911 4.60718 84.5991 4.38989 84.7695 4.22628C84.9434 4.05487 85.1779 3.95792 85.423 3.95532L85.43 3.95705C85.6786 3.95186 85.9175 4.05054 86.0887 4.22801C86.267 4.40894 86.3733 4.647 86.3874 4.89892V10.5449C86.3795 10.7233 86.4436 10.8973 86.5657 11.0289C86.6878 11.1613 86.8625 11.2349 87.0444 11.2297C87.2894 11.228 87.5266 11.3197 87.704 11.4868C88.0702 11.8123 88.0992 12.3689 87.769 12.7299C87.7663 12.7325 87.7637 12.7351 87.7611 12.7386C87.6012 12.9143 87.3834 13.0286 87.1462 13.0606H86.9328C86.6052 13.0606 86.2811 12.9888 85.9851 12.8511L85.986 12.8503ZM39.1846 12.8295C39.001 12.6607 38.8877 12.4313 38.8649 12.1854V7.02418C38.878 6.78785 38.9878 6.56623 39.1688 6.41041C39.3488 6.25112 39.5807 6.15936 39.8222 6.1533V6.14464C40.0629 6.14032 40.293 6.239 40.4529 6.4156C40.6206 6.59653 40.7199 6.82854 40.7348 7.07266V12.1309C40.7427 12.3689 40.654 12.6001 40.488 12.7732C40.3115 12.9498 40.0725 13.0528 39.8213 13.0606H39.7985C39.5719 13.0606 39.3541 12.9793 39.1846 12.8312V12.8295ZM64.8167 12.8278C64.6348 12.6589 64.5207 12.4304 64.4969 12.1854V7.02332C64.511 6.78612 64.6208 6.5645 64.8026 6.40868C64.9818 6.24939 65.2137 6.15763 65.4543 6.15157V6.14291C65.695 6.13772 65.926 6.23641 66.0867 6.41387C66.2553 6.59394 66.3555 6.82594 66.3704 7.07007V12.1283C66.3774 12.3663 66.2878 12.5975 66.1218 12.7706C65.9453 12.9472 65.7055 13.0502 65.4543 13.058H65.4324C65.2049 13.058 64.9853 12.9758 64.8149 12.8269L64.8167 12.8278ZM56.8757 12.8001C56.6887 12.6434 56.5824 12.4131 56.5841 12.1716V9.60307C56.5912 9.14079 56.6878 8.68457 56.8678 8.25866C57.408 6.96705 58.6921 6.12993 60.1097 6.14638L60.1062 6.14464C60.5629 6.14291 61.0161 6.22775 61.4404 6.39483C61.8549 6.55758 62.2335 6.79651 62.5567 7.0995C62.8764 7.40162 63.1373 7.76002 63.3244 8.15564C63.5185 8.5729 63.6177 9.02739 63.6133 9.48707V12.1274C63.616 12.3689 63.5194 12.6001 63.3455 12.7698C63.1724 12.9472 62.9362 13.0502 62.6867 13.0572C62.4373 13.0615 62.1957 12.9715 62.0113 12.8053C61.8268 12.6451 61.7232 12.4122 61.7293 12.1698V9.6048C61.7311 9.39098 61.6881 9.17888 61.6046 8.98151C61.5265 8.79019 61.4079 8.61792 61.2577 8.47421C61.1057 8.32704 60.9292 8.20758 60.7342 8.12274C60.3346 7.95653 59.884 7.95653 59.4844 8.12274C59.2973 8.19979 59.1251 8.30887 58.9767 8.44478C58.8291 8.58242 58.7114 8.74777 58.6289 8.93043C58.5419 9.11915 58.498 9.32345 58.498 9.53035V12.1309C58.498 12.3776 58.3926 12.6139 58.2073 12.7801C58.0325 12.9585 57.7927 13.0598 57.5406 13.0598H57.5336C57.2885 13.0598 57.0523 12.9671 56.874 12.8018L56.8757 12.8001Z" fill="white"/>
</g>
<defs>
<clipPath id="clip0_3405_44210">
<rect width="88" height="20" fill="white"/>
</clipPath>
</defs>
</svg>
