<svg width="62" height="20" viewBox="0 0 62 20" fill="none" xmlns="http://www.w3.org/2000/svg">
<g clip-path="url(#clip0_3405_44205)">
<g opacity="0.5">
<path d="M53.8795 1.23029V7.04305H52.7138V1.23029H50.6221V0.16626H55.9647V1.23029H53.8795Z" fill="white"/>
<path d="M59.3089 1.07095C58.9692 1.07095 58.6961 1.13741 58.4762 1.27717C58.2564 1.41694 58.1498 1.62294 58.1498 1.90226C58.1498 2.18157 58.2564 2.39442 58.4762 2.54081C58.6961 2.6872 59.1556 2.84684 59.8618 3.01972C60.568 3.19261 61.101 3.43217 61.4606 3.73798C61.8204 4.04401 62.0002 4.50283 62.0002 5.10142C62.0002 5.7 61.7737 6.18554 61.3208 6.56465C60.8679 6.93714 60.2749 7.12328 59.5354 7.12328C58.4561 7.12328 57.5036 6.75079 56.6709 6.01266L57.397 5.13476C58.0899 5.73997 58.8159 6.03937 59.5619 6.03937C59.935 6.03937 60.2347 5.95966 60.4545 5.80003C60.6744 5.64039 60.7876 5.42754 60.7876 5.16147C60.7876 4.89541 60.681 4.68918 60.4744 4.54302C60.2679 4.39663 59.9083 4.2637 59.4086 4.13741C58.9024 4.01773 58.516 3.90468 58.2562 3.80488C57.9963 3.70508 57.7632 3.57216 57.5566 3.4059C57.1504 3.09987 56.9438 2.6278 56.9438 1.98925C56.9438 1.3507 57.1769 0.865162 57.6367 0.51939C58.1029 0.173618 58.6759 0.000732422 59.3554 0.000732422C59.795 0.000732422 60.2347 0.073817 60.6677 0.220207C61.1007 0.366597 61.4739 0.565979 61.7934 0.832042L61.174 1.70994C60.9674 1.52381 60.6943 1.37742 60.3479 1.25774C59.9949 1.13145 59.6484 1.07161 59.3087 1.07161L59.3089 1.07095Z" fill="white"/>
</g>
<path d="M3.41738 0.013248H0V1.74917H3.41738C4.98297 1.74917 6.05538 2.83992 6.05538 4.38287V4.39611C6.05538 5.94568 4.99624 7.00331 3.41738 7.00331H0V8.73924H3.41738C6.16862 8.73924 8.06728 6.83043 8.06728 4.38309V4.34975C8.05401 1.89556 6.15535 0.013248 3.41738 0.013248ZM9.80605 8.74586H11.7379V0.013248H9.80605V8.74564V8.74586ZM13.5231 4.36962V4.40296C13.5231 6.86377 15.4218 8.74586 18.173 8.74586H21.5904V5.18106H19.6585V7.00994H18.1863C16.6207 7.00994 15.5483 5.91919 15.5483 4.37624V4.3429C15.5483 2.79333 16.6074 1.7357 18.1863 1.7357H21.6037V0H18.1863C15.4218 0.013248 13.5231 1.92868 13.5231 4.36962ZM46.2786 0.013248H44.3467V8.73902H50.6219V6.98984H46.2653V0.013248H46.2786ZM23.7821 8.74586H25.7139V0.013248H23.7821V8.74564V8.74586ZM37.8981 5.1943H42.0217V3.49172H37.8981V1.72268H42.5746V0.0198719H35.9795V8.74564H42.6345V7.02318H37.8915V5.1943H37.8981ZM27.2729 1.78251H29.9308V8.74586H31.8626V1.78251H34.5205V0.013248H27.2793V1.78229H27.2727L27.2729 1.78251Z" fill="white"/>
<g opacity="0.5">
<path d="M1.80518 16.4474C1.81845 16.5406 1.81845 16.6336 1.81845 16.7466C1.81845 16.8597 1.80518 16.986 1.77179 17.1125C1.73839 17.2388 1.69195 17.3518 1.64528 17.4583C1.59862 17.5713 1.51878 17.6444 1.42545 17.7111C1.33212 17.7709 1.23901 17.8042 1.11228 17.8042C0.952384 17.8042 0.82588 17.7111 0.74582 17.5382C0.685885 17.3984 0.665981 17.2988 0.699155 17.2255C0.712425 17.1922 0.74582 17.1789 0.778994 17.1789C0.858833 17.445 0.985558 17.5914 1.12533 17.5914C1.21866 17.5914 1.2985 17.5448 1.36507 17.4516C1.44491 17.3585 1.49157 17.2322 1.52497 17.0858C1.55836 16.9394 1.57163 16.7998 1.57163 16.6601C1.57163 16.5203 1.53824 16.394 1.4918 16.2942C1.43186 16.201 1.3518 16.1346 1.25206 16.1346C1.15231 16.1346 1.04549 16.2143 0.938893 16.3874C0.825659 16.5603 0.732329 16.7532 0.672395 16.9526C0.61246 17.1588 0.55916 17.3317 0.545891 17.4713V17.5976C0.385991 17.6442 0.306152 17.5843 0.306152 17.4114C0.306152 17.0323 0.319422 16.5137 0.352817 15.8484C0.386213 15.1834 0.446147 14.6978 0.512717 14.3785C0.546112 14.2854 0.592556 14.2522 0.685885 14.2655C0.73255 14.2787 0.74582 14.3121 0.765725 14.3587V14.485H0.732329C0.638999 15.1966 0.592334 15.9215 0.55916 16.6598C0.638999 16.4205 0.732329 16.2341 0.858833 16.0946C0.972068 15.9548 1.11206 15.8751 1.25184 15.8751C1.37834 15.8751 1.49157 15.935 1.59817 16.048C1.69814 16.1478 1.77798 16.2741 1.80474 16.447L1.80518 16.4474Z" fill="white"/>
<path d="M3.32404 16.055C3.33731 16.1681 3.33731 16.2745 3.33731 16.3677C3.33731 16.4608 3.33731 16.5871 3.32404 16.7468C3.32404 16.9064 3.31077 16.9996 3.31077 17.0594C3.43727 16.9331 3.564 16.8066 3.70377 16.6936C3.84354 16.5805 3.94351 16.5074 4.03684 16.4542C4.07023 16.441 4.09677 16.441 4.13017 16.441C4.16356 16.4542 4.16356 16.4743 4.17683 16.4876C4.17683 16.5008 4.17683 16.5341 4.14344 16.5474C3.77697 16.8932 3.4972 17.1793 3.32404 17.3655C3.29064 18.0903 3.1376 18.7355 2.85097 19.2941C2.79104 19.4072 2.73774 19.5004 2.69107 19.5602C2.64441 19.62 2.56457 19.7198 2.47124 19.813C2.25141 20.0192 2.07824 20.0524 1.93161 19.9261C1.8051 19.813 1.75844 19.6269 1.77171 19.3407C1.78498 19.1546 1.85155 18.9616 1.94488 18.7755C2.02472 18.6026 2.18462 18.3831 2.40445 18.0972C2.62428 17.8112 2.86402 17.5118 3.11725 17.2259C3.11725 17.2127 3.13052 17.0663 3.15065 16.7671C3.09071 16.9267 3.01065 17.053 2.93081 17.1795C2.85097 17.3058 2.75764 17.3858 2.67758 17.4324C2.42435 17.5721 2.25118 17.4789 2.13795 17.1464C2.05811 16.8804 2.02472 16.5812 2.05811 16.2286C2.07138 16.0424 2.10478 15.9294 2.15144 15.9159C2.18484 15.9027 2.21138 15.8826 2.24477 15.8826C2.27817 15.8826 2.30471 15.8826 2.32461 15.8958C2.33788 15.9091 2.35801 15.9292 2.37128 15.9424C2.38455 15.9557 2.38455 15.9757 2.38455 15.989C2.38455 16.0022 2.38455 16.0223 2.37128 16.0356C2.32461 16.2551 2.31134 16.5277 2.32461 16.8269C2.33788 17.1261 2.40445 17.2659 2.49778 17.2526C2.59111 17.2394 2.70434 17.0665 2.84412 16.7472C2.98411 16.4346 3.08386 16.1952 3.13052 16.0022C3.14379 15.9689 3.17719 15.9557 3.22385 15.9557C3.29042 15.989 3.32382 16.0022 3.32382 16.0555L3.32404 16.055ZM3.05754 17.6644C2.47124 18.3295 2.1249 18.8483 2.03157 19.2606C1.99818 19.4202 1.98491 19.5598 2.03157 19.673C2.07824 19.7993 2.15808 19.7993 2.2848 19.6863C2.64463 19.3339 2.89764 18.6686 3.05754 17.6644Z" fill="white"/>
</g>
<path d="M9.19073 13.5703L8.31781 17.6716H8.86209L9.12394 16.5488H9.70935L9.95595 17.6716H10.4951L9.64278 13.5703H9.19095H9.19073ZM9.25243 15.9849L9.41676 15.0364L9.59656 15.9849H9.25243ZM21.135 13.5506C20.8749 13.5506 20.663 13.7619 20.663 14.0218C20.663 14.2817 20.8747 14.4925 21.135 14.4925C21.3953 14.4925 21.6069 14.2815 21.6069 14.0218C21.6069 13.7621 21.3953 13.5506 21.135 13.5506ZM20.7897 14.2806C20.7353 14.2084 20.7026 14.119 20.7026 14.0218C20.7026 13.9246 20.7353 13.835 20.7897 13.7628V14.2806ZM21.135 14.4535C21.027 14.4535 20.9286 14.4135 20.8528 14.3481L20.8755 14.3486V13.9511L20.9529 14.1931L21.0297 13.9511V14.3468H21.1146V13.6886H21.0257L20.9523 13.9092L20.8782 13.6886H20.8603C20.935 13.627 21.0308 13.5899 21.1352 13.5899C21.2396 13.5899 21.3345 13.6266 21.409 13.6877H21.3816L21.2652 13.9503V13.6877H21.1803V14.3468H21.2635V14.1485L21.3055 14.0514L21.3889 14.3468H21.4187C21.3426 14.4128 21.2436 14.4532 21.135 14.4532V14.4535ZM21.4652 14.3L21.3617 13.9412L21.4543 13.7314C21.5244 13.8083 21.5676 13.9099 21.5676 14.0218C21.5676 14.1278 21.5288 14.2247 21.4652 14.3ZM7.0238 14.9443L6.56157 13.5703H6.01221V17.6716L6.54631 17.682V15.2057L7.0291 16.7131L7.50659 15.2057V17.6716H8.03561V13.5703H7.48094L7.0238 14.9443ZM12.5338 14.5495C12.496 14.3104 12.4533 14.1273 12.4055 14.001C12.2719 13.714 11.9946 13.5705 11.5735 13.5705H10.7776V17.6718H11.5529C11.974 17.6718 12.2547 17.5316 12.3951 17.2514C12.4977 17.0293 12.5645 16.6158 12.5955 16.0108C12.6024 15.8158 12.6057 15.6758 12.6057 15.5904C12.6057 15.4811 12.6021 15.3528 12.5955 15.2057C12.592 15.0074 12.5714 14.7889 12.5338 14.5495ZM12.051 15.9953C12.0203 16.3612 12.003 16.5524 11.9997 16.5696C11.9723 16.761 11.9329 16.9149 11.8816 17.0311C11.8336 17.1061 11.7867 17.1523 11.7403 17.1695C11.694 17.1867 11.6127 17.1951 11.4963 17.1951H11.3064V14.0472H11.4963C11.7155 14.0472 11.8489 14.119 11.8969 14.2625C11.9756 14.4983 12.0287 14.8299 12.0561 15.2572C12.0629 15.3426 12.0663 15.459 12.0663 15.6058C12.0663 15.7871 12.0612 15.9169 12.051 15.9955V15.9953ZM12.9188 17.6716H13.4682V13.5703H12.9188V17.6716ZM16.9962 13.5447C16.8044 13.5447 16.6374 13.5857 16.4955 13.6676C16.3532 13.7496 16.2515 13.8591 16.1898 13.9957C16.0562 14.3205 15.9894 14.8383 15.9894 15.5491C15.9894 15.7098 15.9963 15.8926 16.01 16.0978C16.0511 16.6924 16.1144 17.0752 16.2 17.2461C16.3437 17.5504 16.6091 17.7025 16.9959 17.7025C17.3827 17.7025 17.6446 17.5522 17.8021 17.2512C17.8671 17.111 17.9169 16.9094 17.9511 16.6462C17.9511 16.6429 17.9682 16.4378 18.0024 16.0311C18.0093 15.9388 18.0126 15.8277 18.0126 15.6979C18.0126 14.8878 17.9441 14.3205 17.8072 13.9957C17.6736 13.695 17.4031 13.5447 16.9957 13.5447H16.9962ZM17.4686 15.8056C17.4513 16.4003 17.3914 16.8105 17.2888 17.0362C17.2374 17.1457 17.1399 17.1984 16.9959 17.1951C16.8624 17.1951 16.7681 17.1421 16.7135 17.0362C16.6005 16.8037 16.5388 16.3936 16.5286 15.8056C16.5251 15.7476 16.5235 15.6723 16.5235 15.58C16.5235 15.4603 16.5253 15.3698 16.5286 15.3082C16.5594 14.7853 16.616 14.4248 16.698 14.2265C16.7562 14.1103 16.8555 14.052 16.9959 14.052C17.1364 14.052 17.2355 14.1119 17.2938 14.2316C17.3759 14.4128 17.4325 14.7716 17.4633 15.3082C17.4666 15.3662 17.4683 15.4535 17.4683 15.5696V15.8054L17.4686 15.8056ZM19.651 15.8929L18.9012 13.5806H18.3722V17.6718H18.9012V15.2417L19.651 17.6718H20.18V13.5806H19.651V15.8929ZM14.9575 15.3287C14.7965 15.1647 14.6835 15.0331 14.6185 14.9339C14.4953 14.7562 14.4336 14.582 14.4336 14.4111C14.4336 14.1719 14.5517 14.0523 14.7879 14.0523C15.007 14.0523 15.1285 14.1821 15.1526 14.442H15.6712C15.6539 14.1892 15.5805 13.984 15.4505 13.8268C15.2963 13.6354 15.0807 13.5398 14.8033 13.5398C14.4917 13.5398 14.2591 13.627 14.1049 13.8012C13.9747 13.9516 13.9096 14.1516 13.9096 14.4011C13.9096 14.8284 14.1509 15.283 14.6337 15.7648C14.798 15.9357 14.9161 16.0845 14.988 16.2108C15.0769 16.3749 15.1216 16.5544 15.1216 16.7491C15.1216 17.0362 15.005 17.1797 14.7724 17.1797C14.6731 17.1797 14.5908 17.1353 14.5258 17.0463C14.4608 16.9575 14.4283 16.8447 14.4283 16.708H13.8787C13.8855 16.9986 13.9625 17.2344 14.1098 17.4155C14.2604 17.6069 14.4641 17.7027 14.7209 17.7027C15.0323 17.7027 15.2755 17.6071 15.45 17.4155C15.6042 17.2446 15.6811 17.0362 15.6811 16.79C15.6811 16.5438 15.6418 16.3252 15.563 16.1439C15.4569 15.9081 15.255 15.6363 14.9571 15.3287H14.9575Z" fill="white"/>
</g>
<defs>
<clipPath id="clip0_3405_44205">
<rect width="62" height="20" fill="white"/>
</clipPath>
</defs>
</svg>
