<svg width="57" height="34" viewBox="0 0 57 34" fill="none" xmlns="http://www.w3.org/2000/svg">
<g clip-path="url(#clip0_3405_44216)">
<path d="M23.2033 0L20.666 13.1577L33.797 15.695L36.3343 2.53969L23.2033 0ZM23.9681 3.30816H33.03V4.99035H23.9681V3.30816ZM33.0323 8.6804H25.6378V10.7187H33.03V12.3915H23.9681V7.00524L33.03 7.00055V8.68275L33.0323 8.6804Z" fill="white"/>
<path d="M0.00244141 26.7253V21.0181H5.34838V21.8592H0.898109V23.2743H3.82131V24.1013H0.898109V25.896H5.59393V26.723H0.00244141V26.7253Z" fill="white"/>
<path d="M7.83887 23.3H10.7223V24.113H7.83887V23.3Z" fill="white"/>
<path d="M17.5135 24.5089V23.6819H19.8614V25.4086C19.1949 26.409 18.1519 26.9081 16.7324 26.9081C16.0402 26.9081 15.4205 26.7769 14.8732 26.5144C14.3284 26.252 13.9051 25.8912 13.6057 25.4297C13.3041 24.9728 13.1567 24.4597 13.1567 23.8928C13.1567 23.3258 13.3064 22.8197 13.6034 22.3582C13.9004 21.899 14.3237 21.5335 14.8709 21.264C15.4181 20.9969 16.0378 20.8634 16.7324 20.8634C17.4269 20.8634 17.9859 20.9782 18.4933 21.2055C19.0008 21.4327 19.4217 21.7678 19.7538 22.2106L19.071 22.7026C18.8348 22.3863 18.512 22.1403 18.1051 21.9599C17.6982 21.7795 17.2399 21.6904 16.7324 21.6904C16.2249 21.6904 15.7479 21.7865 15.341 21.981C14.9364 22.1754 14.6207 22.4355 14.3985 22.7682C14.1763 23.0985 14.0641 23.4687 14.0641 23.8787C14.0641 24.2887 14.1717 24.6519 14.3915 24.9845C14.6113 25.3172 14.9223 25.582 15.3316 25.7741C15.7385 25.9686 16.2062 26.0646 16.7324 26.0646C17.2586 26.0646 17.6959 25.9732 18.1098 25.7882C18.5237 25.6031 18.809 25.3828 18.9657 25.1204V24.5089H17.5158H17.5135Z" fill="white"/>
<path d="M24.0359 21.8592H27.0643C27.3754 21.8592 27.6116 21.9248 27.7729 22.056C27.9319 22.1872 28.0138 22.3769 28.0138 22.6253C28.0138 22.8736 27.9343 23.0658 27.7729 23.1993C27.6116 23.3328 27.3777 23.4008 27.0643 23.4008H24.0359V21.8592ZM26.5171 24.2419L28.1307 26.723H29.0942L27.518 24.2278C27.939 24.1599 28.278 23.9795 28.5353 23.6819C28.7925 23.3844 28.9212 23.033 28.9212 22.6253C28.9212 22.1216 28.7575 21.728 28.4277 21.4492C28.098 21.1704 27.642 21.0298 27.062 21.0298H23.1426V26.723H24.0382V24.2419H26.5195H26.5171Z" fill="white"/>
<path d="M33.8157 25.7788C33.4204 25.5866 33.1188 25.3242 32.906 24.9869C32.6955 24.6518 32.5879 24.2817 32.5879 23.8763C32.5879 23.471 32.6932 23.1008 32.906 22.7658C33.1188 22.4308 33.4228 22.166 33.8157 21.9763C34.2109 21.7841 34.6599 21.6904 35.1627 21.6904C35.6655 21.6904 36.1238 21.7865 36.519 21.9809C36.9143 22.1754 37.2183 22.4378 37.4311 22.7705C37.6462 23.1032 37.7515 23.4734 37.7515 23.8787C37.7515 24.284 37.6462 24.6471 37.4334 24.9822C37.2229 25.3172 36.9166 25.582 36.5237 25.7741C36.1285 25.9685 35.6748 26.0646 35.1627 26.0646C34.6505 26.0646 34.2085 25.9685 33.8157 25.7788ZM36.9867 26.5097C37.5223 26.245 37.9339 25.8795 38.2238 25.418C38.5162 24.9541 38.6612 24.441 38.6612 23.881C38.6612 23.457 38.5793 23.061 38.4109 22.6908C38.2426 22.3207 38.0087 21.9997 37.707 21.7302C37.4053 21.4608 37.0359 21.25 36.6009 21.0953C36.1682 20.943 35.6888 20.8657 35.1627 20.8657C34.6365 20.8657 34.1688 20.943 33.7432 21.093C33.3175 21.2453 32.9504 21.4561 32.6417 21.7279C32.333 21.9997 32.0945 22.3183 31.9284 22.6885C31.7624 23.0563 31.6782 23.4523 31.6782 23.881C31.6782 24.3098 31.7601 24.6987 31.9238 25.0642C32.0898 25.4297 32.3283 25.753 32.6417 26.0294C32.9551 26.3083 33.3292 26.5238 33.7595 26.6784C34.1922 26.8307 34.6575 26.908 35.1627 26.908C35.8455 26.908 36.4512 26.7745 36.9867 26.5097Z" fill="white"/>
<path d="M41.7552 21.0321H42.6508V24.6847C42.6508 25.0666 42.707 25.3571 42.8169 25.5515C42.9291 25.7483 43.1209 25.8842 43.3945 25.9639C43.6681 26.0412 44.061 26.081 44.5708 26.081C45.0806 26.081 45.4688 26.0435 45.7447 25.9639C46.0184 25.8866 46.2148 25.7483 46.327 25.5515C46.4416 25.3571 46.4978 25.0666 46.4978 24.6847V21.0321H47.3794V24.9236C47.3794 25.6265 47.1549 26.1349 46.7082 26.4442C46.2616 26.7534 45.5436 26.9104 44.5521 26.9104C43.5605 26.9104 42.8473 26.7558 42.4076 26.4512C41.9703 26.1419 41.7505 25.6335 41.7505 24.926V21.0344L41.7552 21.0321Z" fill="white"/>
<path d="M51.888 21.8592H55.1736C55.7723 21.8592 56.074 22.1146 56.074 22.6277C56.074 22.8737 55.9921 23.0634 55.8308 23.1993C55.6671 23.3352 55.4355 23.4032 55.1339 23.4032H51.888V21.8615V21.8592ZM55.2298 24.2419C55.5899 24.2419 55.9033 24.1693 56.1699 24.024C56.4365 23.8788 56.6422 23.682 56.7849 23.4383C56.9276 23.1923 56.9977 22.9182 56.9977 22.6136C56.9977 22.1075 56.8363 21.7163 56.5113 21.4351C56.1862 21.1563 55.7279 21.0157 55.1362 21.0157H50.9946V26.723H51.8903V24.2419H55.2321H55.2298Z" fill="white"/>
<path d="M57.0002 28.6136H0.00488281V28.9885H57.0002V28.6136Z" fill="white"/>
<path d="M0 33.4401L0.222163 33.1074C0.441987 33.2761 0.668827 33.4073 0.905022 33.4963C1.14122 33.5854 1.37273 33.6299 1.59957 33.6299C1.89189 33.6299 2.12341 33.569 2.29646 33.4448C2.46952 33.3206 2.55604 33.166 2.55604 32.9809C2.55604 32.8333 2.49524 32.7115 2.3713 32.6107C2.24735 32.5123 2.06962 32.4514 1.83811 32.4327C1.82407 32.4327 1.69545 32.4209 1.44991 32.4022C1.20436 32.3835 1.02195 32.3647 0.902683 32.3413C0.783417 32.3202 0.671166 32.2851 0.570608 32.2359C0.430295 32.1679 0.320382 32.0789 0.245548 31.9688C0.170715 31.8587 0.133298 31.7368 0.133298 31.6033C0.133298 31.4463 0.182407 31.301 0.278288 31.1745C0.374169 31.0457 0.514483 30.9426 0.69689 30.8676C0.879298 30.7903 1.08977 30.7528 1.32596 30.7528C1.49902 30.7528 1.66973 30.7716 1.84044 30.8114C2.01116 30.8512 2.1772 30.9074 2.33388 30.9801C2.4929 31.0527 2.64725 31.1464 2.79458 31.2542L2.57241 31.5728C2.19123 31.2659 1.7773 31.1113 1.33064 31.1113C1.16928 31.1113 1.02897 31.1324 0.909699 31.1745C0.790432 31.2167 0.69689 31.2753 0.63141 31.3456C0.565931 31.4182 0.533191 31.4978 0.533191 31.5845C0.533191 31.69 0.582301 31.7813 0.68052 31.8587C0.757693 31.9196 0.853573 31.9617 0.965824 31.9852C1.07807 32.0086 1.23944 32.025 1.45458 32.0391C1.66973 32.0531 1.83343 32.0648 1.94802 32.0789C2.26372 32.114 2.51161 32.2148 2.69168 32.3835C2.87175 32.5521 2.96295 32.7536 2.96295 32.9926C2.96295 33.1238 2.93255 33.2503 2.87175 33.3722C2.81095 33.494 2.71974 33.6018 2.60281 33.6931C2.48589 33.7845 2.34323 33.8571 2.1772 33.9087C2.01116 33.9602 1.82174 33.986 1.60659 33.986C1.30725 33.986 1.02429 33.9415 0.760031 33.8525C0.493436 33.7634 0.240871 33.6275 0.00233856 33.4424L0 33.4401Z" fill="white"/>
<path d="M5.16141 33.9859C4.86207 33.9859 4.5908 33.9157 4.34525 33.7774C4.10204 33.6392 3.91028 33.4471 3.77464 33.1987C3.639 32.9527 3.56885 32.6763 3.56885 32.3717C3.56885 32.0671 3.63667 31.7907 3.77464 31.5447C3.91028 31.2987 4.10204 31.1042 4.34525 30.966C4.58846 30.8254 4.86207 30.7574 5.16141 30.7574C5.46074 30.7574 5.73669 30.8254 5.9799 30.966C6.22311 31.1042 6.41487 31.2963 6.55285 31.5447C6.69082 31.7907 6.76098 32.0671 6.76098 32.374C6.76098 32.681 6.69082 32.9574 6.55285 33.2034C6.41487 33.4494 6.22311 33.6415 5.9799 33.7798C5.73669 33.918 5.46308 33.9859 5.16141 33.9859ZM5.16141 33.6251C5.38591 33.6251 5.58936 33.5713 5.77411 33.4635C5.95885 33.3557 6.10151 33.2081 6.2044 33.016C6.3073 32.8239 6.35875 32.6107 6.35875 32.3717C6.35875 32.1866 6.32835 32.0179 6.26988 31.8633C6.21142 31.7087 6.12723 31.5751 6.01732 31.465C5.90974 31.3525 5.78112 31.2682 5.63613 31.2073C5.49114 31.1464 5.33212 31.1159 5.16141 31.1159C4.99069 31.1159 4.83635 31.1464 4.69135 31.2073C4.54636 31.2682 4.42008 31.3549 4.30783 31.4673C4.19792 31.5821 4.11373 31.7157 4.05293 31.8703C3.99447 32.0249 3.96406 32.1936 3.96406 32.3717C3.96406 32.6107 4.01551 32.8262 4.12075 33.0183C4.22364 33.2081 4.36863 33.3581 4.55104 33.4658C4.73345 33.5736 4.9369 33.6275 5.16141 33.6275V33.6251Z" fill="white"/>
<path d="M7.56055 33.9039V30.823H9.97861V31.1768H7.94173V32.0811H9.17415V32.4349H7.94173V33.9039H7.56055Z" fill="white"/>
<path d="M12.0062 33.9039V31.1768H10.7153V30.823H13.6876V31.1768H12.3921V33.9039H12.0039H12.0062Z" fill="white"/>
<path d="M15.3362 33.9039L14.333 30.823H14.7095L15.4719 33.201L16.2553 30.823H16.5991L17.3801 33.1963L18.1472 30.823H18.512L17.5111 33.9039H17.2328L16.4213 31.4228L15.6192 33.9039H15.3386H15.3362Z" fill="white"/>
<path d="M18.519 33.9039L20.0274 30.823H20.3455L21.8702 33.9039H21.4539L21.0353 33.0745H19.3352L18.9283 33.9039H18.519ZM19.5106 32.7161H20.8646L20.1841 31.3501L19.5106 32.7161Z" fill="white"/>
<path d="M22.5742 33.9039V30.823H24.3375C24.6392 30.823 24.8777 30.898 25.0461 31.0479C25.2168 31.1979 25.301 31.4087 25.301 31.6782C25.301 31.8211 25.2706 31.9546 25.2121 32.0764C25.1536 32.2006 25.0671 32.3014 24.9572 32.3834C24.8473 32.4654 24.7187 32.5192 24.569 32.5474L25.3407 33.9016H24.9151L24.1457 32.5521H22.9554V33.9016H22.5742V33.9039ZM22.9554 32.1959H24.3094C24.5035 32.1959 24.6509 32.1538 24.7491 32.0671C24.8473 31.9804 24.8964 31.8562 24.8964 31.6899C24.8964 31.5235 24.8473 31.404 24.7514 31.3127C24.6555 31.2213 24.5129 31.1768 24.3281 31.1768H22.9531V32.1959H22.9554Z" fill="white"/>
<path d="M26.2271 33.9039V30.823H28.6451V31.1768H26.6082V32.0811H27.8407V32.4349H26.6082V33.5478H28.7714V33.9016H26.2271V33.9039Z" fill="white"/>
<path d="M36.2124 33.9039V30.823H38.0318C38.6445 30.823 38.9509 31.0784 38.9509 31.5915C38.9509 31.8445 38.8573 32.0319 38.6726 32.1561C39.0023 32.3482 39.1683 32.6223 39.1683 32.9785C39.1683 33.2596 39.0748 33.4845 38.8924 33.6532C38.7076 33.8219 38.4527 33.9062 38.13 33.9062H36.2124V33.9039ZM36.5959 32.039H38.0669C38.2282 32.039 38.3522 32.0015 38.4387 31.9288C38.5252 31.8562 38.5673 31.7484 38.5673 31.6126C38.5673 31.322 38.4013 31.1768 38.0692 31.1768H36.5983V32.039H36.5959ZM36.5959 33.5501H38.2049C38.3802 33.5501 38.5182 33.4986 38.6188 33.3931C38.717 33.2877 38.7684 33.1495 38.7684 32.9714C38.7684 32.8566 38.7451 32.7582 38.7006 32.6692C38.6562 32.5825 38.5931 32.5146 38.5065 32.4654C38.4223 32.4162 38.3218 32.3927 38.2049 32.3927H36.5959V33.5478V33.5501Z" fill="white"/>
<path d="M40.0781 33.9039V30.823H42.4962V31.1768H40.4593V32.0811H41.6917V32.4349H40.4593V33.5478H42.6225V33.9016H40.0781V33.9039Z" fill="white"/>
<path d="M44.4699 33.9039V32.36L43.0854 30.8207H43.5649L44.6663 32.039L45.7608 30.8207H46.2448L44.8511 32.3646V33.9039H44.4699Z" fill="white"/>
<path d="M47.9989 33.9859C47.6996 33.9859 47.4283 33.9157 47.1828 33.7774C46.9395 33.6392 46.7478 33.4471 46.6121 33.1987C46.4765 32.9527 46.4087 32.6763 46.4087 32.3717C46.4087 32.0671 46.4765 31.7907 46.6121 31.5447C46.7478 31.2987 46.9395 31.1042 47.1828 30.966C47.426 30.8254 47.6996 30.7574 47.9989 30.7574C48.2982 30.7574 48.5742 30.8254 48.8174 30.966C49.0606 31.1042 49.2524 31.2963 49.3904 31.5447C49.5283 31.7907 49.5985 32.0671 49.5985 32.374C49.5985 32.681 49.5283 32.9574 49.3904 33.2034C49.2524 33.4494 49.0606 33.6415 48.8174 33.7798C48.5742 33.918 48.3006 33.9859 47.9989 33.9859ZM47.9966 33.6251C48.2211 33.6251 48.4245 33.5713 48.6093 33.4635C48.794 33.3557 48.9367 33.2081 49.0396 33.016C49.1425 32.8239 49.1939 32.6107 49.1939 32.3717C49.1939 32.1866 49.1635 32.0179 49.105 31.8633C49.0466 31.7087 48.9624 31.5751 48.8525 31.465C48.7449 31.3525 48.6163 31.2682 48.4713 31.2073C48.3263 31.1464 48.1673 31.1159 47.9966 31.1159C47.8259 31.1159 47.6715 31.1464 47.5265 31.2073C47.3815 31.2682 47.2552 31.3549 47.143 31.4673C47.0331 31.5821 46.9489 31.7157 46.8881 31.8703C46.8296 32.0249 46.7992 32.1936 46.7992 32.3717C46.7992 32.6107 46.8507 32.8262 46.9559 33.0183C47.0588 33.2081 47.2038 33.3581 47.3862 33.4658C47.5686 33.5736 47.7721 33.6275 47.9966 33.6275V33.6251Z" fill="white"/>
<path d="M50.4966 33.9039V30.823H50.6977L52.6902 33.1261V30.823H53.0784V33.9039H52.8819L50.8801 31.6008V33.9039H50.4989H50.4966Z" fill="white"/>
<path d="M55.3536 30.823C55.5992 30.823 55.8213 30.8605 56.0224 30.9378C56.2236 31.0151 56.3943 31.1229 56.5346 31.2611C56.6749 31.3993 56.7825 31.5633 56.8573 31.7555C56.9321 31.9452 56.9696 32.1514 56.9696 32.374C56.9696 32.6739 56.9064 32.9386 56.7778 33.1706C56.6492 33.4002 56.4644 33.5829 56.2236 33.7118C55.9827 33.843 55.6927 33.9062 55.3536 33.9062H54.0347V30.8253H55.3536V30.823ZM55.3513 31.1768H54.4159V33.5501H55.3513C55.7395 33.5501 56.0388 33.4423 56.2516 33.2245C56.4644 33.0089 56.5697 32.7207 56.5697 32.367C56.5697 32.1374 56.5206 31.9312 56.4223 31.7531C56.3241 31.5727 56.1838 31.4321 55.9991 31.3314C55.8143 31.2307 55.5968 31.1791 55.3513 31.1791V31.1768Z" fill="white"/>
<path d="M33.6142 33.255C33.7288 33.1519 33.8317 33.0418 33.9182 32.9199L33.6727 32.6036C33.6002 32.6997 33.4973 32.8122 33.364 32.9481L32.5104 31.9383C32.5782 31.9078 32.6507 31.875 32.7279 31.8399C33.0202 31.711 33.1208 31.4697 33.1161 31.3104C33.1208 31.1089 33.0038 30.9543 32.8822 30.8957C32.7653 30.8324 32.6601 30.8324 32.6156 30.8301C32.6086 30.8301 31.0722 30.8301 31.0722 30.8301L31.9141 31.8328C31.603 31.9875 31.3715 32.1585 31.2195 32.3459C31.0675 32.5334 30.9927 32.7512 30.9927 32.9973C30.9927 33.2995 31.0979 33.5408 31.306 33.7235C31.5165 33.9063 31.7925 33.9977 32.1386 33.9977C32.3561 33.9977 32.5595 33.9555 32.7489 33.8735C32.9384 33.7915 33.1325 33.6673 33.3289 33.501L33.6703 33.8899H34.1591L33.6095 33.2526L33.6142 33.255ZM31.8603 31.1698H32.618C32.632 31.1698 32.6928 31.1745 32.7255 31.1932C32.7583 31.2167 32.7747 31.2167 32.7817 31.3104C32.777 31.3549 32.7723 31.4439 32.5899 31.5329C32.48 31.5845 32.3748 31.6313 32.2859 31.6688L31.8626 31.1675L31.8603 31.1698ZM32.6297 33.5314C32.466 33.6041 32.2999 33.6392 32.1316 33.6392C31.9912 33.6392 31.8626 33.6111 31.7504 33.5549C31.6381 33.4986 31.5493 33.4213 31.4884 33.3206C31.4276 33.2198 31.3972 33.1074 31.3972 32.9809C31.3972 32.6154 31.6498 32.3248 32.1549 32.107L33.1021 33.2198C32.9524 33.3534 32.7934 33.4565 32.6297 33.5291V33.5314Z" fill="white"/>
</g>
<defs>
<clipPath id="clip0_3405_44216">
<rect width="57" height="34" fill="white"/>
</clipPath>
</defs>
</svg>
