<svg width="67" height="20" viewBox="0 0 67 20" fill="none" xmlns="http://www.w3.org/2000/svg">
<g clip-path="url(#clip0_3405_44221)">
<path d="M39.6004 13.2327H27.6711C28.1682 15.8722 30.244 17.2213 32.8463 17.2213C34.4836 17.2213 35.9456 16.6935 37.0567 15.6377L38.577 17.2213C37.2612 18.8638 35.0683 19.9194 32.4953 19.9194C28.3726 19.9194 24.6299 17.0745 24.6299 12.001C24.6299 6.92754 28.4017 4.08252 32.2613 4.08252C36.1208 4.08252 40.3313 6.83944 39.6003 13.2329L39.6004 13.2327ZM27.6418 10.8278H36.7352C36.5598 8.18832 34.4545 6.83926 32.2909 6.83926C30.1273 6.83926 28.1098 8.1297 27.642 10.8278H27.6418Z" fill="white"/>
<path d="M56.0926 10.6517V19.6261H52.8472V11.1796C52.8472 8.51082 51.3854 7.01522 49.1339 7.01522C46.8825 7.01522 45.3914 8.51082 45.3914 11.1796V19.6261H42.1753V0H45.3914V6.66335C46.2102 5.25567 47.8183 4.08246 50.2743 4.08246C53.4028 4.08246 56.0928 6.04753 56.0928 10.6519L56.0926 10.6517Z" fill="white"/>
<path d="M63.9303 6.98592V15.3442C63.9303 16.2242 64.3981 16.8986 65.5968 16.8986C65.9477 16.8986 66.4448 16.84 67.0002 16.6347V19.1863C66.4448 19.6555 65.4506 19.8021 64.6321 19.8021C62.3221 19.8021 60.6848 18.6582 60.6848 15.9309V6.98592H58.5796V4.37572H60.6848V0H63.9303V4.37572H67.0002V6.98592H63.9303Z" fill="white"/>
<path d="M12.4771 1.28375C12.3768 1.3847 12.2837 1.48945 12.1951 1.59709C11.437 2.51793 11.1104 3.67577 11.2166 4.80086C11.2173 4.80466 11.2177 4.80846 11.218 4.8119C11.4446 6.4819 10.9222 8.2333 9.64279 9.51706C9.61643 9.54275 9.58879 9.56572 9.56261 9.59105C9.53734 9.61746 9.51479 9.6455 9.48898 9.67119C8.20917 10.9549 6.46301 11.4785 4.79848 11.2513C4.79466 11.2509 4.79085 11.2509 4.78703 11.2502C3.66558 11.1436 2.51087 11.4713 1.59288 12.2315C1.48597 12.3206 1.38088 12.414 1.28052 12.5149C-0.426189 14.2269 -0.426189 17.0032 1.28052 18.7159C2.98796 20.4282 5.75593 20.4282 7.463 18.7159C7.60245 18.576 7.7259 18.4268 7.84281 18.2743C8.56062 17.3337 8.84553 16.1692 8.70244 15.0495L8.70662 15.0329C8.53371 13.4119 9.06425 11.7312 10.3033 10.4884C10.3293 10.4623 10.357 10.4395 10.3835 10.4142C10.4084 10.3878 10.4313 10.3601 10.4571 10.3341C11.6962 9.09119 13.3722 8.55895 14.9882 8.73244L15.0044 8.72792C16.1205 8.87156 17.2814 8.58608 18.2192 7.86605C18.3718 7.74882 18.5202 7.6249 18.6596 7.48505C20.3667 5.77272 20.3667 2.99645 18.6596 1.28375C17.806 0.427857 16.6873 0 15.5685 0C14.4498 0 13.3309 0.427857 12.4771 1.28375Z" fill="white"/>
<path d="M0 4.44537C0 6.90089 1.98416 8.89056 4.43213 8.89056C6.88011 8.89056 8.86427 6.90071 8.86427 4.44537C8.86427 1.99003 6.87974 0 4.43213 0C1.98452 0 0 1.99021 0 4.44537Z" fill="white"/>
<path d="M11.0757 15.5543C11.0757 18.0095 13.0602 19.9999 15.5075 19.9999C17.9547 19.9999 19.9396 18.0093 19.9396 15.5543C19.9396 13.0993 17.9554 11.1091 15.5075 11.1091C13.0595 11.1091 11.0757 13.0993 11.0757 15.5543Z" fill="white"/>
</g>
<defs>
<clipPath id="clip0_3405_44221">
<rect width="67" height="20" fill="white"/>
</clipPath>
</defs>
</svg>
