<svg width="99" height="18" viewBox="0 0 99 18" fill="none" xmlns="http://www.w3.org/2000/svg">
<g clip-path="url(#clip0_3405_44214)">
<path d="M0 2.97548C0 1.83596 0.537528 1.24362 1.6582 1.2135H11.6629V4.056H3.24243V7.59376H9.65577V8.67428C9.68536 9.81379 9.11824 10.3622 7.95442 10.3622H3.24243V14.6103H11.6616V17.6297H0V2.97548Z" fill="white"/>
<path d="M31.9189 4.29324V14.6103H26.0295V2.84249H24.4009C23.4701 2.84249 22.7427 3.65697 22.7291 4.60447V14.6103H16.8101V1.19849H15.1815C14.6871 1.19849 13.5098 1.21355 13.5098 1.21355V17.6298H35.2352V4.30704L31.9201 4.29198L31.9189 4.29324Z" fill="white"/>
<path d="M49.0642 11.3536C49.0642 15.7648 47.1298 17.9999 43.3203 17.9999C39.5107 17.9999 37.606 15.7648 37.606 11.3536C37.606 6.94242 39.5107 4.69226 43.3203 4.69226C47.1298 4.69226 49.0642 6.89724 49.0642 11.3536ZM40.8188 11.3536C40.8484 13.8548 41.6769 15.1135 43.2907 15.1135C44.9045 15.1135 45.7194 13.8109 45.7478 11.2645C45.7478 8.76338 44.9329 7.53476 43.319 7.53476C41.6473 7.53476 40.8176 8.8073 40.8176 11.3536H40.8188Z" fill="white"/>
<path d="M49.296 1.2135H60.5077V4.14385H55.7229V17.6285H52.4078V4.14511H47.623V2.97548C47.6378 2.02797 48.3652 1.2135 49.2948 1.2135H49.296Z" fill="white"/>
<path d="M31.9189 1.77578C31.9189 0.606149 32.4713 0 33.5907 0H35.2341V3.06463H31.9189V1.77703V1.77578Z" fill="white"/>
<path d="M68.7096 15.2767H60.479V17.6298H69.9597V16.8605C69.9597 15.9569 69.4222 15.2767 68.7096 15.2767Z" fill="white"/>
<path d="M75.3697 17.6737C74.3378 17.6737 73.8286 16.9785 73.8286 15.9118C73.8286 14.845 74.3661 14.1498 75.4276 14.1498C75.8345 14.1498 76.1698 14.2539 76.4164 14.461C76.6494 14.6831 76.7801 14.9793 76.8232 15.3495H76.4016C76.2561 15.3495 76.1402 15.2755 76.0823 15.1425C75.9664 14.8902 75.7482 14.7722 75.4128 14.7722C74.773 14.7722 74.4968 15.2316 74.4968 15.9118C74.4968 16.5919 74.773 17.0513 75.398 17.0513C75.8345 17.0513 76.081 16.8141 76.1538 16.4301H76.8232C76.7653 17.2144 76.2265 17.6737 75.3685 17.6737H75.3697ZM79.6305 14.5652V17.6147H81.9569V16.9935H80.3135V14.1962H79.9794C79.7907 14.1962 79.6305 14.3744 79.6305 14.5664V14.5652ZM86.2904 17.6737C87.3223 17.6737 87.9042 16.9634 87.9042 15.9118C87.9042 14.8601 87.2939 14.1498 86.2904 14.1498C85.2868 14.1498 84.6914 14.8601 84.6914 15.9118C84.6914 16.9634 85.2733 17.6737 86.2904 17.6737ZM86.2904 14.7584C86.9302 14.7584 87.2212 15.2316 87.2212 15.913C87.2212 16.5945 86.9154 17.0826 86.2904 17.0826C85.6653 17.0826 85.3744 16.5794 85.3744 15.913C85.3744 15.2466 85.6505 14.7584 86.2904 14.7584ZM90.7114 14.5652V16.3861C90.7114 17.2445 91.191 17.6587 92.0491 17.6587C92.9071 17.6587 93.3719 17.2295 93.3719 16.3861V14.195H92.6889V16.3121C92.6889 16.8153 92.4707 17.0676 92.0343 17.0676C91.5978 17.0676 91.3944 16.8153 91.3944 16.3121V14.195H91.0603C90.8717 14.195 90.7114 14.3732 90.7114 14.5652ZM97.4737 14.21H96.4997C96.2667 14.2251 96.1508 14.343 96.1508 14.5802V17.6298H97.285C97.5908 17.6298 97.8226 17.5997 97.9976 17.5558C98.6523 17.3776 99.0012 16.7563 99.0012 15.913C99.0012 14.8174 98.5499 14.1962 97.4749 14.2113L97.4737 14.21ZM98.3021 15.898C98.3021 16.6233 98.0691 16.9935 97.3861 16.9935H96.8338V14.8024H97.4737C98.0987 14.8024 98.3021 15.2165 98.3021 15.898Z" fill="white"/>
</g>
<defs>
<clipPath id="clip0_3405_44214">
<rect width="99" height="18" fill="white"/>
</clipPath>
</defs>
</svg>
