<svg width="73" height="23" viewBox="0 0 73 23" fill="none" xmlns="http://www.w3.org/2000/svg">
<path d="M11.3605 18.3064V19.6141H1.15406C0.918457 19.2096 0.733899 18.7714 0.563477 18.308L11.3605 18.3064Z" fill="white"/>
<path d="M11.3607 20.856V22.0514C11.3607 22.1126 11.3112 22.1629 11.2492 22.1629H5.60956C4.47551 22.1629 3.18753 21.7678 2.17285 20.856H11.3607Z" fill="white"/>
<path d="M12.594 0.110446V7.81868C12.594 7.86581 12.5791 7.91136 12.5516 7.94985L7.83322 14.4265C7.79159 14.4839 7.72405 14.5184 7.65337 14.5184H0.296954C0.223916 14.5184 0.168942 14.4485 0.189361 14.3778C0.362139 13.7605 0.648793 13.1903 1.02419 12.6899L9.21073 1.86275C10.3801 0.413624 11.8833 0.0868836 12.4684 0.0012714C12.5351 -0.00893923 12.5948 0.0436846 12.5948 0.111232L12.594 0.110446Z" fill="white"/>
<path d="M11.3609 15.826V17.0662H0.16886C0.165719 17.056 0.0141456 16.6484 9.22108e-06 15.8732C-0.000776133 15.8103 0.0487011 15.7593 0.111529 15.7593H11.2942C11.3311 15.7593 11.3609 15.7891 11.3609 15.826Z" fill="white"/>
<path d="M25.9406 18.308C25.7702 18.7714 25.5856 19.2096 25.35 19.6141H15.1436V18.3064L25.9406 18.308Z" fill="white"/>
<path d="M15.1436 20.856V22.0514C15.1436 22.1126 15.193 22.1629 15.2551 22.1629H20.8947C22.0288 22.1629 23.3167 21.7678 24.3314 20.856H15.1436Z" fill="white"/>
<path d="M13.9105 0.110446V7.81868C13.9105 7.86581 13.9254 7.91136 13.9529 7.94985L18.6713 14.4265C18.7129 14.4839 18.7804 14.5184 18.8511 14.5184H26.2075C26.2806 14.5184 26.3355 14.4485 26.3151 14.3778C26.1424 13.7605 25.8557 13.1903 25.4803 12.6899L17.2938 1.86275C16.1244 0.413624 14.6212 0.0868836 14.0361 0.0012714C13.9694 -0.00893923 13.9097 0.0436846 13.9097 0.111232L13.9105 0.110446Z" fill="white"/>
<path d="M15.1436 15.8711V17.0665H26.3356C26.3388 17.0563 26.4904 16.6486 26.5045 15.8734C26.5053 15.8106 26.4558 15.7595 26.393 15.7595H15.2551C15.1938 15.7595 15.1436 15.809 15.1436 15.8711Z" fill="white"/>
<path d="M33.7654 17.7182C32.7593 17.1197 31.981 16.3131 31.4297 15.2991C30.8792 14.2851 30.6035 13.1713 30.6035 11.957C30.6035 10.7428 30.8705 9.60546 31.4061 8.59147C31.941 7.57747 32.6918 6.77476 33.6578 6.18412C34.6237 5.59347 35.7374 5.29736 36.9994 5.29736C38.2615 5.29736 39.4309 5.57698 40.3647 6.13542C41.2993 6.69465 42.0092 7.46908 42.4969 8.45873C42.9838 9.44916 43.2273 10.5825 43.2273 11.8604C43.2273 12.3073 43.1951 12.7472 43.1315 13.1776H34.5083C34.7156 13.8484 35.0675 14.3636 35.5622 14.7226C36.057 15.0823 36.6641 15.2614 37.3827 15.2614C37.9733 15.2614 38.4924 15.1891 38.9393 15.0454C39.3861 14.9016 39.8416 14.6542 40.305 14.3023L42.1969 16.8181C41.4783 17.4409 40.7236 17.8957 39.9335 18.1832C39.1427 18.4706 38.2364 18.6144 37.2146 18.6144C35.9212 18.6144 34.7714 18.3151 33.7654 17.7158V17.7182ZM39.61 10.5912C39.4505 9.90471 39.1505 9.38554 38.7115 9.03367C38.2725 8.68258 37.7251 8.50664 37.0709 8.50664C36.4167 8.50664 35.845 8.68651 35.406 9.04545C34.9669 9.40518 34.6591 9.91963 34.484 10.5904H39.61V10.5912Z" fill="white"/>
<path d="M45.3589 5.56042H47.7542L48.8325 7.02132C49.9501 5.85574 51.3629 5.27295 53.0719 5.27295C54.6049 5.27295 55.83 5.76777 56.7489 6.7582C57.667 7.74863 58.1264 9.10586 58.1264 10.8307V18.2569H54.1501V11.525C54.1501 10.6948 53.9507 10.0515 53.5517 9.59676C53.1527 9.14121 52.6093 8.91421 51.9229 8.91421C51.1878 8.91421 50.5736 9.1577 50.0781 9.64467C49.5833 10.1324 49.3351 10.7026 49.3351 11.3577V18.2569H45.3589V5.56042Z" fill="white"/>
<path d="M69.5747 6.9255L70.6043 5.56042H72.9997V16.2682C72.9997 17.466 72.724 18.5562 72.1735 19.538C71.6229 20.5198 70.8164 21.295 69.7546 21.8613C68.6928 22.4284 67.4268 22.7119 65.9582 22.7119C63.9304 22.7119 62.1413 22.1134 60.5926 20.9148L62.6526 18.1595C63.1796 18.5907 63.6987 18.8939 64.21 19.0699C64.7204 19.2458 65.2796 19.3338 65.8867 19.3338C66.9886 19.3338 67.799 19.0785 68.3182 18.5672C68.8365 18.0566 69.0964 17.2971 69.0964 16.2918C68.154 17.0741 67.0286 17.466 65.7194 17.466C64.6011 17.466 63.5997 17.2021 62.7131 16.6751C61.8264 16.148 61.1322 15.4255 60.6287 14.5073C60.1253 13.5891 59.874 12.5468 59.874 11.3813C59.874 10.2157 60.1253 9.18912 60.6287 8.25524C61.1322 7.32057 61.8264 6.59012 62.7131 6.06309C63.5997 5.53607 64.6011 5.27295 65.7194 5.27295C67.2367 5.27295 68.5216 5.82354 69.5763 6.9255H69.5747ZM64.5807 9.53706C64.0772 10.0319 63.8259 10.6626 63.8259 11.4292C63.8259 12.1958 64.0772 12.8752 64.5807 13.37C65.0841 13.8648 65.7343 14.113 66.533 14.113C67.3317 14.113 67.982 13.8656 68.4854 13.37C68.9889 12.8752 69.2402 12.2358 69.2402 11.4535C69.2402 10.6712 68.9889 10.0523 68.4854 9.54884C67.982 9.04538 67.3317 8.79404 66.533 8.79404C65.7343 8.79404 65.0841 9.04145 64.5807 9.53706Z" fill="white"/>
</svg>
