<svg width="109" height="30" viewBox="0 0 109 30" fill="none" xmlns="http://www.w3.org/2000/svg">
<g clip-path="url(#clip0_3405_44202)">
<path fill-rule="evenodd" clip-rule="evenodd" d="M79.2746 15.8744C79.3905 15.8385 79.4658 15.6672 79.5065 15.5676C79.3153 15.5556 79.12 15.5437 78.9248 15.5317C78.9207 15.6293 78.9167 15.727 78.9126 15.8246C78.9126 15.8485 78.9126 15.8724 78.9126 15.8963C79.0245 15.9082 79.1607 15.9003 79.2746 15.8744Z" fill="white"/>
<path fill-rule="evenodd" clip-rule="evenodd" d="M80.8079 15.8147C80.8018 15.8386 80.7957 15.8645 80.7896 15.8904L81.178 15.9123L81.1516 15.6732C81.0539 15.6673 80.9543 15.6593 80.8546 15.6533L80.8079 15.8127V15.8147Z" fill="white"/>
<path fill-rule="evenodd" clip-rule="evenodd" d="M74.3833 15.3208L74.4158 15.2829C74.1779 15.271 73.9359 15.259 73.6939 15.2471L73.4844 15.9443C73.6349 15.9164 73.7793 15.9124 73.9013 15.8228C74.0782 15.6734 74.2328 15.4961 74.3853 15.3208H74.3833Z" fill="white"/>
<path fill-rule="evenodd" clip-rule="evenodd" d="M83.2527 15.8228C83.1876 15.8188 83.1246 15.8128 83.0595 15.8088L83.0005 15.8925C83.0595 15.8925 83.1998 15.8865 83.2445 15.8387C83.2486 15.8347 83.2506 15.8288 83.2527 15.8228Z" fill="white"/>
<path fill-rule="evenodd" clip-rule="evenodd" d="M40.051 15.4162L39.9595 15.733C40.3642 15.729 40.7893 15.6095 41.1309 15.3923H40.5574V15.3804C40.3906 15.3923 40.2218 15.4063 40.053 15.4182L40.051 15.4162Z" fill="white"/>
<path fill-rule="evenodd" clip-rule="evenodd" d="M47.8934 15.8884C48.0093 15.8406 48.0785 15.6693 48.1171 15.5657L48.3144 14.9004C48.0622 14.9143 47.81 14.9263 47.5578 14.9402C47.5477 15.247 47.5355 15.5538 47.5273 15.8605C47.5273 15.8725 47.5273 15.8845 47.5273 15.8964C47.6453 15.8944 47.7755 15.9044 47.8934 15.8884Z" fill="white"/>
<path fill-rule="evenodd" clip-rule="evenodd" d="M109 20.3844C105.431 19.1215 101.666 17.9621 94.7942 17C94.7169 17.0458 94.6437 17.1036 94.5705 17.1534H93.6044L93.6776 16.8486C93.5393 16.8307 93.4031 16.8127 93.2627 16.7948C92.5265 17.2111 91.6032 17.255 90.808 16.984L90.5782 16.8844C90.3239 16.753 90.1226 16.6016 89.9314 16.4103C89.663 16.3824 89.3904 16.3546 89.1139 16.3267L88.9186 17.0378H82.195V17.0299L82.1909 17.0378H81.3001L81.2696 16.7609L81.1903 17.0378H75.9004L76.236 15.9283C76.4068 15.9123 76.5777 15.8984 76.7506 15.8785C76.7892 15.7311 76.7912 15.5717 76.7994 15.4203H76.0021L75.5893 15.9103L75.815 15.9263V17.0378H73.1548L73.1386 17.0936H72.2824L71.3428 15.1374C70.9848 15.1215 70.6269 15.1056 70.2628 15.0916L70.0472 15.8127C70.0411 15.8386 70.035 15.8645 70.031 15.8904L70.7225 15.9083L70.4438 17.0378H67.7145L67.9952 15.8964C68.166 15.8964 68.3551 15.9103 68.526 15.8864C68.6439 15.8366 68.7111 15.6693 68.7497 15.5637L68.9063 15.0378C68.4162 15.0179 67.9179 15 67.4155 14.9801C67.3261 15.2848 67.2366 15.5896 67.1471 15.8924H67.9626L67.6149 17.0378H63.9358L64.249 15.8944C64.4361 15.8944 64.6313 15.9083 64.8184 15.8825C64.9364 15.8605 64.9364 15.8406 64.977 15.7251C65.0686 15.4522 65.1499 15.1773 65.2313 14.9004C64.6028 14.8785 63.9642 14.8585 63.3155 14.8366C63.2789 14.8884 63.2422 14.9382 63.2036 14.988C62.805 15.4601 62.2986 15.8705 61.7759 16.2052C61.4139 16.4263 61.0478 16.5996 60.6451 16.739C60.2872 16.8526 59.9313 16.9243 59.5591 16.9741C59.1767 17.0179 58.8005 17.0358 58.4161 17.0378H54.432L54.8631 15.8366C55.1031 15.8287 55.3492 15.8326 55.5871 15.7968C55.7519 15.7649 55.7824 15.6534 55.8434 15.5119C55.9227 15.3167 55.9837 15.1175 56.0427 14.9183L56.124 14.6454C55.6502 14.6334 55.1743 14.6235 54.6902 14.6135C54.2021 14.6334 53.7161 14.6534 53.23 14.6733L52.4999 17.0976H51.6436L50.5373 14.7928C50.2586 14.8068 49.98 14.8187 49.7034 14.8326L49.4106 15.8167C49.4045 15.8426 49.3984 15.8685 49.3943 15.8964L50.0858 15.9143L49.8071 17.0438H44.5132L44.8488 15.9342C45.0197 15.9183 45.1905 15.9044 45.3613 15.8844C45.402 15.737 45.402 15.5777 45.4101 15.4263H44.6109L44.2 15.9163L44.4238 15.9323V17.0438H36.6731L37.0493 15.9064L37.5496 15.8924C37.6798 15.8745 37.6676 15.8705 37.7265 15.749C37.7469 15.6992 37.7632 15.6494 37.7794 15.5996C36.9029 15.6713 36.0385 15.747 35.1884 15.8267C35.1823 15.8506 35.1742 15.8725 35.1681 15.8964L35.9653 15.9223L35.5626 17.0458H31.9994L32.2903 16.1155C32.1967 16.1255 32.1011 16.1354 32.0076 16.1454C31.7086 16.4402 31.371 16.6952 30.9907 16.8765C30.3724 17.1434 29.6606 17.2271 28.9935 17.1215C28.7698 17.0777 28.5705 17.0139 28.3692 16.9143C28.2187 16.8307 28.0905 16.735 27.9665 16.6255C27.8058 16.6474 27.6472 16.6673 27.4885 16.6892V17.0458H24.989C17.7041 18.1494 11.8407 19.6613 7.81586 21.747L8.10669 22.5498L9.56084 22.5856L8.40566 23.4522L8.82055 24.8187L7.62266 24.0119L6.42476 24.8187L6.83965 23.4522L5.99157 22.8167C5.0479 23.4462 4.24863 24.1215 3.60596 24.8466C4.03508 24.9522 4.15101 24.7052 4.58013 24.8107C3.65273 26.3207 3.23988 27.6036 4.10627 27.8247C4.99502 27.9024 4.86283 28.737 5.43839 28.9103C6.63221 28.0319 7.52707 27.6813 8.12093 27.8585C7.05727 28.6633 6.45934 29.2948 6.59153 29.751C7.44572 30.8785 12.0441 28.0498 19.3799 25.5478C18.2837 26.3645 15.9184 27.4601 11.2326 29.3307C29.5772 22.998 31.3181 23.002 35.8839 22.2609C33.4963 22.4362 31.9608 22.745 29.1705 22.9203C37.3483 20.3844 55.3024 18.9044 66.7098 18.6095C60.6248 18.8705 52.5914 19.7848 47.7022 20.3984C58.3205 19.2589 73.3094 19.0737 83.5576 19.3446C80.6249 19.0637 77.6027 18.741 74.3548 18.6354C86.8747 17.9522 98.4367 18.8008 108.667 20.9203C108.058 20.6753 107.45 20.4303 106.842 20.1832C107.308 20.1474 108.534 20.4223 109 20.3864V20.3844ZM15.0927 26.6494L13.8948 25.8426L12.6969 26.6494L13.1118 25.2848L11.9566 24.4183L13.4108 24.3805L13.8948 23.0378L14.3788 24.3805L15.833 24.4183L14.6778 25.2848L15.0927 26.6494ZM21.3445 25.0259L20.1466 24.2191L18.9487 25.0259L19.3636 23.6593L18.2084 22.7928L19.6626 22.757L20.1466 21.4143L20.6307 22.757L22.0848 22.7928L20.9296 23.6593L21.3445 25.0259ZM25.4161 20.8486L24.2162 20.0418L23.0183 20.8486L23.4332 19.4821L22.278 18.6155L23.7322 18.5797L24.2162 17.237L24.7002 18.5797L26.1544 18.6155L24.9992 19.4821L25.4141 20.8486H25.4161Z" fill="white"/>
<path fill-rule="evenodd" clip-rule="evenodd" d="M58.6704 15.6453C59.3781 15.5836 60.153 15.4421 60.7245 14.9999L60.8628 14.8824C60.9014 14.8465 60.938 14.8067 60.9726 14.7688C60.0655 14.7429 59.1443 14.717 58.1985 14.6931L58.0277 15.2748C57.9891 15.4043 57.9525 15.5338 57.9199 15.6652C58.166 15.6792 58.4243 15.6652 58.6704 15.6453Z" fill="white"/>
<path fill-rule="evenodd" clip-rule="evenodd" d="M43.0996 15.2051C43.0101 15.2111 42.9206 15.217 42.8312 15.223L42.644 15.7091C42.7681 15.5856 42.884 15.4541 43 15.3226L43.0996 15.2051Z" fill="white"/>
<path fill-rule="evenodd" clip-rule="evenodd" d="M13.2604 9.41223L12.3818 12.3883H13.1017C13.6163 12.3883 13.9884 12.3106 14.2203 12.1573C14.4501 12.0039 14.6474 11.719 14.8142 11.3047H15.0257L14.2366 14.0377H14.0108C14.08 13.8086 14.1125 13.6114 14.1125 13.4481C14.1125 13.2847 14.08 13.1612 14.0149 13.0656C13.9478 12.968 13.8583 12.8983 13.7424 12.8505C13.6264 12.8047 13.3844 12.7828 13.0143 12.7828H12.2841L11.5398 15.2748C11.4686 15.5158 11.432 15.6991 11.432 15.8246C11.432 15.9222 11.4808 16.0059 11.5723 16.0816C11.6374 16.1333 11.7981 16.1592 12.0543 16.1592H12.7356C13.4719 16.1592 14.0637 16.0298 14.5071 15.7768C14.9504 15.5198 15.349 15.0756 15.7009 14.4421H15.9124L15.1863 16.5357H9.24365L9.31687 16.3306C9.6138 16.3226 9.81107 16.2967 9.91276 16.2529C10.0633 16.1851 10.1751 16.0995 10.2422 15.9979C10.346 15.8465 10.4639 15.5278 10.6042 15.0417L11.9547 10.4999C12.0604 10.1333 12.1133 9.85447 12.1133 9.66124C12.1133 9.5218 12.0625 9.41223 11.9608 9.33255C11.8611 9.25287 11.6638 9.21303 11.375 9.21303H11.2551L11.3222 9.00586H16.8439L16.368 10.8206H16.1564C16.1829 10.6513 16.1971 10.5079 16.1971 10.3943C16.1971 10.1971 16.1483 10.0318 16.0507 9.90028C15.9205 9.72897 15.7355 9.60148 15.4894 9.51184C15.3084 9.4461 14.8894 9.41223 14.2366 9.41223H13.2624H13.2604ZM21.1168 11.5158H22.8516L22.817 11.6533C22.6177 11.6672 22.4652 11.715 22.3574 11.7947C22.1825 11.9202 22.0523 12.1274 21.9669 12.4162L21.2876 14.719C21.0761 15.4361 20.7894 15.9381 20.4253 16.223C20.0613 16.5079 19.6017 16.6513 19.0403 16.6513C18.7231 16.6513 18.4444 16.6075 18.2024 16.5178C17.9604 16.4302 17.7835 16.3286 17.6696 16.219C17.5557 16.1075 17.4703 15.97 17.4092 15.8067C17.3482 15.6433 17.3198 15.5059 17.3198 15.3943C17.3198 15.219 17.3706 14.96 17.4703 14.6154L18.119 12.4162C18.178 12.219 18.2065 12.0736 18.2065 11.976C18.2065 11.8784 18.1699 11.8086 18.0987 11.7569C18.0275 11.7051 17.8607 11.6692 17.5984 11.6533L17.6411 11.5158H20.1955L20.1508 11.6533C19.9027 11.6533 19.7155 11.7051 19.5854 11.8086C19.4552 11.9122 19.3474 12.1134 19.2579 12.4142L18.6051 14.6134C18.4973 14.982 18.4424 15.2768 18.4424 15.4999C18.4424 15.7011 18.5258 15.8784 18.6905 16.0298C18.8573 16.1792 19.0891 16.2549 19.3861 16.2549C19.6586 16.2549 19.8904 16.2071 20.0796 16.1094C20.2687 16.0098 20.4274 15.8764 20.5535 15.6991C20.7202 15.464 20.8687 15.1294 20.9989 14.6931L21.668 12.4162C21.7046 12.2867 21.7249 12.1772 21.7249 12.0895C21.7249 11.9361 21.67 11.8206 21.5581 11.7389C21.4788 11.6812 21.3182 11.6533 21.0741 11.6533L21.1148 11.5158H21.1168ZM24.4034 14.0855L23.9499 15.6075C23.8848 15.8206 23.8522 15.98 23.8522 16.0816C23.8522 16.1752 23.8909 16.2489 23.9702 16.3067C24.0475 16.3624 24.2102 16.3943 24.4583 16.4003L24.4054 16.5357H21.9385L21.9832 16.4003C22.2293 16.4003 22.4103 16.3525 22.5262 16.2588C22.6401 16.1652 22.7459 15.9561 22.8415 15.6294L23.7933 12.4102C23.8461 12.231 23.8726 12.0895 23.8726 11.9839C23.8726 11.8863 23.838 11.8106 23.7729 11.7588C23.7078 11.7071 23.5553 11.6712 23.3153 11.6553L23.354 11.5178H25.4772C26.0833 11.5178 26.5104 11.6214 26.7585 11.8286C27.0046 12.0357 27.1286 12.3027 27.1286 12.6274C27.1286 12.97 26.9863 13.2808 26.6975 13.5557C26.5144 13.729 26.1931 13.8764 25.7335 14.0039L26.1931 15.5258C26.3172 15.9322 26.425 16.1792 26.5165 16.2608C26.608 16.3465 26.7605 16.3903 26.9761 16.3983V16.5337H25.3796L24.6556 14.0835L24.5315 14.0895C24.5051 14.0895 24.4624 14.0875 24.4034 14.0835V14.0855ZM24.4583 13.8624C24.5458 13.8684 24.621 13.8704 24.682 13.8704C25.0501 13.8704 25.3511 13.7469 25.5891 13.4999C25.825 13.2529 25.945 12.9282 25.945 12.5298C25.945 12.2927 25.8819 12.1134 25.7558 11.9879C25.6298 11.8664 25.463 11.8047 25.2576 11.8047C25.2067 11.8047 25.1477 11.8047 25.0786 11.8086L24.4603 13.8624H24.4583ZM29.5224 16.6533C29.1075 16.6533 28.774 16.5696 28.5197 16.4043C28.2655 16.2389 28.0743 16.0138 27.9462 15.727C27.8201 15.4421 27.755 15.1612 27.755 14.8903C27.755 14.3425 27.9157 13.7907 28.235 13.2349C28.5543 12.6792 28.9875 12.233 29.5305 11.8983C30.0735 11.5636 30.6084 11.3963 31.1372 11.3963C31.4484 11.3963 31.7412 11.472 32.0199 11.6254C32.2985 11.7788 32.5141 11.9919 32.6707 12.2648C32.8273 12.5397 32.9046 12.8166 32.9046 13.0935C32.9046 13.717 32.7012 14.3445 32.2965 14.972C31.8897 15.6015 31.4341 16.0557 30.9277 16.3365C30.5454 16.5457 30.0756 16.6513 29.5224 16.6513V16.6533ZM31.0131 11.7011C30.8138 11.7011 30.645 11.7349 30.5047 11.8047C30.3644 11.8764 30.22 11.9919 30.0674 12.1573C29.9149 12.3226 29.7624 12.5596 29.6058 12.8664C29.4492 13.1732 29.3027 13.5915 29.1665 14.1194C29.0282 14.6473 28.9611 15.0875 28.9611 15.4421C28.9611 15.7429 29.0282 15.97 29.1604 16.1234C29.2946 16.2768 29.4654 16.3545 29.6749 16.3545C29.9515 16.3545 30.1874 16.2648 30.3806 16.0835C30.765 15.725 31.0803 15.2011 31.3243 14.5098C31.5663 13.8186 31.6884 13.2011 31.6884 12.6612C31.6884 12.3226 31.6233 12.0776 31.4951 11.9242C31.365 11.7728 31.2043 11.6971 31.0131 11.6971V11.7011ZM35.1275 14.229L34.7126 15.6274C34.6536 15.8246 34.6272 15.966 34.6272 16.0457C34.6272 16.1592 34.6638 16.2449 34.739 16.3047C34.8143 16.3624 34.9871 16.3943 35.2536 16.3983L35.2048 16.5337H32.7032L32.7459 16.3983C32.9574 16.3983 33.1059 16.3764 33.1954 16.3365C33.2828 16.2987 33.3561 16.2369 33.415 16.1493C33.4577 16.0915 33.5228 15.9202 33.6062 15.6274L34.556 12.4421C34.6211 12.229 34.6536 12.0776 34.6536 11.9859C34.6536 11.8943 34.6129 11.8186 34.5295 11.7549C34.4462 11.6931 34.2957 11.6592 34.076 11.6533L34.1167 11.5158H36.1464C36.7036 11.5158 37.1023 11.5855 37.3483 11.723C37.7266 11.9401 37.9158 12.2668 37.9158 12.7011C37.9158 13.1353 37.7266 13.4899 37.3504 13.8086C36.9741 14.1274 36.4657 14.2887 35.8291 14.2887C35.6379 14.2887 35.4041 14.2688 35.1295 14.229H35.1275ZM35.2048 13.9441C35.3695 13.964 35.5037 13.974 35.6115 13.974C35.9593 13.974 36.2338 13.8186 36.4311 13.5079C36.6304 13.1951 36.7301 12.8724 36.7301 12.5337C36.7301 12.3047 36.667 12.1254 36.5389 11.9999C36.4087 11.8724 36.2318 11.8086 36.0061 11.8086C35.9593 11.8086 35.8983 11.8106 35.8291 11.8166L35.2068 13.9441H35.2048ZM40.5861 11.7947L40.0146 13.7409H40.1895C40.6471 13.7409 40.9827 13.6812 41.1922 13.5616C41.4017 13.4441 41.5806 13.2349 41.7271 12.9341H41.8674L41.2918 14.8883H41.1596C41.182 14.7569 41.1942 14.6513 41.1942 14.5696C41.1942 14.4341 41.1535 14.3246 41.0722 14.2369C40.9908 14.1493 40.883 14.0875 40.7529 14.0517C40.6675 14.0278 40.4905 14.0138 40.22 14.0138H39.9272L39.437 15.6971C39.3943 15.8445 39.3719 15.9561 39.3719 16.0278C39.3719 16.0855 39.4004 16.1294 39.4553 16.1632C39.5346 16.211 39.6872 16.2369 39.9129 16.2369C40.3441 16.2369 40.7508 16.1473 41.1312 15.968C41.5094 15.7887 41.8511 15.5178 42.1541 15.1553H42.3107L41.7779 16.5318H37.3931L37.4378 16.3963C37.6941 16.3963 37.8832 16.3485 38.0012 16.2549C38.1191 16.1592 38.2269 15.9501 38.3225 15.6254L39.2865 12.3943C39.3394 12.213 39.3658 12.0716 39.3658 11.97C39.3658 11.8744 39.3313 11.8027 39.2642 11.7529C39.197 11.7031 39.0404 11.6692 38.8005 11.6513L38.8411 11.5138H42.927L42.5975 12.7688H42.4612C42.4511 12.5238 42.4124 12.3485 42.3433 12.2469C42.2375 12.0895 42.0972 11.974 41.9203 11.9003C41.7474 11.8286 41.4606 11.7927 41.0701 11.7927H40.5902L40.5861 11.7947ZM45.9593 14.9182H44.371L44.0537 15.3027L43.6917 15.729C43.6205 15.8206 43.5697 15.9043 43.5371 15.978C43.5107 16.0357 43.4985 16.0895 43.4985 16.1473C43.4985 16.2051 43.531 16.2608 43.5941 16.3126C43.6591 16.3624 43.7649 16.3923 43.9134 16.4003V16.5357H42.3819L42.4185 16.4003C42.5548 16.3784 42.6768 16.3306 42.7826 16.2588C42.9229 16.1612 43.1263 15.958 43.3907 15.6493L47.023 11.4043H47.1918L47.023 15.5118C47.0149 15.727 47.0108 15.8565 47.0108 15.9003C47.0108 16.0696 47.0454 16.1911 47.1145 16.2668C47.1837 16.3445 47.2996 16.3883 47.4603 16.4003L47.4216 16.5357H45.2048L45.2455 16.4003C45.4651 16.3804 45.5892 16.3624 45.6238 16.3485C45.6949 16.3126 45.758 16.2409 45.8149 16.1314C45.8739 16.0218 45.9085 15.8306 45.9207 15.5596L45.9553 14.9202L45.9593 14.9182ZM45.9593 14.6134L46.057 12.978L44.6313 14.6134H45.9593ZM50.7428 11.5158L52.3454 14.8624L53.0653 12.4341C53.104 12.3007 53.1223 12.1832 53.1223 12.0796C53.1223 11.9561 53.0836 11.8565 53.0043 11.7828C52.925 11.709 52.7887 11.6672 52.5935 11.6533L52.6342 11.5158H54.2592L54.2225 11.6533C54.0151 11.6672 53.8443 11.723 53.71 11.8246C53.5738 11.9262 53.4619 12.1294 53.3684 12.4341L52.1176 16.5915H51.9752L49.9191 12.3126L48.9266 15.6473C48.892 15.7628 48.8758 15.8664 48.8758 15.9581C48.8758 16.0895 48.9205 16.1991 49.01 16.2768C49.0995 16.3584 49.2439 16.3983 49.4391 16.3983L49.4045 16.5337H47.7348L47.7694 16.3983C47.9118 16.3983 48.0134 16.3863 48.0745 16.3604C48.1802 16.3206 48.2839 16.2469 48.3856 16.1333C48.4873 16.0218 48.5687 15.8584 48.6297 15.6473L49.7137 11.9999C49.5794 11.8545 49.4676 11.7608 49.3781 11.717C49.2886 11.6752 49.1503 11.6533 48.9713 11.6513L49.012 11.5138H50.7428V11.5158ZM57.2081 9.21303L57.2752 9.00586H59.73C60.7693 9.00586 61.5401 9.12339 62.0383 9.35646C62.5386 9.58953 62.9393 9.95606 63.2383 10.4581C63.5352 10.96 63.6877 11.4979 63.6877 12.0716C63.6877 12.5616 63.6003 13.0417 63.4274 13.5059C63.2545 13.97 63.0613 14.3405 62.8437 14.6214C62.6261 14.9003 62.2946 15.209 61.8431 15.5457C61.3936 15.8804 60.9076 16.1314 60.3828 16.2927C59.8561 16.4541 59.2012 16.5337 58.4142 16.5337H55.1601L55.2333 16.3286C55.5343 16.3206 55.7336 16.2947 55.8353 16.2509C55.9858 16.1871 56.0977 16.1015 56.1689 15.9959C56.2767 15.8405 56.4007 15.5278 56.537 15.0577L57.8976 10.5039C58.0033 10.1453 58.0562 9.86243 58.0562 9.65925C58.0562 9.51582 58.0074 9.40427 57.9098 9.32658C57.8101 9.24889 57.619 9.21104 57.3302 9.21104H57.2061L57.2081 9.21303ZM59.2195 9.42219L57.5539 15.0577C57.4278 15.478 57.3647 15.7409 57.3647 15.8405C57.3647 15.9003 57.3851 15.9561 57.4257 16.0138C57.4644 16.0676 57.5193 16.1055 57.5864 16.1234C57.684 16.1573 57.8447 16.1752 58.0623 16.1752C58.6562 16.1752 59.2073 16.1134 59.7137 15.9939C60.2222 15.8744 60.6391 15.6971 60.9645 15.46C61.4262 15.1154 61.7943 14.6413 62.0709 14.0377C62.3454 13.4341 62.4837 12.7469 62.4837 11.978C62.4837 11.1075 62.2722 10.46 61.8492 10.0377C61.4262 9.61343 60.8079 9.40227 59.9964 9.40227C59.7971 9.40227 59.5368 9.41024 59.2195 9.42419V9.42219ZM65.9391 14.3186L65.5079 12.4899C65.4347 12.1732 65.3473 11.9581 65.2436 11.8425C65.1663 11.7529 65.0239 11.6891 64.8165 11.6533L64.8571 11.5158H67.318L67.2733 11.6533C67.0353 11.6533 66.8584 11.6991 66.7485 11.7967C66.6387 11.8923 66.5838 12.0039 66.5838 12.1353C66.5838 12.217 66.6062 12.3584 66.653 12.5616L66.9845 14.0457L67.8122 12.9282C68.0237 12.6413 68.1559 12.4401 68.2088 12.3226C68.2617 12.2051 68.2881 12.1015 68.2881 12.0138C68.2881 11.9262 68.2556 11.8465 68.1864 11.7808C68.1193 11.715 68.0095 11.6732 67.8569 11.6553L67.8976 11.5178H69.4372V11.6553C69.2969 11.6692 69.1789 11.715 69.0772 11.7887C68.9755 11.8624 68.7803 12.0975 68.4874 12.4919L67.0333 14.4541L66.6936 15.6154C66.6204 15.8565 66.5838 15.9939 66.5838 16.0357C66.5838 16.1413 66.6245 16.229 66.7099 16.2987C66.7933 16.3664 66.9316 16.4023 67.1289 16.4023H67.2733L67.2326 16.5377H64.609L64.6456 16.4023C64.8368 16.4043 64.9914 16.3804 65.1053 16.3266C65.2212 16.2728 65.3086 16.2051 65.3676 16.1214C65.4083 16.0616 65.4673 15.9043 65.5446 15.6473L65.9371 14.3206L65.9391 14.3186ZM71.3774 11.5158L72.98 14.8624L73.702 12.4341C73.7407 12.3007 73.759 12.1832 73.759 12.0796C73.759 11.9561 73.7203 11.8565 73.639 11.7828C73.5596 11.709 73.4234 11.6672 73.2302 11.6533L73.2708 11.5158H74.8958L74.8592 11.6533C74.6538 11.6672 74.4809 11.723 74.3467 11.8246C74.2105 11.9262 74.0966 12.1294 74.005 12.4341L72.7543 16.5915H72.6099L70.5537 12.3126L69.5613 15.6473C69.5287 15.7628 69.5104 15.8664 69.5104 15.9581C69.5104 16.0895 69.5552 16.1991 69.6446 16.2768C69.7362 16.3584 69.8785 16.3983 70.0738 16.3983L70.0392 16.5337H68.3695L68.402 16.3983C68.5444 16.3983 68.6461 16.3863 68.7071 16.3604C68.8128 16.3206 68.9165 16.2469 69.0182 16.1333C69.1199 16.0218 69.2013 15.8584 69.2623 15.6473L70.3463 11.9999C70.2121 11.8545 70.1002 11.7608 70.0107 11.717C69.9192 11.6752 69.7829 11.6533 69.6019 11.6513L69.6426 11.5138H71.3733L71.3774 11.5158ZM77.3445 14.9182H75.7561L75.4389 15.3027L75.0768 15.729C75.0057 15.8206 74.9548 15.9043 74.9223 15.978C74.8958 16.0357 74.8836 16.0895 74.8836 16.1473C74.8836 16.2051 74.9162 16.2608 74.9813 16.3126C75.0463 16.3624 75.1521 16.3923 75.3006 16.4003V16.5357H73.7691L73.8057 16.4003C73.942 16.3784 74.064 16.3306 74.1698 16.2588C74.3101 16.1612 74.5135 15.958 74.7779 15.6493L78.4102 11.4043H78.581L78.4102 15.5118C78.4021 15.727 78.4 15.8565 78.4 15.9003C78.4 16.0696 78.4346 16.1911 78.5037 16.2668C78.5709 16.3445 78.6868 16.3883 78.8495 16.4003L78.8108 16.5357H76.594L76.6347 16.4003C76.8544 16.3804 76.9805 16.3624 77.013 16.3485C77.0842 16.3126 77.1472 16.2409 77.2062 16.1314C77.2652 16.0218 77.3018 15.8306 77.312 15.5596L77.3465 14.9202L77.3445 14.9182ZM77.3445 14.6134L77.4421 12.978L76.0164 14.6134H77.3445ZM82.2988 11.5158L82.675 14.966L85.1135 11.5158H86.9093L86.8646 11.6533C86.6165 11.6533 86.4314 11.7051 86.3012 11.8086C86.1731 11.9122 86.0633 12.1174 85.9718 12.4222L85.0281 15.6353C84.9671 15.8365 84.9366 15.9879 84.9366 16.0855C84.9366 16.1772 84.9752 16.2509 85.0505 16.3067C85.1257 16.3604 85.2742 16.3923 85.4959 16.3963L85.4633 16.5318H82.9048L82.9496 16.3963C83.2241 16.3963 83.4275 16.3445 83.5577 16.2429C83.6899 16.1413 83.7997 15.9361 83.8912 15.6333L84.8552 12.3804L81.9225 16.5337H81.7659L81.3063 12.2987L80.328 15.6333C80.2874 15.7688 80.267 15.8824 80.267 15.974C80.267 16.0955 80.3097 16.1971 80.3972 16.2708C80.4846 16.3465 80.6331 16.3883 80.8426 16.3963L80.8039 16.5318H79.1118L79.1444 16.3963C79.3498 16.3883 79.5064 16.3465 79.6142 16.2708C79.8054 16.1333 79.9437 15.9222 80.0291 15.6353L81.1375 11.9262C81.0317 11.8126 80.9361 11.7389 80.8527 11.7051C80.7694 11.6692 80.627 11.6533 80.4277 11.6533L80.4745 11.5158H82.3028H82.2988ZM87.3201 11.6533L87.3629 11.5158H89.8644L89.8156 11.6533C89.5878 11.6533 89.417 11.7031 89.297 11.8007C89.177 11.9003 89.0733 12.1055 88.9797 12.4182L88.0442 15.6314C87.975 15.8584 87.9425 16.0098 87.9425 16.0855C87.9425 16.1752 87.9771 16.2429 88.0482 16.2947C88.1377 16.3584 88.3086 16.3923 88.5607 16.3983L88.5241 16.5337H85.9799L86.0206 16.3983C86.2768 16.3983 86.4619 16.3505 86.5819 16.2569C86.6998 16.1612 86.8076 15.9541 86.9032 15.6333L87.8469 12.4202C87.9059 12.223 87.9343 12.0736 87.9343 11.972C87.9343 11.8784 87.8977 11.8086 87.8286 11.7569C87.7574 11.7051 87.5886 11.6692 87.3222 11.6533H87.3201ZM94.839 11.4023L94.4607 12.9959H94.3123C94.294 12.5616 94.1862 12.2369 93.9869 12.0238C93.7855 11.8106 93.5252 11.7051 93.2018 11.7051C92.854 11.7051 92.5083 11.8505 92.1626 12.1413C91.8168 12.4322 91.526 12.8784 91.286 13.478C91.0928 13.964 90.9972 14.4441 90.9972 14.9182C90.9972 15.3425 91.103 15.6652 91.3165 15.8903C91.5301 16.1134 91.8209 16.225 92.1931 16.225C92.492 16.225 92.7666 16.1612 93.0127 16.0337C93.2608 15.9043 93.5089 15.6971 93.7611 15.4063H93.9421C93.6289 15.8664 93.3137 16.1891 92.9944 16.3724C92.6751 16.5577 92.2866 16.6493 91.8229 16.6493C91.2067 16.6493 90.7104 16.466 90.3342 16.0995C89.958 15.733 89.7688 15.2549 89.7688 14.6632C89.7688 14.1114 89.9173 13.5835 90.2183 13.0816C90.5193 12.5796 90.9504 12.1732 91.5138 11.8644C92.0771 11.5557 92.6364 11.4003 93.1937 11.4003C93.4052 11.4003 93.6675 11.4441 93.9828 11.5318C94.1434 11.5756 94.2553 11.5995 94.3204 11.5995C94.4465 11.5995 94.5726 11.5318 94.7027 11.4003H94.841L94.839 11.4023ZM98.9411 11.4023L98.514 13.1035H98.3879C98.3615 12.8365 98.3127 12.6234 98.2415 12.462C98.1357 12.231 97.9954 12.0517 97.8205 11.9262C97.6456 11.8007 97.4565 11.7369 97.2511 11.7369C97.0456 11.7369 96.885 11.8106 96.7365 11.9561C96.588 12.1035 96.5148 12.2688 96.5148 12.4541C96.5148 12.6393 96.5657 12.8166 96.6694 12.9939C96.7711 13.1692 97.0131 13.4361 97.3914 13.7907C97.6964 14.0756 97.9019 14.3186 98.0056 14.5238C98.1113 14.729 98.1622 14.9501 98.1622 15.1911C98.1622 15.4581 98.089 15.7071 97.9446 15.9341C97.7981 16.1612 97.5866 16.3365 97.308 16.462C97.0294 16.5855 96.7121 16.6493 96.3603 16.6493C96.1426 16.6493 95.8722 16.6174 95.5427 16.5537C95.2152 16.4899 94.9956 16.46 94.8878 16.46C94.8024 16.46 94.7251 16.474 94.658 16.4979C94.5909 16.5238 94.5055 16.5736 94.4038 16.6473H94.2573L94.7149 14.733H94.8573C94.8898 15.0696 94.959 15.3545 95.0647 15.5895C95.1705 15.8266 95.321 16.0079 95.5183 16.1413C95.7135 16.2728 95.9393 16.3385 96.1894 16.3385C96.4396 16.3385 96.647 16.2569 96.8158 16.0955C96.9846 15.9341 97.068 15.7449 97.068 15.5278C97.068 15.3425 97.0212 15.1652 96.9256 14.9939C96.8321 14.8246 96.6165 14.5756 96.2809 14.2489C95.9433 13.9242 95.7115 13.6333 95.5834 13.3764C95.4918 13.1871 95.4451 12.9839 95.4451 12.7688C95.4451 12.3963 95.5956 12.0756 95.8945 11.8027C96.1935 11.5318 96.586 11.3963 97.07 11.3963C97.2897 11.3963 97.5765 11.4441 97.9364 11.5397C98.1459 11.5975 98.2923 11.6254 98.3778 11.6254C98.451 11.6254 98.5161 11.6094 98.575 11.5796C98.634 11.5477 98.7011 11.4859 98.7784 11.3963H98.9452L98.9411 11.4023Z" fill="white"/>
<path fill-rule="evenodd" clip-rule="evenodd" d="M14.3465 0L14.8305 1.34263L16.2847 1.37849L15.1315 2.24701L15.5444 3.61155L14.3465 2.80478L13.1486 3.61155L13.5614 2.24701L12.4062 1.37849L13.8624 1.34263L14.3465 0Z" fill="white"/>
<path fill-rule="evenodd" clip-rule="evenodd" d="M20.5695 1.6814L21.0536 3.02403L22.5077 3.06187L21.3546 3.92841L21.7674 5.29295L20.5695 4.48618L19.3716 5.29295L19.7845 3.92841L18.6313 3.06187L20.0855 3.02403L20.5695 1.6814Z" fill="white"/>
<path fill-rule="evenodd" clip-rule="evenodd" d="M25.0925 6.3645L25.5765 7.70912L27.0327 7.74498L25.8775 8.61151L26.2904 9.97805L25.0925 9.16928L23.8946 9.97805L24.3074 8.61151L23.1543 7.74498L24.6084 7.70912L25.0925 6.3645Z" fill="white"/>
<path fill-rule="evenodd" clip-rule="evenodd" d="M7.33789 21.998L7.62669 21.2012L7.81989 21.741L7.33789 21.998Z" fill="white"/>
<path fill-rule="evenodd" clip-rule="evenodd" d="M5.99362 22.8127L5.68652 22.5816L6.37801 22.5637L5.99362 22.8127Z" fill="white"/>
<path fill-rule="evenodd" clip-rule="evenodd" d="M3.35957 17.0239L3.84564 18.3685L5.29979 18.4044L4.14461 19.2709L4.5595 20.6375L3.35957 19.8287L2.16168 20.6375L2.57657 19.2709L1.42139 18.4044L2.87553 18.3685L3.35957 17.0239Z" fill="white"/>
<path fill-rule="evenodd" clip-rule="evenodd" d="M1.93818 11.4541L2.42426 12.7987L3.8784 12.8346L2.72322 13.7011L3.13811 15.0676L1.93818 14.2589L0.740293 15.0676L1.15518 13.7011L0 12.8346L1.45415 12.7987L1.93818 11.4541Z" fill="white"/>
<path fill-rule="evenodd" clip-rule="evenodd" d="M3.48994 6.13745L3.97398 7.48207L5.42813 7.51793L4.27498 8.38446L4.68783 9.751L3.48994 8.94223L2.29205 9.751L2.70491 8.38446L1.55176 7.51793L3.0059 7.48207L3.48994 6.13745Z" fill="white"/>
<path fill-rule="evenodd" clip-rule="evenodd" d="M7.49637 1.4541L7.98041 2.79872L9.43455 2.83458L8.27937 3.70111L8.69426 5.06765L7.49637 4.25888L6.29848 5.06765L6.71133 3.70111L5.55615 2.83458L7.01233 2.79872L7.49637 1.4541Z" fill="white"/>
</g>
<defs>
<clipPath id="clip0_3405_44202">
<rect width="109" height="30" fill="white"/>
</clipPath>
</defs>
</svg>
