<svg width="129" height="16" viewBox="0 0 129 16" fill="none" xmlns="http://www.w3.org/2000/svg">
<g clip-path="url(#clip0_3405_44207)">
<path d="M36.426 5.1237C36.0323 5.1237 35.7217 4.81458 35.6758 4.43559C35.6452 4.17094 35.5927 3.94651 35.5183 3.75807C35.3893 3.42355 35.1771 3.16948 34.8797 2.99587C34.5822 2.82437 34.1929 2.71216 33.7073 2.66558C33.2217 2.61688 32.6224 2.59359 31.9094 2.59359H28.0927C27.4606 2.59359 26.9247 2.61265 26.4895 2.65076C26.0586 2.68463 25.7021 2.75662 25.4199 2.86671C25.1378 2.97681 24.9212 3.13349 24.7659 3.34098C24.6128 3.54635 24.5013 3.82159 24.4313 4.16035C24.3613 4.50123 24.3219 4.92044 24.3132 5.41799C24.3044 5.91131 24.2979 6.50202 24.2979 7.19436C24.2979 7.8867 24.3023 8.47741 24.3132 8.97496C24.3285 9.46828 24.3701 9.88537 24.4401 10.2262C24.51 10.5671 24.6194 10.8402 24.7659 11.0456C24.9191 11.251 25.1378 11.4098 25.4199 11.5199C25.7021 11.63 26.0586 11.7041 26.4895 11.7422C26.9247 11.7761 27.4606 11.793 28.0927 11.793H31.916C32.4715 11.793 32.9483 11.7782 33.3486 11.7485C33.7489 11.721 34.0901 11.6681 34.3722 11.5898C34.6544 11.5135 34.8818 11.4077 35.0546 11.2743C35.2274 11.1409 35.3608 10.9715 35.4549 10.7704C35.5533 10.565 35.6211 10.3194 35.6539 10.0357C35.6889 9.74775 35.7064 9.41323 35.7064 9.03001V8.33979H30.584C30.2559 8.33979 29.989 8.0836 29.989 7.76601C29.989 7.44843 30.2559 7.19224 30.584 7.19224H36.0651C36.6535 7.19224 37.1325 7.6538 37.1325 8.22545V9.03212C37.1325 9.49157 37.1019 9.90866 37.0428 10.2834C36.9838 10.6518 36.8766 10.9821 36.7235 11.2743C36.5747 11.5622 36.3735 11.8121 36.122 12.0217C35.8683 12.2313 35.5511 12.407 35.164 12.5467C34.7769 12.6801 34.3175 12.7796 33.7839 12.841C33.248 12.9088 32.6246 12.9427 31.9116 12.9427H28.0883C27.2178 12.9427 26.4829 12.8897 25.8836 12.7839C25.2909 12.6823 24.7988 12.5298 24.4138 12.3244C24.0289 12.1127 23.7292 11.8502 23.517 11.5326C23.3093 11.215 23.1562 10.8445 23.0555 10.4189C22.9615 9.99123 22.9068 9.51062 22.8915 8.97496C22.8762 8.4393 22.8696 7.84435 22.8696 7.19436C22.8696 6.54436 22.8762 5.94942 22.8915 5.41164C22.9068 4.87386 22.9615 4.39325 23.0555 3.96768C23.154 3.54211 23.3071 3.1716 23.517 2.85401C23.7292 2.53854 24.0289 2.276 24.4138 2.07063C24.8009 1.85891 25.2909 1.70435 25.8836 1.60484C26.4829 1.49898 27.2178 1.44604 28.0883 1.44604H31.905C32.6181 1.44604 33.2414 1.47992 33.7751 1.54767C34.311 1.60907 34.7703 1.70858 35.1552 1.84197C35.5424 1.97112 35.8617 2.13627 36.1132 2.3374C36.3713 2.53854 36.5747 2.77567 36.7235 3.0488C36.8766 3.32192 36.9838 3.63104 37.0428 3.97615C37.0691 4.12224 37.0887 4.2768 37.1019 4.43771C37.1369 4.81669 36.8132 5.12581 36.4195 5.12581L36.426 5.1237Z" fill="white"/>
<path d="M47.9458 1.44385C48.8163 1.44385 49.549 1.49678 50.144 1.60264C50.7433 1.70215 51.2354 1.85883 51.6203 2.06843C52.0053 2.27381 52.3028 2.53634 52.5105 2.85181C52.7183 3.1694 52.8692 3.53992 52.9633 3.96548C53.0617 4.39317 53.1208 4.87378 53.1339 5.40944C53.1536 5.94722 53.1645 6.54005 53.1645 7.19216C53.1645 7.84427 53.1536 8.4371 53.1339 8.97276C53.1186 9.51054 53.0617 9.99116 52.9633 10.4167C52.8692 10.8423 52.7183 11.2149 52.5105 11.5304C52.3028 11.8459 52.0053 12.1105 51.6203 12.3222C51.2332 12.5276 50.7411 12.6822 50.144 12.7817C49.5512 12.8875 48.8163 12.9405 47.9458 12.9405H43.6545C42.784 12.9405 42.0491 12.8875 41.4498 12.7817C40.8548 12.6801 40.3671 12.5276 39.98 12.3222C39.595 12.1105 39.2932 11.848 39.081 11.5304C38.8732 11.2128 38.7201 10.8423 38.6195 10.4167C38.5255 9.98904 38.4708 9.50842 38.4555 8.97276C38.4402 8.4371 38.4336 7.84215 38.4336 7.19216C38.4336 6.54217 38.4402 5.94722 38.4555 5.40944C38.4708 4.87166 38.5255 4.39105 38.6195 3.96548C38.7179 3.53992 38.8732 3.1694 39.081 2.85181C39.2932 2.53634 39.5928 2.27381 39.98 2.06843C40.3671 1.85671 40.8548 1.70215 41.4498 1.60264C42.0491 1.49678 42.784 1.44385 43.6545 1.44385H47.9458ZM47.9458 11.7929C48.5735 11.7929 49.1028 11.776 49.5337 11.7421C49.969 11.704 50.3277 11.6299 50.6098 11.5198C50.892 11.4097 51.1107 11.2509 51.2638 11.0455C51.4169 10.8402 51.5285 10.567 51.5985 10.2262C51.6685 9.88529 51.7078 9.47031 51.7166 8.97488C51.7319 8.47733 51.7384 7.88238 51.7384 7.19428C51.7384 6.50617 51.7319 5.91335 51.7166 5.41791C51.7078 4.92036 51.6663 4.50115 51.5985 4.16027C51.5285 3.81939 51.4191 3.54627 51.2638 3.3409C51.1107 3.13552 50.8942 2.97673 50.6098 2.86663C50.3321 2.75654 49.9777 2.68455 49.5403 2.65068C49.1094 2.61257 48.5779 2.59351 47.9436 2.59351H43.6523C43.018 2.59351 42.4843 2.61257 42.0491 2.65068C41.6182 2.68455 41.2617 2.75654 40.9795 2.86663C40.6974 2.97673 40.4808 3.13341 40.3255 3.3409C40.1724 3.54627 40.0609 3.82151 39.9909 4.16027C39.9209 4.50115 39.8815 4.92036 39.8728 5.41791C39.8618 5.91123 39.8575 6.50194 39.8575 7.19428C39.8575 7.88662 39.8618 8.47733 39.8728 8.97488C39.8881 9.4682 39.9297 9.88529 39.9996 10.2262C40.0696 10.567 40.1768 10.8402 40.3255 11.0455C40.4786 11.2509 40.6974 11.4097 40.9795 11.5198C41.2617 11.6299 41.6182 11.704 42.0491 11.7421C42.4843 11.776 43.018 11.7929 43.6523 11.7929H47.9436H47.9458Z" fill="white"/>
<path d="M55.9536 12.7141C55.3652 12.7141 54.8862 12.2504 54.8862 11.6809V2.36503C54.8862 1.98392 55.2056 1.6748 55.5993 1.6748C55.993 1.6748 56.3123 1.98392 56.3123 2.36503V11.5623H64.7462C65.0743 11.5623 65.339 11.8206 65.339 12.1382C65.339 12.4558 65.0743 12.712 64.7462 12.712H55.9536V12.7141Z" fill="white"/>
<path d="M67.0361 12.7141V1.6748H77.8476C78.1756 1.6748 78.4403 1.93311 78.4403 2.25069C78.4403 2.56828 78.1756 2.82447 77.8476 2.82447H68.4622V6.50423H77.3707C77.6988 6.50423 77.9635 6.76254 77.9635 7.08012C77.9635 7.39771 77.6966 7.6539 77.3707 7.6539H68.4622V11.5623H77.8476C78.1756 11.5623 78.4403 11.8206 78.4403 12.1382C78.4403 12.4558 78.1756 12.712 77.8476 12.712H67.0361V12.7141Z" fill="white"/>
<path d="M81.4803 2.59581V12.0239C81.4803 12.405 81.1609 12.7141 80.7672 12.7141C80.3735 12.7141 80.0542 12.405 80.0542 12.0239V2.91551C80.0542 2.23164 80.6272 1.6748 81.3359 1.6748H81.7449C82.1736 1.6748 82.5739 1.88229 82.8123 2.22741L89.0765 11.3315L95.3407 2.22741C95.5791 1.88229 95.9772 1.6748 96.408 1.6748H96.7121C97.4185 1.6748 97.9938 2.22952 97.9938 2.91551V12.0239C97.9938 12.405 97.6744 12.7141 97.2807 12.7141C96.887 12.7141 96.5677 12.405 96.5677 12.0239V2.74613L90.1766 12.1552C89.9382 12.5045 89.538 12.7141 89.1071 12.7141H89.048C88.6172 12.7141 88.2147 12.5045 87.9785 12.1552L81.4825 2.59581H81.4803Z" fill="white"/>
<path d="M101.303 12.5066C101.303 12.6209 101.207 12.7141 101.089 12.7141H100.089C99.9712 12.7141 99.875 12.6209 99.875 12.5066V11.539C99.875 11.4247 99.9712 11.3315 100.089 11.3315H101.089C101.207 11.3315 101.303 11.4247 101.303 11.539V12.5066Z" fill="white"/>
<path d="M114.558 10.184H105.529L104.306 12.3542C104.182 12.5765 103.941 12.7141 103.681 12.7141C103.132 12.7141 102.788 12.1361 103.066 11.6767L108.722 2.29092C108.952 1.90982 109.374 1.6748 109.829 1.6748H110.258C110.713 1.6748 111.135 1.90982 111.365 2.29092L117.021 11.6767C117.298 12.1361 116.955 12.7141 116.406 12.7141C116.144 12.7141 115.905 12.5765 115.78 12.3542L114.558 10.184ZM113.845 9.03434L110.043 2.59581L106.242 9.03434H113.845Z" fill="white"/>
<path d="M128.405 1.6748C128.733 1.6748 128.998 1.93311 128.998 2.25069C128.998 2.56828 128.731 2.82447 128.405 2.82447H123.296V12.0239C123.296 12.405 122.977 12.7141 122.583 12.7141C122.189 12.7141 121.87 12.405 121.87 12.0239V2.82447H116.763C116.435 2.82447 116.17 2.56616 116.17 2.25069C116.17 1.93523 116.435 1.6748 116.763 1.6748H128.405Z" fill="white"/>
<path d="M16.6139 7.43575C16.1874 7.43575 16.6686 7.41881 16.7276 7.35106C16.7276 7.50985 16.6511 7.43575 16.4389 7.35106L13.7399 9.7626C13.7268 9.7753 13.7158 9.78588 13.7093 9.80494L12.8409 11.4183L11.802 11.107L10.9752 10.6137L8.53868 8.72938C8.44682 8.65316 8.33746 8.72515 8.33746 8.72515L7.67473 9.09778C7.64192 9.11684 7.61349 9.14648 7.59818 9.17824L7.29853 9.79859C7.22197 9.95315 7.09074 10.0675 6.92451 10.1268C6.7561 10.1839 6.57893 10.1755 6.41927 10.1014L6.03869 9.92562L6.9442 8.1302C7.13011 7.76392 7.53912 7.54161 7.96125 7.5776L9.08111 7.67711C9.09642 7.67923 11.1196 7.32777 11.1196 7.32777C11.1568 7.3193 11.194 7.30236 11.2202 7.27695L14.8882 4.08839C14.8422 4.0164 14.7548 4.08839 14.8882 4.08839C14.6126 4.12226 14.8138 4.23448 14.8138 3.82373C14.2123 3.98252 15.0019 3.91054 14.5754 3.91054C14.5142 4.17519 14.2386 4.6177 14.5754 3.91054C14.5754 4.05874 14.5754 3.8936 14.5754 3.91054L10.9927 6.9763L9.08548 7.31083L7.99188 7.21344C7.4735 7.16897 6.97263 7.4061 6.69048 7.81685L5.12224 7.15839L3.98926 5.58104C4.068 5.46459 4.11394 5.32697 4.11394 5.17877C4.11394 4.76802 3.76617 4.4335 3.33966 4.4335C2.91315 4.4335 2.5632 4.76802 2.5632 5.17877C2.5632 5.58951 2.91097 5.92403 3.33966 5.92403C3.47308 5.92403 3.59775 5.89016 3.70493 5.83088L4.84228 7.41034C4.86196 7.43786 4.8904 7.45904 4.92539 7.47174L6.51332 8.1429L5.61218 9.93409C5.58812 9.97855 5.58593 10.0294 5.60343 10.0738C5.61874 10.1204 5.65374 10.1585 5.69967 10.1797L6.25522 10.4338C6.50675 10.5481 6.79109 10.5629 7.05356 10.4719C7.31821 10.3829 7.526 10.1987 7.64629 9.95526L7.92188 9.38996L8.43369 9.10202L10.6843 10.8297L11.8042 11.4987L12.4319 11.5517L12.7403 11.793C12.7513 11.9095 12.7491 12.1466 12.6069 12.316C12.5019 12.443 12.3313 12.5108 12.0995 12.5256L10.5028 11.6046L9.53168 10.8996C9.442 10.8424 9.32608 10.8678 9.26702 10.9504C9.20797 11.0351 9.23422 11.1473 9.31952 11.2044L10.2819 11.8862L11.078 12.3541L11.5527 12.5256L11.8742 12.822C11.8873 12.9512 11.8917 13.2222 11.732 13.3873C11.6139 13.5101 11.4149 13.5567 11.1415 13.5334L8.81427 12.009C8.72678 11.9497 8.60867 11.973 8.54962 12.0556C8.49056 12.1381 8.51462 12.2525 8.59992 12.3096L10.8812 13.8065C10.8703 13.8976 10.8353 14.0352 10.7215 14.1178C10.5794 14.2173 10.33 14.2152 9.99974 14.1093L8.61742 13.1332C8.53431 13.0718 8.41401 13.0888 8.35058 13.1714C8.28934 13.2539 8.30683 13.3683 8.39214 13.4275L9.80289 14.4438C9.74165 14.6132 9.45731 14.9456 9.01112 14.8927C9.05049 14.791 9.0833 14.556 9.06799 14.4438C9.04174 14.266 8.9455 14.1093 8.79458 13.9992C8.66116 13.9018 8.49931 13.8573 8.33527 13.8679C8.34402 13.8065 8.34402 13.743 8.33746 13.6816C8.30683 13.4805 8.19966 13.3069 8.03343 13.1841C7.86064 13.057 7.65067 13.0104 7.45163 13.038C7.45163 13.0041 7.45163 12.9681 7.44726 12.9321C7.42101 12.731 7.31384 12.5574 7.14542 12.4346C6.98138 12.3139 6.77141 12.2609 6.56581 12.2885C6.56362 12.2885 6.56362 12.2906 6.56143 12.2906C6.56581 12.0471 6.45645 11.8036 6.23773 11.6448C5.87465 11.3823 5.35628 11.45 5.08287 11.7951L4.74385 12.2144C4.41358 11.9921 4.18393 11.8311 4.12268 11.7888L3.1625 10.745C3.25436 10.6243 3.31123 10.4719 3.31123 10.3088C3.31123 9.8981 2.96346 9.56357 2.53476 9.56357C2.10607 9.56357 1.7583 9.8981 1.7583 10.3088C1.7583 10.7196 2.10607 11.0562 2.53476 11.0562C2.65506 11.0562 2.76661 11.0266 2.86722 10.98L3.85147 12.0471C3.85147 12.0471 3.87115 12.0662 3.88209 12.0746C3.88209 12.0746 4.12487 12.2461 4.51201 12.5065L4.25829 12.8241C4.12487 12.9914 4.068 13.1989 4.09863 13.4106C4.12925 13.6202 4.24079 13.8065 4.41577 13.9314C4.5645 14.0415 4.73948 14.0924 4.91446 14.0924C4.9932 14.0924 5.06975 14.0775 5.1463 14.0585C5.16818 14.2533 5.27972 14.429 5.44814 14.5645C5.69748 14.7699 6.02994 14.7127 6.02994 14.7127C6.02994 14.7466 6.02994 14.7826 6.03431 14.8165C6.06275 15.0155 6.16992 15.1933 6.33615 15.314C6.47832 15.4177 6.64455 15.4686 6.80859 15.4686C6.90483 15.4686 7.00106 15.4474 7.08855 15.4156C7.12355 15.5744 7.21323 15.7163 7.34665 15.8137C7.4735 15.9068 7.62442 15.9513 7.77097 15.9513C7.98313 15.9513 8.19091 15.8603 8.32871 15.6866L8.80552 15.0959C8.86676 15.1129 8.92144 15.1277 8.96956 15.134C9.02643 15.1404 9.08111 15.1446 9.1336 15.1446C9.66072 15.1446 9.93413 14.8037 10.0479 14.5095C10.4284 14.6026 10.4131 14.158 10.6318 13.9992C10.8243 13.8573 10.8046 13.7557 10.8331 13.6012C11.1568 13.599 11.5549 13.5779 11.7298 13.3894C11.9507 13.1608 12.106 12.9766 12.0973 12.7712C12.3794 12.7289 12.5347 12.5828 12.6878 12.4007C12.9306 12.1064 13.1318 11.8714 13.1122 11.721L14.0373 10.0018L16.732 7.59666C16.5461 7.7618 16.3974 7.48233 16.522 7.48233C16.638 7.48233 16.522 7.77239 16.522 7.35952C16.638 7.16262 16.8785 7.41034 16.6205 7.44421L16.6139 7.43575ZM3.33747 5.55563C3.11875 5.55563 2.94159 5.38626 2.94159 5.17665C2.94159 4.96704 3.11875 4.79766 3.33747 4.79766C3.55619 4.79766 3.73117 4.96492 3.73117 5.17665C3.73117 5.38837 3.55401 5.55563 3.33747 5.55563ZM2.52383 10.6794C2.30511 10.6794 2.13013 10.51 2.13013 10.2983C2.13013 10.0865 2.30511 9.91927 2.52383 9.91927C2.74255 9.91927 2.91971 10.0887 2.91971 10.2983C2.91971 10.5079 2.74255 10.6794 2.52383 10.6794ZM5.25348 13.5503C5.10693 13.7367 4.82916 13.7727 4.63449 13.6308C4.54044 13.563 4.4792 13.4635 4.4617 13.3513C4.44639 13.237 4.47701 13.1269 4.54701 13.0359L5.37159 12.009C5.45908 11.8989 5.59031 11.8396 5.72592 11.8396C5.81997 11.8396 5.91402 11.8693 5.99276 11.9264C6.18742 12.0683 6.22679 12.335 6.07806 12.5192C6.06494 12.5362 5.26223 13.5355 5.25129 13.5503H5.25348ZM6.18961 14.2342C6.12836 14.2935 6.04963 14.3295 5.96651 14.3422C5.86152 14.3549 5.75435 14.3274 5.66686 14.266C5.50719 14.1495 5.46564 13.9399 5.5575 13.7727C5.55969 13.7727 6.38427 12.7458 6.38427 12.7458C6.44551 12.6886 6.69267 12.5658 6.90483 12.7183C7.15636 12.8919 7.047 13.1777 6.98138 13.2582L6.18961 14.2342ZM7.12136 14.9393C6.98794 15.1086 6.73204 15.1425 6.55706 15.0155C6.47176 14.952 6.41489 14.8609 6.39958 14.7593C6.38646 14.6577 6.4127 14.556 6.47832 14.4735L7.26134 13.508C7.34008 13.4318 7.4407 13.3873 7.54787 13.3873C7.63098 13.3873 7.71847 13.4127 7.79284 13.4657C7.87595 13.5292 7.93282 13.6202 7.94813 13.7218C7.96344 13.8235 7.93501 13.9272 7.87158 14.0077L7.12136 14.9393ZM8.61742 14.7085L8.01812 15.4516C7.91095 15.5871 7.70972 15.6125 7.56974 15.5109C7.50194 15.4622 7.45819 15.3881 7.44507 15.3077C7.43413 15.2272 7.45819 15.1446 7.50631 15.0811L8.10561 14.3401C8.1581 14.2744 8.35933 14.1072 8.56493 14.2596C8.78584 14.4205 8.66554 14.645 8.61523 14.7085H8.61742ZM16.4367 7.54161C16.218 7.54161 16.463 7.79779 16.463 7.58607C16.463 7.37858 16.2443 7.58607 16.463 7.58607C16.6817 7.58607 16.4367 7.33412 16.4367 7.54161C16.6555 7.54161 16.4367 7.75121 16.4367 7.54161Z" fill="white"/>
<path d="M4.85141 8.78654C4.91265 8.78654 4.97389 8.7569 5.01107 8.70608C5.07013 8.62139 5.04388 8.50918 4.95858 8.45413L2.95509 7.15203C2.86541 7.09698 2.74949 7.11815 2.69043 7.20284C2.63138 7.28541 2.65763 7.39974 2.74511 7.45691L4.74861 8.7569C4.78141 8.77595 4.81641 8.78654 4.85359 8.78654H4.85141Z" fill="white"/>
<path d="M2.4454 8.60647L4.1055 9.64604C4.13831 9.66933 4.19517 9.69897 4.23673 9.69897C4.29579 9.69897 4.36359 9.69473 4.40296 9.64604C4.4642 9.56346 4.44233 9.44913 4.35922 9.38985L2.61819 8.27406C2.58538 8.25289 2.54601 8.2423 2.50445 8.24019L1.57051 8.24866C1.4699 7.97765 1.20306 7.77651 0.885911 7.75534C0.465965 7.72993 0.0897633 8.0454 0.0657039 8.45615C0.0416445 8.86689 0.36754 9.22047 0.796235 9.24376C0.811546 9.24376 0.826856 9.24588 0.842167 9.24588C1.22493 9.24588 1.54645 8.97487 1.60332 8.61494L2.44759 8.60647H2.4454ZM0.81592 8.87959C0.597198 8.86689 0.433157 8.68693 0.444093 8.47944C0.457216 8.2783 0.632194 8.12374 0.837792 8.12374H0.861852C1.08057 8.13644 1.24462 8.31641 1.23368 8.5239C1.22056 8.73139 1.02589 8.89018 0.81592 8.87959Z" fill="white"/>
<path d="M1.11094 6.71171C1.53744 6.71171 1.88521 6.37718 1.88521 5.96644C1.88521 5.61921 1.63587 5.32915 1.30122 5.24658V3.40669C1.30122 3.30718 1.21592 3.22461 1.11094 3.22461C1.00595 3.22461 0.91846 3.30506 0.91846 3.40669V5.24658C0.583816 5.32915 0.334473 5.61921 0.334473 5.96644C0.334473 6.37718 0.682241 6.71171 1.11094 6.71171ZM1.11094 5.58745C1.32966 5.58745 1.50464 5.75895 1.50464 5.96644C1.50464 6.17393 1.32747 6.34542 1.11094 6.34542C0.894401 6.34542 0.717236 6.17393 0.717236 5.96644C0.717236 5.75895 0.896588 5.58745 1.11094 5.58745Z" fill="white"/>
<path d="M8.56969 6.08483C8.99619 6.08483 9.34615 5.75031 9.34615 5.33956C9.34615 4.99234 9.09681 4.70227 8.75997 4.6197V0.243362C8.75997 0.143852 8.67249 0.0612793 8.56969 0.0612793C8.46689 0.0612793 8.3794 0.143852 8.3794 0.243362V4.6197C8.04257 4.70439 7.79541 4.99445 7.79541 5.33956C7.79541 5.75031 8.14318 6.08483 8.56969 6.08483ZM8.56969 4.95846C8.78841 4.95846 8.96339 5.12784 8.96339 5.33745C8.96339 5.54705 8.78622 5.71643 8.56969 5.71643C8.35315 5.71643 8.17599 5.54705 8.17599 5.33745C8.17599 5.12784 8.35315 4.95846 8.56969 4.95846Z" fill="white"/>
<path d="M10.6778 4.31505C10.2513 4.31505 9.90137 4.64957 9.90137 5.0582C9.90137 5.46683 10.2491 5.80347 10.6778 5.80347C11.1065 5.80347 11.4521 5.46895 11.4521 5.0582C11.4521 4.96081 11.4324 4.86977 11.3974 4.78508L13.5387 3.16751C13.5846 3.13363 13.6131 3.07858 13.6131 3.02353V2.16817C13.6131 2.06866 13.5278 1.98608 13.4228 1.98608C13.3178 1.98608 13.2325 2.06866 13.2325 2.16817V2.93037L11.1765 4.48443C11.0409 4.37857 10.8703 4.31082 10.68 4.31082L10.6778 4.31505ZM10.6778 5.43931C10.4591 5.43931 10.2841 5.26781 10.2841 5.06032C10.2841 4.85283 10.4613 4.68133 10.6778 4.68133C10.8944 4.68133 11.0715 4.85283 11.0715 5.06032C11.0715 5.26781 10.8966 5.43931 10.6778 5.43931Z" fill="white"/>
<path d="M6.10473 2.64018C6.03474 2.7524 5.991 2.88155 5.991 3.0234C5.991 3.43203 6.33877 3.76867 6.76746 3.76867C7.19616 3.76867 7.54174 3.43415 7.54174 3.0234C7.54174 2.61266 7.19397 2.27813 6.76746 2.27813C6.62529 2.27813 6.49187 2.31836 6.37595 2.384L4.80771 0.844761C4.73335 0.772775 4.61086 0.772775 4.53868 0.844761C4.46432 0.91463 4.46432 1.0332 4.53868 1.10306L6.10692 2.64018H6.10473ZM7.16335 3.0234C7.16335 3.23301 6.98618 3.40239 6.76965 3.40239C6.55311 3.40239 6.37595 3.23089 6.37595 3.0234C6.37595 2.91754 6.42188 2.82015 6.49406 2.7524C6.56624 2.68676 6.66247 2.64442 6.76965 2.64442C6.98837 2.64442 7.16335 2.81591 7.16335 3.0234Z" fill="white"/>
<path d="M10.3195 3.77075C10.746 3.77075 11.0959 3.43623 11.0959 3.02548C11.0959 2.88363 11.0522 2.75448 10.9822 2.64226L12.3295 1.35074C12.4039 1.28088 12.4039 1.16231 12.3295 1.09244C12.2551 1.02257 12.1348 1.02257 12.0605 1.09244L10.7132 2.38608C10.5994 2.32044 10.4682 2.28021 10.3216 2.28021C9.89513 2.28021 9.54736 2.61474 9.54736 3.02548C9.54736 3.43623 9.89513 3.77075 10.3216 3.77075H10.3195ZM10.3195 2.64438C10.4266 2.64438 10.5229 2.68461 10.595 2.75236H10.5972C10.6716 2.82011 10.7153 2.91539 10.7153 3.02337C10.7153 3.23297 10.5382 3.40235 10.3216 3.40235C10.1051 3.40235 9.92794 3.23086 9.92794 3.02337C9.92794 2.81588 10.1029 2.64438 10.3195 2.64438Z" fill="white"/>
<path d="M5.54454 4.81464C5.48111 4.92262 5.44393 5.04542 5.44393 5.17669C5.44393 5.58743 5.7917 5.92196 6.2182 5.92196C6.64471 5.92196 6.99467 5.58743 6.99467 5.17669C6.99467 4.76594 6.6469 4.43142 6.2182 4.43142C6.0651 4.43142 5.92512 4.47588 5.80701 4.54787L3.55636 2.38616V1.78487C3.55636 1.68536 3.46887 1.60278 3.36607 1.60278C3.26327 1.60278 3.17578 1.68536 3.17578 1.78487V2.46238C3.17578 2.51108 3.19547 2.55766 3.23046 2.59154L5.54454 4.81464ZM6.61409 5.17669C6.61409 5.3863 6.43692 5.55567 6.22039 5.55567C6.00386 5.55567 5.82669 5.38418 5.82669 5.17669C5.82669 4.9692 6.00386 4.7977 6.22039 4.7977C6.43692 4.7977 6.61409 4.96708 6.61409 5.17669Z" fill="white"/>
<path d="M14.8863 4.08616C14.7529 4.08616 14.8404 4.01417 14.8863 4.08616L11.2183 7.27472C11.1899 7.30013 11.1549 7.31919 11.1177 7.32554C11.1177 7.32554 9.09455 7.677 9.07923 7.67488L7.95938 7.57537C7.53725 7.53938 7.12824 7.75957 6.94232 8.12797L6.03681 9.92339L6.41739 10.0991C6.57706 10.1732 6.75641 10.1796 6.92264 10.1245C7.08887 10.0652 7.2201 9.95092 7.29665 9.79636L7.5963 9.17601C7.61161 9.14425 7.63786 9.11461 7.67285 9.09555L8.33558 8.72292C8.33558 8.72292 8.44494 8.65093 8.5368 8.72715L10.9734 10.6115L11.8001 11.1048L12.8391 11.416L13.7074 9.80271C13.7161 9.78577 13.7249 9.77307 13.738 9.76037L16.437 7.34883C16.6514 7.43352 16.7258 7.50762 16.7258 7.34883C16.6689 7.41658 16.1877 7.43352 16.612 7.43352C16.8701 7.39964 16.6317 7.15192 16.5136 7.34883C16.5136 7.76169 16.6295 7.47163 16.5136 7.47163C16.3889 7.47163 16.5377 7.7511 16.7236 7.58596L14.0289 9.99114L13.1037 11.7103C13.1234 11.8607 12.9222 12.0957 12.6794 12.39C12.5263 12.5721 12.371 12.7182 12.0888 12.7605C12.0976 12.9638 11.9401 13.1501 11.7214 13.3787M14.8863 4.08616C14.6107 4.12003 14.8119 4.23225 14.8119 3.8215C14.2105 3.98029 15 3.90831 14.5735 3.90831M14.5757 3.90831C14.5757 3.89137 14.5757 4.05651 14.5757 3.90831C14.2389 4.61547 14.5145 4.17296 14.5757 3.90831ZM14.5757 3.90831L10.9931 6.97407L9.0858 7.3086L7.99219 7.21121C7.47382 7.16674 6.97294 7.40388 6.69079 7.81462L5.12256 7.15616L3.98958 5.57881C4.06832 5.46236 4.11425 5.32474 4.11425 5.17654C4.11425 4.76579 3.76648 4.43127 3.33997 4.43127C2.91346 4.43127 2.56351 4.76579 2.56351 5.17654C2.56351 5.58728 2.91128 5.92181 3.33997 5.92181C3.47339 5.92181 3.59806 5.88793 3.70524 5.82865L4.84259 7.40811C4.86228 7.43563 4.89071 7.45681 4.92571 7.46951L6.51363 8.14068L5.61249 9.93186C5.58843 9.97632 5.58625 10.0271 5.60374 10.0716C5.61905 10.1182 5.65405 10.1563 5.69998 10.1775L6.25554 10.4315C6.50707 10.5459 6.7914 10.5607 7.05387 10.4696C7.31852 10.3807 7.52631 10.1965 7.64661 9.95303L7.9222 9.38773L8.43401 9.09979L10.6847 10.8275L11.8045 11.4965L12.4322 11.5494L12.7406 11.7908C12.7516 11.9072 12.7494 12.1444 12.6072 12.3138C12.5022 12.4408 12.3316 12.5085 12.0998 12.5234L10.5031 11.6024L9.53199 10.8973C9.44231 10.8402 9.32639 10.8656 9.26734 10.9481C9.20828 11.0328 9.23453 11.145 9.31983 11.2022L10.2822 11.884L11.0784 12.3519L11.553 12.5234L11.8745 12.8198C11.8876 12.9489 11.892 13.2199 11.7323 13.3851M16.437 7.5415C16.2183 7.5415 16.4633 7.79768 16.4633 7.58596C16.682 7.58596 16.437 7.33401 16.437 7.5415ZM16.437 7.5415C16.437 7.7511 16.6558 7.5415 16.437 7.5415ZM11.7236 13.3809C11.6055 13.5037 11.4064 13.5502 11.133 13.5269L8.80583 12.0025C8.71834 11.9432 8.60023 11.9665 8.54118 12.0491C8.48212 12.1317 8.50618 12.246 8.59148 12.3032L10.8728 13.8001C10.8618 13.8911 10.8268 14.0287 10.7131 14.1113C10.5709 14.2108 10.3216 14.2087 9.99131 14.1028L8.60898 13.1268C8.52587 13.0654 8.40557 13.0823 8.34214 13.1649C8.2809 13.2475 8.2984 13.3618 8.3837 13.4211L9.79446 14.4374C9.73321 14.6067 9.44888 14.9391 9.00268 14.8862C9.04205 14.7846 9.07486 14.5496 9.05955 14.4374C9.0333 14.2595 8.93707 14.1028 8.78615 13.9927C8.65273 13.8953 8.49087 13.8509 8.32683 13.8615C8.33558 13.8001 8.33558 13.7365 8.32902 13.6751C8.2984 13.474 8.19122 13.3004 8.025 13.1776C7.8522 13.0506 7.64223 13.004 7.44319 13.0315C7.44319 12.9976 7.44319 12.9616 7.43882 12.9256C7.41257 12.7245 7.3054 12.5509 7.13698 12.4281C6.97294 12.3074 6.76297 12.2545 6.55737 12.282C6.55518 12.282 6.55518 12.2841 6.553 12.2841C6.55737 12.0406 6.44801 11.7972 6.22929 11.6384C5.86621 11.3758 5.34784 11.4436 5.07444 11.7887L4.73542 12.2079C4.40515 11.9856 4.17549 11.8247 4.11425 11.7823L3.15406 10.7385C3.24592 10.6178 3.30279 10.4654 3.30279 10.3024C3.30279 9.89163 2.95502 9.55711 2.52633 9.55711C2.09763 9.55711 1.74986 9.89163 1.74986 10.3024C1.74986 10.7131 2.09763 11.0498 2.52633 11.0498C2.64662 11.0498 2.75817 11.0201 2.85878 10.9735L3.84303 12.0406C3.84303 12.0406 3.86272 12.0597 3.87365 12.0682C3.87365 12.0682 4.11643 12.2397 4.50357 12.5001L4.24985 12.8177C4.11643 12.9849 4.05957 13.1924 4.09019 13.4041C4.12081 13.6137 4.23236 13.8001 4.40733 13.925C4.55607 14.0351 4.73104 14.0859 4.90602 14.0859C4.98476 14.0859 5.06131 14.0711 5.13787 14.052C5.15974 14.2468 5.27129 14.4225 5.4397 14.558C5.68905 14.7634 6.0215 14.7062 6.0215 14.7062C6.0215 14.7401 6.0215 14.7761 6.02588 14.81C6.05431 15.009 6.16148 15.1869 6.32771 15.3075C6.46988 15.4113 6.63611 15.4621 6.80015 15.4621C6.89639 15.4621 6.99263 15.4409 7.08012 15.4092C7.11511 15.568 7.20479 15.7098 7.33821 15.8072C7.46507 15.9004 7.61599 15.9448 7.76253 15.9448C7.97469 15.9448 8.18248 15.8538 8.32027 15.6802L8.79708 15.0895C8.85833 15.1064 8.91301 15.1212 8.96113 15.1276C9.01799 15.1339 9.07267 15.1382 9.12517 15.1382C9.65229 15.1382 9.92569 14.7973 10.0394 14.503C10.42 14.5961 10.4047 14.1515 10.6234 13.9927C10.8159 13.8509 10.7962 13.7492 10.8246 13.5947C11.1483 13.5926 11.5464 13.5714 11.7214 13.383L11.7236 13.3809ZM16.4633 7.58808C16.2446 7.58808 16.4633 7.38059 16.4633 7.58808ZM3.33778 5.55552C3.11906 5.55552 2.9419 5.38614 2.9419 5.17654C2.9419 4.96693 3.11906 4.79755 3.33778 4.79755C3.55651 4.79755 3.73148 4.96481 3.73148 5.17654C3.73148 5.38826 3.55432 5.55552 3.33778 5.55552ZM2.52414 10.6792C2.30542 10.6792 2.13044 10.5099 2.13044 10.2981C2.13044 10.0864 2.30542 9.91916 2.52414 9.91916C2.74286 9.91916 2.92003 10.0885 2.92003 10.2981C2.92003 10.5078 2.74286 10.6792 2.52414 10.6792ZM5.25379 13.5502C5.10724 13.7365 4.82947 13.7725 4.63481 13.6307C4.54076 13.5629 4.47951 13.4634 4.46201 13.3512C4.4467 13.2369 4.47733 13.1268 4.54732 13.0357L5.3719 12.0089C5.45939 11.8988 5.59062 11.8395 5.72623 11.8395C5.82028 11.8395 5.91433 11.8691 5.99307 11.9263C6.18773 12.0682 6.2271 12.3349 6.07837 12.5191C6.06525 12.5361 5.26254 13.5354 5.2516 13.5502H5.25379ZM6.18992 14.2341C6.12868 14.2934 6.04994 14.3294 5.96682 14.3421C5.86184 14.3548 5.75466 14.3273 5.66717 14.2659C5.50751 14.1494 5.46595 13.9398 5.55781 13.7725C5.56 13.7725 6.38458 12.7457 6.38458 12.7457C6.44582 12.6885 6.69298 12.5657 6.90514 12.7182C7.15667 12.8918 7.04731 13.1776 6.98169 13.258L6.18992 14.2341ZM7.12167 14.9391C6.98825 15.1085 6.73235 15.1424 6.55737 15.0154C6.47207 14.9518 6.4152 14.8608 6.39989 14.7592C6.38677 14.6575 6.41301 14.5559 6.47863 14.4733L7.26166 13.5079C7.3404 13.4317 7.44101 13.3872 7.54818 13.3872C7.6313 13.3872 7.71878 13.4126 7.79315 13.4655C7.87626 13.5291 7.93313 13.6201 7.94844 13.7217C7.96375 13.8234 7.93532 13.9271 7.87189 14.0076L7.12167 14.9391ZM8.61773 14.7084L8.01843 15.4515C7.91126 15.587 7.71004 15.6124 7.57005 15.5108C7.50225 15.4621 7.45851 15.388 7.44538 15.3075C7.43445 15.2271 7.45851 15.1445 7.50662 15.081L8.10592 14.34C8.15842 14.2743 8.35964 14.1071 8.56524 14.2595C8.78615 14.4204 8.66585 14.6448 8.61554 14.7084H8.61773ZM4.85134 8.78643C4.91258 8.78643 4.97382 8.75679 5.01101 8.70598C5.07006 8.62129 5.04382 8.50908 4.95851 8.45403L2.95502 7.15192C2.86534 7.09687 2.74942 7.11805 2.69037 7.20274C2.63131 7.28531 2.65756 7.39964 2.74505 7.45681L4.74854 8.75679C4.78135 8.77585 4.81634 8.78643 4.85353 8.78643H4.85134ZM2.4454 8.60647L4.1055 9.64603C4.13831 9.66932 4.19517 9.69897 4.23673 9.69897C4.29579 9.69897 4.36359 9.69473 4.40296 9.64603C4.4642 9.56346 4.44233 9.44913 4.35922 9.38985L2.61819 8.27406C2.58538 8.25289 2.54601 8.2423 2.50445 8.24019L1.57051 8.24865C1.4699 7.97765 1.20306 7.77651 0.885911 7.75534C0.465965 7.72993 0.0897633 8.0454 0.0657039 8.45614C0.0416445 8.86689 0.36754 9.22047 0.796235 9.24376C0.811546 9.24376 0.826856 9.24588 0.842167 9.24588C1.22493 9.24588 1.54645 8.97487 1.60332 8.61494L2.44759 8.60647H2.4454ZM0.81592 8.87959C0.597198 8.86689 0.433157 8.68692 0.444093 8.47943C0.457216 8.2783 0.632194 8.12374 0.837792 8.12374H0.861852C1.08057 8.13644 1.24462 8.31641 1.23368 8.5239C1.22056 8.73139 1.02589 8.89018 0.81592 8.87959ZM1.11119 6.71154C1.5377 6.71154 1.88547 6.37701 1.88547 5.96627C1.88547 5.61904 1.63613 5.32898 1.30148 5.24641V3.40652C1.30148 3.30701 1.21618 3.22444 1.11119 3.22444C1.00621 3.22444 0.918719 3.30489 0.918719 3.40652V5.24641C0.584075 5.32898 0.334732 5.61904 0.334732 5.96627C0.334732 6.37701 0.6825 6.71154 1.11119 6.71154ZM1.11119 5.58728C1.32992 5.58728 1.50489 5.75878 1.50489 5.96627C1.50489 6.17376 1.32773 6.34525 1.11119 6.34525C0.89466 6.34525 0.717495 6.17376 0.717495 5.96627C0.717495 5.75878 0.896847 5.58728 1.11119 5.58728ZM8.56961 6.08483C8.99612 6.08483 9.34608 5.75031 9.34608 5.33956C9.34608 4.99234 9.09673 4.70227 8.7599 4.6197V0.243362C8.7599 0.143852 8.67241 0.0612793 8.56961 0.0612793C8.46681 0.0612793 8.37933 0.143852 8.37933 0.243362V4.6197C8.04249 4.70439 7.79534 4.99445 7.79534 5.33956C7.79534 5.75031 8.14311 6.08483 8.56961 6.08483ZM8.56961 4.95846C8.78834 4.95846 8.96331 5.12784 8.96331 5.33745C8.96331 5.54705 8.78615 5.71643 8.56961 5.71643C8.35308 5.71643 8.17591 5.54705 8.17591 5.33745C8.17591 5.12784 8.35308 4.95846 8.56961 4.95846ZM10.6781 4.31482C10.2516 4.31482 9.90163 4.64934 9.90163 5.05797C9.90163 5.4666 10.2494 5.80324 10.6781 5.80324C11.1068 5.80324 11.4524 5.46872 11.4524 5.05797C11.4524 4.96058 11.4327 4.86954 11.3977 4.78485L13.539 3.16727C13.5849 3.1334 13.6133 3.07835 13.6133 3.0233V2.16794C13.6133 2.06842 13.528 1.98585 13.4231 1.98585C13.3181 1.98585 13.2328 2.06842 13.2328 2.16794V2.93014L11.1768 4.4842C11.0412 4.37834 10.8706 4.31058 10.6803 4.31058L10.6781 4.31482ZM10.6781 5.43907C10.4594 5.43907 10.2844 5.26758 10.2844 5.06009C10.2844 4.8526 10.4616 4.6811 10.6781 4.6811C10.8946 4.6811 11.0718 4.8526 11.0718 5.06009C11.0718 5.26758 10.8968 5.43907 10.6781 5.43907ZM6.10462 2.64008C6.03463 2.75229 5.99088 2.88145 5.99088 3.0233C5.99088 3.43193 6.33865 3.76857 6.76734 3.76857C7.19604 3.76857 7.54162 3.43405 7.54162 3.0233C7.54162 2.61256 7.19385 2.27803 6.76734 2.27803C6.62518 2.27803 6.49175 2.31826 6.37583 2.38389L4.8076 0.844659C4.73323 0.772673 4.61075 0.772673 4.53857 0.844659C4.4642 0.914528 4.4642 1.03309 4.53857 1.10296L6.1068 2.64008H6.10462ZM7.16323 3.0233C7.16323 3.23291 6.98607 3.40229 6.76953 3.40229C6.553 3.40229 6.37583 3.23079 6.37583 3.0233C6.37583 2.91744 6.42176 2.82005 6.49394 2.75229C6.56612 2.68666 6.66236 2.64431 6.76953 2.64431C6.98825 2.64431 7.16323 2.81581 7.16323 3.0233ZM10.3194 3.77069C10.7459 3.77069 11.0959 3.43616 11.0959 3.02542C11.0959 2.88356 11.0521 2.75441 10.9821 2.6422L12.3294 1.35068C12.4038 1.28081 12.4038 1.16225 12.3294 1.09238C12.2551 1.02251 12.1348 1.02251 12.0604 1.09238L10.7131 2.38601C10.5994 2.32038 10.4681 2.28015 10.3216 2.28015C9.89507 2.28015 9.5473 2.61467 9.5473 3.02542C9.5473 3.43616 9.89507 3.77069 10.3216 3.77069H10.3194ZM10.3194 2.64431C10.4266 2.64431 10.5228 2.68454 10.595 2.75229H10.5972C10.6715 2.82005 10.7153 2.91532 10.7153 3.0233C10.7153 3.23291 10.5381 3.40229 10.3216 3.40229C10.105 3.40229 9.92788 3.23079 9.92788 3.0233C9.92788 2.81581 10.1029 2.64431 10.3194 2.64431ZM5.54469 4.81449C5.48126 4.92247 5.44408 5.04527 5.44408 5.17654C5.44408 5.58728 5.79184 5.92181 6.21835 5.92181C6.64486 5.92181 6.99481 5.58728 6.99481 5.17654C6.99481 4.76579 6.64705 4.43127 6.21835 4.43127C6.06525 4.43127 5.92526 4.47573 5.80715 4.54772L3.55651 2.38601V1.78471C3.55651 1.6852 3.46902 1.60263 3.36622 1.60263C3.26342 1.60263 3.17593 1.6852 3.17593 1.78471V2.46223C3.17593 2.51093 3.19562 2.55751 3.23061 2.59138L5.54469 4.81449ZM6.61424 5.17654C6.61424 5.38614 6.43707 5.55552 6.22054 5.55552C6.004 5.55552 5.82684 5.38403 5.82684 5.17654C5.82684 4.96905 6.004 4.79755 6.22054 4.79755C6.43707 4.79755 6.61424 4.96693 6.61424 5.17654Z" stroke="white" stroke-width="0.57"/>
<path d="M12.4889 11.412C12.4342 11.4353 12.3795 11.5137 12.3883 11.5772C12.3992 11.6407 12.4627 11.6555 12.5305 11.6153C12.5567 11.6047 12.6179 11.863 12.6573 11.8609C12.6967 11.8588 12.7229 11.8757 12.747 11.8927L13.8165 12.6358C13.8537 12.6612 13.8253 12.6782 13.8209 12.7353C13.8078 12.7544 13.7684 12.7967 13.7684 12.7967C13.7662 12.8539 13.6853 12.892 13.6438 12.9513L13.4819 13.1651C13.4403 13.2244 13.425 13.2773 13.3441 13.3112C13.2894 13.3324 13.1954 13.2879 13.156 13.2625L12.2242 12.6189C12.198 12.6019 12.1739 12.585 12.1608 12.549C12.1499 12.5109 11.9333 12.549 11.9333 12.5215C11.9508 12.4453 11.9137 12.3923 11.848 12.4071C11.7824 12.4198 11.7256 12.4982 11.7234 12.5554C11.6928 12.6506 11.9355 12.6295 11.9443 12.693C11.9662 12.7671 12.0033 12.82 12.0558 12.8539L13.1779 13.5992C13.2544 13.65 13.3594 13.6606 13.4819 13.5992L13.495 13.6076C13.6022 13.5632 13.7247 13.4721 13.8231 13.3345L14.0068 13.0804C14.0921 12.964 14.1381 12.82 14.1577 12.6887C14.149 12.5681 14.1162 12.458 14.0396 12.4093L12.9176 11.664C12.8673 11.6301 12.8017 11.6153 12.7229 11.6216C12.6573 11.6365 12.572 11.3591 12.4889 11.4205V11.412Z" fill="white"/>
<path d="M11.3515 12.2165C11.2968 12.2398 11.2421 12.3181 11.2509 12.3816C11.2596 12.4451 11.3252 12.46 11.393 12.4197C11.4193 12.4092 11.4805 12.6675 11.5199 12.6653C11.5593 12.6632 11.5855 12.6802 11.6096 12.6971L12.6791 13.4402C12.7163 13.4657 12.6879 13.4826 12.6835 13.5398C12.6704 13.5588 12.631 13.6012 12.631 13.6012C12.6266 13.6583 12.5479 13.6964 12.5063 13.7557L12.3445 13.9696C12.3007 14.0288 12.2876 14.0818 12.2067 14.1156C12.152 14.1368 12.058 14.0924 12.0208 14.067L11.089 13.4233C11.0628 13.4064 11.0387 13.3894 11.0278 13.3534C11.0168 13.3153 10.8003 13.3534 10.8003 13.3259C10.8156 13.2497 10.7806 13.1968 10.7128 13.2116C10.6472 13.2243 10.5903 13.3026 10.5881 13.3598C10.5575 13.4551 10.7981 13.4339 10.809 13.4974C10.8331 13.5715 10.8681 13.6244 10.9206 13.6583L12.0426 14.4036C12.1192 14.4544 12.2242 14.465 12.3467 14.4036L12.3576 14.4121C12.4648 14.3676 12.5894 14.2766 12.6857 14.1389L12.8694 13.8849C12.9547 13.7684 13.0006 13.6244 13.0203 13.4932C13.0138 13.3725 12.9788 13.2624 12.9022 13.2137L11.7802 12.4684C11.7299 12.4346 11.6643 12.4197 11.5855 12.4261C11.5199 12.4409 11.4324 12.1636 11.3515 12.225V12.2165Z" fill="white"/>
<path d="M10.2492 12.9936C10.1967 13.0169 10.1398 13.0952 10.1486 13.1587C10.1595 13.2222 10.2229 13.2371 10.2929 13.1968C10.3192 13.1863 10.3804 13.4446 10.4198 13.4424C10.4591 13.4403 10.4854 13.4573 10.5095 13.4742L11.579 14.2173C11.6162 14.2428 11.5878 14.2597 11.5834 14.3169C11.5703 14.3359 11.5287 14.3783 11.5287 14.3783C11.5265 14.4354 11.4456 14.4735 11.404 14.5328L11.2422 14.7467C11.2006 14.8059 11.1853 14.8589 11.1044 14.8927C11.0497 14.9139 10.9556 14.8695 10.9163 14.8441L9.98671 14.2004C9.96046 14.1835 9.9364 14.1665 9.92328 14.1305C9.91234 14.0924 9.69581 14.1305 9.69581 14.103C9.71331 14.0268 9.67612 13.9739 9.60832 13.9887C9.5427 14.0014 9.48584 14.0797 9.48365 14.1369C9.45303 14.2322 9.69362 14.211 9.70456 14.2745C9.72862 14.3486 9.76361 14.4015 9.81611 14.4354L10.9381 15.1807C11.0147 15.2315 11.1197 15.2421 11.24 15.1807L11.2531 15.1892C11.3603 15.1447 11.485 15.0537 11.5812 14.916L11.7649 14.662C11.8502 14.5455 11.8962 14.4015 11.9158 14.2703C11.9071 14.1496 11.8743 14.0395 11.7977 13.9908L10.6757 13.2455C10.6254 13.2117 10.5598 13.1968 10.481 13.2032C10.4154 13.218 10.3279 12.9407 10.247 13.0021L10.2492 12.9936Z" fill="white"/>
<path d="M8.87769 13.3811C8.82301 13.3895 8.76396 13.4509 8.77052 13.5145C8.77927 13.578 8.84489 13.6097 8.91488 13.5865C8.94331 13.5822 8.99799 13.8469 9.03736 13.8553C9.07673 13.8638 9.10298 13.885 9.12923 13.9083L10.1966 14.8928C10.236 14.9267 10.2031 14.9373 10.1988 14.9902C10.1835 15.005 10.1507 15.0473 10.1507 15.0473C10.1463 15.1003 10.1004 15.1278 10.0566 15.1723L9.87725 15.3332C9.83351 15.3776 9.7832 15.4115 9.70009 15.4242C9.64541 15.4327 9.54917 15.3628 9.51199 15.3289L9.05705 14.8991C9.0308 14.8759 9.00674 14.8547 8.9958 14.8166C8.98487 14.7785 8.99581 14.7403 9.00018 14.7149C9.01986 14.6472 8.98268 14.5858 8.91488 14.5816C8.84707 14.5794 8.78802 14.6387 8.78364 14.6938C8.74865 14.7763 8.9958 14.8166 8.77052 14.9034C8.79021 14.9796 8.82739 15.0389 8.87769 15.0855L9.52511 15.6613C9.60166 15.7291 9.70665 15.7672 9.83351 15.7355L9.84663 15.746C9.95599 15.7291 10.085 15.6719 10.1878 15.564L10.3803 15.3649C10.47 15.2718 10.5203 15.1469 10.5444 15.0241C10.54 14.9055 10.5094 14.7912 10.4328 14.7234L9.31295 13.7241C9.26265 13.6775 9.19703 13.6479 9.1161 13.633C9.0483 13.6288 8.96956 13.3409 8.88426 13.379L8.87769 13.3811Z" fill="white"/>
<path d="M12.9374 12.515C12.8127 12.6908 12.6268 12.822 12.4212 12.8601C12.1872 12.875 11.9947 12.8326 11.7825 12.6929C11.601 12.5722 11.4632 12.3944 11.4238 12.1974L11.4457 12.1678C11.4085 11.9709 11.4523 11.7867 11.5791 11.6131C11.7257 11.4098 11.8897 11.3061 12.115 11.2405C12.3184 11.2045 12.5415 11.2659 12.723 11.3865C12.9352 11.5263 13.0446 11.6851 13.1102 11.901C13.1255 12.1276 13.0817 12.3118 12.9352 12.515H12.9374ZM12.3381 12.4176C12.4409 12.3986 12.5131 12.3605 12.5765 12.2737C12.6399 12.1869 12.6705 12.0789 12.653 11.9815C12.6355 11.8841 12.5656 11.7931 12.4737 11.7338C12.384 11.6745 12.3009 11.6618 12.2003 11.6808C12.0975 11.6978 12.0056 11.7655 11.9422 11.8523C11.9006 11.9095 11.8678 12.0175 11.8875 12.117C11.9072 12.2144 11.9466 12.2843 12.0362 12.3435C12.1259 12.4028 12.2397 12.4346 12.3403 12.4176H12.3381Z" fill="white"/>
<path d="M11.9816 13.4317C11.8569 13.6053 11.671 13.7387 11.4654 13.7747C11.2314 13.7895 11.0389 13.7493 10.8267 13.6074C10.6452 13.4867 10.5074 13.3089 10.4702 13.112L10.4899 13.0823C10.4527 12.8854 10.4965 12.7012 10.6233 12.5276C10.7699 12.3244 10.9339 12.2185 11.1592 12.155C11.3626 12.119 11.5879 12.1804 11.7672 12.3032C11.9794 12.4429 12.0866 12.6017 12.1544 12.8177C12.1697 13.0421 12.1259 13.2284 11.9794 13.4317H11.9816ZM11.3823 13.3343C11.4851 13.3152 11.5573 13.2792 11.6207 13.1903C11.6819 13.1035 11.7147 12.9977 11.6972 12.8981C11.6776 12.8007 11.6076 12.7118 11.5179 12.6504C11.4282 12.589 11.3451 12.5784 11.2445 12.5975C11.1417 12.6166 11.0498 12.6822 10.9864 12.769C10.9448 12.8262 10.912 12.9341 10.9317 13.0315C10.9514 13.1289 10.9908 13.1988 11.0804 13.2581C11.1701 13.3195 11.2839 13.3491 11.3845 13.3322L11.3823 13.3343Z" fill="white"/>
<path d="M10.7655 14.1601C10.6758 14.285 10.538 14.3782 10.3871 14.3993C10.2121 14.4057 10.0656 14.3697 9.90373 14.2617C9.76375 14.1686 9.65439 14.0352 9.62158 13.8912L9.63689 13.87C9.60408 13.7261 9.63252 13.5905 9.72219 13.4656C9.82718 13.3217 9.94966 13.2476 10.1159 13.2052C10.269 13.184 10.4374 13.2349 10.5774 13.328C10.7393 13.436 10.8267 13.5546 10.8814 13.7133C10.8989 13.8785 10.8705 14.014 10.7677 14.158L10.7655 14.1601ZM10.3127 14.0754C10.3893 14.0648 10.4418 14.0394 10.4877 13.9759C10.5315 13.9124 10.5533 13.8361 10.538 13.7642C10.5227 13.6922 10.468 13.6244 10.398 13.5778C10.3281 13.5313 10.2668 13.5207 10.1903 13.5313C10.1137 13.5419 10.0459 13.5884 9.99997 13.6519C9.96935 13.6943 9.94966 13.7705 9.96498 13.8425C9.98247 13.9145 10.0131 13.9674 10.0831 14.0119C10.1531 14.0585 10.2362 14.0839 10.3149 14.0733L10.3127 14.0754Z" fill="white"/>
<path d="M4.42708 9.65239C4.36365 9.63969 4.30241 9.61004 4.23242 9.57193L4.31116 9.45337C4.32428 9.4576 4.3396 9.46184 4.35491 9.46395C4.42927 9.47878 4.50582 9.48301 4.58019 9.47242C4.65456 9.46184 4.72673 9.43431 4.78798 9.38985C4.84922 9.34539 4.89952 9.28611 4.92796 9.21624C4.95858 9.14637 4.96514 9.07226 4.95639 8.99816C4.94764 8.92617 4.9214 8.85631 4.88203 8.79279C4.84484 8.72927 4.79235 8.67422 4.73329 8.62764C4.72236 8.61917 4.7158 8.61282 4.70924 8.60647C4.70267 8.60012 4.69611 8.59377 4.68299 8.58318L4.72017 8.43921C4.77485 8.46885 4.82516 8.50273 4.87328 8.54084C4.97608 8.62341 5.06138 8.71657 5.12481 8.81608C5.18824 8.91771 5.22323 9.01722 5.23636 9.11461C5.24948 9.20988 5.23636 9.29669 5.20573 9.3708C5.17511 9.4449 5.12262 9.51053 5.05044 9.55923C4.98045 9.61004 4.88859 9.64604 4.78141 9.66509C4.67424 9.68203 4.55394 9.67991 4.42927 9.65239H4.42708Z" stroke="white" stroke-width="1.7"/>
<path d="M14.405 3.98459L14.6216 3.79192C14.7156 3.70723 14.8621 3.71358 14.9474 3.80462L14.9518 3.81097C15.0393 3.90202 15.0328 4.04387 14.9387 4.12644L14.7222 4.31911L14.4028 3.98459H14.405Z" fill="white"/>
<path d="M16.2993 7.41027L16.5159 7.2176C16.6099 7.13503 16.7564 7.13926 16.8439 7.2303L16.8702 7.25783C16.9555 7.34887 16.9511 7.49072 16.8571 7.5733L16.6405 7.76597L16.3015 7.41027H16.2993Z" fill="white"/>
</g>
<defs>
<clipPath id="clip0_3405_44207">
<rect width="129" height="16" fill="white"/>
</clipPath>
</defs>
</svg>
