<svg width="73" height="16" viewBox="0 0 73 16" fill="none" xmlns="http://www.w3.org/2000/svg">
<g clip-path="url(#clip0_3405_44211)">
<path d="M56.0136 0L56.3188 0.139259C57.9674 0.207407 59.5609 0.903704 60.4105 2.26222L60.4887 2.57037C60.501 2.61778 60.6191 2.63111 60.6436 2.58963L60.82 2.27852C61.691 0.740741 63.5375 0.194074 65.1984 0.00148148H67.0342C70.0999 0.198519 72.6687 1.48 72.8634 4.72889L73.003 4.89037V15.7052H69.4757L69.4665 5.48889C69.4665 4.3837 68.7748 3.47704 67.6691 3.25037C66.5633 3.0237 65.4024 3.00444 64.2997 3.28148C63.2277 3.55111 62.3858 4.45778 62.3827 5.5837L62.3612 15.7037H58.8508L58.8385 5.70518C58.8385 4.53037 58.0687 3.56889 56.9092 3.28C55.8204 3.00889 54.6472 3.0237 53.546 3.25037C52.4388 3.47852 51.7486 4.3837 51.7486 5.49037L51.7394 15.7067H48.2075L48.2382 5.21185C48.2474 1.85333 50.9021 0.151111 54.1794 0.00444444H56.0151L56.0136 0Z" fill="white"/>
<path d="M44.9348 4.51554C44.3122 2.4948 42.7249 1.05035 40.6698 0.46665C39.9812 0.271094 39.2881 0.179243 38.5734 0.102206L38.2605 0.00146484H33.9756C30.9452 0.254798 28.2307 1.4948 27.3013 4.51554C26.602 6.78813 26.5989 9.2148 27.3029 11.4874C28.2368 14.5052 30.9452 15.7541 33.9864 15.9466L38.2621 16.0029L38.4216 15.8963C41.4443 15.7941 44.0653 14.3185 44.9364 11.4889C45.6357 9.21628 45.6372 6.79258 44.9364 4.51998L44.9348 4.51554ZM41.6237 10.0815C41.4106 11.477 40.3447 12.5318 38.7958 12.7378C37.0106 12.9748 35.2163 12.9585 33.5033 12.7526C31.9727 12.5689 30.8302 11.5274 30.6124 10.0815C30.4023 8.69184 30.4023 7.30813 30.6124 5.9185C30.8317 4.47406 31.9727 3.43258 33.5033 3.24739C35.2224 3.03998 37.0137 3.0385 38.7283 3.24739C40.2634 3.43554 41.406 4.46813 41.6253 5.9185C41.8354 7.30813 41.8369 8.69035 41.6253 10.08L41.6237 10.0815Z" fill="white"/>
<path d="M24.1036 11.234C23.6481 13.1229 22.343 14.3999 20.5594 15.0384C19.2037 15.4162 17.825 15.6858 16.3696 15.6888L7.03906 15.7095V0.291748L16.368 0.315452C17.8587 0.319896 19.2696 0.604341 20.6483 1.01619C22.4381 1.66804 23.714 2.97323 24.1358 4.80878C24.6158 6.89767 24.625 9.06953 24.102 11.234H24.1036ZM20.6852 6.05323C20.5364 4.93323 19.8095 4.15101 18.7497 3.76582C17.8863 3.58212 16.9769 3.41471 16.072 3.41323L10.5587 3.40434V12.7436L16.072 12.7347C16.9385 12.7347 17.8112 12.5836 18.6408 12.4266C21.0793 11.751 21.021 8.59693 20.6852 6.05323Z" fill="white"/>
<path d="M3.52118 15.6875L0 15.7053V0.297868L3.51964 0.296387L3.52118 15.6875Z" fill="white"/>
</g>
<defs>
<clipPath id="clip0_3405_44211">
<rect width="73" height="16" fill="white"/>
</clipPath>
</defs>
</svg>
