<svg width="58" height="24" viewBox="0 0 58 24" fill="none" xmlns="http://www.w3.org/2000/svg">
<g clip-path="url(#clip0_3405_44209)">
<path d="M9.64079 13.9919L3.57812 19.8847C9.22805 25.3729 18.3851 25.3718 24.0327 19.8813C29.6815 14.3909 29.6827 5.49046 24.0362 0L17.9735 5.89274C20.2711 8.12927 20.2699 11.7532 17.9701 13.9897C15.6702 16.2251 11.9418 16.2262 9.63964 13.993L9.64079 13.9919Z" fill="white"/>
<path d="M16.4604 5.8928C12.6942 2.23547 6.59025 2.23658 2.82516 5.89614C-0.939924 9.55571 -0.94107 15.4886 2.82172 19.1492L16.4604 5.8928Z" fill="white"/>
<path d="M10.3975 13.2564C12.2812 15.0839 15.332 15.0828 17.2134 13.2531C19.0959 11.4233 19.0959 8.45907 17.2168 6.62817L10.3975 13.2564Z" fill="white"/>
<path d="M34.4829 3.50686C34.4829 3.24722 34.5723 3.03437 34.7512 2.8661C34.93 2.69895 35.1731 2.61426 35.4804 2.61426C35.7876 2.61426 36.0261 2.69783 36.2072 2.8661C36.3884 3.03326 36.4778 3.24722 36.4778 3.50686C36.4778 3.76651 36.3861 3.98604 36.2038 4.15319C36.0215 4.32035 35.7796 4.40504 35.4804 4.40504C35.1811 4.40504 34.9392 4.32146 34.7569 4.15319C34.5746 3.98604 34.4829 3.76985 34.4829 3.50686ZM36.3735 11.6595H34.5872V5.18286H36.3735V11.6595Z" fill="white"/>
<path d="M39.4773 5.18285L39.5323 5.93059C40.0081 5.35223 40.6467 5.0625 41.447 5.0625C42.1532 5.0625 42.6783 5.2642 43.0234 5.66648C43.3685 6.06988 43.545 6.67164 43.5531 7.47398V11.6573H41.7737V7.50629C41.7737 7.13856 41.6912 6.87111 41.5272 6.70507C41.3633 6.53903 41.0904 6.45657 40.7086 6.45657C40.2076 6.45657 39.8315 6.66495 39.5816 7.08061V11.6584H37.8022V5.18174H39.4773V5.18285Z" fill="white"/>
<path d="M46.5408 5.18285L46.5958 5.93059C47.0716 5.35223 47.7102 5.0625 48.5104 5.0625C49.2167 5.0625 49.7418 5.2642 50.0869 5.66648C50.432 6.06988 50.6085 6.67164 50.6165 7.47398V11.6573H48.8372V7.50629C48.8372 7.13856 48.7546 6.87111 48.5907 6.70507C48.4267 6.53903 48.1539 6.45657 47.7721 6.45657C47.2711 6.45657 46.895 6.66495 46.6451 7.08061V11.6584H44.8657V5.18174H46.5408V5.18285Z" fill="white"/>
<path d="M51.6885 8.36101C51.6885 7.71914 51.8157 7.14636 52.0703 6.64266C52.3248 6.14009 52.6917 5.75118 53.1697 5.47593C53.6478 5.20068 54.2027 5.0625 54.8356 5.0625C55.7345 5.0625 56.4682 5.32995 57.0369 5.86484C57.6055 6.39973 57.922 7.1263 57.9885 8.04342L58.0011 8.48582C58.0011 9.47983 57.7156 10.2766 57.1446 10.8772C56.5737 11.4779 55.8078 11.7776 54.8482 11.7776C53.8886 11.7776 53.1204 11.4779 52.5483 10.8795C51.9762 10.2811 51.6896 9.46646 51.6896 8.4379V8.3599L51.6885 8.36101ZM53.4678 8.48359C53.4678 9.09872 53.5871 9.57009 53.8255 9.89549C54.064 10.2209 54.4045 10.3836 54.8482 10.3836C55.2919 10.3836 55.6164 10.2231 55.8583 9.90106C56.1002 9.57901 56.2217 9.06529 56.2217 8.35767C56.2217 7.7548 56.1002 7.28677 55.8583 6.95469C55.6164 6.62261 55.2759 6.45768 54.8356 6.45768C54.3954 6.45768 54.064 6.62261 53.8255 6.95246C53.5871 7.28231 53.4678 7.79269 53.4678 8.48359Z" fill="white"/>
<path d="M35.5354 21.243V15.6489H34.4829V15.3547H35.5354V14.4955C35.5388 13.9517 35.6799 13.5283 35.9585 13.2252C36.2359 12.9221 36.6234 12.7705 37.1198 12.7705C37.3962 12.7705 37.6346 12.8017 37.8364 12.863L37.7917 13.146C37.5979 13.0914 37.3755 13.0647 37.1256 13.0647C36.7266 13.0647 36.4113 13.1906 36.182 13.4425C35.9527 13.6943 35.8381 14.0531 35.8381 14.5167V15.3547H37.4386V15.6489H35.8381V21.243H35.5354Z" fill="white"/>
<path d="M37.4865 18.1842C37.4865 17.6225 37.5977 17.1166 37.8201 16.6686C38.0425 16.2207 38.3555 15.8719 38.7603 15.6211C39.165 15.3704 39.6236 15.2456 40.1349 15.2456C40.6462 15.2456 41.098 15.3671 41.5004 15.61C41.9039 15.8529 42.2181 16.1973 42.4439 16.6441C42.6698 17.0899 42.7844 17.5925 42.7879 18.1519V18.4126C42.7879 18.9787 42.6778 19.4846 42.4577 19.9304C42.2376 20.3761 41.9246 20.7249 41.5199 20.9757C41.1152 21.2264 40.6566 21.3512 40.1452 21.3512C39.6339 21.3512 39.1753 21.2275 38.7706 20.9812C38.3659 20.7349 38.0517 20.3895 37.827 19.9449C37.6034 19.5002 37.4888 19.001 37.4854 18.4461V18.1853L37.4865 18.1842ZM37.7892 18.4137C37.7892 18.9029 37.8889 19.352 38.0884 19.7599C38.2879 20.1677 38.5665 20.4864 38.9231 20.7149C39.2796 20.9433 39.6878 21.0581 40.1464 21.0581C40.8366 21.0581 41.3995 20.8063 41.834 20.3015C42.2685 19.7978 42.4864 19.1481 42.4864 18.3536V18.1853C42.4864 17.7028 42.3855 17.257 42.1837 16.8469C41.9819 16.4369 41.7033 16.117 41.3467 15.8864C40.9902 15.6557 40.5866 15.5409 40.1349 15.5409C39.4447 15.5409 38.8806 15.7961 38.4438 16.3076C38.007 16.8191 37.7892 17.4632 37.7892 18.2388V18.4126V18.4137Z" fill="white"/>
<path d="M45.7852 21.0581C46.3343 21.0581 46.7861 20.9166 47.1426 20.6335C47.4992 20.3505 47.6941 19.9594 47.7273 19.4579H48.03C48.0002 20.0273 47.7743 20.4853 47.3524 20.8319C46.9305 21.1785 46.4077 21.3512 45.7852 21.3512C45.0273 21.3512 44.4254 21.0849 43.9794 20.5511C43.5335 20.0173 43.311 19.2941 43.311 18.3803V18.1842C43.311 17.2916 43.5335 16.5795 43.9794 16.0457C44.4254 15.5119 45.0239 15.2456 45.7737 15.2456C46.4157 15.2456 46.9454 15.4328 47.3639 15.8061C47.7824 16.1794 48.0036 16.6764 48.03 17.2971H47.7273C47.701 16.7678 47.5095 16.3421 47.1541 16.0212C46.7975 15.7003 46.3378 15.5398 45.7737 15.5398C45.0984 15.5398 44.5687 15.776 44.187 16.2496C43.804 16.7232 43.6137 17.3807 43.6137 18.2221V18.4126C43.6137 19.2361 43.8063 19.8825 44.1927 20.3527C44.5791 20.823 45.1099 21.057 45.7852 21.057V21.0581Z" fill="white"/>
<path d="M52.6972 21.243V20.2913C52.5184 20.6178 52.257 20.8764 51.913 21.0669C51.5691 21.2575 51.1346 21.3522 50.6083 21.3522C49.9479 21.3522 49.4527 21.165 49.1225 20.7894C48.7923 20.4139 48.6237 19.8668 48.6157 19.1491V15.3569H48.9184V19.1602C48.9253 19.7843 49.0709 20.2568 49.3552 20.5777C49.6384 20.8987 50.0534 21.0591 50.598 21.0591C51.1758 21.0591 51.6471 20.9265 52.0082 20.6624C52.3705 20.3972 52.5998 20.0094 52.6972 19.4979V15.3569H53.0056V21.2441H52.6972V21.243Z" fill="white"/>
<path d="M57.6789 19.8011C57.6789 19.0868 57.0518 18.6009 55.7975 18.3424C55.0431 18.1864 54.5192 17.9858 54.2245 17.7407C53.9299 17.4955 53.782 17.159 53.782 16.731C53.782 16.3031 53.97 15.9443 54.3449 15.6646C54.7198 15.3849 55.2082 15.2456 55.809 15.2456C56.4625 15.2456 56.9864 15.3972 57.382 15.7003C57.7775 16.0034 57.9759 16.4123 57.9759 16.9272H57.6675C57.6675 16.5316 57.4955 16.2017 57.1527 15.9365C56.8087 15.6713 56.3616 15.5398 55.809 15.5398C55.2564 15.5398 54.8585 15.6523 54.549 15.8774C54.2394 16.1025 54.0847 16.3834 54.0847 16.721C54.0847 16.9862 54.142 17.1935 54.2578 17.3439C54.3736 17.4944 54.5616 17.6303 54.823 17.7518C55.0844 17.8733 55.465 17.9903 55.9649 18.1028C56.4648 18.2154 56.8603 18.348 57.1515 18.4995C57.4427 18.6511 57.6537 18.8327 57.7844 19.0411C57.9151 19.2495 57.9804 19.5047 57.9804 19.8056C57.9804 20.2703 57.7844 20.6436 57.3923 20.9266C57.0002 21.2097 56.4877 21.3512 55.8526 21.3512C55.1738 21.3512 54.6258 21.2019 54.2096 20.9021C53.7934 20.6023 53.5859 20.2179 53.5859 19.7454H53.8886C53.9184 20.1588 54.1064 20.4809 54.4515 20.7115C54.7966 20.9422 55.2644 21.057 55.8537 21.057C56.3948 21.057 56.834 20.9344 57.1722 20.6893C57.5104 20.4441 57.6789 20.1477 57.6789 19.8V19.8011Z" fill="white"/>
</g>
<defs>
<clipPath id="clip0_3405_44209">
<rect width="58" height="24" fill="white"/>
</clipPath>
</defs>
</svg>
