<svg width="68" height="20" viewBox="0 0 68 20" fill="none" xmlns="http://www.w3.org/2000/svg">
<g clip-path="url(#clip0_3405_44220)">
<path d="M62.8488 20C62.5118 20 62.1748 19.965 61.8458 19.8975C60.4123 19.6007 59.166 18.7023 58.4224 17.4289L58.4037 17.3938C58.032 16.6465 58.278 15.7669 58.9707 15.3461C59.2007 15.2058 59.4628 15.1329 59.733 15.1329C60.2759 15.1329 60.7787 15.4297 61.0462 15.9099C61.0622 15.9369 61.0782 15.9666 61.097 15.9963L61.2574 16.2148L61.4714 16.4333C61.7389 16.6708 62.0812 16.838 62.4503 16.9109C63.0387 17.0242 63.6699 16.8812 64.1379 16.5224C64.6407 16.1527 64.9376 15.6078 64.9857 14.9818C65.0339 14.3667 64.8146 13.7489 64.4 13.3307C64.4 13.3307 59.4682 8.20454 59.3612 8.06425L59.1178 7.70812C58.5321 6.77192 58.278 5.71702 58.377 4.64863C58.4251 3.91478 58.6471 3.18094 59.0162 2.53343L59.2301 2.15571C59.2676 2.09905 59.9121 1.17905 60.7199 0.793239L60.9632 0.617871C61.9903 0.0486008 63.2179 -0.137559 64.3439 0.0998622C65.74 0.402034 66.9462 1.28157 67.6522 2.51184C67.8555 2.85448 67.9117 3.26457 67.81 3.66117C67.7057 4.05777 67.4517 4.38962 67.0933 4.59467C66.874 4.72417 66.6199 4.79702 66.3578 4.79702C65.8175 4.79702 65.3067 4.49215 65.0526 4.0227C64.7638 3.53167 64.293 3.19443 63.7341 3.08111C63.1858 2.97049 62.5813 3.10539 62.1347 3.44264C61.6987 3.77179 61.4233 4.2898 61.3778 4.86716C61.335 5.44183 61.5249 5.99221 61.918 6.4104L66.5503 11.229C67.5613 12.2812 68.0855 13.7327 67.9866 15.2112C67.8555 16.7085 67.1173 18.0683 65.9593 18.9424C65.0606 19.6223 63.956 19.9973 62.8461 19.9973L62.8488 20Z" fill="white"/>
<path d="M48.1872 19.9973C45.4405 19.9973 43.2046 17.7418 43.2046 14.971V5.02631C43.2046 2.2555 45.4405 0 48.1872 0C50.934 0 53.1699 2.2555 53.1699 5.02631V14.9683C53.1699 17.7391 50.934 19.9946 48.1872 19.9946V19.9973ZM48.1872 3.03521C47.0987 3.03521 46.2134 3.92823 46.2134 5.02631V14.9683C46.2134 16.0853 47.08 16.9594 48.1872 16.9594C49.2945 16.9594 50.1611 16.0664 50.1611 14.9683V5.02631C50.1611 3.94712 49.2571 3.03521 48.1872 3.03521Z" fill="white"/>
<path d="M28.8343 10.255V18.4784C28.8343 19.3282 28.1737 19.9946 27.3312 19.9946C26.4887 19.9946 25.8281 19.3282 25.8281 18.4784V3.95791L28.837 10.255H28.8343ZM36.9515 16.0448V1.51626C36.9515 0.666397 36.2909 0 35.4484 0C34.6059 0 33.9427 0.666397 33.9427 1.51626V9.74504L36.9515 16.0448ZM28.6925 0.86065L28.6792 0.830973C28.4117 0.331849 27.8768 0.00809389 27.3178 0.00809389C27.2135 0.00809389 27.1092 0.0188857 27.0156 0.0404695C26.3176 0.180764 25.8281 0.790503 25.8281 1.51626V1.86159L34.1005 19.1609C34.3706 19.6655 34.8948 19.9946 35.4377 19.9946C35.5581 19.9946 35.6784 19.9784 35.7827 19.9487C36.4728 19.8031 36.9569 19.196 36.9569 18.4757V18.1492C36.9569 18.1492 28.9145 1.3247 28.6925 0.86065Z" fill="white"/>
<path d="M14.5495 19.9973C13.2203 19.9973 11.9686 19.4739 11.0272 18.5242C10.0858 17.5745 9.56689 16.3119 9.56689 14.971V5.02631C9.56689 3.68542 10.0858 2.42547 11.0272 1.47309C11.9686 0.523405 13.2203 0 14.5495 0C15.8788 0 17.1278 0.523405 18.0719 1.47309C19.0133 2.42277 19.5322 3.68542 19.5322 5.02631V14.9683C19.5322 16.3092 19.0133 17.5691 18.0719 18.5215C17.1305 19.4712 15.8788 19.9946 14.5495 19.9946V19.9973ZM14.5495 3.03521C14.0227 3.03521 13.5279 3.24295 13.1534 3.61797C12.779 3.99299 12.5757 4.49481 12.5757 5.02631V14.9683C12.5757 15.5106 12.779 16.0124 13.1481 16.3847C13.5172 16.757 14.0146 16.9621 14.5522 16.9621C15.0898 16.9621 15.5739 16.7544 15.9483 16.3793C16.3228 16.0016 16.5287 15.5025 16.5287 14.971V5.02631C16.5287 4.5056 16.3201 4.00917 15.943 3.62606C15.5659 3.24565 15.0711 3.03521 14.5549 3.03521H14.5495Z" fill="white"/>
<path d="M1.63414 19.9892C0.716775 19.9892 0 19.2554 0 18.3192V1.62687C0.0160472 0.723054 0.738171 0 1.64751 0C2.39371 0 3.02757 0.488331 3.22281 1.21678C3.23084 1.24376 3.24153 1.28693 3.25223 1.33279L3.26293 1.40564C3.2763 1.49467 3.28433 1.5837 3.28433 1.67004C3.28433 1.67004 3.28433 18.1276 3.28433 18.3165C3.28433 19.2554 2.5622 19.9892 1.63681 19.9892H1.63414Z" fill="white"/>
</g>
<defs>
<clipPath id="clip0_3405_44220">
<rect width="68" height="20" fill="white"/>
</clipPath>
</defs>
</svg>
