<svg width="99" height="20" viewBox="0 0 99 20" fill="none" xmlns="http://www.w3.org/2000/svg">
<g clip-path="url(#clip0_3405_44218)">
<path d="M35.4614 3.854H37.42V16.4397H35.4614V3.854Z" fill="white"/>
<path d="M39.4849 4.78252C39.4849 4.09171 40.0445 3.53235 40.7355 3.53235C41.4266 3.53235 41.9862 4.09171 41.9862 4.78252C41.9862 5.47334 41.4266 6.0327 40.7355 6.0327C40.0445 6.0327 39.4849 5.47334 39.4849 4.78252ZM39.7479 7.52899H41.7064V16.4452H39.7479V7.52899Z" fill="white"/>
<path d="M64.2832 12.7394H56.9022C57.1512 14.012 58.2816 14.9209 59.5798 14.8902C60.7158 14.8902 61.6419 14.3644 62.028 13.6148H64.1629C63.5137 15.416 61.765 16.6578 59.5602 16.6578C56.849 16.6578 54.8037 14.6441 54.8037 11.9871C54.8037 9.33011 56.849 7.31641 59.5602 7.31641C62.2714 7.31641 64.3363 9.33011 64.3363 12.0039C64.3363 12.25 64.3196 12.4961 64.2832 12.7394ZM56.919 11.1313H62.2211C61.8406 9.66852 60.3437 8.79033 58.8803 9.17069C57.9178 9.41961 57.168 10.172 56.919 11.1313Z" fill="white"/>
<path d="M66.0571 3.854H68.0157V16.4397H66.0571V3.854Z" fill="white"/>
<path d="M70.083 4.78249C70.083 4.08608 70.6454 3.52393 71.3421 3.52393C72.0388 3.52393 72.6012 4.08608 72.6012 4.78249C72.6012 5.4789 72.0388 6.04106 71.3421 6.04106C70.6454 6.04106 70.083 5.4789 70.083 4.78249ZM70.346 7.52896H72.3046V16.4452H70.346V7.52896Z" fill="white"/>
<path d="M48.8633 7.31646C47.9596 7.31646 47.0754 7.57936 46.32 8.07439V3.854H44.2075V11.9871C44.2075 14.5658 46.3004 16.6578 48.8801 16.6578C51.4598 16.6578 53.5527 14.5658 53.5527 11.9871C53.5527 9.40847 51.4598 7.31646 48.8801 7.31646H48.8661H48.8633ZM48.8633 14.6609C47.4084 14.6077 46.2444 13.4415 46.1941 11.9871C46.1941 10.5132 47.3888 9.31897 48.8633 9.31897C50.3378 9.31897 51.5326 10.5132 51.5326 11.9871C51.485 13.4415 50.3183 14.6105 48.8633 14.6609Z" fill="white"/>
<path d="M82.7354 7.52904H80.7768V12.6025C80.8188 13.7939 79.887 14.7952 78.6951 14.8371C77.5032 14.8791 76.5015 13.9477 76.4595 12.7563C76.4595 12.7031 76.4595 12.6528 76.4595 12.5997V7.52625H74.501V12.6948C74.5793 14.963 76.4847 16.7389 78.7539 16.6606C80.9503 16.5851 82.6962 14.7952 82.7242 12.5997L82.7354 7.52625V7.52904Z" fill="white"/>
<path d="M98.9943 11.2907C98.9467 9.02251 97.0665 7.22137 94.7973 7.26891C93.6194 7.29408 92.5086 7.82268 91.7476 8.72326C90.2814 6.98923 87.6877 6.77388 85.9558 8.23661C85.0297 9.01972 84.4953 10.1692 84.4981 11.383V16.4592H86.4566V11.383C86.4566 10.1916 87.4219 9.22668 88.6138 9.22668C89.8058 9.22668 90.7711 10.1916 90.7711 11.383V16.4592H92.7296V11.3383C92.7828 10.1496 93.7901 9.22668 94.982 9.27982C96.1152 9.33016 97.0133 10.2503 97.0413 11.383V16.4592H98.9998V11.2879H98.9943V11.2907Z" fill="white"/>
<path opacity="0.5" d="M15.0615 3.68335C18.1393 8.56099 23.7016 9.99296 26.6479 10.0013C28.6064 10.0013 30.6265 9.04763 28.9674 7.56253C28.4385 7.08707 27.8622 6.67314 27.2438 6.32354C25.0278 6.89968 18.5534 7.52617 15.0615 3.68335Z" fill="white"/>
<path opacity="0.75" d="M29.2695 3.15207C25.9372 1.51034 21.9949 1.00971 15.0615 3.68346C19.1717 3.44294 24.0625 4.47496 27.2438 6.32365C27.4005 6.2817 27.5236 6.24254 27.6467 6.20339C29.4738 5.57131 31.2141 4.07222 29.2695 3.15207Z" fill="white"/>
<path opacity="0.5" d="M2.87907 6.32362C2.26073 6.67042 1.68435 7.08155 1.15553 7.55142C-0.503652 9.03653 1.52766 9.99304 3.47504 9.99024C6.42128 9.99024 11.9976 8.54988 15.0614 3.67224C11.5695 7.52625 5.09505 6.89976 2.87907 6.32362Z" fill="white"/>
<path opacity="0.75" d="M15.0614 2.8947C15.8084 2.8947 16.4156 2.8052 16.4156 1.97735C16.4156 1.26136 15.4503 0 15.0614 0C14.6725 0 13.71 1.26136 13.71 1.97735C13.71 2.79681 14.3143 2.8947 15.0614 2.8947Z" fill="white"/>
<path opacity="0.75" d="M15.0615 3.68335C12.4985 7.87857 14.5019 18.568 14.8041 19.7398C14.8656 19.9664 14.9775 20 15.0615 20C15.1454 20 15.2573 19.9664 15.3189 19.7398C15.6322 18.568 17.6244 7.88696 15.0615 3.68335Z" fill="white"/>
<path d="M15.0615 3.68342C18.5534 7.52624 25.0278 6.89975 27.2438 6.32361C24.0625 4.47492 19.1717 3.44289 15.0615 3.68342Z" fill="white"/>
<path d="M15.0612 3.68342C10.951 3.44289 6.04899 4.47492 2.87891 6.32361C5.09489 6.89975 11.5694 7.52624 15.0612 3.68342Z" fill="white"/>
<path opacity="0.75" d="M15.0613 3.68346C8.11399 1.00971 4.19686 1.51034 0.853302 3.15207C-1.09128 4.07222 0.649051 5.57131 2.47612 6.20339C2.58524 6.24254 2.72233 6.2817 2.87902 6.32365C6.0491 4.47496 10.9511 3.44294 15.0613 3.68346Z" fill="white"/>
</g>
<defs>
<clipPath id="clip0_3405_44218">
<rect width="99" height="20" fill="white"/>
</clipPath>
</defs>
</svg>
