<svg width="84" height="25" viewBox="0 0 84 25" fill="none" xmlns="http://www.w3.org/2000/svg">
<g clip-path="url(#clip0_3405_44217)">
<path d="M8.90539 24.7195L8.86855 10.2189L6.0787 18.8327L3.28886 10.3811L3.22188 24.8513L0 24.7533V0.222981L3.22188 0.155396L6.03852 8.51914L8.78817 0.202706L12.0234 0.233119V24.7533L8.90539 24.7195Z" fill="white"/>
<path d="M84.0002 24.6924L80.9089 24.7668L76.4512 10.4251L76.3541 24.706L73.2729 24.76L73.2695 0.354779L76.3876 0.317606L80.785 13.8179L80.8721 0.283813L83.9935 0.297331L84.0002 24.6924Z" fill="white"/>
<path d="M65.372 24.9967C62.5252 25.1014 60.4922 23.5368 60.0033 20.9077C59.0186 15.6056 58.9047 10.2325 59.7186 4.92706C60.2109 1.70997 62.4783 -0.195946 65.7002 0.0406043C68.0211 0.209569 69.9201 1.60522 70.3923 4.10251C71.4373 9.64455 71.4071 15.342 70.3722 20.901C69.91 23.378 67.9508 24.9021 65.372 25.0001V24.9967ZM67.2843 20.0156C68.2656 14.8858 68.1953 9.91152 67.2307 4.91692C67.0197 3.82203 66.0284 3.03128 65.0504 3.05155C64.0725 3.07183 63.1816 3.98762 62.984 5.10278C62.0864 10.1751 61.5271 21.8134 65.0236 22.0263C66.0887 22.0905 67.0264 21.3437 67.281 20.019L67.2843 20.0156Z" fill="white"/>
<path d="M38.2575 21.0429C37.3967 25.4157 32.7046 24.8513 28.2603 24.7161L28.267 0.202759L34.0476 0.277103C36.2848 0.307517 37.9192 1.94985 38.3177 4.12274C39.3426 9.69519 39.3861 15.3116 38.2575 21.0395V21.0429ZM34.838 21.0091C36.4054 15.2812 36.2915 9.47891 34.838 3.9335C34.1615 3.08529 32.6074 2.92985 31.385 3.09881L31.4185 21.9417C32.5974 22.0161 34.5198 22.1749 34.838 21.0091Z" fill="white"/>
<path d="M22.0173 18.086L18.4404 18.0589L16.9166 24.7364L13.7349 24.7601L18.8792 0.280497L21.5317 0.246704L26.5521 24.6756L23.4273 24.8108L22.0173 18.086ZM21.3508 14.6661L20.2121 9.17141L19.1705 14.6492L21.3508 14.6661Z" fill="white"/>
<path d="M56.862 21.7018C55.6697 24.8986 51.5 25.882 48.9379 24.0673C47.2934 22.9015 46.781 21.0327 46.627 18.9747L49.7685 18.9882C50.033 20.2859 50.4282 21.2253 51.155 21.6511C52.0325 22.1648 53.4559 21.7052 53.7673 20.759C55.7132 14.8351 47.7824 12.6183 46.8982 5.94417C46.5164 3.07853 47.9733 0.55758 50.7765 0.104754C52.3439 -0.148692 54.0319 0.0439272 55.1907 0.996887C56.44 2.02419 57.0495 3.44687 57.294 5.44066L54.2764 5.37307C53.985 4.03149 53.4894 3.37929 52.4846 3.09543C51.6842 2.86564 50.2172 3.39281 50.0062 4.36942C49.2594 7.78251 52.776 10.1142 55.5022 13.7165C57.1399 15.8827 57.8968 18.9342 56.862 21.7052V21.7018Z" fill="white"/>
<path d="M44.2489 24.6992L41.017 24.7634L41.0103 0.21627L44.2455 0.212891L44.2489 24.6992Z" fill="white"/>
</g>
<defs>
<clipPath id="clip0_3405_44217">
<rect width="84" height="25" fill="white"/>
</clipPath>
</defs>
</svg>
