<svg width="119" height="25" viewBox="0 0 119 25" fill="none" xmlns="http://www.w3.org/2000/svg">
<g clip-path="url(#clip0_3405_44208)">
<path d="M39.7342 5.00293C40.4492 5.00293 41.101 5.06599 41.6901 5.19211C42.2788 5.31824 42.7836 5.52462 43.2045 5.8117C43.6249 6.09878 43.9513 6.48024 44.1823 6.95606C44.4137 7.43233 44.5294 8.02016 44.5294 8.72001C44.5294 9.47586 44.3576 10.106 44.014 10.6101C43.6704 11.1141 43.1621 11.5273 42.4895 11.8493C43.4147 12.1152 44.105 12.5809 44.5612 13.2459C45.0165 13.9109 45.2448 14.7126 45.2448 15.6501C45.2448 16.406 45.0978 17.0608 44.8032 17.6134C44.5086 18.1664 44.1125 18.618 43.6148 18.9677C43.117 19.3178 42.5491 19.5767 41.9114 19.7447C41.2732 19.9127 40.6179 19.9965 39.9453 19.9965H32.6689V5.00293H39.735H39.7342ZM39.3137 11.0718C39.9024 11.0718 40.3864 10.932 40.7649 10.652C41.1434 10.3719 41.3329 9.91685 41.3329 9.28712C41.3329 8.93742 41.2697 8.65033 41.1434 8.42631C41.0171 8.20273 40.8488 8.02722 40.6386 7.90154C40.4284 7.77542 40.1864 7.6881 39.913 7.63915C39.6396 7.5902 39.3557 7.56551 39.0611 7.56551H35.9697V11.0722H39.3137V11.0718ZM39.5032 17.4348C39.8256 17.4348 40.1343 17.4035 40.4284 17.3404C40.7225 17.2774 40.9822 17.1724 41.2065 17.0256C41.4305 16.8787 41.6093 16.6789 41.7427 16.4271C41.8756 16.1753 41.9423 15.8534 41.9423 15.4614C41.9423 14.6914 41.7246 14.1419 41.2905 13.813C40.8559 13.484 40.2809 13.3195 39.5659 13.3195H35.9697V17.4352H39.5032V17.4348Z" fill="white"/>
<path d="M54.0804 19.9965V18.4844H54.0172C53.6388 19.1145 53.1477 19.5696 52.5453 19.8492C51.9425 20.1292 51.3255 20.269 50.6944 20.269C49.8951 20.269 49.2397 20.1641 48.7283 19.9542C48.2164 19.7443 47.8136 19.447 47.5191 19.0616C47.2245 18.6766 47.0178 18.2079 46.8986 17.6549C46.7793 17.1019 46.7197 16.4893 46.7197 15.8173V9.1394H49.706V15.2713C49.706 16.1674 49.846 16.836 50.1265 17.2769C50.4069 17.7179 50.9046 17.9384 51.6196 17.9384C52.4327 17.9384 53.0214 17.6968 53.3861 17.2139C53.7505 16.731 53.9329 15.9363 53.9329 14.8303V9.1394H56.9192V19.9961H54.0799H54.0804V19.9965Z" fill="white"/>
<path d="M61.3651 17.2981C61.498 17.5291 61.6702 17.7179 61.8805 17.8652C62.0907 18.012 62.3327 18.1209 62.6061 18.1906C62.8794 18.2607 63.1634 18.2956 63.458 18.2956C63.6682 18.2956 63.889 18.2713 64.1204 18.2219C64.3518 18.173 64.562 18.0958 64.7515 17.9908C64.941 17.8859 65.0986 17.7461 65.2245 17.571C65.3508 17.396 65.4139 17.1755 65.4139 16.9095C65.4139 16.4615 65.1158 16.1255 64.5201 15.9014C63.9239 15.6779 63.0932 15.4534 62.028 15.2294C61.5934 15.1315 61.169 15.0159 60.7556 14.8828C60.3418 14.75 59.9739 14.575 59.6516 14.3576C59.3287 14.1406 59.0695 13.8676 58.8734 13.5386C58.6769 13.2097 58.5788 12.8075 58.5788 12.3312C58.5788 11.6314 58.7153 11.0576 58.9891 10.6092C59.2625 10.1611 59.6233 9.80789 60.072 9.54859C60.5207 9.28973 61.025 9.1076 61.5863 9.00265C62.1468 8.89769 62.7218 8.84521 63.3109 8.84521C63.9 8.84521 64.4711 8.90122 65.0249 9.01323C65.5787 9.12524 66.0729 9.31443 66.5074 9.58034C66.942 9.84626 67.3028 10.1999 67.5903 10.6409C67.8774 11.0819 68.0492 11.6384 68.1057 12.3105H65.2664C65.2245 11.7368 65.0068 11.3483 64.6146 11.145C64.222 10.9421 63.7592 10.8402 63.2266 10.8402C63.0583 10.8402 62.8759 10.8508 62.6798 10.8716C62.4833 10.8927 62.3044 10.9381 62.1437 11.0078C61.9825 11.0779 61.8456 11.1794 61.7334 11.3125C61.6212 11.4457 61.5651 11.6243 61.5651 11.8479C61.5651 12.1138 61.6632 12.3308 61.8597 12.4988C62.0558 12.6668 62.3119 12.8031 62.6273 12.9085C62.9426 13.0134 63.3034 13.1078 63.7101 13.192C64.1164 13.2763 64.5302 13.3671 64.9511 13.465C65.3857 13.5629 65.8096 13.6824 66.2235 13.8222C66.6368 13.9624 67.0047 14.1476 67.3275 14.3787C67.6499 14.6098 67.9092 14.8969 68.1057 15.2395C68.3018 15.5826 68.4003 16.006 68.4003 16.51C68.4003 17.224 68.2563 17.8224 67.9692 18.3053C67.6817 18.7882 67.3068 19.1767 66.8439 19.4708C66.3811 19.7649 65.852 19.9713 65.2563 20.0904C64.6601 20.209 64.0537 20.269 63.4372 20.269C62.8207 20.269 62.1892 20.2059 61.5863 20.0798C60.9835 19.9537 60.4469 19.7438 59.9775 19.4496C59.5076 19.1555 59.122 18.767 58.8208 18.2841C58.5192 17.8012 58.3545 17.1957 58.3267 16.4677H61.1659C61.1659 16.79 61.2321 17.0661 61.3655 17.2972V17.2981H61.3651Z" fill="white"/>
<path d="M69.8696 7.45962V5.00244H72.8559V7.45962H69.8696ZM72.8559 9.13978V19.9964H69.8696V9.13978H72.8559Z" fill="white"/>
<path d="M77.6616 9.13989V10.652H77.7247C78.1032 10.0219 78.5938 9.56368 79.1967 9.27659C79.7995 8.98995 80.4164 8.84619 81.0475 8.84619C81.8469 8.84619 82.5018 8.95467 83.0137 9.17164C83.5251 9.38905 83.9283 9.6898 84.2229 10.0748C84.5174 10.4602 84.7241 10.929 84.8434 11.482C84.9622 12.035 85.0222 12.6475 85.0222 13.3196V19.9974H82.0359V13.8655C82.0359 12.9699 81.8955 12.3009 81.6155 11.8599C81.335 11.4189 80.8373 11.1984 80.1223 11.1984C79.3088 11.1984 78.7201 11.4401 78.3558 11.923C77.991 12.4058 77.8091 13.2005 77.8091 14.3065V19.9974H74.8228V9.14077H77.662V9.13989H77.6616Z" fill="white"/>
<path d="M90.1131 17.3924C90.5618 17.8264 91.2066 18.0433 92.0479 18.0433C92.6507 18.0433 93.1692 17.8929 93.6042 17.5918C94.0388 17.291 94.3051 16.9722 94.4031 16.6361H97.0317C96.6113 17.9379 95.9661 18.8693 95.0969 19.4289C94.2274 19.989 93.1758 20.269 91.9424 20.269C91.0869 20.269 90.3158 20.1323 89.6291 19.8593C88.9419 19.5863 88.3599 19.1978 87.8838 18.6938C87.4068 18.1897 87.0389 17.5878 86.7797 16.8879C86.52 16.1881 86.3906 15.4181 86.3906 14.578C86.3906 13.738 86.5236 13.0103 86.7903 12.3101C87.0566 11.6102 87.4351 11.0047 87.9257 10.4936C88.4164 9.98296 89.0015 9.58034 89.6817 9.2862C90.3613 8.99206 91.1152 8.84521 91.9424 8.84521C92.8676 8.84521 93.6735 9.02381 94.3607 9.38057C95.0475 9.73777 95.6119 10.2171 96.0535 10.8191C96.4951 11.421 96.814 12.1072 97.0105 12.8772C97.2066 13.6471 97.2768 14.4519 97.2207 15.292H89.3765C89.4184 16.2578 89.6635 16.9581 90.1127 17.392L90.1131 17.3924ZM93.4885 11.6803C93.1308 11.2887 92.5876 11.0925 91.8585 11.0925C91.3815 11.0925 90.9858 11.1732 90.67 11.3341C90.3547 11.4951 90.1021 11.6949 89.9131 11.9326C89.7236 12.1707 89.5902 12.4229 89.5134 12.6884C89.4361 12.9543 89.3906 13.1925 89.3769 13.4024H94.2349C94.0944 12.6465 93.8458 12.0724 93.4885 11.6803Z" fill="white"/>
<path d="M101.036 17.2981C101.169 17.5291 101.341 17.7179 101.551 17.8652C101.762 18.012 102.004 18.1209 102.277 18.1906C102.55 18.2607 102.834 18.2956 103.129 18.2956C103.339 18.2956 103.56 18.2713 103.791 18.2219C104.023 18.173 104.233 18.0958 104.422 17.9908C104.612 17.8859 104.77 17.7461 104.895 17.571C105.022 17.396 105.085 17.1755 105.085 16.9095C105.085 16.4615 104.787 16.1255 104.191 15.9014C103.595 15.6779 102.764 15.4534 101.699 15.2294C101.264 15.1315 100.84 15.0159 100.427 14.8828C100.013 14.75 99.6448 14.575 99.3225 14.3576C98.9996 14.1406 98.7404 13.8676 98.5443 13.5386C98.3478 13.2097 98.2497 12.8075 98.2497 12.3312C98.2497 11.6314 98.3862 11.0576 98.66 10.6092C98.9334 10.1611 99.2942 9.80789 99.7429 9.54859C100.192 9.28973 100.696 9.1076 101.257 9.00265C101.818 8.89769 102.393 8.84521 102.982 8.84521C103.571 8.84521 104.142 8.90122 104.696 9.01323C105.25 9.12524 105.744 9.31443 106.178 9.58034C106.613 9.84626 106.974 10.1999 107.261 10.6409C107.548 11.0819 107.72 11.6384 107.777 12.3105H104.937C104.895 11.7368 104.678 11.3483 104.285 11.145C103.893 10.9421 103.43 10.8402 102.897 10.8402C102.729 10.8402 102.547 10.8508 102.351 10.8716C102.154 10.8927 101.975 10.9381 101.815 11.0078C101.653 11.0779 101.516 11.1794 101.404 11.3125C101.292 11.4457 101.236 11.6243 101.236 11.8479C101.236 12.1138 101.334 12.3308 101.531 12.4988C101.727 12.6668 101.983 12.8031 102.298 12.9085C102.613 13.0134 102.974 13.1078 103.381 13.192C103.787 13.2763 104.201 13.3671 104.622 13.465C105.057 13.5629 105.481 13.6824 105.894 13.8222C106.308 13.9624 106.676 14.1476 106.998 14.3787C107.321 14.6098 107.58 14.8969 107.777 15.2395C107.973 15.5826 108.071 16.006 108.071 16.51C108.071 17.224 107.927 17.8224 107.64 18.3053C107.353 18.7882 106.978 19.1767 106.515 19.4708C106.052 19.7649 105.523 19.9713 104.927 20.0904C104.331 20.209 103.725 20.269 103.108 20.269C102.492 20.269 101.86 20.2059 101.257 20.0798C100.654 19.9537 100.118 19.7438 99.6484 19.4496C99.1785 19.1555 98.7929 18.767 98.4917 18.2841C98.1901 17.8012 98.0254 17.1957 97.9976 16.4677H100.837C100.837 16.79 100.903 17.0661 101.036 17.2972V17.2981H101.036Z" fill="white"/>
<path d="M111.965 17.2981C112.098 17.5291 112.27 17.7179 112.481 17.8652C112.691 18.012 112.933 18.1209 113.206 18.1906C113.48 18.2607 113.763 18.2956 114.058 18.2956C114.268 18.2956 114.489 18.2713 114.721 18.2219C114.952 18.173 115.162 18.0958 115.352 17.9908C115.541 17.8859 115.699 17.7461 115.825 17.571C115.951 17.396 116.014 17.1755 116.014 16.9095C116.014 16.4615 115.716 16.1255 115.12 15.9014C114.524 15.6779 113.693 15.4534 112.628 15.2294C112.194 15.1315 111.769 15.0159 111.356 14.8828C110.942 14.75 110.574 14.575 110.252 14.3576C109.929 14.1406 109.67 13.8676 109.474 13.5386C109.277 13.2097 109.179 12.8075 109.179 12.3312C109.179 11.6314 109.315 11.0576 109.589 10.6092C109.863 10.1611 110.223 9.80789 110.672 9.54859C111.121 9.28973 111.625 9.1076 112.186 9.00265C112.747 8.89769 113.322 8.84521 113.911 8.84521C114.5 8.84521 115.071 8.90122 115.625 9.01323C116.179 9.12524 116.673 9.31443 117.108 9.58034C117.542 9.84626 117.903 10.1999 118.19 10.6409C118.477 11.0819 118.649 11.6384 118.706 12.3105H115.867C115.825 11.7368 115.607 11.3483 115.215 11.145C114.822 10.9421 114.359 10.8402 113.827 10.8402C113.658 10.8402 113.476 10.8508 113.28 10.8716C113.083 10.8927 112.905 10.9381 112.744 11.0078C112.583 11.0779 112.446 11.1794 112.334 11.3125C112.221 11.4457 112.165 11.6243 112.165 11.8479C112.165 12.1138 112.263 12.3308 112.46 12.4988C112.656 12.6668 112.912 12.8031 113.227 12.9085C113.543 13.0134 113.903 13.1078 114.31 13.192C114.717 13.2763 115.13 13.3671 115.551 13.465C115.986 13.5629 116.41 13.6824 116.824 13.8222C117.237 13.9624 117.605 14.1476 117.928 14.3787C118.25 14.6098 118.509 14.8969 118.706 15.2395C118.902 15.5826 119 16.006 119 16.51C119 17.224 118.856 17.8224 118.569 18.3053C118.282 18.7882 117.907 19.1767 117.444 19.4708C116.981 19.7649 116.452 19.9713 115.856 20.0904C115.26 20.209 114.654 20.269 114.037 20.269C113.421 20.269 112.789 20.2059 112.186 20.0798C111.584 19.9537 111.047 19.7438 110.578 19.4496C110.108 19.1555 109.722 18.767 109.421 18.2841C109.119 17.8012 108.955 17.1957 108.927 16.4677H111.766C111.766 16.79 111.832 17.0661 111.966 17.2972V17.2981H111.965Z" fill="white"/>
<path d="M16.8053 19.9763C16.4754 19.9763 16.1084 20.2167 16.1084 21.0003C16.1084 21.4303 16.1389 22.1411 16.8115 22.1358C17.5075 22.1305 17.5658 21.4241 17.5658 20.9624C17.5658 20.4191 17.2995 19.9763 16.8053 19.9763Z" fill="white"/>
<path d="M20.6248 19.9451C20.2114 19.9451 19.9526 20.2114 19.9155 20.6842H21.327C21.327 20.218 21.0611 19.9451 20.6248 19.9451Z" fill="white"/>
<path d="M8.53564 21.8478H8.53609C8.53609 22.0811 8.68403 22.2998 8.94989 22.2998C9.23784 22.2998 9.51871 22.1798 9.79915 21.9333V21.1091C8.94239 21.2158 8.53564 21.4355 8.53564 21.8478Z" fill="white"/>
<path d="M3.08129 20.0864C2.39677 20.0864 2.27002 20.7029 2.27002 21.1488C2.27002 21.5946 2.39677 22.2111 3.08129 22.2111C3.76582 22.2111 3.89301 21.595 3.89301 21.1488C3.89301 20.7025 3.76626 20.0864 3.08129 20.0864Z" fill="white"/>
<path d="M0 0V25H25.0365V0H0ZM3.08126 22.9847C2.17503 22.9847 1.35757 22.4074 1.35757 21.1484C1.35757 19.8894 2.17503 19.3121 3.08126 19.3121C3.98748 19.3121 4.80538 19.889 4.80538 21.1484C4.80538 22.4079 3.98792 22.9847 3.08126 22.9847ZM7.3845 20.1977H7.34034C6.94155 20.1977 6.50522 20.2589 6.36522 20.5685V22.8828H5.43426V19.4039H6.3056V19.8131C6.47165 19.5926 6.88193 19.3324 7.26615 19.3324C7.3028 19.3324 7.34697 19.3324 7.3845 19.339V20.1977ZM9.90401 22.885L9.82275 22.579H9.82186C9.46723 22.8127 9.08302 22.9256 8.66921 22.9256C8.01913 22.9256 7.63491 22.4934 7.63491 21.9144C7.63491 21.1356 8.35168 20.7229 9.82937 20.5566V20.3626C9.82937 20.1095 9.63726 19.963 9.28263 19.963C8.928 19.963 8.64006 20.1033 8.43338 20.3626L7.81289 20.0098C8.13793 19.5569 8.63299 19.3307 9.29809 19.3307C10.2065 19.3307 10.7166 19.7231 10.7166 20.3626C10.7166 20.3626 10.7153 22.8789 10.7175 22.885H9.90401ZM14.5663 22.8802H13.6499V20.617C13.6499 20.191 13.5395 19.9983 13.2065 19.9983C12.9332 19.9983 12.6598 20.1249 12.3493 20.3846V22.8806H11.4404V19.4974H11.4409L12.1996 19.3924L12.2831 19.8052C12.7115 19.4921 13.0515 19.3258 13.4799 19.3258C14.1967 19.3258 14.5663 19.7055 14.5663 20.4574V22.8802ZM18.4469 22.6857C18.4469 23.2674 18.4027 24.2239 16.7422 24.2344C16.0572 24.2389 15.4222 23.9654 15.295 23.3679L16.1999 23.2224C16.2379 23.3935 16.3425 23.5641 16.8557 23.5641C17.3309 23.5641 17.5592 23.3366 17.5592 22.7929V22.388L17.5464 22.3757C17.4007 22.635 17.179 22.8815 16.6464 22.8815C15.8351 22.8815 15.1947 22.3192 15.1947 21.1431C15.1947 19.967 15.8537 19.3289 16.5951 19.3276C17.2642 19.3267 17.5288 19.62 17.5999 19.7906L17.6718 19.3915H18.4469V22.6857ZM22.2202 21.2763H19.9003C19.9074 21.9356 20.1812 22.2681 20.7204 22.2681C21.0675 22.2681 21.2963 22.1283 21.5109 21.8222L22.1831 22.1949C21.8876 22.6875 21.3559 22.9472 20.6392 22.9472H20.6396C19.6128 22.9472 18.9994 22.2879 18.9994 21.1431C18.9994 19.9983 19.6199 19.3258 20.6246 19.3258C21.6293 19.3258 22.2277 19.9648 22.2277 21.0968C22.2277 21.1568 22.2202 21.2163 22.2202 21.2763ZM22.5885 18.2375H22.2277V19.2337H22.0378V18.2375H21.6774V18.084H22.5885V18.2375ZM24.0887 19.2337H23.8988V18.2736H23.8931L23.5159 19.2337H23.3958L23.0187 18.2736H23.0129V19.2337H22.823V18.084H23.1163L23.4599 18.9572L23.7977 18.084H24.0887V19.2337Z" fill="white"/>
</g>
<defs>
<clipPath id="clip0_3405_44208">
<rect width="119" height="25" fill="white"/>
</clipPath>
</defs>
</svg>
