<svg width="74" height="20" viewBox="0 0 74 20" fill="none" xmlns="http://www.w3.org/2000/svg">
<g clip-path="url(#clip0_3405_44206)">
<path d="M19.6413 0.120009C19.6645 0.124088 19.6876 0.128167 19.7115 0.132486C20.7567 0.321079 21.7795 0.749853 22.6009 1.432C22.6376 1.46248 22.675 1.49223 22.7122 1.52198C23.0532 1.80007 23.3832 2.11775 23.6463 2.47143C23.6664 2.49734 23.6863 2.52349 23.7065 2.54941C24.3099 3.34097 24.7181 4.2585 24.8994 5.23674C24.903 5.25617 24.9066 5.27585 24.9104 5.29577C24.9747 5.66575 24.9984 6.03262 24.9967 6.40789C24.9967 6.42924 24.9967 6.45084 24.9967 6.47291C24.9919 7.70453 24.6483 9.00093 23.9101 10.0056C23.8995 10.02 23.889 10.0346 23.8782 10.0495C23.7947 10.1644 23.7094 10.2774 23.6223 10.3895C23.6122 10.4024 23.6022 10.4154 23.5919 10.4288C23.2969 10.8041 22.9465 11.1599 22.5594 11.4397C22.5163 11.4711 22.4738 11.5033 22.4314 11.5357C22.2292 11.6887 22.021 11.8253 21.7997 11.9488C21.78 11.9599 21.7603 11.9709 21.7402 11.9822C20.7502 12.5331 19.6645 12.8004 18.5352 12.7961C18.5115 12.7961 18.4877 12.7961 18.4633 12.7961C18.1076 12.7949 17.7611 12.7838 17.4109 12.7166C17.3882 12.7123 17.3654 12.7082 17.3421 12.7037C16.2447 12.494 15.2262 12.0417 14.3652 11.325C14.3529 11.3148 14.3404 11.3044 14.3278 11.294C14.0153 11.0354 13.7266 10.7587 13.4779 10.4372C13.4541 10.4075 13.4301 10.3777 13.4064 10.348C13.1227 9.98972 12.8771 9.6039 12.6845 9.18904C12.6697 9.15689 12.6543 9.12498 12.639 9.09306C12.2919 8.37228 12.0859 7.54329 12.0629 6.74237C12.0622 6.72053 12.0617 6.6987 12.061 6.67638C12.0409 5.87762 12.1466 5.10141 12.3987 4.34296C12.4039 4.32713 12.409 4.31105 12.4145 4.29473C12.6476 3.59387 13.0308 2.94147 13.5018 2.37545C13.5122 2.36297 13.5226 2.35034 13.533 2.33754C13.7858 2.03257 14.0537 1.75712 14.3652 1.51166C14.3921 1.48935 14.4189 1.46703 14.4455 1.44448C14.677 1.25181 14.9223 1.09009 15.1806 0.935806C15.1979 0.925249 15.2151 0.914932 15.2329 0.904134C16.515 0.133925 18.1702 -0.154723 19.6413 0.120009ZM16.9793 4.84684C16.5334 5.3831 16.4111 6.06429 16.4517 6.74237C16.5181 7.34366 16.8368 7.90824 17.291 8.30198C17.7592 8.65493 18.2762 8.79722 18.858 8.72715C19.1993 8.67221 19.5271 8.50545 19.7852 8.27799C19.8039 8.26287 19.8228 8.24775 19.8422 8.23216C20.2938 7.85449 20.5459 7.28727 20.6171 6.71069C20.6768 6.01367 20.497 5.34495 20.0454 4.80413C19.7156 4.42382 19.246 4.13901 18.7369 4.09774C18.0278 4.06775 17.456 4.31753 16.9793 4.84684Z" fill="white"/>
<path d="M26.4761 0C28.3371 0 29.6003 0.00327919 30.2657 0.00983756C30.3784 0.0107973 30.4912 0.0117571 30.6039 0.0127168C30.9547 0.0155961 31.3056 0.0194352 31.6562 0.0239941C31.6816 0.024234 31.7071 0.0247139 31.7334 0.0249538C31.8824 0.0268733 32.0313 0.0290328 32.1802 0.0316721C32.2251 0.032392 32.2702 0.0331118 32.315 0.0338316C33.6398 0.0520671 35.0574 0.462605 36.0095 1.41901C36.4301 1.85666 36.7081 2.42052 36.8575 3.00525C36.8621 3.02301 36.8667 3.04101 36.8714 3.05924C36.9596 3.43091 36.9647 3.8021 36.9639 4.18192C36.9639 4.26758 36.9644 4.35324 36.9651 4.4389C36.9675 5.29093 36.751 6.07145 36.1445 6.69434C35.7317 7.09816 35.2228 7.33858 34.6782 7.51014C34.8619 7.8139 35.0473 8.11647 35.2358 8.41711C35.3466 8.59419 35.4564 8.77175 35.5655 8.94978C35.6886 9.15037 35.8123 9.35024 35.9373 9.54963C36.0785 9.77518 36.2183 10.0017 36.3574 10.2284C36.4644 10.4026 36.5723 10.5761 36.6807 10.7493C36.8057 10.9487 36.9294 11.1486 37.0524 11.3492C37.1786 11.5546 37.3054 11.7597 37.4333 11.9639C37.4481 11.9877 37.4628 12.0114 37.4781 12.0357C37.545 12.1427 37.6119 12.2492 37.6801 12.3555C37.6913 12.3733 37.7028 12.3912 37.7146 12.4097C37.7354 12.4424 37.7563 12.4747 37.7772 12.5071C37.8218 12.5774 37.8441 12.6392 37.8441 12.6926H32.9038C32.793 12.4867 32.6822 12.2809 32.568 12.0688C32.4994 11.9447 32.4308 11.8207 32.3618 11.6969C32.2934 11.5745 32.2256 11.4519 32.1574 11.3295C32.1421 11.3022 32.127 11.2746 32.1112 11.2463C31.9512 10.9581 31.7922 10.6697 31.6332 10.381C31.5531 10.2359 31.473 10.0905 31.3929 9.94529C31.361 9.88771 31.3293 9.83012 31.2974 9.7723C31.2895 9.7579 31.2816 9.74374 31.2735 9.72887C31.2241 9.63937 31.1747 9.54963 31.1253 9.46013C31.0917 9.39895 31.0579 9.338 31.0243 9.27682C31.0013 9.23507 30.9782 9.19332 30.9552 9.15133C30.8298 8.92387 30.7036 8.69664 30.5775 8.46942C30.5696 9.86299 30.5617 11.2566 30.5535 12.6924H26.4766V0H26.4761ZM30.553 3.2392V5.73458C31.1401 5.73458 31.7776 5.72978 32.2354 5.30364C32.4637 5.05099 32.5543 4.75658 32.55 4.42042C32.5289 4.17424 32.4678 3.93286 32.3035 3.74307C32.2891 3.72652 32.2747 3.70972 32.2601 3.69244C31.9346 3.34261 31.4449 3.23992 30.9845 3.2152C30.8358 3.21112 30.6991 3.20992 30.5528 3.2392H30.553Z" fill="white"/>
<path d="M0 0.0239258C1.57834 0.0239258 2.61445 0.0251255 3.10832 0.0275249C3.15245 0.0275249 3.19658 0.0280048 3.24071 0.0282447C3.44671 0.0292045 3.65272 0.0301642 3.85849 0.0313639C4.09039 0.0325636 4.3223 0.0335234 4.55421 0.0344832C4.73863 0.035203 4.92305 0.0361627 5.10772 0.0371225C5.21587 0.0376024 5.32403 0.0383222 5.43219 0.0385622C5.99793 0.0404817 6.56271 0.04744 7.12269 0.138137C7.14812 0.142216 7.17354 0.146295 7.19968 0.150374C8.09853 0.299617 8.98563 0.594984 9.6648 1.22387C9.67847 1.23635 9.69214 1.24882 9.70629 1.26178C10.5689 2.05838 10.9114 3.24225 10.9577 4.387C10.9584 4.42036 10.9591 4.45371 10.9598 4.4873C10.9603 4.50697 10.9608 4.52665 10.9613 4.54704C10.9855 5.63445 10.7529 6.68971 9.99144 7.50191C9.26022 8.26516 8.25657 8.61715 7.23373 8.78679C7.21167 8.79039 7.18961 8.79423 7.16706 8.79807C6.71524 8.86885 6.26198 8.88661 5.80536 8.88421C5.78041 8.88421 5.75515 8.88421 5.72957 8.88421C5.31972 8.88325 4.91394 8.87389 4.50888 8.80647V12.6935H0V0.0239258ZM4.2928 3.52706V5.56655C4.87381 5.57375 5.41764 5.44706 5.92431 5.18649C6.12432 4.97294 6.17324 4.74404 6.16845 4.45899C6.15382 4.19889 6.04446 3.9887 5.85164 3.81523C5.83485 3.79939 5.81807 3.78355 5.8008 3.76724C5.47704 3.54193 5.10436 3.49898 4.7216 3.50042C4.69354 3.50042 4.66572 3.50042 4.63671 3.50018C4.60961 3.50018 4.58275 3.50018 4.55493 3.50018C4.53047 3.50018 4.506 3.50018 4.48082 3.50018C4.42918 3.5013 4.36651 3.51034 4.2928 3.5273V3.52706Z" fill="white"/>
<path d="M65.0874 0.144043H69.8598V8.03809H73.7929V12.7889H65.0874V0.144043Z" fill="white"/>
<path d="M38.2754 0.144043H47.7723V4.10306H45.3981V12.7889H40.6496V4.10306H38.2754V0.144043Z" fill="white"/>
<path opacity="0.6" d="M49.2354 4.82275H63.169V8.10994H49.2354V4.82275Z" fill="white"/>
<path opacity="0.6" d="M49.2354 9.52563H63.169V12.7888H49.2354V9.52563Z" fill="white"/>
<path opacity="0.6" d="M49.2354 0.144043H63.169V3.40723H49.2354V0.144043Z" fill="white"/>
<path d="M5.39432 17.7165C5.58618 17.8672 5.70609 18.0781 5.77971 18.3075C5.78523 18.324 5.7905 18.3408 5.79602 18.3579C5.89147 18.7096 5.8224 19.0736 5.65476 19.3898C5.46315 19.6991 5.18615 19.8887 4.83673 19.977C4.44487 20.0374 4.08633 19.9616 3.7609 19.7344C3.49709 19.5235 3.35464 19.2128 3.30955 18.8831C3.28533 18.5004 3.35872 18.1592 3.60357 17.8564C4.09713 17.3316 4.82258 17.31 5.39432 17.7163V17.7165ZM3.93908 17.9401C3.74962 18.1138 3.63835 18.3823 3.61556 18.6352C3.60741 18.9457 3.69902 19.2097 3.90815 19.439C4.09856 19.624 4.30625 19.7099 4.57005 19.7128C4.83937 19.7078 5.05809 19.6271 5.2521 19.4354C5.45907 19.1869 5.54253 18.8912 5.51591 18.5716C5.44852 18.2405 5.28976 18.014 5.01564 17.8202C4.66814 17.6184 4.2427 17.705 3.93908 17.9401Z" fill="white"/>
<path d="M51.7505 17.6245C52.0414 17.8253 52.2088 18.0938 52.2949 18.435C52.3543 18.8208 52.2817 19.1815 52.0649 19.5071C51.8569 19.765 51.5807 19.9438 51.2495 19.9869C50.8691 20.0174 50.5271 19.9601 50.2218 19.7165C49.9794 19.4939 49.8093 19.192 49.7866 18.8592C49.7846 18.8371 49.7827 18.8153 49.7808 18.7925C49.7647 18.442 49.8772 18.108 50.1007 17.8388C50.5291 17.3838 51.2166 17.3018 51.7502 17.6245H51.7505ZM50.3938 17.9789C50.1916 18.2138 50.0887 18.4561 50.0935 18.7685C50.1149 19.0488 50.2262 19.2986 50.4312 19.4924C50.684 19.6825 50.9435 19.7242 51.2497 19.6988C51.4888 19.651 51.6742 19.5157 51.8207 19.324C51.9903 19.0627 52.037 18.7676 51.9764 18.4633C51.9308 18.2973 51.8694 18.1701 51.7533 18.0432C51.7409 18.0285 51.7282 18.0137 51.7152 17.9986C51.5464 17.8131 51.344 17.7375 51.0977 17.7097C50.8113 17.7022 50.6056 17.7965 50.3938 17.9789Z" fill="white"/>
<path d="M45.7578 17.4917C45.9497 17.4917 46.0688 17.5079 46.1151 17.5404C46.1313 17.5634 46.1476 17.5867 46.1641 17.6102C46.1734 17.6229 46.1828 17.6357 46.1926 17.6489C46.2132 17.6769 46.2334 17.7052 46.2533 17.7338C46.2996 17.7995 46.3485 17.8626 46.3974 17.9265C46.4375 17.9783 46.477 18.0306 46.5166 18.0827C46.595 18.1854 46.6758 18.2857 46.7576 18.3855C46.8708 18.5237 46.9809 18.6636 47.0893 18.8056C47.155 18.8915 47.2214 18.9767 47.2881 19.0619C47.2987 19.0755 47.3094 19.089 47.3205 19.1031C47.3308 19.1163 47.3411 19.1293 47.3517 19.1427C47.3605 19.154 47.3694 19.1653 47.3785 19.177C47.4291 19.2397 47.4809 19.3013 47.5325 19.3632C47.5404 18.7456 47.5483 18.128 47.5565 17.4917H47.8443V19.9391C47.6684 19.9391 47.5519 19.9148 47.4948 19.8662C47.4701 19.8335 47.4461 19.8004 47.4229 19.7668C47.4099 19.7493 47.3967 19.7318 47.3833 19.7138C47.3569 19.6783 47.3308 19.6423 47.3049 19.6063C47.2629 19.5477 47.219 19.4906 47.1747 19.4338C47.1454 19.3961 47.1164 19.3582 47.0874 19.3203C46.9473 19.137 46.8041 18.9563 46.6595 18.7766C46.5032 18.582 46.3509 18.3843 46.2 18.1851C46.1571 18.1295 46.113 18.0748 46.0691 18.0198C46.0612 18.6533 46.0533 19.2867 46.0451 19.9393H45.7573V17.4919L45.7578 17.4917Z" fill="white"/>
<path d="M59.5209 17.6245C59.8118 17.8254 59.9792 18.0939 60.0653 18.4351C60.1248 18.8209 60.0521 19.1815 59.8353 19.5071C59.6274 19.7651 59.3511 19.9438 59.0199 19.987C58.64 20.0175 58.2947 19.9613 57.9913 19.7149C57.7093 19.4531 57.5644 19.1136 57.5493 18.729C57.5539 18.3698 57.6771 18.0449 57.9239 17.7827C58.3592 17.3767 59.011 17.3167 59.5204 17.6245H59.5209ZM58.1642 17.9789C57.9621 18.2138 57.8592 18.4562 57.864 18.7686C57.8853 19.0488 57.9966 19.2986 58.2016 19.4925C58.4544 19.6825 58.7139 19.7243 59.0201 19.6988C59.2592 19.6511 59.4446 19.5158 59.5912 19.324C59.7607 19.0628 59.8075 18.7676 59.7468 18.4634C59.7012 18.2973 59.6398 18.1702 59.5238 18.0432C59.5113 18.0286 59.4986 18.0137 59.4856 17.9986C59.3168 17.8131 59.1144 17.7376 58.8681 17.7097C58.5817 17.7023 58.376 17.7966 58.1642 17.9789Z" fill="white"/>
<path d="M63.9603 17.6597C64.0113 17.6978 64.0513 17.7298 64.0802 17.7557C64.0402 17.8502 63.9788 17.9186 63.9124 17.9956C63.8349 17.969 63.7704 17.9342 63.7025 17.8891C63.4756 17.7454 63.2133 17.7 62.95 17.7571C62.7058 17.8277 62.5207 17.9532 62.3916 18.1727C62.241 18.458 62.2084 18.7567 62.2948 19.0708C62.3794 19.3119 62.5089 19.4847 62.737 19.6032C63.0207 19.7326 63.308 19.7287 63.6003 19.6272C63.6598 19.5987 63.7159 19.568 63.7721 19.5334C63.8015 19.516 63.8402 19.4993 63.8881 19.4833V18.8834H63.1447V18.6195H64.1759C64.1809 18.7823 64.1858 18.9467 64.1908 19.1128C64.1929 19.1639 64.1951 19.215 64.1975 19.2676C64.2029 19.4803 64.1794 19.6224 64.127 19.6939C64.0649 19.7383 64.0071 19.7673 63.9361 19.7949C63.9083 19.8103 63.8807 19.8254 63.8522 19.8412C63.8279 19.8523 63.8037 19.8633 63.7788 19.8746C63.7545 19.8859 63.7303 19.8972 63.7051 19.9089C63.5332 19.9732 63.3682 19.996 63.1852 19.9946C63.1653 19.9946 63.1454 19.9943 63.125 19.9941C62.7849 19.9874 62.5113 19.882 62.2619 19.6481C62.0034 19.3755 61.9094 19.043 61.9132 18.6742C61.9245 18.3258 62.0516 18.0136 62.294 17.7614C62.7562 17.3399 63.4447 17.3324 63.9601 17.6595L63.9603 17.6597Z" fill="white"/>
<path d="M9.71272 17.6597C9.76372 17.6977 9.80369 17.7297 9.83263 17.7557C9.79258 17.8502 9.73118 17.9186 9.66475 17.9956C9.57866 17.9637 9.50503 17.9251 9.42781 17.8756C9.19758 17.7365 8.92706 17.6983 8.6647 17.7626C8.45581 17.8276 8.27499 17.9502 8.15796 18.1384C8.00471 18.4364 7.94931 18.7603 8.0474 19.0861C8.14668 19.3395 8.29345 19.5139 8.54167 19.6272C8.80475 19.7313 9.06472 19.7241 9.32876 19.6272C9.42293 19.5891 9.51087 19.5411 9.59257 19.4832C9.5964 19.4388 9.59856 19.3942 9.60024 19.3496C9.6012 19.3253 9.60216 19.3009 9.60312 19.2759C9.60408 19.2447 9.60528 19.2138 9.60624 19.1816C9.60959 19.0832 9.61319 18.9846 9.61679 18.8831H8.87334V18.6192H9.90457C9.90913 18.7821 9.91345 18.9448 9.918 19.1125C9.91992 19.1635 9.92192 19.2151 9.924 19.2673C9.9288 19.4797 9.90777 19.6218 9.86093 19.6937C9.80505 19.7383 9.75421 19.7668 9.68873 19.7947C9.66211 19.81 9.63549 19.8251 9.60792 19.841C9.2549 20.0008 8.86135 20.0516 8.48339 19.9396C8.16899 19.8203 7.95123 19.6363 7.79415 19.3388C7.65601 19.0199 7.60924 18.6314 7.72148 18.296C7.87017 17.9296 8.07402 17.6741 8.43903 17.5076C8.86039 17.3526 9.33931 17.4221 9.71272 17.6592V17.6597Z" fill="white"/>
<path d="M41.7051 17.4917H42.0168V18.5714H43.3838V17.4917H43.6956V19.9391H43.3838V18.8594H42.0168V19.9391H41.7051V17.4917Z" fill="white"/>
<path d="M68.5649 17.4917H70.3636V17.7556H68.8767V18.5714H70.1957V18.8354H68.8767V19.6752H70.3636V19.9391H68.5649V17.4917Z" fill="white"/>
<path d="M34.0068 17.4917H35.8055V17.7556H34.3186V18.5714H35.6376V18.8354H34.3186V19.6752H35.8055V19.9391H34.0068V17.4917Z" fill="white"/>
<path d="M73.8649 17.6836L73.9129 17.7796C73.8654 17.8429 73.8179 17.9063 73.769 17.9715C73.6798 17.9492 73.6404 17.9286 73.5666 17.8784C73.3752 17.7606 73.1236 17.6927 72.9006 17.7436C72.7732 17.7805 72.6826 17.824 72.5938 17.9235C72.5368 18.0514 72.5384 18.158 72.5864 18.2878C72.6711 18.4056 72.8063 18.4488 72.9401 18.4874C72.9567 18.4924 72.9735 18.4975 72.9905 18.5028C73.0735 18.5277 73.1569 18.5507 73.2411 18.5714C73.522 18.6407 73.7709 18.7283 73.9368 18.9793C74.0186 19.1427 74.0148 19.3675 73.9594 19.5403C73.8654 19.7435 73.7105 19.8608 73.5052 19.939C73.1845 20.0487 72.8099 19.9978 72.5073 19.8572C72.3672 19.7881 72.2499 19.7123 72.1382 19.6031C72.1821 19.5091 72.2384 19.4414 72.3061 19.3632C72.3898 19.4126 72.4708 19.4652 72.5519 19.5191C72.7895 19.6693 73.0541 19.7358 73.3359 19.6825C73.4704 19.6449 73.5649 19.5878 73.6356 19.4652C73.6901 19.3442 73.6769 19.2461 73.6308 19.122C73.5196 18.9471 73.227 18.9063 73.0406 18.861C72.6518 18.7652 72.4068 18.6358 72.3056 18.4728C72.2168 18.3012 72.2053 18.1179 72.2499 17.9295C72.3109 17.758 72.4034 17.6399 72.5634 17.5516C72.9848 17.3525 73.485 17.4163 73.8651 17.6836H73.8649Z" fill="white"/>
<path d="M15.879 17.691C15.8939 17.7045 15.9087 17.7177 15.9241 17.7316C15.9119 17.8367 15.8478 17.8952 15.7802 17.9715C15.6905 17.9374 15.6073 17.8964 15.5224 17.8515C15.2802 17.7296 15.0658 17.6968 14.8041 17.7815C14.7152 17.817 14.6518 17.8611 14.6024 17.9439C14.5576 18.0519 14.5655 18.169 14.6051 18.2774C14.7475 18.438 14.9317 18.4814 15.1334 18.5346C15.5651 18.6513 15.8304 18.7817 15.9294 18.926C16.0279 19.1043 16.0356 19.2787 15.9891 19.4747C15.9363 19.6482 15.833 19.7643 15.6843 19.867C15.3337 20.0463 14.9677 20.0072 14.6051 19.891C14.4314 19.8236 14.2914 19.7221 14.1494 19.6031C14.1933 19.509 14.2497 19.4414 14.3173 19.3632C14.3933 19.3982 14.4559 19.4419 14.5226 19.4923C14.7542 19.6549 15.0082 19.7207 15.2912 19.6931C15.4298 19.6672 15.5373 19.6134 15.6317 19.5057C15.69 19.4107 15.6917 19.3286 15.6843 19.2192C15.6416 19.0983 15.5804 19.0371 15.4684 18.9793C15.3902 18.9509 15.3106 18.9298 15.23 18.9087C15.185 18.8962 15.1399 18.8838 15.095 18.8713C15.073 18.8652 15.0507 18.859 15.0281 18.8528C14.7248 18.7683 14.5199 18.6745 14.4132 18.5714C14.4012 18.5601 14.3892 18.5486 14.3768 18.537C14.2655 18.419 14.2444 18.2856 14.2377 18.1291C14.2434 17.9396 14.3046 17.7928 14.435 17.6548C14.8363 17.3105 15.4778 17.3942 15.879 17.6913V17.691Z" fill="white"/>
<path d="M25.8769 17.6596C25.9361 17.7052 25.9901 17.7524 26.0448 17.8035C26.0308 17.881 26.0083 17.923 25.9534 17.9789C25.9414 17.9917 25.9294 18.0044 25.9169 18.0176C25.8902 18.0347 25.8612 18.042 25.8299 18.0396C25.7752 18.0169 25.7371 17.9893 25.691 17.9518C25.4629 17.7767 25.2226 17.7066 24.9341 17.7426C24.6874 17.7913 24.479 17.918 24.3329 18.1243C24.1828 18.3681 24.1334 18.6594 24.1905 18.9397C24.2686 19.2168 24.4065 19.4359 24.6571 19.5858C24.8783 19.7005 25.1363 19.708 25.379 19.6595C25.5167 19.6137 25.6219 19.5443 25.7311 19.4491C25.7853 19.4075 25.8366 19.3855 25.9006 19.3629C25.956 19.4183 26.0114 19.4738 26.0685 19.5309C25.9589 19.7502 25.7124 19.8627 25.4908 19.9417C25.1605 20.041 24.7984 20.0115 24.4912 19.8572C24.1502 19.6626 23.9705 19.4049 23.8621 19.0268C23.7751 18.6013 23.8792 18.2378 24.1063 17.8782C24.2677 17.6601 24.5483 17.5211 24.8044 17.4523C25.186 17.3978 25.551 17.446 25.8766 17.6589L25.8769 17.6596Z" fill="white"/>
<path d="M38.8809 17.4363C38.9008 17.4363 38.9209 17.4365 38.9415 17.4368C39.2936 17.4437 39.5768 17.5634 39.8342 17.8039C39.8202 17.8842 39.796 17.9224 39.7368 17.9778C39.7236 17.9903 39.7104 18.0028 39.697 18.0157C39.6869 18.0251 39.6768 18.0342 39.6663 18.0438C39.5761 18.0117 39.5073 17.9706 39.431 17.9133C39.2097 17.7564 38.9758 17.7019 38.7041 17.7468C38.4525 17.8067 38.2566 17.9344 38.1178 18.1515C37.9679 18.4162 37.9254 18.6833 37.9906 18.981C38.0566 19.2193 38.1923 19.4391 38.4079 19.5674C38.648 19.6912 38.9008 19.7104 39.166 19.6615C39.3502 19.6022 39.4941 19.4844 39.6423 19.3635C39.7325 19.4048 39.7898 19.4592 39.8581 19.5314C39.7931 19.6994 39.5951 19.8088 39.4382 19.8832C39.0845 20.0214 38.7008 20.0459 38.3473 19.8914C38.2626 19.8489 38.1849 19.8016 38.1074 19.7474C38.0926 19.7371 38.0775 19.7268 38.0621 19.7162C37.8036 19.518 37.6707 19.1984 37.6278 18.8836C37.6069 18.5028 37.6825 18.1448 37.9396 17.8519C37.9528 17.8359 37.9662 17.8197 37.9796 17.8034C38.2101 17.5462 38.5432 17.4341 38.8809 17.4365V17.4363Z" fill="white"/>
<path d="M30.1934 17.4917H32.1119V17.7556H31.2965V19.9391H31.0088V17.7556H30.1934V17.4917Z" fill="white"/>
<path d="M17.7227 17.4917H19.6412V17.7556H18.8258V19.9391H18.538V17.7556H17.7227V17.4917Z" fill="white"/>
<path d="M54.2476 17.4917H54.5593V19.6752H55.9263V19.9391H54.2476V17.4917Z" fill="white"/>
<path d="M0 17.4917H0.311768V19.6752H1.67875V19.9391H0V17.4917Z" fill="white"/>
<path d="M21.5601 17.4917H21.8718V19.9391H21.5601V17.4917Z" fill="white"/>
<path d="M11.9189 17.4917H12.2307V19.9391H11.9189V17.4917Z" fill="white"/>
<path d="M66.1909 17.4917H66.4787V19.9391H66.1909V17.4917Z" fill="white"/>
</g>
<defs>
<clipPath id="clip0_3405_44206">
<rect width="74" height="20" fill="white"/>
</clipPath>
</defs>
</svg>
