<svg width="58" height="24" viewBox="0 0 58 24" fill="none" xmlns="http://www.w3.org/2000/svg">
<g clip-path="url(#clip0_3405_44222)">
<path d="M0.836573 23.9443L0 21.0371H0.512814L1.13434 23.3086L1.80785 21.0371H2.25686L2.92564 23.3086L3.54716 21.0371H4.05998L3.2234 23.9443H2.66096L2.03471 21.8213L1.40374 23.9443H0.841299H0.836573Z" fill="white"/>
<path d="M5.72119 23.4872H7.03277V23.9443H5.23438V21.0371H7.0115V21.4942H5.72119V22.2506H6.90516V22.703H5.72119V23.4872Z" fill="white"/>
<path d="M11.3907 21.0371C11.7972 21.0371 12.1351 21.1786 12.4022 21.4571C12.6739 21.7355 12.8086 22.0812 12.8086 22.4919C12.8086 22.9025 12.6739 23.2436 12.4022 23.5267C12.1351 23.8051 11.7972 23.9466 11.3907 23.9466H10.228V21.0394H11.3907V21.0371ZM11.3907 23.4872C11.6696 23.4872 11.8988 23.3921 12.0713 23.2042C12.2486 23.0162 12.3384 22.7772 12.3384 22.4895C12.3384 22.2018 12.2486 21.9629 12.0713 21.7749C11.8988 21.587 11.6696 21.4919 11.3907 21.4919H10.7148V23.4849H11.3907V23.4872Z" fill="white"/>
<path d="M15.4765 24C15.0488 24 14.6848 23.8538 14.3847 23.5638C14.0893 23.2691 13.9404 22.9118 13.9404 22.4919C13.9404 22.0719 14.0893 21.7146 14.3847 21.4246C14.6801 21.1346 15.0488 20.9838 15.4765 20.9838C15.9042 20.9838 16.2682 21.1299 16.5636 21.4246C16.8637 21.7146 17.0126 22.0719 17.0126 22.4919C17.0126 22.9118 16.8637 23.2691 16.5636 23.5638C16.2635 23.8585 15.9042 24 15.4765 24ZM15.4765 23.5336C15.7719 23.5336 16.0224 23.4339 16.2209 23.239C16.4242 23.0394 16.5258 22.7912 16.5258 22.4919C16.5258 22.1926 16.4242 21.9443 16.2209 21.7494C16.0224 21.5499 15.7719 21.4501 15.4765 21.4501C15.1811 21.4501 14.9306 21.5499 14.7274 21.7494C14.5289 21.9443 14.4272 22.1949 14.4272 22.4919C14.4272 22.7889 14.5289 23.0394 14.7274 23.239C14.9306 23.4339 15.1811 23.5336 15.4765 23.5336Z" fill="white"/>
<path d="M20.4981 23.5661C20.2075 23.2761 20.0586 22.9188 20.0586 22.4896C20.0586 22.0603 20.2075 21.7053 20.4981 21.4176C20.7888 21.1276 21.1622 20.9814 21.6065 20.9814C22.1429 20.9814 22.625 21.2483 22.8803 21.6752L22.4572 21.9165C22.3013 21.6288 21.9799 21.4478 21.6065 21.4478C21.2898 21.4478 21.0346 21.5476 20.8361 21.7425C20.6423 21.9374 20.5431 22.1879 20.5431 22.4896C20.5431 22.7912 20.6399 23.0418 20.8361 23.2367C21.0346 23.4316 21.2898 23.5313 21.6065 23.5313C21.9799 23.5313 22.3036 23.348 22.4572 23.0627L22.8803 23.2993C22.7574 23.5104 22.5801 23.6821 22.3509 23.8098C22.1264 23.935 21.8783 23.9954 21.6065 23.9954C21.1622 23.9954 20.7912 23.8492 20.4981 23.5638V23.5661Z" fill="white"/>
<path d="M25.4565 24C25.0288 24 24.6648 23.8538 24.3647 23.5638C24.0693 23.2691 23.9204 22.9118 23.9204 22.4919C23.9204 22.0719 24.0693 21.7146 24.3647 21.4246C24.6601 21.1346 25.0288 20.9838 25.4565 20.9838C25.8842 20.9838 26.2482 21.1299 26.5436 21.4246C26.8437 21.7146 26.9926 22.0719 26.9926 22.4919C26.9926 22.9118 26.8437 23.2691 26.5436 23.5638C26.2434 23.8585 25.8842 24 25.4565 24ZM25.4565 23.5336C25.7519 23.5336 26.0024 23.4339 26.2009 23.239C26.4041 23.0394 26.5058 22.7912 26.5058 22.4919C26.5058 22.1926 26.4041 21.9443 26.2009 21.7494C26.0024 21.5499 25.7519 21.4501 25.4565 21.4501C25.1611 21.4501 24.9106 21.5499 24.7074 21.7494C24.5088 21.9443 24.4072 22.1949 24.4072 22.4919C24.4072 22.7889 24.5088 23.0394 24.7074 23.239C24.9106 23.4339 25.1611 23.5336 25.4565 23.5336Z" fill="white"/>
<path d="M30.0716 21.0371H30.5584V23.9443H30.1779L28.7813 21.9721V23.9443H28.2944V21.0371H28.6749L30.0716 23.0093V21.0371Z" fill="white"/>
<path d="M33.7937 21.0371H34.2805V23.9443H33.9001L32.5034 21.9721V23.9443H32.0166V21.0371H32.3971L33.7937 23.0093V21.0371Z" fill="white"/>
<path d="M36.2256 23.4872H37.5372V23.9443H35.7388V21.0371H37.5159V21.4942H36.2256V22.2506H37.4096V22.703H36.2256V23.4872Z" fill="white"/>
<path d="M39.0943 23.5661C38.8037 23.2761 38.6548 22.9188 38.6548 22.4896C38.6548 22.0603 38.8037 21.7053 39.0943 21.4176C39.385 21.1276 39.7584 20.9814 40.2027 20.9814C40.7391 20.9814 41.2212 21.2483 41.4764 21.6752L41.0534 21.9165C40.8975 21.6288 40.5761 21.4478 40.2027 21.4478C39.886 21.4478 39.6308 21.5476 39.4323 21.7425C39.2385 21.9374 39.1392 22.1879 39.1392 22.4896C39.1392 22.7912 39.2361 23.0418 39.4323 23.2367C39.6308 23.4316 39.886 23.5313 40.2027 23.5313C40.5761 23.5313 40.8998 23.348 41.0534 23.0627L41.4764 23.2993C41.3536 23.5104 41.1763 23.6821 40.9471 23.8098C40.7226 23.935 40.4744 23.9954 40.2027 23.9954C39.7584 23.9954 39.3874 23.8492 39.0943 23.5638V23.5661Z" fill="white"/>
<path d="M44.6737 21.0371V21.4942H43.8395V23.9443H43.3527V21.4942H42.5161V21.0371H44.6737Z" fill="white"/>
<path d="M45.8364 21.0371H46.3232V23.9443H45.8364V21.0371Z" fill="white"/>
<path d="M49.1498 24C48.7221 24 48.3582 23.8538 48.0581 23.5638C47.7627 23.2691 47.6138 22.9118 47.6138 22.4919C47.6138 22.0719 47.7627 21.7146 48.0581 21.4246C48.3535 21.1346 48.7221 20.9838 49.1498 20.9838C49.5776 20.9838 49.9415 21.1299 50.2369 21.4246C50.537 21.7146 50.6859 22.0719 50.6859 22.4919C50.6859 22.9118 50.537 23.2691 50.2369 23.5638C49.9368 23.8585 49.5776 24 49.1498 24ZM49.1498 23.5336C49.4452 23.5336 49.6958 23.4339 49.8943 23.239C50.0975 23.0394 50.1991 22.7912 50.1991 22.4919C50.1991 22.1926 50.0975 21.9443 49.8943 21.7494C49.6958 21.5499 49.4452 21.4501 49.1498 21.4501C48.8544 21.4501 48.604 21.5499 48.4007 21.7494C48.2022 21.9443 48.1006 22.1949 48.1006 22.4919C48.1006 22.7889 48.2022 23.0394 48.4007 23.239C48.604 23.4339 48.8544 23.5336 49.1498 23.5336Z" fill="white"/>
<path d="M53.7649 21.0371H54.2517V23.9443H53.8713L52.4746 21.9721V23.9443H51.9878V21.0371H52.3683L53.7649 23.0093V21.0371Z" fill="white"/>
<path d="M55.5209 23.2854L55.9392 23.0441C56.0574 23.3712 56.3031 23.5336 56.6742 23.5336C57.0452 23.5336 57.2248 23.3805 57.2248 23.1508C57.2248 23.0302 57.1752 22.9443 57.0759 22.8817C56.9767 22.819 56.8018 22.7494 56.5513 22.6752C56.2677 22.5917 56.1283 22.5383 55.9298 22.4084C55.7383 22.2761 55.6414 22.0835 55.6414 21.8237C55.6414 21.5638 55.7336 21.362 55.9203 21.2135C56.107 21.0603 56.3315 20.9861 56.5938 20.9861C57.0665 20.9861 57.4351 21.2274 57.6265 21.6265L57.2153 21.8585C57.0924 21.5893 56.8845 21.4524 56.5938 21.4524C56.3031 21.4524 56.1283 21.594 56.1283 21.8144C56.1283 22.0348 56.2724 22.1299 56.7238 22.2668C56.8372 22.304 56.9176 22.3295 56.9696 22.3504C57.0239 22.3666 57.0972 22.3968 57.1893 22.4339C57.2862 22.471 57.3595 22.5128 57.4044 22.5499C57.5604 22.6705 57.7305 22.8701 57.7092 23.1485C57.7092 23.4107 57.6124 23.6218 57.4162 23.7749C57.2248 23.9281 56.9719 24.0023 56.66 24.0023C56.0881 24.0023 55.6745 23.7332 55.5186 23.2877L55.5209 23.2854Z" fill="white"/>
<path d="M0.151367 0H2.34442V1.50348H4.86359V3.57773H2.34442V8.36427C2.34442 9.64037 3.19753 9.62181 4.86359 9.5406V11.4756C1.51257 11.8747 0.151367 10.9768 0.151367 8.36427V0Z" fill="white"/>
<path d="M6.81297 10.2181C5.77789 9.20189 5.24854 7.96523 5.24854 6.48959C5.24854 5.01395 5.77553 3.77729 6.81297 2.76105C7.84805 1.74481 9.12891 1.24597 10.6106 1.24597C12.0924 1.24597 13.3732 1.74481 14.4083 2.76105C15.4434 3.77729 15.9727 5.01395 15.9727 6.48959C15.9727 7.96523 15.4457 9.20189 14.4083 10.2181C13.3732 11.2344 12.1136 11.7332 10.6106 11.7332C9.10764 11.7332 7.84805 11.2344 6.81297 10.2181ZM10.6106 9.6404C11.5039 9.6404 12.2554 9.3411 12.8651 8.74249C13.4748 8.14388 13.7797 7.3875 13.7797 6.48959C13.7797 5.59168 13.4748 4.8353 12.8651 4.23669C12.2554 3.63808 11.5039 3.33878 10.6106 3.33878C9.71735 3.33878 8.96585 3.63808 8.35614 4.23669C7.74644 4.8353 7.44158 5.59168 7.44158 6.48959C7.44158 7.3875 7.74644 8.14388 8.35614 8.74249C8.96585 9.3411 9.71735 9.6404 10.6106 9.6404Z" fill="white"/>
<path d="M26.1275 2.77962C27.1224 3.79586 27.6092 5.03252 27.6092 6.48959C27.6092 7.94667 27.1224 9.20189 26.1275 10.2181C25.1326 11.2344 23.9534 11.7332 22.552 11.7332C21.0088 11.7332 19.8296 11.174 18.9977 10.058V15.4617H16.8047V1.50351H18.9977V2.93971C19.8296 1.80282 21.0088 1.24365 22.552 1.24365C23.9534 1.24365 25.1326 1.76337 26.1275 2.77962ZM22.207 9.67985C23.1215 9.67985 23.8919 9.38054 24.5016 8.78193C25.1113 8.16477 25.4162 7.40607 25.4162 6.48959C25.4162 5.57312 25.1113 4.81442 24.5016 4.21581C23.8919 3.59864 23.1215 3.29934 22.207 3.29934C21.2924 3.29934 20.522 3.59864 19.9123 4.21581C19.3026 4.81442 18.9977 5.5708 18.9977 6.48959C18.9977 7.40839 19.3026 8.16477 19.9123 8.78193C20.522 9.38054 21.2924 9.67985 22.207 9.67985Z" fill="white"/>
<path d="M45.2315 15.5592V5.58936H47.4245V15.5592H45.2315ZM45.3331 3.69376C44.7848 3.1346 44.7848 2.29701 45.3331 1.75873C45.8813 1.19956 46.7746 1.19956 47.3229 1.75873C47.8711 2.29701 47.8711 3.1346 47.3016 3.69376C46.7534 4.23205 45.9002 4.23205 45.3307 3.69376H45.3331Z" fill="white"/>
<path d="M57.9999 15.5592H55.4618L52.9426 12.1485L50.4046 15.5592H47.8452L51.6641 10.4339L48.0485 5.58936H50.5865L52.9214 8.74017L55.2562 5.58936H57.8155L54.1999 10.4548L57.9975 15.5592H57.9999Z" fill="white"/>
<path d="M42.5304 12.3898C38.6902 12.3898 37.0998 10.7401 35.6984 9.28534C34.4223 7.96284 33.321 6.8213 30.3765 6.8213V4.77954C34.2167 4.77954 35.8071 6.42919 37.2085 7.88395C38.4846 9.20645 39.5859 10.348 42.5304 10.348V12.3898Z" fill="white"/>
</g>
<defs>
<clipPath id="clip0_3405_44222">
<rect width="58" height="24" fill="white"/>
</clipPath>
</defs>
</svg>
