<svg xmlns="http://www.w3.org/2000/svg" width="40.291" height="35.996" viewBox="0 0 40.291 35.996">
  <g id="Logo_White" data-name="Logo / White" transform="translate(0 0)">
    <path id="Vector" d="M.247,0c.627.015,1.334.033,2.1.037a44.884,44.884,0,0,1,2.16,4.109,18.824,18.824,0,0,1-3.436-.222C-.686,3.625.247,0,.247,0Z" transform="translate(21.402 20.796)" fill="#fff"/>
    <path id="Vector-2" data-name="Vector" d="M5.445,0a3.743,3.743,0,0,1,.8.953A3.081,3.081,0,0,1,6.783,3.09l-.262.738a30.614,30.614,0,0,1-4.907,1.4A34.468,34.468,0,0,0,0,1.418,23.206,23.206,0,0,0,5.441,0" transform="translate(30.161 19.031)" fill="#fff"/>
    <path id="Vector-3" data-name="Vector" d="M1.239,0A34.912,34.912,0,0,0,5.345.506a23.24,23.24,0,0,0-1.5,5.427,3.675,3.675,0,0,1-1.224.222A3.082,3.082,0,0,1,.509,5.549L0,4.955A30.566,30.566,0,0,1,1.239,0Z" transform="translate(7.847 25.249)" fill="#fff"/>
    <path id="Vector-4" data-name="Vector" d="M1.913.4c1.135-1.377,3.8,1.244,3.8,1.244-.324.535-.693,1.141-1.08,1.8H4.059c-1.187,0-2.584-.033-4.059-.177A18.945,18.945,0,0,1,1.913.4" transform="translate(11.426 16.557)" fill="#fff"/>
    <path id="Vector-5" data-name="Vector" d="M.172,2.728.5,1.78A40.765,40.765,0,0,1,5,0,6.278,6.278,0,0,1,4.64,3.9l-.479.831a10.855,10.855,0,0,0-2.713,1.3c-.088-.044-.177-.085-.265-.129C-.528,5.021.1,2.957.172,2.728Z" transform="translate(3.111 12.028)" fill="#fff"/>
    <path id="Vector-6" data-name="Vector" d="M1.017,5.767C.719,5.217.38,4.6,0,3.928A44.1,44.1,0,0,1,2.47,0,18.712,18.712,0,0,1,4,3.09c.623,1.672-2.979,2.677-2.979,2.677Z" transform="translate(20.631 9.824)" fill="#fff"/>
    <path id="Vector-7" data-name="Vector" d="M2,.144,2.769,0A30.807,30.807,0,0,1,6.433,3.555,34.6,34.6,0,0,0,3.945,6.863,23.074,23.074,0,0,0,0,2.85,3.636,3.636,0,0,1,.42,1.676,3.084,3.084,0,0,1,2,.144Z" transform="translate(13.148 1.521)" fill="#fff"/>
    <path id="Vector-8" data-name="Vector" d="M13.531,10.437A33.568,33.568,0,0,1,9.362,9.95,29.237,29.237,0,0,1,2.542,7.93,4.193,4.193,0,0,1,.1,3.319c.041-.17.088-.332.14-.487,0-.011.007-.026.011-.037.048-.144.107-.281.166-.417.011-.026.022-.052.033-.074.059-.126.122-.244.188-.362.018-.03.033-.063.052-.092.066-.114.136-.222.21-.325.018-.03.041-.063.063-.092.077-.1.155-.2.24-.3l.063-.074c.088-.1.184-.2.28-.3L1.591.713c.107-.1.214-.2.324-.292A.211.211,0,0,1,1.945.4C2.059.3,2.181.207,2.3.114A.223.223,0,0,0,2.339.089L2.472,0c-.037.107-.94,2.924,1.368,4.172l.059.033a20.4,20.4,0,0,0,7.1,1.946,41.636,41.636,0,0,0,4.575.222c1.146,0,2.193-.037,3.075-.059,0,0,.933,3.625-.826,3.925a20.035,20.035,0,0,1-4.28.192" transform="translate(0 14.487)" fill="#fff"/>
    <path id="Vector-9" data-name="Vector" d="M.425,16.344A7.233,7.233,0,0,0,.86,11.7C.532,9.429-.153,6.933.031,4.722V4.7A5.6,5.6,0,0,1,1.712,1.007,4.172,4.172,0,0,1,6.921.823,3.825,3.825,0,0,0,4.757,2.769a4.486,4.486,0,0,0-.431,1.052,11.339,11.339,0,0,0,.328,5.187c.007.03.011.055.018.085a15.871,15.871,0,0,1,.479,3.267v.026q0,.127-.011.255a.551.551,0,0,0-.007.078c-.007.066-.011.137-.022.2a1.062,1.062,0,0,1-.018.114c-.007.055-.018.111-.029.162s-.026.092-.037.14-.022.085-.033.126c-.018.059-.041.111-.063.166-.015.03-.022.063-.037.092-.037.081-.077.166-.122.244s-.1.155-.151.229c-.018.026-.044.052-.063.078-.037.048-.07.092-.111.137s-.063.063-.092.1a1.364,1.364,0,0,1-.1.1c-.041.037-.081.07-.125.107s-.059.048-.088.074c-.055.044-.111.081-.166.122l-.063.044c-.066.048-.14.092-.214.137-.007,0-.015.011-.022.015a15.413,15.413,0,0,1-3.06,1.215c-.029.007-.055.018-.085.026" transform="translate(8.063)" fill="#fff"/>
    <path id="Vector-10" data-name="Vector" d="M7.015,1.994a2.065,2.065,0,0,1-1,1.916,3.925,3.925,0,0,1-1.246.546l-.984.2A40.834,40.834,0,0,1,0,1.639,6.232,6.232,0,0,1,3.55,0h.958A10.9,10.9,0,0,0,7,1.706c.007.1.015.2.018.292" transform="translate(20.83 30.081)" fill="#fff"/>
    <path id="Vector-11" data-name="Vector" d="M7.767,7.865a29.092,29.092,0,0,1,1.666,6.926,4.191,4.191,0,0,1-2.765,4.427c-.088.03-.177.052-.265.074a.131.131,0,0,1-.037.007c-.077.018-.151.037-.229.052a.047.047,0,0,1-.022,0c-.081.015-.162.03-.243.041H5.865a5.1,5.1,0,0,1-1.032.037c-.081,0-.166-.011-.247-.022H4.568c-.074-.007-.151-.018-.225-.03a.132.132,0,0,0-.041-.007c-.066-.011-.129-.022-.2-.037-.022,0-.044-.011-.066-.015-.052-.011-.107-.022-.162-.037-.033-.007-.063-.018-.1-.026s-.085-.022-.129-.037-.081-.022-.122-.037l-.1-.033c-.048-.015-.1-.03-.144-.048-.029-.011-.055-.018-.081-.03-.055-.018-.107-.037-.159-.059l-.077-.033c-.048-.022-.1-.041-.147-.063s-.092-.041-.136-.063a.521.521,0,0,1-.066-.03c.015,0,3.008-.6,2.931-3.275v-.066A20.451,20.451,0,0,0,3.686,8.36a41.508,41.508,0,0,0-2.1-4.08C1.014,3.287.461,2.4,0,1.644,0,1.644,2.665-.977,3.8.4A20.114,20.114,0,0,1,6.112,4.018,34.014,34.014,0,0,1,7.775,7.88" transform="translate(23.153 16.549)" fill="#fff"/>
    <path id="Vector-12" data-name="Vector" d="M16.631,2.522c.018.018.041.041.063.059a7.208,7.208,0,0,0-4.228,1.938C10.659,5.94,8.846,7.783,6.84,8.731c-.007,0-.015.011-.022.011a5.593,5.593,0,0,1-4.037.388A4.185,4.185,0,0,1,.016,4.7a3.809,3.809,0,0,0,2.765.9,4.421,4.421,0,0,0,1.128-.151A11.3,11.3,0,0,0,8.234,2.581c.022-.018.044-.041.066-.059A15.55,15.55,0,0,1,10.88.473a.213.213,0,0,1,.026-.015c.074-.041.147-.081.225-.118L11.2.306c.063-.03.125-.055.188-.081.033-.015.07-.026.107-.041s.1-.041.155-.055.092-.026.14-.037L11.92.059a1.306,1.306,0,0,1,.173-.03c.029,0,.063-.011.1-.015C12.281.007,12.37,0,12.462,0a2.251,2.251,0,0,1,.273.015c.029,0,.063.011.1.015.059.007.114.018.173.03l.129.033c.048.011.1.022.14.037l.155.055c.033.015.07.026.107.041.063.026.125.052.188.081l.07.033c.077.037.151.078.229.118a.077.077,0,0,0,.022.015,15.566,15.566,0,0,1,2.584,2.049" transform="translate(7.686 26.648)" fill="#fff"/>
    <path id="Vector-13" data-name="Vector" d="M.479,4.356,0,3.526A10.923,10.923,0,0,0,.229.517C.31.462.391.406.472.354A2.018,2.018,0,0,1,1.6,0,3.344,3.344,0,0,1,3.72,1.067l.66.757a40.268,40.268,0,0,1-.711,4.8A6.206,6.206,0,0,1,.476,4.36Z" transform="translate(27.838 4.223)" fill="#fff"/>
    <path id="Vector-14" data-name="Vector" d="M.076,12.913A20.026,20.026,0,0,1,2.048,9.1,33.56,33.56,0,0,1,4.555,5.728,28.947,28.947,0,0,1,9.709.822a4.176,4.176,0,0,1,5.209.185c.066.066.133.129.2.2a.171.171,0,0,1,.026.026c.055.059.107.118.159.177.007,0,.011.011.015.015.055.063.107.126.159.192a5.128,5.128,0,0,1,.549.879c.037.074.07.148.1.225,0,.007.007.011.007.018.029.07.059.14.085.21,0,.015.011.026.015.041l.066.188.022.066c.015.055.033.107.048.162.007.033.018.063.026.1l.033.133c.011.041.018.085.029.126s.015.07.022.1c.011.052.018.1.029.151,0,.03.011.055.015.085.007.055.018.111.026.166,0,.03.007.055.011.085.007.055.011.107.018.159s.011.1.015.148a.5.5,0,0,1,.007.074c-.007-.011-2.02-2.307-4.295-.9-.022.011-.041.022-.059.033a20.356,20.356,0,0,0-5.231,5.18,42.725,42.725,0,0,0-2.477,3.858c-.571,1-1.065,1.92-1.486,2.7,0,0-3.6-1-2.979-2.677" transform="translate(15.597 0.001)" fill="#fff"/>
    <path id="Vector-15" data-name="Vector" d="M13.117,8.787A4.186,4.186,0,0,1,10.673,13.4a3.828,3.828,0,0,0-.6-2.85,4.37,4.37,0,0,0-.693-.9A11.326,11.326,0,0,0,4.73,7.336c-.029-.007-.055-.018-.085-.026A15.5,15.5,0,0,1,1.586,6.1a.161.161,0,0,1-.026-.015c-.074-.044-.144-.089-.214-.137L1.284,5.9q-.088-.061-.166-.122c-.029-.026-.059-.048-.088-.074S.944,5.634.9,5.6s-.07-.07-.1-.1S.738,5.435.708,5.4.635,5.309.6,5.265C.576,5.239.554,5.213.535,5.187a2.227,2.227,0,0,1-.151-.229,2.5,2.5,0,0,1-.122-.244.961.961,0,0,1-.037-.092C.2,4.567.181,4.512.163,4.456S.137,4.371.126,4.331.1,4.238.089,4.19.071,4.083.06,4.028C.052,3.991.049,3.95.041,3.913.03,3.847.026,3.781.019,3.71a.551.551,0,0,1-.007-.078Q0,3.511,0,3.378V3.352A15.557,15.557,0,0,1,.48.089C.487.059.491.03.5,0A7.219,7.219,0,0,0,4.292,2.7c2.142.857,4.649,1.514,6.473,2.787a.79.79,0,0,1,.07.048,5.812,5.812,0,0,1,2,2.4c.041.1.081.192.114.292.015.037.029.078.041.114.048.148.092.3.129.454" transform="translate(27.075 9.012)" fill="#fff"/>
  </g>
</svg>
