<?xml version="1.0" encoding="UTF-8"?>
<svg id="Livello_1" data-name="Livello 1" xmlns="http://www.w3.org/2000/svg" viewBox="0 0 179.99 160.59">
  <defs>
    <style>
      .cls-1 {
        fill: #00add3;
      }

      .cls-2 {
        fill: #2d58a7;
      }
    </style>
  </defs>
  <path class="cls-1" d="m46.74,143.91c1.73,0,3.4-.24,5.03-.67,0-.1,0-.2.02-.3.9-10.92,4.37-21.83,8.67-31.78-6.13-.31-12.46-1.07-18.63-2.17-4.02,11.12-6.69,22.3-7.44,30.89h0c2.49,2.9,7.72,4.04,12.35,4.04h0Z"/>
  <path class="cls-1" d="m59.58,75.61c-3.78,4.57-7.31,10.24-10.47,16.44,7.15.78,14.14.99,20.44.98,2.53-4.48,4.96-8.49,7.03-11.87,0,0-11.92-11.7-17-5.56h0Z"/>
  <path class="cls-1" d="m17.14,83.23c5.22-5.25,13.19-7.88,20.77-10.3,3.26-5.65,3.08-12.89,1.95-20.7-9.53,3.81-20.7,6.73-28.84,12.38-.16.48-4.2,13.05,6.12,18.62Z"/>
  <path class="cls-1" d="m57.28,12.35c-.86,1.5-1.49,3.07-1.93,4.7.08.06.17.11.25.16,9.01,6.24,16.72,14.7,23.19,23.4,3.33-5.15,7.16-10.26,11.2-15.05-7.62-9.04-15.97-16.95-23.03-21.89-3.76.7-7.36,4.67-9.67,8.68h-.01Z"/>
  <path class="cls-1" d="m110.01,57.61c-2.07-5.56-5.22-11.45-9-17.29-4.25,5.8-7.93,11.75-11.07,17.21,2.62,4.43,4.87,8.54,6.76,12.03,0,0,16.09-4.48,13.31-11.95Z"/>
  <path class="cls-2" d="m83.29,92.78c-3.93.1-8.61.25-13.74.26-6.3,0-13.29-.2-20.44-.98-10.8-1.18-21.96-3.66-31.7-8.68-.09-.05-.17-.1-.26-.15-10.32-5.57-6.28-18.14-6.12-18.62-.2.14-.4.27-.59.4-.06.04-.12.08-.17.12-.55.4-1.08.82-1.6,1.25-.05.04-.09.08-.14.11-.5.42-.98.86-1.44,1.31-.07.07-.14.14-.22.21-.43.43-.85.87-1.25,1.32-.1.11-.19.22-.28.33-.37.44-.73.89-1.07,1.35-.1.13-.19.27-.29.41-.33.47-.64.94-.93,1.44-.08.13-.15.27-.23.41-.29.52-.58,1.05-.83,1.61-.05.11-.09.22-.14.32-.27.6-.52,1.22-.74,1.86-.02.05-.03.11-.05.17-.23.7-.45,1.42-.62,2.17-2.11,8.98,3.72,17.2,10.93,20.57,7.81,3.65,18.84,6.93,30.47,9,6.17,1.1,12.51,1.87,18.63,2.17,6.82.34,13.38.11,19.13-.86,7.86-1.33,3.69-17.5,3.69-17.5Z"/>
  <path class="cls-2" d="m57.28,12.35c2.31-4.01,5.91-7.97,9.67-8.68-6.52-4.56-16.56-5.5-23.27.82-4.86,4.57-6.95,10.41-7.52,16.48v.1c-.82,9.87,2.25,21,3.71,31.16,1.13,7.81,1.31,15.04-1.95,20.7.13-.04.25-.08.38-.12,5.09-1.66,9.96-3.2,13.68-5.42.04-.02.07-.04.1-.06.33-.2.65-.4.96-.61.1-.07.19-.13.28-.2.25-.18.5-.35.73-.54.14-.11.26-.22.39-.33.19-.16.38-.32.56-.48.16-.15.31-.3.46-.45.14-.14.28-.28.41-.42.18-.19.34-.4.5-.6.09-.12.19-.23.28-.34.24-.33.47-.67.67-1.02s.39-.72.55-1.09c.06-.13.1-.27.16-.41.1-.24.19-.49.28-.74.06-.19.11-.38.16-.57.06-.21.12-.41.17-.63.05-.24.09-.48.14-.72.03-.17.06-.34.09-.51.04-.3.07-.6.1-.91.01-.11.02-.23.03-.34.03-.37.04-.75.05-1.14v-.12c.06-4.33-1.03-9.32-2.15-14.56-.03-.13-.06-.26-.08-.39-1.69-7.78-3.41-16-1.46-23.15.44-1.63,1.07-3.2,1.93-4.7h0Z"/>
  <path class="cls-1" d="m124.63,17.06c1.94,7.15.23,15.36-1.46,23.14,3.26,5.65,9.62,9.11,16.95,12.04,1.47-10.15,4.53-21.27,3.71-31.14-.04-.05-9.04-10.29-19.2-4.03h0Z"/>
  <path class="cls-1" d="m165.95,87.26c-.86-1.5-1.91-2.83-3.1-4.02-.09.05-.18.09-.27.14-9.91,4.68-21.09,7.13-31.86,8.38,2.8,5.46,5.31,11.33,7.44,17.22,11.64-2.08,22.66-5.36,30.47-9,1.27-3.61-.36-8.7-2.68-12.71h0Z"/>
  <path class="cls-1" d="m96.69,92.78s-4.17,16.17,3.69,17.5c5.75.97,12.31,1.2,19.13.86-2.85-6.59-6.06-12.75-9.14-18.21-5.1.05-9.75-.05-13.68-.16h0Z"/>
  <path class="cls-2" d="m143.8,20.77c-.02-.22-.04-.45-.07-.67-.03-.23-.06-.47-.09-.7-.02-.13-.03-.26-.05-.38-.04-.25-.08-.49-.12-.74-.02-.13-.04-.25-.07-.38-.04-.22-.08-.44-.13-.67-.03-.16-.06-.31-.1-.47-.04-.19-.09-.37-.13-.55-.05-.2-.1-.4-.15-.59-.04-.14-.08-.28-.12-.43-.07-.24-.14-.48-.22-.72-.03-.1-.06-.2-.09-.29-.09-.28-.19-.56-.3-.84-.02-.06-.04-.12-.07-.17-.12-.32-.25-.63-.38-.94,0-.02-.02-.05-.03-.07-.15-.34-.3-.68-.47-1.01h0c-.67-1.36-1.48-2.68-2.45-3.92,0,0,0-.01,0-.02-.23-.29-.46-.58-.71-.86-.02-.02-.04-.05-.06-.07-.23-.26-.47-.52-.71-.78-.04-.04-.07-.08-.11-.12-.28-.29-.57-.58-.88-.87-6.72-6.32-16.76-5.38-23.27-.82-7.07,4.94-15.42,12.85-23.03,21.89-4.04,4.79-7.87,9.9-11.2,15.05-3.71,5.74-6.79,11.53-8.82,17-2.78,7.47,13.31,11.95,13.31,11.95,1.88-3.46,4.09-7.58,6.64-12.03,3.14-5.46,6.82-11.41,11.07-17.21,6.42-8.76,14.15-17.19,23.37-23.11.09-.06.17-.1.26-.15,10.16-6.26,19.16,3.98,19.2,4.03,0-.11-.02-.21-.03-.32l.02-.02Z"/>
  <path class="cls-2" d="m179.55,79.4c-.16-.7-.37-1.37-.58-2.03-.06-.17-.11-.34-.17-.51-.16-.45-.34-.87-.52-1.3-1.92-4.45-5.13-7.93-8.93-10.69-.1-.07-.21-.15-.32-.22-8.15-5.69-19.35-8.61-28.92-12.43-7.32-2.93-13.68-6.38-16.95-12.04-.03.13-.06.26-.08.39-1.11,5.24-2.21,10.23-2.15,14.56v.12c0,.39.02.77.05,1.14,0,.12.02.23.03.34.03.31.06.61.1.91.02.17.06.34.09.51.04.24.08.49.14.72.05.21.11.42.17.63.05.19.1.38.16.57.08.25.18.49.27.73.05.14.1.28.16.41.16.37.35.74.55,1.09s.43.69.67,1.02c.09.12.19.23.28.34.16.2.32.41.5.6.13.14.27.28.41.42.15.15.3.31.46.45.18.16.37.32.56.48.13.11.26.22.4.33.24.18.48.36.73.54.1.07.19.14.28.2.31.21.63.41.96.61.04.02.07.04.11.07,3.71,2.22,8.58,3.76,13.68,5.42.13.04.25.08.38.12,7.58,2.43,15.56,5.05,20.78,10.31,1.19,1.2,2.24,2.52,3.1,4.02,2.31,4.01,3.95,9.11,2.68,12.71,7.21-3.37,13.04-11.59,10.93-20.57v.03Z"/>
  <path class="cls-1" d="m128.21,143.23c-7.17-1.89-13.42-7.49-19.32-12.84-6.53,0-12.7,3.78-18.9,8.66,8.06,6.35,16.16,14.57,25.13,18.8,3.26,1.33,13.81-3.44,13.09-14.61h0Z"/>
  <path class="cls-2" d="m145.59,139.87c-.75-8.59-3.42-19.78-7.44-30.89-2.13-5.89-4.64-11.77-7.44-17.22-3.12-6.08-6.59-11.64-10.31-16.14-5.08-6.14-17,5.56-17,5.56,2.05,3.35,4.47,7.33,6.98,11.77,3.08,5.46,6.29,11.62,9.14,18.21,4.3,9.95,7.77,20.86,8.67,31.78,0,.1,0,.2.02.3.73,11.17-9.83,15.94-13.09,14.61.03,0,.06.03.09.04,5.54,2.54,11.64,3.65,18.03,1.73,8.83-2.66,13.04-11.82,12.35-19.75h0Z"/>
  <path class="cls-2" d="m108.6,130.13c-3.98-3.59-7.76-7.03-11.54-9.14-.04-.02-.07-.04-.11-.06-.34-.19-.67-.36-1.01-.53-.11-.05-.21-.1-.32-.14-.28-.13-.56-.25-.84-.37-.16-.06-.32-.12-.48-.18-.23-.08-.46-.17-.69-.24-.21-.06-.42-.11-.62-.17-.19-.05-.38-.11-.57-.15-.26-.06-.52-.09-.78-.13-.14-.02-.29-.05-.43-.07-.41-.04-.81-.07-1.22-.07s-.81.02-1.22.07c-.14.02-.29.05-.43.07-.26.04-.52.07-.78.13-.19.04-.38.1-.57.15-.21.05-.42.1-.62.17-.23.07-.46.16-.69.24-.16.06-.32.11-.48.18-.28.11-.56.24-.83.37-.11.05-.21.09-.32.15-.34.16-.67.34-1.01.52-.04.02-.07.04-.11.06-3.78,2.11-7.55,5.55-11.53,9.13-.1.09-.2.18-.3.27-5.89,5.35-12.15,10.95-19.32,12.84-1.63.43-3.3.67-5.03.67-4.63,0-9.86-1.13-12.35-4.04-.56,6.44,2.11,13.69,7.87,17.62,1.33.9,2.82,1.63,4.48,2.13h.03c6.38,1.91,12.46.8,17.99-1.73.04-.02.07-.03.11-.05,8.96-4.22,17.07-12.45,25.13-18.8,6.2-4.88,12.37-8.66,18.9-8.66-.1-.09-.19-.17-.29-.26l-.02.02Z"/>
</svg>