<?xml version="1.0" encoding="UTF-8"?>
<svg id="Livello_1" data-name="Livello 1" xmlns="http://www.w3.org/2000/svg" viewBox="0 0 559.99 168.35">
  <defs>
    <style>
      .cls-1 {
        fill: #00add3;
      }

      .cls-2 {
        fill: #2d58a7;
      }
    </style>
  </defs>
  <g>
    <path class="cls-1" d="m49,150.87c1.81,0,3.57-.26,5.28-.71,0-.11,0-.21.02-.32.94-11.45,4.58-22.89,9.09-33.31-6.42-.32-13.07-1.12-19.53-2.28-4.21,11.65-7.01,23.38-7.8,32.38h0c2.61,3.04,8.09,4.23,12.95,4.23h0Z"/>
    <path class="cls-1" d="m62.45,79.28c-3.96,4.79-7.67,10.74-10.98,17.24,7.5.82,14.82,1.04,21.43,1.03,2.65-4.7,5.2-8.9,7.37-12.44,0,0-12.5-12.26-17.83-5.82h.01Z"/>
    <path class="cls-1" d="m17.97,87.26c5.47-5.51,13.83-8.26,21.77-10.8,3.42-5.93,3.23-13.51,2.05-21.7-9.99,3.99-21.69,7.05-30.23,12.98-.17.51-4.41,13.68,6.41,19.52Z"/>
    <path class="cls-1" d="m60.05,12.95c-.91,1.57-1.56,3.22-2.03,4.92.09.06.18.11.27.17,9.44,6.54,17.53,15.41,24.31,24.53,3.49-5.4,7.51-10.76,11.74-15.78-7.99-9.47-16.74-17.76-24.15-22.94-3.94.74-7.71,4.89-10.14,9.1Z"/>
    <path class="cls-1" d="m115.32,60.4c-2.17-5.83-5.47-12.01-9.44-18.12-4.46,6.08-8.31,12.32-11.61,18.04,2.74,4.64,5.11,8.96,7.09,12.61,0,0,16.87-4.69,13.96-12.53Z"/>
    <path class="cls-2" d="m87.31,97.27c-4.12.11-9.02.26-14.4.27-6.6,0-13.93-.21-21.43-1.03-11.32-1.24-23.02-3.84-33.23-9.1-.1-.05-.18-.1-.27-.15-10.82-5.84-6.58-19.01-6.41-19.52-.21.14-.42.28-.62.42-.06.04-.12.09-.18.13-.57.42-1.13.86-1.67,1.31-.05.04-.1.08-.14.12-.52.44-1.03.9-1.51,1.37-.08.07-.15.15-.23.22-.45.45-.89.91-1.31,1.39-.1.11-.2.23-.3.34-.39.46-.76.93-1.12,1.42-.1.14-.2.28-.3.43-.34.49-.67.99-.98,1.51-.08.14-.16.29-.24.43-.31.55-.6,1.1-.87,1.69-.05.11-.1.23-.15.34-.28.63-.54,1.28-.78,1.95-.02.06-.04.12-.06.17-.25.73-.47,1.49-.65,2.27-2.22,9.41,3.9,18.03,11.45,21.56,8.19,3.82,19.75,7.26,31.94,9.44,6.47,1.16,13.11,1.96,19.53,2.28,7.15.36,14.03.12,20.06-.9,8.24-1.39,3.87-18.35,3.87-18.35h0Z"/>
    <path class="cls-2" d="m60.05,12.95c2.43-4.2,6.2-8.36,10.14-9.1-6.83-4.78-17.35-5.77-24.4.86-5.1,4.79-7.29,10.92-7.88,17.28v.11c-.86,10.35,2.35,22.01,3.89,32.66,1.18,8.18,1.37,15.77-2.05,21.7.13-.04.27-.09.4-.13,5.34-1.74,10.44-3.36,14.34-5.68.04-.02.07-.05.11-.07.35-.21.68-.42,1.01-.64.1-.07.2-.14.3-.21.26-.18.52-.37.77-.57.14-.11.28-.23.41-.34.2-.17.4-.33.59-.5.17-.15.32-.32.48-.48.15-.15.3-.29.43-.44.18-.2.35-.42.52-.63.1-.12.2-.24.29-.36.25-.34.49-.7.7-1.07s.4-.75.58-1.14c.06-.14.11-.29.16-.43.1-.26.2-.51.29-.77.06-.19.11-.4.16-.59.06-.22.12-.43.17-.66.06-.25.1-.5.14-.76.03-.18.07-.35.09-.53.04-.31.08-.63.11-.95.01-.12.02-.24.03-.36.03-.39.05-.79.05-1.19v-.13c.06-4.53-1.08-9.77-2.25-15.26-.03-.14-.06-.27-.09-.41-1.77-8.16-3.57-16.77-1.53-24.27.46-1.7,1.12-3.35,2.03-4.92v-.02Z"/>
    <path class="cls-1" d="m130.65,17.89c2.03,7.49.24,16.1-1.53,24.25,3.42,5.92,10.09,9.55,17.76,12.62,1.54-10.64,4.75-22.3,3.89-32.65-.04-.05-9.48-10.78-20.12-4.22Z"/>
    <path class="cls-1" d="m173.96,91.48c-.91-1.57-2.01-2.96-3.25-4.22-.1.05-.19.1-.28.14-10.39,4.91-22.11,7.48-33.4,8.78,2.93,5.72,5.56,11.88,7.79,18.06,12.2-2.18,23.75-5.61,31.94-9.44,1.33-3.78-.38-9.13-2.81-13.33h0Z"/>
    <path class="cls-1" d="m101.36,97.27s-4.37,16.96,3.87,18.35c6.03,1.02,12.9,1.26,20.06.9-2.99-6.91-6.36-13.37-9.58-19.09-5.34.05-10.22-.06-14.34-.16h-.01Z"/>
    <path class="cls-2" d="m150.74,21.78c-.02-.24-.04-.47-.07-.7-.03-.25-.06-.49-.09-.73-.02-.13-.03-.27-.05-.4-.04-.26-.08-.51-.12-.77-.02-.13-.04-.27-.07-.4-.04-.23-.09-.47-.14-.7-.03-.16-.07-.33-.1-.49-.04-.19-.09-.39-.14-.58-.05-.21-.1-.41-.16-.62-.04-.15-.08-.3-.12-.45-.07-.25-.15-.5-.23-.76-.03-.1-.07-.21-.1-.31-.1-.3-.2-.59-.31-.88-.02-.06-.05-.12-.07-.18-.13-.33-.26-.66-.4-.99,0-.03-.02-.05-.03-.08-.15-.36-.32-.71-.49-1.06h0c-.7-1.43-1.56-2.81-2.57-4.11,0,0,0-.01,0-.02-.24-.31-.49-.61-.74-.9-.02-.02-.04-.05-.06-.07-.24-.28-.49-.55-.75-.82-.04-.04-.08-.08-.12-.13-.3-.31-.6-.61-.92-.91-7.04-6.63-17.57-5.64-24.4-.86-7.41,5.18-16.16,13.47-24.15,22.94-4.23,5.02-8.25,10.38-11.74,15.78-3.89,6.02-7.11,12.09-9.24,17.82-2.91,7.83,13.96,12.53,13.96,12.53,1.97-3.62,4.28-7.95,6.97-12.61,3.29-5.72,7.15-11.96,11.61-18.04,6.73-9.18,14.84-18.02,24.5-24.23.09-.06.18-.1.27-.16,10.65-6.56,20.08,4.18,20.12,4.22,0-.11-.02-.22-.03-.33h0Z"/>
    <path class="cls-2" d="m188.22,83.25c-.17-.73-.38-1.44-.61-2.12-.06-.18-.12-.36-.18-.53-.17-.47-.35-.92-.54-1.36-2.02-4.67-5.38-8.32-9.36-11.2-.11-.08-.23-.15-.34-.23-8.54-5.97-20.29-9.03-30.31-13.04-7.68-3.07-14.34-6.69-17.76-12.62-.03.14-.06.27-.09.41-1.17,5.49-2.31,10.73-2.25,15.26v.13c0,.4.03.8.05,1.19,0,.12.02.24.03.36.03.32.06.64.11.95.03.18.06.35.09.53.04.25.09.51.14.76.05.22.11.44.17.66.05.2.1.4.16.59.08.26.19.51.29.77.06.14.1.29.17.43.17.39.36.77.58,1.14s.45.73.7,1.07c.09.12.2.24.29.36.17.21.34.43.52.63.14.15.29.29.43.44.16.16.31.32.48.48.19.17.39.34.58.5.14.12.27.23.41.35.25.19.51.38.77.57.1.07.2.14.3.21.33.22.66.43,1.01.64.04.02.07.05.11.07,3.89,2.32,9,3.95,14.34,5.68.13.04.27.09.4.13,7.95,2.54,16.31,5.29,21.78,10.81,1.24,1.25,2.34,2.65,3.25,4.22,2.43,4.2,4.14,9.55,2.81,13.33,7.55-3.53,13.67-12.15,11.45-21.56h.02Z"/>
    <path class="cls-1" d="m134.4,150.16c-7.51-1.98-14.07-7.85-20.25-13.46-6.84,0-13.32,3.96-19.81,9.07,8.45,6.66,16.94,15.27,26.34,19.7,3.42,1.4,14.48-3.6,13.72-15.32h0Z"/>
    <path class="cls-2" d="m152.62,146.63c-.78-9-3.59-20.73-7.8-32.38-2.23-6.18-4.86-12.33-7.79-18.06-3.27-6.37-6.91-12.2-10.81-16.92-5.33-6.44-17.83,5.82-17.83,5.82,2.15,3.52,4.69,7.68,7.31,12.34,3.23,5.72,6.6,12.18,9.58,19.09,4.51,10.43,8.15,21.86,9.09,33.31,0,.11,0,.21.02.32.76,11.71-10.3,16.71-13.72,15.32.03.02.07.03.1.05,5.8,2.66,12.2,3.83,18.9,1.81,9.26-2.79,13.67-12.39,12.94-20.7h0Z"/>
    <path class="cls-2" d="m113.84,136.42c-4.18-3.76-8.14-7.37-12.1-9.58-.04-.02-.08-.04-.11-.06-.35-.2-.71-.38-1.06-.55-.11-.05-.22-.1-.33-.15-.29-.14-.58-.27-.88-.38-.17-.07-.34-.12-.51-.19-.24-.09-.48-.18-.73-.26-.22-.07-.44-.12-.65-.18-.2-.05-.4-.11-.6-.15-.27-.06-.54-.1-.81-.14-.15-.02-.3-.06-.45-.07-.43-.05-.85-.07-1.28-.07s-.85.03-1.28.07c-.15.02-.3.05-.45.07-.27.04-.54.08-.81.14-.2.04-.4.1-.6.15-.22.06-.44.11-.65.18-.24.08-.48.17-.72.26-.17.06-.34.12-.51.19-.29.12-.58.25-.87.38-.11.05-.22.1-.33.15-.35.17-.71.36-1.06.55-.04.02-.08.04-.11.06-3.96,2.21-7.92,5.82-12.09,9.58-.1.09-.21.19-.31.28-6.18,5.61-12.74,11.48-20.25,13.46-1.71.45-3.46.71-5.28.71-4.85,0-10.34-1.19-12.95-4.23-.59,6.75,2.21,14.36,8.25,18.47,1.39.95,2.96,1.71,4.7,2.23h.03c6.68,2,13.07.84,18.86-1.81.04-.02.07-.03.11-.05,9.4-4.43,17.89-13.05,26.34-19.7,6.5-5.12,12.97-9.07,19.81-9.07-.1-.09-.2-.18-.3-.27l-.02-.02Z"/>
  </g>
  <g>
    <path d="m291.87,51.75c6.1,6.4,9.16,15.56,9.16,27.47s-3.05,21.07-9.16,27.47c-6.1,6.4-14.92,9.61-26.46,9.61h-34.04V42.14h34.04c11.53,0,20.35,3.2,26.46,9.61Zm-17.81,42.92c2.25-3.26,3.37-8.41,3.37-15.45s-1.12-12.19-3.37-15.45-6.07-4.89-11.46-4.89h-8.31v40.67h8.31c5.39,0,9.21-1.63,11.46-4.89h0Z"/>
    <path d="m373.49,51.08c6.52,6.71,9.78,16.08,9.78,28.14s-3.26,21.44-9.78,28.14c-6.52,6.71-15.58,10.06-27.19,10.06-7.64,0-14.25-1.5-19.83-4.49-5.58-3-9.87-7.38-12.86-13.15-3-5.77-4.49-12.62-4.49-20.56s1.5-14.79,4.49-20.56c3-5.77,7.28-10.15,12.86-13.14,5.58-3,12.19-4.49,19.83-4.49,11.61,0,20.67,3.35,27.19,10.05Zm-37.41,12.58c-2.25,3.41-3.37,8.59-3.37,15.56s1.12,12.15,3.37,15.56c2.25,3.41,5.66,5.11,10.22,5.11s7.96-1.69,10.17-5.06c2.21-3.37,3.31-8.57,3.31-15.62s-1.11-12.24-3.31-15.62c-2.21-3.37-5.6-5.06-10.17-5.06s-7.98,1.71-10.22,5.11v.02Z"/>
    <path d="m485.17,116.29h-20.22v-29.66l.45-23.93h-.23l-16.29,53.59h-18.43l-16.07-53.59h-.34l.45,23.93v29.66h-20.22V42.14h32.36l10,35.17,3.71,14.72h.22l3.71-14.72,10-35.17h30.89v74.15h.01Z"/>
    <path d="m559.99,99.1v17.19h-61.23V42.14h59.77v17.19h-36.85v12.02h29.44v15.95h-29.44v11.8h38.31,0Z"/>
  </g>
</svg>