<?xml version="1.0" encoding="UTF-8"?>
<svg id="Livello_1" data-name="Livello 1" xmlns="http://www.w3.org/2000/svg" viewBox="0 0 180.01 160.61">
  <path d="m100.41,110.28c4.68.79,9.9,1.09,15.35.99-3.03-6.68-6.47-12.91-9.66-18.33-3.42-.02-6.59-.09-9.38-.16,0,0-4.17,16.17,3.69,17.5Z"/>
  <path d="m159.06,84.91c-7.73,3.17-16.08,5.13-24.32,6.31,2.72,5.44,5.15,11.23,7.22,17.02,8.05-1.64,15.65-3.81,21.92-6.25l1.16-3.29c.71-2.01-.25-5.84-2.38-9.54-.93-1.62-2.16-3.01-3.6-4.25Z"/>
  <path d="m35.04,134.73l2.27,2.65c1.38,1.62,5.18,2.7,9.45,2.7,1.87,0,3.69-.37,5.48-.99,1.12-8.28,3.6-16.49,6.69-24.22-5.96-.36-12.2-1.14-18.35-2.26-2.61,7.79-4.52,15.46-5.54,22.11h0Z"/>
  <path d="m59.6,75.61c-3.03,3.66-5.9,8.04-8.54,12.82,6.59.65,12.84.79,18.13.79.88,0,1.73,0,2.58-.02,1.73-2.95,3.37-5.66,4.83-8.04,0,0-11.92-11.7-17-5.56h0Z"/>
  <path d="m19.17,79.97c.39.2.79.38,1.18.57,3.53-2.5,7.77-4.29,12.13-5.82l2.14-3.71c2.59-4.49,2.53-10.6,1.6-17.39-6.71,2.47-13.9,4.74-20.12,7.95l-1.45,4.24c-.34,1.02-3.13,10.23,4.51,14.17h.01Z"/>
  <path d="m110.03,57.6c-1.65-4.45-4.01-9.11-6.82-13.79-4.27,5.97-7.94,12.05-11.04,17.53,1.7,2.97,3.21,5.75,4.55,8.21,0,0,16.09-4.48,13.31-11.95Z"/>
  <path d="m60.61,14.25c-.93,1.62-1.53,3.38-1.88,5.24,6.61,5.11,12.48,11.37,17.63,17.9,3.35-5.08,7.15-10.07,11.13-14.76-5.44-6.15-11.13-11.65-16.38-15.86l-3.43.64c-2.09.39-4.93,3.14-7.07,6.83h0Z"/>
  <path d="m60.48,111.14c6.82.34,13.38.11,19.13-.86,7.86-1.33,3.69-17.5,3.69-17.5-3.93.1-8.61.25-13.74.26-6.3,0-13.29-.2-20.44-.98-10.8-1.18-21.96-3.66-31.7-8.68-.09-.05-.17-.1-.26-.15-10.32-5.57-6.28-18.14-6.12-18.62-.2.14-.4.27-.59.4-.06.04-.12.08-.17.12-.55.4-1.08.82-1.6,1.25-.05.04-.09.08-.14.11-.5.42-.98.86-1.44,1.31-.07.07-.14.14-.22.21-.43.43-.85.87-1.25,1.32-.09.11-.19.22-.28.33-.37.44-.73.89-1.07,1.36-.1.13-.19.27-.29.41-.33.47-.64.95-.94,1.44-.08.13-.15.27-.23.41-.3.52-.58,1.05-.83,1.61-.05.11-.09.22-.14.32-.27.6-.52,1.22-.74,1.86-.02.05-.03.11-.05.17-.23.7-.45,1.42-.62,2.17-2.11,8.98,3.72,17.2,10.93,20.57,7.81,3.65,18.84,6.93,30.47,9,6.17,1.1,12.51,1.87,18.63,2.17h.01Z"/>
  <path d="m37.93,72.92c.13-.04.26-.08.38-.12,5.09-1.65,9.96-3.2,13.67-5.42.04-.02.07-.04.11-.07.33-.2.65-.4.96-.61.1-.07.19-.13.28-.2.25-.18.5-.35.73-.54.14-.11.26-.22.4-.33.19-.16.38-.31.56-.48.16-.15.31-.3.46-.45.14-.14.28-.28.41-.42.18-.19.34-.4.5-.6.09-.12.19-.23.28-.34.24-.33.47-.67.67-1.02s.39-.72.55-1.09c.06-.13.1-.28.16-.41.1-.24.19-.48.27-.73.06-.19.11-.38.16-.57.06-.21.12-.41.17-.63.05-.24.09-.48.14-.72.03-.17.06-.34.09-.51.04-.3.07-.6.1-.91.01-.11.02-.23.03-.34.03-.37.04-.75.05-1.14v-.12c.06-4.33-1.03-9.33-2.15-14.57-.03-.12-.05-.25-.08-.38-1.69-7.78-3.41-16-1.46-23.15.44-1.63,1.07-3.2,1.93-4.7,2.31-4.01,5.91-7.97,9.67-8.68-6.52-4.56-16.56-5.5-23.27.82-4.86,4.57-6.95,10.41-7.52,16.48v.1c-.82,9.87,2.25,21,3.71,31.16,1.13,7.81,1.31,15.04-1.95,20.7h0Z"/>
  <path d="m124.4,143.1c-.02-.43-.05-.87-.08-1.3-3.94-1.8-7.61-4.58-11.12-7.6h-4.28c-5.19,0-10.44,3.11-15.86,7.31,5.49,4.57,11.05,9.67,16.94,13.45l4.4-.87s2.89-.61,5.57-2.43c3.16-2.15,4.62-4.94,4.45-8.56h-.02Z"/>
  <path d="m138.17,108.97c-2.13-5.89-4.64-11.77-7.44-17.22-3.12-6.08-6.59-11.64-10.31-16.14-5.08-6.14-17,5.56-17,5.56,2.06,3.36,4.52,7.33,7.09,11.77,3.16,5.45,6.47,11.61,9.37,18.19,4.38,9.94,7.81,20.85,8.33,31.8v.3c.34,11.93-13.03,14.6-13.09,14.61.1.05.2.09.29.14.2.09.4.19.61.28.22.1.44.19.66.28.12.05.23.1.35.14.23.09.47.18.7.27.12.04.24.09.36.13.22.08.43.15.65.22.15.05.3.1.45.15.18.06.37.11.55.17.19.06.39.11.58.16.14.04.29.08.43.11.24.06.49.12.73.17.1.02.2.04.31.07.29.06.58.11.87.16.06,0,.12.02.19.03.33.05.67.1,1.01.14h.08c.37.04.74.08,1.11.1h0c1.52.1,3.06.05,4.62-.16h.03c.36-.05.72-.11,1.09-.18.03,0,.07,0,.1-.02.34-.07.68-.14,1.02-.22.06,0,.11-.02.17-.04.4-.1.79-.21,1.19-.33,8.83-2.66,13.04-11.82,12.35-19.75-.75-8.59-3.42-19.78-7.44-30.89h0Z"/>
  <path d="m108.62,130.12c-3.98-3.59-7.76-7.03-11.54-9.14-.04-.02-.07-.04-.11-.06-.34-.19-.68-.36-1.01-.53-.11-.05-.21-.1-.32-.14-.28-.13-.56-.25-.84-.37-.16-.06-.32-.12-.48-.18-.23-.08-.46-.17-.69-.24-.21-.06-.42-.11-.62-.17-.19-.05-.38-.11-.57-.15-.26-.06-.52-.09-.78-.13-.14-.02-.29-.05-.43-.07-.41-.04-.81-.07-1.22-.07s-.81.02-1.22.07c-.14.02-.29.05-.43.07-.26.04-.52.07-.78.13-.19.04-.38.1-.57.15-.21.05-.42.1-.62.17-.23.07-.46.16-.69.24-.16.06-.32.11-.48.18-.28.11-.56.24-.84.37-.11.05-.21.09-.32.14-.34.16-.68.34-1.01.53-.04.02-.07.04-.11.06-3.78,2.11-7.55,5.55-11.53,9.13-.1.09-.2.18-.3.27-5.89,5.35-12.15,10.95-19.32,12.84-1.63.43-3.3.67-5.03.67-4.63,0-9.86-1.13-12.35-4.04-.69,7.92,3.51,17.09,12.35,19.75,6.39,1.92,12.49.81,18.03-1.73.03,0,.06-.03.09-.04,8.96-4.23,17.06-12.45,25.13-18.8,6.2-4.88,12.37-8.66,18.9-8.66-.1-.09-.19-.17-.29-.26h0Z"/>
  <path d="m126.49,38.27c2.59,4.49,7.91,7.49,14.26,10.08,1.21-7.04,2.85-14.41,3.18-21.39l-2.95-3.37s-4.3-4.76-9.49-4.76c-1.73,0-3.37.52-5.03,1.58-.36.23-.72.48-1.08.72.41,4.31-.16,8.88-1.02,13.43l2.14,3.71h0Z"/>
  <path d="m69.99,57.6c-2.78,7.47,13.31,11.95,13.31,11.95,1.88-3.46,4.09-7.58,6.64-12.03,3.14-5.46,6.82-11.41,11.07-17.21,6.42-8.76,14.15-17.19,23.37-23.11.09-.06.17-.1.26-.15,10.16-6.26,19.16,3.98,19.2,4.03,0-.11-.02-.21-.03-.32-.02-.22-.04-.44-.06-.66-.03-.24-.06-.47-.09-.7-.02-.13-.03-.25-.05-.38-.04-.25-.08-.49-.12-.74-.02-.12-.04-.25-.06-.37-.04-.23-.09-.45-.13-.67-.03-.15-.06-.31-.1-.46-.04-.19-.09-.37-.13-.56-.05-.2-.1-.39-.15-.59-.04-.14-.08-.29-.12-.43-.07-.24-.14-.48-.22-.72-.03-.1-.06-.2-.1-.3-.09-.28-.19-.56-.29-.84-.02-.06-.04-.12-.07-.18-.12-.31-.25-.63-.38-.94,0-.03-.02-.05-.03-.08-.15-.34-.3-.68-.47-1.01h0c-.67-1.36-1.48-2.68-2.45-3.92,0,0,0-.01,0-.02-.23-.29-.46-.58-.71-.86-.02-.02-.04-.05-.06-.07-.23-.26-.47-.52-.71-.78-.04-.04-.07-.08-.11-.12-.28-.29-.57-.58-.88-.87-6.72-6.32-16.76-5.38-23.27-.82-7.07,4.94-15.42,12.85-23.03,21.89-4.04,4.79-7.87,9.9-11.2,15.05-3.71,5.74-6.79,11.53-8.82,17h0Z"/>
  <path d="m179.57,79.4c-.16-.7-.37-1.37-.58-2.03-.06-.17-.11-.34-.17-.51-.16-.45-.34-.87-.52-1.3-1.92-4.46-5.13-7.93-8.93-10.69-.1-.07-.21-.15-.32-.22-8.15-5.69-19.35-8.61-28.92-12.43-7.32-2.93-13.68-6.38-16.95-12.04-.03.13-.06.26-.08.39-1.11,5.24-2.21,10.23-2.15,14.56v.12c0,.39.02.77.05,1.14,0,.12.02.23.03.34.03.31.06.61.1.91.02.17.06.34.09.51.04.24.08.49.14.72.05.21.11.42.17.63.05.19.1.38.16.57.08.25.18.49.27.73.05.14.1.28.16.41.16.37.35.74.55,1.09s.43.69.67,1.02c.09.12.19.23.28.34.16.2.32.41.5.6.13.14.27.28.41.42.15.15.3.31.46.45.18.16.37.32.56.48.13.11.26.22.4.33.24.18.48.36.73.54.1.07.19.14.28.2.31.21.63.41.96.61.04.02.07.04.11.07,3.71,2.22,8.58,3.76,13.68,5.42.13.04.25.08.38.12,7.58,2.43,15.56,5.05,20.78,10.31,1.19,1.2,2.24,2.52,3.1,4.02,2.31,4.01,3.95,9.11,2.68,12.71,7.21-3.37,13.04-11.59,10.93-20.57v.03Z"/>
</svg>