<?xml version="1.0" encoding="UTF-8"?>
<svg id="Livello_1" xmlns="http://www.w3.org/2000/svg" viewBox="0 0 600 245">
  <defs>
    <style>
      .cls-1 {
        fill: #fff;
      }
    </style>
  </defs>
  <g>
    <path class="cls-1" d="M127.14,151.87c4.99.86,10.56,1.17,16.4,1.05-3.23-7.13-6.9-13.79-10.32-19.56-3.66,0-7.01-.12-10.01-.19,0,0-4.44,17.26,3.93,18.7Z"/>
    <path class="cls-1" d="M189.75,124.79c-8.26,3.39-17.18,5.45-25.95,6.74,2.92,5.8,5.49,12,7.71,18.15,8.57-1.75,16.71-4.05,23.38-6.66l1.25-3.51c.74-2.14-.27-6.23-2.53-10.17-1.01-1.71-2.3-3.23-3.86-4.52v-.04Z"/>
    <path class="cls-1" d="M57.4,177.97l2.42,2.84c1.48,1.71,5.53,2.88,10.09,2.88,1.99,0,3.93-.39,5.84-1.05,1.21-8.84,3.86-17.61,7.13-25.83-6.35-.39-13.01-1.21-19.6-2.42-2.77,8.3-4.83,16.52-5.92,23.61l.04-.04Z"/>
    <path class="cls-1" d="M83.58,114.86c-3.23,3.9-6.31,8.57-9.12,13.67,7.05.7,13.71.86,19.36.86h2.77c1.83-3.16,3.58-6.04,5.14-8.57,0,0-12.74-12.47-18.15-5.92v-.04Z"/>
    <path class="cls-1" d="M40.46,119.53c.43.19.86.39,1.25.62,3.78-2.69,8.3-4.6,12.93-6.19l2.3-3.97c2.77-4.79,2.69-11.3,1.71-18.54-7.17,2.65-14.84,5.06-21.47,8.49l-1.56,4.52c-.35,1.09-3.35,10.91,4.79,15.12l.04-.04Z"/>
    <path class="cls-1" d="M137.42,95.65c-1.75-4.75-4.29-9.74-7.29-14.73-4.56,6.35-8.49,12.86-11.8,18.7,1.79,3.16,3.43,6.16,4.87,8.77,0,0,17.18-4.79,14.22-12.74Z"/>
    <path class="cls-1" d="M84.67,49.37c-1.01,1.71-1.64,3.62-1.99,5.57,7.05,5.45,13.32,12.12,18.82,19.09,3.58-5.42,7.64-10.75,11.88-15.74-5.8-6.58-11.88-12.43-17.49-16.91l-3.66.7c-2.22.43-5.26,3.35-7.56,7.29Z"/>
    <path class="cls-1" d="M84.56,152.81c7.29.35,14.3.12,20.41-.94,8.38-1.4,3.93-18.7,3.93-18.7-4.21.12-9.19.27-14.65.27-6.74,0-14.18-.23-21.82-1.05-11.53-1.25-23.45-3.9-33.82-9.27-.08-.04-.19-.12-.27-.16-11.03-5.96-6.7-19.36-6.55-19.87-.19.16-.43.27-.62.43-.08.04-.12.08-.19.12-.58.43-1.17.86-1.71,1.32-.04.04-.12.08-.16.12-.55.47-1.05.9-1.56,1.4-.08.08-.16.16-.23.23-.47.47-.9.94-1.32,1.4-.12.12-.19.23-.31.35-.39.47-.78.94-1.13,1.44-.12.16-.19.27-.31.43-.35.51-.7,1.01-1.01,1.52-.08.16-.16.27-.23.43-.31.55-.62,1.13-.9,1.71-.04.12-.12.23-.16.35-.27.66-.55,1.29-.78,1.99,0,.04,0,.12-.04.19-.23.74-.47,1.52-.66,2.3-2.26,9.58,3.97,18.35,11.65,21.93,8.34,3.9,20.1,7.4,32.53,9.62,6.58,1.17,13.36,1.99,19.87,2.34l.04.08Z"/>
    <path class="cls-1" d="M60.48,112.02s.27-.08.43-.12c5.42-1.75,10.64-3.43,14.61-5.77,0,0,.08-.04.12-.08.35-.19.7-.43,1.01-.66.12-.08.19-.16.31-.23.27-.19.55-.39.78-.58.16-.12.27-.23.43-.35.19-.16.39-.35.58-.51.16-.16.31-.31.51-.47.16-.16.31-.31.43-.47.19-.19.35-.43.55-.66.12-.12.19-.23.31-.35.27-.35.51-.7.7-1.09s.43-.78.58-1.17c.08-.16.12-.31.16-.43.12-.27.19-.51.27-.78.08-.19.12-.39.16-.62.08-.23.12-.43.19-.66.04-.23.12-.51.16-.78,0-.19.08-.35.08-.55.04-.31.08-.62.12-.97v-.35c0-.39.04-.82.04-1.21v-.12c.08-4.64-1.09-9.93-2.3-15.54,0-.12-.04-.27-.08-.39-1.79-8.3-3.62-17.06-1.56-24.7.47-1.75,1.13-3.43,2.06-5.03,2.45-4.29,6.31-8.49,10.32-9.27-6.97-4.87-17.69-5.88-24.86.86-5.18,4.87-7.4,11.1-8.03,17.57v.12c-.9,10.52,2.42,22.4,3.97,33.27,1.21,8.34,1.4,16.05-2.06,22.09Z"/>
    <path class="cls-1" d="M152.77,186.89c0-.47-.04-.94-.08-1.4-4.21-1.91-8.1-4.91-11.88-8.1h-4.56c-5.53,0-11.14,3.31-16.95,7.79,5.88,4.87,11.8,10.32,18.08,14.34l4.68-.94s3.08-.66,5.96-2.61c3.39-2.3,4.95-5.26,4.75-9.12v.04Z"/>
    <path class="cls-1" d="M167.46,150.47c-2.26-6.27-4.95-12.54-7.95-18.39-3.31-6.51-7.05-12.43-11.03-17.22-5.42-6.55-18.15,5.92-18.15,5.92,2.18,3.58,4.83,7.83,7.56,12.54,3.39,5.8,6.9,12.39,10.01,19.4,4.68,10.6,8.34,22.25,8.88,33.93v.31c.35,12.74-13.91,15.58-13.99,15.58.12.04.19.08.31.16.23.12.43.19.66.31.23.12.47.19.7.31.12.04.23.12.39.16.23.12.51.19.74.27.12.04.23.08.39.16.23.08.47.16.7.23.16.04.31.12.47.16.19.08.39.12.58.19.19.08.43.12.62.16.16.04.31.08.47.12.27.08.51.12.78.19.12,0,.23.04.31.08.31.08.62.12.94.16h.19c.35.04.7.12,1.09.16h.08c.39.04.78.08,1.17.12h0c1.64.12,3.27.04,4.95-.16h0c.39-.04.78-.12,1.17-.19h.12c.35-.08.74-.16,1.09-.23.08,0,.12,0,.19-.04.43-.12.86-.23,1.29-.35,9.43-2.84,13.91-12.62,13.17-21.08-.78-9.16-3.66-21.12-7.95-32.96h.04Z"/>
    <path class="cls-1" d="M135.9,173.06c-4.25-3.82-8.3-7.52-12.31-9.74,0,0-.08-.04-.12-.08-.35-.19-.7-.39-1.09-.55-.12-.04-.23-.12-.35-.16-.31-.16-.58-.27-.9-.39-.16-.08-.35-.12-.51-.19-.23-.08-.51-.19-.74-.27-.23-.08-.43-.12-.66-.19-.19-.04-.39-.12-.62-.16-.27-.08-.55-.12-.82-.16-.16,0-.31-.04-.47-.08-.43-.04-.86-.08-1.29-.08s-.86,0-1.29.08c-.16,0-.31.04-.47.08-.27.04-.55.08-.82.16-.19.04-.39.12-.62.16-.23.04-.43.12-.66.19s-.51.16-.74.27c-.16.08-.35.12-.51.19-.31.12-.58.27-.9.39-.12.04-.23.12-.35.16-.35.16-.74.35-1.09.55,0,0-.08.04-.12.08-4.01,2.26-8.06,5.92-12.31,9.74-.12.08-.19.19-.31.27-6.27,5.73-12.97,11.69-20.61,13.71-1.75.47-3.55.7-5.38.7-4.95,0-10.52-1.21-13.17-4.32-.74,8.45,3.74,18.23,13.17,21.08,6.82,2.06,13.32.86,19.25-1.83,0,0,.08,0,.12-.04,9.58-4.52,18.19-13.29,26.8-20.06,6.62-5.22,13.21-9.23,20.18-9.23-.12-.08-.19-.19-.31-.27Z"/>
    <path class="cls-1" d="M154.99,75.04c2.77,4.79,8.45,7.99,15.23,10.75,1.29-7.52,3.04-15.39,3.39-22.83l-3.16-3.58s-4.6-5.06-10.13-5.06c-1.83,0-3.58.55-5.38,1.68-.39.23-.78.51-1.17.78.43,4.6-.19,9.47-1.09,14.34l2.3,3.97v-.04Z"/>
    <path class="cls-1" d="M94.69,95.65c-2.96,7.99,14.22,12.74,14.22,12.74,1.99-3.7,4.36-8.1,7.09-12.82,3.35-5.84,7.29-12.16,11.8-18.35,6.86-9.35,15.12-18.35,24.93-24.66.08-.08.19-.12.27-.16,10.83-6.66,20.45,4.25,20.49,4.29v-.35c0-.23-.04-.47-.08-.7,0-.23-.08-.51-.08-.74,0-.12,0-.27-.04-.39,0-.27-.08-.55-.12-.78,0-.12-.04-.27-.08-.39-.04-.23-.08-.47-.16-.7,0-.16-.08-.31-.12-.51s-.08-.39-.16-.58c-.04-.19-.12-.43-.16-.62-.04-.16-.08-.31-.12-.47-.08-.27-.16-.51-.23-.78,0-.12-.08-.19-.12-.31-.12-.31-.19-.58-.31-.9,0-.08-.04-.12-.08-.19-.12-.35-.27-.66-.39-1.01v-.08c-.16-.35-.31-.7-.51-1.09h0c-.7-1.44-1.6-2.84-2.61-4.17h0c-.23-.31-.51-.62-.74-.94,0,0-.04-.04-.08-.08-.23-.27-.51-.55-.78-.82-.04-.04-.08-.08-.12-.12-.31-.31-.62-.62-.94-.94-7.17-6.74-17.88-5.73-24.86-.86-7.56,5.26-16.44,13.71-24.58,23.38-4.32,5.1-8.42,10.56-11.96,16.05-3.97,6.12-7.25,12.31-9.43,18.15v-.12Z"/>
    <path class="cls-1" d="M211.64,118.91c-.19-.74-.39-1.48-.62-2.14-.08-.19-.12-.35-.19-.55-.16-.47-.35-.94-.55-1.4-2.06-4.75-5.49-8.45-9.54-11.42-.12-.08-.23-.16-.35-.23-8.69-6.08-20.65-9.19-30.86-13.29-7.83-3.12-14.61-6.82-18.08-12.86,0,.16-.08.27-.08.43-1.17,5.61-2.34,10.91-2.3,15.54v.12c0,.43,0,.82.04,1.21v.35c0,.31.08.66.12.97,0,.19.08.35.08.55.04.27.08.51.16.78.04.23.12.43.19.66.04.19.12.39.16.62.08.27.19.51.27.78.04.16.12.31.16.43.16.39.35.78.58,1.17s.47.74.7,1.09c.08.12.19.23.31.35.16.23.35.43.55.66.16.16.31.31.43.47.16.16.31.31.51.47s.39.35.58.51c.16.12.27.23.43.35.23.19.51.39.78.58.12.08.19.16.31.23.31.23.66.43,1.01.66,0,0,.08.04.12.08,3.97,2.38,9.16,4.01,14.61,5.77.12.04.27.08.39.12,8.1,2.57,16.6,5.38,22.17,10.99,1.29,1.29,2.38,2.69,3.31,4.29,2.45,4.29,4.21,9.7,2.84,13.56,7.67-3.58,13.91-12.35,11.65-21.93l.12.04Z"/>
  </g>
  <g>
    <g>
      <path class="cls-1" d="M252.31,166.48h-7.05v-21.97h7.05c2.26,0,4.01.19,5.34.55s2.38.97,3.16,1.79,1.36,1.91,1.75,3.31c.39,1.4.55,3.16.55,5.3,0,3.82-.86,6.58-2.57,8.38-1.71,1.75-4.44,2.65-8.26,2.65h.04ZM257.61,149.88c-.43-.58-1.05-1.01-1.87-1.25-.78-.23-1.95-.35-3.43-.35h-2.84v14.22h2.84c2.53,0,4.25-.51,5.1-1.56.9-1.01,1.32-2.84,1.32-5.49,0-1.4-.08-2.53-.27-3.43-.19-.9-.47-1.6-.86-2.14Z"/>
      <path class="cls-1" d="M270.47,146.69h-4.32v-3.55h4.32v3.55ZM270.35,166.48h-4.05v-17.34h4.05v17.34Z"/>
      <path class="cls-1" d="M280.68,152.3c-1.25,0-2.1.12-2.53.35-.47.23-.7.78-.7,1.6,0,.39.08.7.27.9s.51.31.94.39l4.32.62c1.36.19,2.34.62,2.88,1.29s.82,1.75.82,3.23c0,2.14-.51,3.66-1.48,4.64s-2.65,1.44-5.03,1.44c-1.36,0-2.61-.04-3.7-.16s-2.06-.31-2.84-.51v-3.62c.74.19,1.6.35,2.65.47s2.1.19,3.19.19c1.21,0,2.03-.16,2.45-.47.43-.31.66-.9.66-1.71,0-.43-.12-.74-.31-.97s-.55-.35-1.05-.43l-4.4-.62c-1.21-.16-2.06-.62-2.65-1.36-.55-.74-.86-1.79-.86-3.19,0-1.91.58-3.31,1.75-4.21,1.17-.9,2.92-1.36,5.26-1.36.97,0,1.83,0,2.65.08.78.04,1.6.16,2.45.27v3.47c-.62-.08-1.32-.16-2.18-.23-.86-.04-1.75-.08-2.65-.08h.08Z"/>
      <path class="cls-1" d="M300.2,162.7v3.47c-.39.16-.97.31-1.68.43s-1.36.19-1.95.19c-2.22,0-3.82-.47-4.75-1.44-.97-.97-1.44-2.57-1.44-4.87v-7.91h-2.3v-3.39h2.42l.55-4.13h3.39v4.13h5.53v3.39h-5.53v7.79c0,1.01.23,1.71.66,2.1.43.39,1.25.55,2.38.55.39,0,.86,0,1.4-.08s.97-.16,1.29-.23h.04Z"/>
      <path class="cls-1" d="M306.62,166.48h-4.05v-17.34h3.74l.16,1.4h.12c.86-.51,1.75-.9,2.61-1.21.9-.27,1.75-.43,2.61-.43h.66v3.93s-.31-.08-.55-.08h-1.13c-.82,0-1.6.08-2.26.19-.7.16-1.32.35-1.91.58v12.93Z"/>
      <path class="cls-1" d="M319.13,146.69h-4.32v-3.55h4.32v3.55ZM319.01,166.48h-4.05v-17.34h4.05v17.34Z"/>
      <path class="cls-1" d="M332.22,148.79c2.34,0,4.01.7,4.99,2.06s1.48,3.62,1.48,6.82-.62,5.53-1.91,6.97c-1.29,1.44-3.39,2.14-6.31,2.14-1.48,0-2.88-.08-4.21-.23-1.29-.16-2.45-.39-3.51-.7v-22.67h4.05v7.01c.82-.43,1.68-.78,2.61-1.01s1.83-.35,2.73-.35l.08-.04ZM334.64,157.68c0-2.03-.23-3.43-.74-4.13-.51-.74-1.52-1.09-3.12-1.09-.66,0-1.36.08-2.06.23-.7.16-1.29.35-1.83.62v9.39c.43.12.9.19,1.44.23.55.04,1.17.08,1.91.08,1.79,0,3-.35,3.55-1.09.58-.74.86-2.14.86-4.25Z"/>
      <path class="cls-1" d="M347.49,166.79c-1.95,0-3.39-.47-4.36-1.44-.97-.97-1.44-2.42-1.44-4.36v-11.8h4.05v11.3c0,.9.23,1.52.7,1.95.47.39,1.21.58,2.26.58.66,0,1.32-.08,1.99-.19s1.32-.31,1.91-.55v-13.05h4.05v17.34h-3.74l-.16-1.21h-.12c-.97.51-1.87.86-2.77,1.13-.9.27-1.71.39-2.45.39l.08-.08Z"/>
      <path class="cls-1" d="M371.41,162.7v3.47c-.39.16-.97.31-1.68.43s-1.36.19-1.95.19c-2.22,0-3.82-.47-4.75-1.44-.97-.97-1.44-2.57-1.44-4.87v-7.91h-2.3v-3.39h2.42l.55-4.13h3.39v4.13h5.53v3.39h-5.53v7.79c0,1.01.23,1.71.66,2.1.43.39,1.25.55,2.38.55.39,0,.86,0,1.4-.08s.97-.16,1.29-.23h.04Z"/>
      <path class="cls-1" d="M387.23,162.23v3.31c-.58.35-1.52.66-2.77.9s-2.57.35-3.9.35c-2.77,0-4.75-.7-5.96-2.1s-1.79-3.7-1.79-6.93.62-5.38,1.91-6.82c1.25-1.44,3.27-2.14,6-2.14s4.52.55,5.61,1.64c1.09,1.09,1.64,3,1.64,5.65v1.36c0,.39-.08.97-.16,1.71h-10.87c0,1.44.35,2.45.97,3.04.62.58,1.71.86,3.31.86,1.05,0,2.14-.08,3.27-.23s2.06-.35,2.77-.58h-.04ZM380.69,152.34c-1.44,0-2.42.27-2.96.86-.55.55-.82,1.6-.82,3.04h7.32v-.74c0-1.21-.31-2.03-.82-2.45-.51-.47-1.44-.7-2.73-.7Z"/>
      <path class="cls-1" d="M402.11,143.14h4.05v23.34h-3.58l-.23-1.6h-.16c-.66.66-1.44,1.13-2.34,1.44-.9.31-1.95.47-3.12.47-2.3,0-3.97-.7-4.95-2.1-.97-1.4-1.48-3.7-1.48-6.9s.62-5.45,1.83-6.86c1.25-1.4,3.27-2.1,6.08-2.1.74,0,1.44.04,2.1.16s1.25.23,1.75.43v-6.23l.04-.04ZM398.8,152.45c-1.79,0-3,.35-3.55,1.09-.58.74-.86,2.14-.86,4.25s.23,3.43.74,4.13c.51.74,1.52,1.09,3.12,1.09.74,0,1.44-.08,2.1-.23s1.25-.39,1.79-.7v-9.04c-.51-.19-1.01-.35-1.56-.47-.55-.08-1.13-.16-1.79-.16v.04Z"/>
      <path class="cls-1" d="M435.11,155.42c0,4.01-.78,6.9-2.38,8.69-1.6,1.79-4.13,2.69-7.71,2.69-3.78,0-6.43-.82-7.91-2.49-1.48-1.68-2.22-4.64-2.22-8.84,0-3.97.78-6.86,2.38-8.61,1.6-1.79,4.17-2.65,7.71-2.65,3.78,0,6.39.82,7.87,2.49,1.48,1.68,2.22,4.6,2.22,8.77l.04-.04ZM420.07,160.99c.39.66.94,1.17,1.64,1.44.74.27,1.83.43,3.35.43,2.3,0,3.86-.51,4.64-1.56.78-1.05,1.17-3,1.17-5.84,0-1.36-.08-2.49-.19-3.39-.12-.9-.35-1.6-.66-2.18-.39-.7-.94-1.21-1.64-1.48-.74-.31-1.83-.43-3.31-.43-2.34,0-3.9.51-4.68,1.56s-1.17,3.04-1.17,5.92c0,1.36.08,2.49.19,3.39.16.9.35,1.6.62,2.14h.04Z"/>
      <path class="cls-1" d="M442.36,171.82h-4.05v-22.64h3.55l.23,1.6h.16c.66-.62,1.44-1.13,2.34-1.44.9-.31,1.95-.51,3.08-.51,2.34,0,4.01.7,4.99,2.1s1.48,3.7,1.48,6.9-.62,5.49-1.87,6.9c-1.25,1.4-3.27,2.1-6.12,2.1-.78,0-1.52-.04-2.18-.16-.66-.12-1.21-.23-1.68-.43v5.61l.08-.04ZM450.11,157.79c0-2.03-.27-3.43-.78-4.21-.51-.74-1.56-1.13-3.08-1.13-.74,0-1.4.08-2.06.23s-1.25.39-1.83.7v9.04c.43.19.9.31,1.44.43.55.08,1.17.16,1.87.16,1.79,0,3-.35,3.55-1.05.58-.7.86-2.1.86-4.17h.04Z"/>
      <path class="cls-1" d="M470.95,162.23v3.31c-.58.35-1.52.66-2.77.9s-2.57.35-3.9.35c-2.77,0-4.75-.7-5.96-2.1s-1.79-3.7-1.79-6.93.62-5.38,1.91-6.82c1.25-1.44,3.27-2.14,6-2.14s4.52.55,5.61,1.64,1.64,3,1.64,5.65v1.36c0,.39-.08.97-.16,1.71h-10.87c0,1.44.35,2.45.97,3.04.62.58,1.71.86,3.31.86,1.05,0,2.14-.08,3.27-.23s2.06-.35,2.77-.58h-.04ZM464.41,152.34c-1.44,0-2.42.27-2.96.86-.55.55-.82,1.6-.82,3.04h7.32v-.74c0-1.21-.31-2.03-.82-2.45-.51-.47-1.44-.7-2.73-.7Z"/>
      <path class="cls-1" d="M478.82,166.48h-4.05v-17.34h3.51l.19,1.75h.12c.82-.74,1.71-1.25,2.65-1.6s2.06-.51,3.35-.51c1.91,0,3.39.47,4.4,1.44s1.52,2.38,1.52,4.25v12h-4.05v-11.45c0-.86-.27-1.48-.82-1.91s-1.36-.66-2.45-.66c-.78,0-1.52.12-2.26.31s-1.4.51-2.03.9v12.82h-.08Z"/>
      <path class="cls-1" d="M266.69,183.47v21.97h-3.97v-15.27l-5.03,10.95h-3.47l-4.99-10.99v15.27h-3.97v-21.97h5.18l5.57,12.51,5.61-12.51h5.03l.04.04Z"/>
      <path class="cls-1" d="M274.76,205.75c-1.79,0-3.08-.43-3.9-1.32-.82-.86-1.25-2.26-1.25-4.13s.51-3.27,1.48-4.05,2.69-1.21,5.14-1.21c.66,0,1.36,0,2.06.12.7.08,1.32.16,1.83.27v-1.48c0-.9-.27-1.56-.86-1.99-.55-.43-1.44-.62-2.65-.62-1.09,0-2.06,0-2.92.12-.86.08-1.68.19-2.45.35v-3.39c.9-.19,1.87-.35,2.88-.47,1.05-.12,2.26-.16,3.7-.16,2.14,0,3.7.51,4.75,1.44,1.05.97,1.6,2.42,1.6,4.36v11.84h-3.74l-.16-1.56h-.08c-.74.55-1.6,1.01-2.57,1.36s-1.91.51-2.84.51h-.04ZM276.74,197.96c-1.25,0-2.14.16-2.61.43s-.7.86-.7,1.68.19,1.36.58,1.71,1.05.51,1.99.51c.66,0,1.4-.12,2.14-.31.78-.19,1.44-.47,1.99-.74v-2.96c-.55-.08-1.13-.16-1.68-.19s-1.13-.08-1.75-.08l.04-.04Z"/>
      <path class="cls-1" d="M292.01,205.44h-4.05v-17.34h3.74l.16,1.4h.12c.86-.51,1.75-.9,2.61-1.21.9-.27,1.75-.43,2.61-.43h.66v3.93s-.31-.08-.55-.08h-1.13c-.82,0-1.6.08-2.26.19-.7.16-1.32.35-1.91.58v12.93Z"/>
      <path class="cls-1" d="M304.44,198.31v7.13h-4.05v-23.34h4.05v12.9h1.48l5.18-6.9h4.83l-6.62,8.38,6.97,8.92h-5.03l-5.34-7.13h-1.52l.04.04Z"/>
      <path class="cls-1" d="M330.78,201.19v3.31c-.58.35-1.52.66-2.77.9s-2.57.35-3.9.35c-2.77,0-4.75-.7-5.96-2.1-1.21-1.4-1.79-3.7-1.79-6.93s.62-5.38,1.91-6.82c1.25-1.44,3.27-2.14,6-2.14s4.52.55,5.61,1.64c1.09,1.09,1.64,3,1.64,5.65v1.36c0,.39-.08.97-.16,1.71h-10.87c0,1.44.35,2.45.97,3.04.62.58,1.71.86,3.31.86,1.05,0,2.14-.08,3.27-.23s2.06-.35,2.77-.58h-.04ZM324.23,191.3c-1.44,0-2.42.27-2.96.86-.55.55-.82,1.6-.82,3.04h7.32v-.74c0-1.21-.31-2.03-.82-2.45-.51-.47-1.44-.7-2.73-.7Z"/>
      <path class="cls-1" d="M345.23,201.66v3.47c-.39.16-.97.31-1.68.43s-1.36.19-1.95.19c-2.22,0-3.82-.47-4.75-1.44-.97-.97-1.44-2.57-1.44-4.87v-7.91h-2.3v-3.39h2.42l.55-4.13h3.39v4.13h5.53v3.39h-5.53v7.79c0,1.01.23,1.71.66,2.1.43.39,1.25.55,2.38.55.39,0,.86,0,1.4-.08s.97-.16,1.29-.23h.04Z"/>
      <path class="cls-1" d="M351.66,210.78h-4.05v-22.64h3.55l.23,1.6h.16c.66-.62,1.44-1.13,2.34-1.44.9-.31,1.95-.51,3.08-.51,2.34,0,4.01.7,4.99,2.1.97,1.4,1.48,3.7,1.48,6.9s-.62,5.49-1.87,6.9-3.27,2.1-6.12,2.1c-.78,0-1.52-.04-2.18-.16-.66-.12-1.21-.23-1.68-.43v5.61l.08-.04ZM359.41,196.75c0-2.03-.27-3.43-.78-4.21-.51-.74-1.56-1.13-3.08-1.13-.74,0-1.4.08-2.06.23s-1.25.39-1.83.7v9.04c.43.19.9.31,1.44.43.55.08,1.17.16,1.87.16,1.79,0,3-.35,3.55-1.05.58-.7.86-2.1.86-4.17h.04Z"/>
      <path class="cls-1" d="M370.63,182.1v23.34h-4.05v-23.34h4.05Z"/>
      <path class="cls-1" d="M378.5,205.75c-1.79,0-3.08-.43-3.9-1.32-.82-.86-1.25-2.26-1.25-4.13s.51-3.27,1.48-4.05c.97-.78,2.69-1.21,5.14-1.21.66,0,1.36,0,2.06.12.7.08,1.32.16,1.83.27v-1.48c0-.9-.27-1.56-.86-1.99-.55-.43-1.44-.62-2.65-.62-1.09,0-2.06,0-2.92.12-.86.08-1.68.19-2.45.35v-3.39c.9-.19,1.87-.35,2.88-.47,1.05-.12,2.26-.16,3.7-.16,2.14,0,3.7.51,4.75,1.44,1.05.97,1.6,2.42,1.6,4.36v11.84h-3.74l-.16-1.56h-.08c-.74.55-1.6,1.01-2.57,1.36s-1.91.51-2.84.51h-.04ZM380.49,197.96c-1.25,0-2.14.16-2.61.43s-.7.86-.7,1.68.19,1.36.58,1.71,1.05.51,1.99.51c.66,0,1.4-.12,2.14-.31.78-.19,1.44-.47,1.99-.74v-2.96c-.55-.08-1.13-.16-1.68-.19s-1.13-.08-1.75-.08l.04-.04Z"/>
      <path class="cls-1" d="M404.18,201.04v3.39c-.62.35-1.52.66-2.73.9-1.21.27-2.45.39-3.74.39-2.49,0-4.21-.66-5.22-1.99-1.01-1.32-1.52-3.66-1.52-7.01s.66-5.61,1.95-6.97,3.55-2.03,6.7-2.03c.78,0,1.48,0,2.1.04s1.29.12,1.99.19v3.62c-.9-.08-1.71-.12-2.38-.16-.66,0-1.25-.04-1.68-.04-1.91,0-3.16.35-3.74,1.01s-.86,2.1-.86,4.32.23,3.55.66,4.21c.47.66,1.4,1.01,2.84,1.01.97,0,1.95-.08,2.96-.27,1.01-.16,1.87-.39,2.61-.66l.04.04Z"/>
      <path class="cls-1" d="M420.5,201.19v3.31c-.58.35-1.52.66-2.77.9s-2.57.35-3.9.35c-2.77,0-4.75-.7-5.96-2.1-1.21-1.4-1.79-3.7-1.79-6.93s.62-5.38,1.91-6.82c1.25-1.44,3.27-2.14,6-2.14s4.52.55,5.61,1.64,1.64,3,1.64,5.65v1.36c0,.39-.08.97-.16,1.71h-10.87c0,1.44.35,2.45.97,3.04.62.58,1.71.86,3.31.86,1.05,0,2.14-.08,3.27-.23s2.06-.35,2.77-.58h-.04ZM413.96,191.3c-1.44,0-2.42.27-2.96.86-.55.55-.82,1.6-.82,3.04h7.32v-.74c0-1.21-.31-2.03-.82-2.45-.51-.47-1.44-.7-2.73-.7Z"/>
      <path class="cls-1" d="M431.1,191.53h-2.3v-3.39h2.3v-.16c0-2.06.51-3.58,1.6-4.64,1.05-1.01,2.65-1.56,4.75-1.56.51,0,1.05,0,1.6.08.55.08,1.09.16,1.6.23v3.23c-.35-.04-.74-.08-1.21-.12s-.86-.04-1.25-.04c-1.21,0-1.99.16-2.42.51-.39.35-.62,1.01-.62,1.99v.51h4.95v3.39h-4.95v13.91h-4.05v-13.95Z"/>
      <path class="cls-1" d="M457.82,196.75c0,3.27-.62,5.61-1.87,6.97-1.25,1.36-3.39,2.06-6.39,2.06s-5.22-.66-6.47-2.03c-1.25-1.32-1.87-3.66-1.87-7.01s.62-5.57,1.91-6.93c1.25-1.36,3.39-2.06,6.43-2.06s5.18.66,6.43,2.03,1.87,3.66,1.87,6.97h-.04ZM445.32,196.71c0,2.14.27,3.58.82,4.25.55.66,1.68,1.01,3.43,1.01s2.84-.35,3.39-1.05.82-2.1.82-4.21-.27-3.58-.78-4.29-1.68-1.01-3.43-1.01-2.88.35-3.43,1.05-.82,2.1-.82,4.25Z"/>
      <path class="cls-1" d="M465.03,205.44h-4.05v-17.34h3.74l.16,1.4h.12c.86-.51,1.75-.9,2.61-1.21.9-.27,1.75-.43,2.61-.43h.66v3.93s-.31-.08-.55-.08h-1.13c-.82,0-1.6.08-2.26.19-.7.16-1.32.35-1.91.58v12.93Z"/>
      <path class="cls-1" d="M493.51,201.47v3.97h-14.88v-21.97h14.57v3.78h-10.36v5.18h9.04v3.62h-9.04v5.45h10.67v-.04Z"/>
      <path class="cls-1" d="M502,205.75c-1.95,0-3.39-.47-4.36-1.44s-1.44-2.42-1.44-4.36v-11.8h4.05v11.3c0,.9.23,1.52.7,1.95.47.39,1.21.58,2.26.58.66,0,1.32-.08,1.99-.19s1.32-.31,1.91-.55v-13.05h4.05v17.34h-3.74l-.16-1.21h-.12c-.97.51-1.87.86-2.77,1.13-.9.27-1.71.39-2.45.39l.08-.08Z"/>
      <path class="cls-1" d="M519.15,205.44h-4.05v-17.34h3.74l.16,1.4h.12c.86-.51,1.75-.9,2.61-1.21.9-.27,1.75-.43,2.61-.43h.66v3.93s-.31-.08-.55-.08h-1.13c-.82,0-1.6.08-2.26.19-.7.16-1.32.35-1.91.58v12.93Z"/>
      <path class="cls-1" d="M542.95,196.75c0,3.27-.62,5.61-1.87,6.97-1.25,1.36-3.39,2.06-6.39,2.06s-5.22-.66-6.47-2.03c-1.25-1.32-1.87-3.66-1.87-7.01s.62-5.57,1.91-6.93c1.25-1.36,3.39-2.06,6.43-2.06s5.18.66,6.43,2.03c1.25,1.36,1.87,3.66,1.87,6.97h-.04ZM530.44,196.71c0,2.14.27,3.58.82,4.25.55.66,1.68,1.01,3.43,1.01s2.84-.35,3.39-1.05.82-2.1.82-4.21-.27-3.58-.78-4.29-1.68-1.01-3.43-1.01-2.88.35-3.43,1.05-.82,2.1-.82,4.25Z"/>
      <path class="cls-1" d="M550.16,210.78h-4.05v-22.64h3.55l.23,1.6h.16c.66-.62,1.44-1.13,2.34-1.44.9-.31,1.95-.51,3.08-.51,2.34,0,4.01.7,4.99,2.1.97,1.4,1.48,3.7,1.48,6.9s-.62,5.49-1.87,6.9c-1.25,1.4-3.27,2.1-6.12,2.1-.78,0-1.52-.04-2.18-.16-.66-.12-1.21-.23-1.68-.43v5.61l.08-.04ZM557.91,196.75c0-2.03-.27-3.43-.78-4.21-.51-.74-1.56-1.13-3.08-1.13-.74,0-1.4.08-2.06.23s-1.25.39-1.83.7v9.04c.43.19.9.31,1.44.43.55.08,1.17.16,1.87.16,1.79,0,3-.35,3.55-1.05.58-.7.86-2.1.86-4.17h.04Z"/>
      <path class="cls-1" d="M578.71,201.19v3.31c-.58.35-1.52.66-2.77.9s-2.57.35-3.9.35c-2.77,0-4.75-.7-5.96-2.1-1.21-1.4-1.79-3.7-1.79-6.93s.62-5.38,1.91-6.82c1.25-1.44,3.27-2.14,6-2.14s4.52.55,5.61,1.64c1.09,1.09,1.64,3,1.64,5.65v1.36c0,.39-.08.97-.16,1.71h-10.87c0,1.44.35,2.45.97,3.04.62.58,1.71.86,3.31.86,1.05,0,2.14-.08,3.27-.23s2.06-.35,2.77-.58h-.04ZM572.21,191.3c-1.44,0-2.42.27-2.96.86-.55.55-.82,1.6-.82,3.04h7.32v-.74c0-1.21-.31-2.03-.82-2.45-.51-.47-1.44-.7-2.73-.7Z"/>
    </g>
    <g>
      <path class="cls-1" d="M307.05,45.08c6.23,6.51,9.31,15.86,9.31,27.97s-3.12,21.47-9.31,27.97c-6.23,6.51-15.19,9.78-26.92,9.78h-34.67V35.3h34.67c11.73,0,20.73,3.27,26.92,9.78ZM288.9,88.8c2.3-3.31,3.43-8.57,3.43-15.74s-1.13-12.43-3.43-15.74-6.19-4.99-11.65-4.99h-8.45v41.41h8.45c5.49,0,9.39-1.68,11.65-4.99v.04Z"/>
      <path class="cls-1" d="M390.15,44.42c6.62,6.82,9.93,16.36,9.93,28.63s-3.31,21.82-9.93,28.63c-6.62,6.82-15.86,10.25-27.7,10.25-7.79,0-14.49-1.52-20.18-4.56s-10.05-7.52-13.09-13.4c-3.04-5.88-4.56-12.86-4.56-20.92s1.52-15.08,4.56-20.92c3.04-5.88,7.4-10.32,13.09-13.36,5.69-3.04,12.43-4.56,20.18-4.56,11.8,0,21.04,3.43,27.7,10.25v-.04ZM352.05,57.24c-2.3,3.47-3.43,8.77-3.43,15.86s1.13,12.39,3.43,15.86c2.3,3.47,5.77,5.22,10.4,5.22s8.1-1.71,10.36-5.14,3.39-8.73,3.39-15.9-1.13-12.47-3.39-15.9-5.69-5.14-10.36-5.14-8.1,1.75-10.4,5.22v-.08Z"/>
      <path class="cls-1" d="M503.83,110.81h-20.57v-30.19l.47-24.35h-.23l-16.6,54.54h-18.78l-16.36-54.54h-.35l.47,24.35v30.19h-20.57V35.3h32.96l10.17,35.8,3.78,15h.23l3.78-15,10.17-35.8h31.44v75.5h0Z"/>
      <path class="cls-1" d="M580,93.31v17.49h-62.33V35.3h60.85v17.49h-37.52v12.23h29.96v16.25h-29.96v12h39v.04Z"/>
    </g>
  </g>
</svg>