<?xml version="1.0" encoding="UTF-8"?>
<svg id="Livello_1" data-name="Livello 1" xmlns="http://www.w3.org/2000/svg" viewBox="0 0 559.98 168.36">
  <defs>
    <style>
      .cls-1 {
        fill: #fff;
      }
    </style>
  </defs>
  <g>
    <path class="cls-1" d="m105.22,115.62c4.91.83,10.37,1.14,16.09,1.04-3.18-7.01-6.78-13.53-10.13-19.21-3.59-.02-6.9-.1-9.83-.17,0,0-4.37,16.96,3.87,18.35h0Z"/>
    <path class="cls-1" d="m166.71,89.03c-8.11,3.32-16.86,5.37-25.49,6.62,2.85,5.7,5.4,11.77,7.57,17.84,8.44-1.71,16.41-4,22.98-6.56l1.22-3.45c.74-2.1-.26-6.12-2.5-10-.98-1.7-2.27-3.16-3.77-4.45h0Z"/>
    <path class="cls-1" d="m36.7,141.25l2.38,2.78c1.45,1.69,5.43,2.83,9.91,2.83,1.96,0,3.87-.38,5.74-1.04,1.18-8.68,3.78-17.29,7.02-25.39-6.25-.38-12.79-1.2-19.23-2.37-2.73,8.16-4.74,16.21-5.81,23.18h0Z"/>
    <path class="cls-1" d="m62.44,79.28c-3.18,3.84-6.18,8.43-8.96,13.44,6.91.68,13.46.83,19.01.83.92,0,1.81,0,2.71-.02,1.81-3.1,3.54-5.93,5.07-8.43,0,0-12.5-12.26-17.83-5.82Z"/>
    <path class="cls-1" d="m20.07,83.85c.41.21.83.39,1.24.6,3.7-2.63,8.14-4.5,12.72-6.1l2.25-3.89c2.72-4.71,2.65-11.11,1.68-18.23-7.03,2.59-14.57,4.97-21.09,8.33l-1.52,4.45c-.35,1.07-3.28,10.72,4.72,14.85h0Z"/>
    <path class="cls-1" d="m115.31,60.4c-1.73-4.66-4.2-9.55-7.15-14.46-4.48,6.25-8.33,12.63-11.58,18.38,1.78,3.12,3.37,6.03,4.77,8.6,0,0,16.87-4.69,13.96-12.53h0Z"/>
    <path class="cls-1" d="m63.5,14.95c-.98,1.7-1.6,3.54-1.97,5.49,6.93,5.36,13.09,11.91,18.48,18.77,3.51-5.32,7.49-10.56,11.67-15.47-5.7-6.45-11.67-12.21-17.17-16.62l-3.6.67c-2.19.41-5.17,3.29-7.41,7.16Z"/>
    <path class="cls-1" d="m63.37,116.53c7.15.36,14.03.12,20.06-.9,8.24-1.39,3.87-18.35,3.87-18.35-4.12.11-9.02.26-14.4.27-6.6,0-13.93-.21-21.43-1.03-11.32-1.24-23.02-3.84-33.23-9.1-.1-.05-.18-.1-.27-.15-10.82-5.84-6.58-19.01-6.41-19.52-.21.14-.42.28-.62.42-.06.04-.12.09-.18.13-.57.42-1.13.86-1.67,1.31-.05.04-.1.08-.14.12-.52.44-1.03.9-1.51,1.37-.08.07-.15.15-.23.22-.45.45-.89.91-1.31,1.39-.1.11-.2.23-.29.34-.39.46-.76.93-1.12,1.42-.1.14-.2.28-.3.43-.34.49-.67.99-.98,1.51-.08.14-.16.29-.24.43-.31.55-.6,1.11-.87,1.69-.05.11-.1.23-.15.34-.28.63-.54,1.28-.78,1.95-.02.06-.04.12-.06.17-.25.73-.47,1.49-.65,2.27-2.22,9.41,3.9,18.03,11.45,21.56,8.19,3.82,19.75,7.26,31.94,9.44,6.47,1.16,13.11,1.96,19.53,2.28h0Z"/>
    <path class="cls-1" d="m39.73,76.46c.13-.04.27-.09.4-.13,5.34-1.73,10.44-3.36,14.33-5.68.04-.02.07-.05.11-.07.35-.21.68-.42,1.01-.64.1-.07.2-.14.3-.21.26-.18.52-.37.77-.57.14-.11.28-.23.41-.35.2-.17.4-.33.58-.5.17-.15.32-.32.48-.48.15-.15.3-.29.43-.44.18-.2.35-.42.52-.63.1-.12.2-.24.29-.36.25-.34.49-.7.7-1.07s.4-.75.58-1.14c.06-.14.11-.29.17-.43.1-.25.2-.51.29-.77.06-.19.11-.4.16-.59.06-.22.12-.43.17-.66.06-.25.1-.5.14-.76.03-.18.07-.35.09-.53.04-.31.08-.63.11-.95.01-.12.02-.24.03-.36.03-.39.05-.79.05-1.19v-.13c.06-4.54-1.08-9.78-2.25-15.27-.03-.13-.06-.26-.09-.39-1.77-8.16-3.57-16.77-1.53-24.27.46-1.7,1.12-3.35,2.03-4.92,2.43-4.2,6.2-8.36,10.14-9.1-6.83-4.78-17.35-5.77-24.4.86-5.09,4.79-7.29,10.91-7.88,17.27,0,.04,0,.07,0,.11-.86,10.35,2.35,22.01,3.89,32.66,1.18,8.18,1.37,15.77-2.05,21.7h.03Z"/>
    <path class="cls-1" d="m130.37,150.03c-.02-.45-.06-.91-.09-1.36-4.13-1.89-7.98-4.81-11.66-7.97h-4.49c-5.44,0-10.94,3.26-16.63,7.66,5.76,4.79,11.59,10.14,17.76,14.1l4.61-.91s3.03-.64,5.84-2.55c3.32-2.25,4.84-5.18,4.66-8.97Z"/>
    <path class="cls-1" d="m144.81,114.25c-2.23-6.18-4.86-12.33-7.79-18.06-3.27-6.37-6.91-12.2-10.81-16.92-5.33-6.44-17.83,5.82-17.83,5.82,2.15,3.52,4.74,7.68,7.44,12.34,3.31,5.72,6.78,12.17,9.82,19.07,4.59,10.42,8.19,21.86,8.73,33.33v.31c.36,12.5-13.66,15.3-13.72,15.32.1.05.21.09.31.14.21.1.42.2.63.29.23.1.46.2.69.29.12.05.24.1.36.15.24.1.49.19.73.28.12.05.25.09.37.14.23.08.45.16.68.23.16.05.31.1.47.15.19.06.38.12.58.17.2.06.41.12.61.17.15.04.3.08.45.12.25.06.51.12.77.18.11.02.21.05.32.07.3.06.61.12.92.17.07,0,.13.02.2.03.35.06.7.11,1.05.15.03,0,.06,0,.08,0,.39.04.77.08,1.16.11h0c1.59.11,3.2.06,4.84-.17h.03c.38-.05.76-.12,1.14-.19.04,0,.07,0,.11-.02.36-.07.72-.15,1.07-.24.06,0,.12-.02.18-.04.41-.1.83-.22,1.25-.34,9.26-2.79,13.67-12.39,12.94-20.7-.78-9-3.59-20.73-7.8-32.38l.02.02Z"/>
    <path class="cls-1" d="m113.83,136.42c-4.18-3.76-8.14-7.37-12.1-9.58-.04-.02-.07-.04-.11-.06-.35-.2-.71-.38-1.06-.55-.11-.05-.22-.1-.33-.15-.29-.14-.58-.27-.88-.38-.17-.07-.34-.12-.51-.19-.24-.09-.48-.18-.73-.26-.22-.07-.44-.12-.65-.18-.2-.05-.4-.11-.6-.15-.27-.06-.54-.1-.81-.14-.15-.02-.3-.06-.45-.07-.43-.05-.85-.07-1.28-.07s-.85.03-1.28.07c-.15.02-.3.05-.45.07-.27.04-.54.08-.81.14-.2.04-.4.1-.6.15-.22.06-.44.11-.65.18-.24.08-.48.17-.73.26-.17.06-.34.12-.51.19-.29.12-.58.25-.88.38-.11.05-.22.1-.33.15-.35.17-.71.36-1.06.55-.04.02-.07.04-.11.06-3.96,2.21-7.92,5.82-12.09,9.58-.1.09-.21.19-.31.28-6.18,5.61-12.74,11.48-20.25,13.46-1.71.45-3.46.71-5.28.71-4.85,0-10.34-1.19-12.95-4.23-.72,8.31,3.68,17.91,12.94,20.7,6.7,2.02,13.1.85,18.9-1.81.03-.02.07-.03.1-.05,9.4-4.43,17.89-13.05,26.34-19.7,6.5-5.12,12.97-9.07,19.81-9.07-.1-.09-.2-.18-.3-.27v-.02Z"/>
    <path class="cls-1" d="m132.57,40.14c2.72,4.71,8.3,7.85,14.95,10.57,1.27-7.39,2.98-15.1,3.33-22.43l-3.09-3.54s-4.51-4.99-9.95-4.99c-1.81,0-3.54.54-5.27,1.66-.38.25-.76.5-1.14.76.43,4.52-.17,9.31-1.07,14.08l2.25,3.89h0Z"/>
    <path class="cls-1" d="m73.34,60.4c-2.91,7.83,13.96,12.53,13.96,12.53,1.97-3.62,4.28-7.95,6.97-12.61,3.29-5.72,7.15-11.96,11.61-18.04,6.73-9.18,14.84-18.02,24.5-24.23.09-.06.18-.1.27-.16,10.65-6.56,20.08,4.18,20.12,4.22,0-.11-.02-.22-.03-.34-.02-.23-.04-.46-.07-.7-.03-.25-.06-.49-.09-.74-.02-.13-.03-.27-.05-.4-.04-.26-.08-.52-.12-.77-.02-.13-.04-.26-.07-.39-.04-.24-.09-.47-.14-.7-.03-.16-.07-.32-.1-.49-.04-.2-.09-.39-.14-.59-.05-.21-.1-.41-.16-.62-.04-.15-.08-.3-.12-.45-.07-.25-.15-.5-.23-.75-.03-.1-.07-.21-.1-.31-.1-.29-.2-.59-.31-.88-.02-.06-.05-.13-.07-.19-.13-.33-.26-.66-.4-.98,0-.03-.02-.05-.03-.08-.15-.36-.32-.71-.49-1.06h0c-.7-1.43-1.56-2.8-2.57-4.11,0,0,0-.01,0-.02-.24-.31-.49-.61-.74-.9-.02-.02-.04-.05-.06-.07-.24-.28-.49-.55-.75-.82-.04-.04-.08-.08-.12-.13-.3-.31-.6-.61-.92-.91-7.04-6.63-17.57-5.64-24.4-.86-7.41,5.18-16.16,13.47-24.15,22.94-4.23,5.02-8.25,10.38-11.74,15.78-3.89,6.02-7.11,12.09-9.24,17.82h0Z"/>
    <path class="cls-1" d="m188.21,83.25c-.17-.73-.38-1.44-.61-2.12-.06-.18-.12-.36-.18-.53-.17-.47-.35-.92-.54-1.36-2.02-4.67-5.38-8.32-9.36-11.2-.11-.08-.22-.15-.34-.23-8.54-5.96-20.29-9.03-30.31-13.04-7.68-3.07-14.34-6.69-17.76-12.62-.03.14-.06.27-.09.41-1.17,5.49-2.31,10.73-2.25,15.26v.13c0,.4.03.8.05,1.19,0,.12.02.24.03.36.03.32.06.64.11.95.03.18.06.35.09.53.04.25.09.51.14.76.05.22.11.44.17.66.05.2.1.4.16.59.08.26.19.51.29.77.06.14.1.29.17.43.17.39.36.77.58,1.14s.45.73.7,1.07c.09.12.2.24.29.36.17.21.34.43.52.63.14.15.29.29.43.44.16.16.31.32.48.48.19.17.39.34.58.5.14.12.27.23.41.35.25.19.51.38.77.57.1.07.2.14.3.21.33.22.66.43,1.01.64.04.02.07.05.11.07,3.89,2.32,9,3.95,14.34,5.68.13.04.27.09.4.13,7.95,2.54,16.31,5.29,21.78,10.81,1.24,1.25,2.34,2.65,3.25,4.22,2.43,4.2,4.14,9.55,2.81,13.33,7.55-3.53,13.67-12.15,11.45-21.56h.02Z"/>
  </g>
  <g>
    <path class="cls-1" d="m291.86,51.75c6.1,6.4,9.16,15.56,9.16,27.47s-3.05,21.07-9.16,27.47c-6.1,6.4-14.92,9.61-26.46,9.61h-34.04V42.14h34.04c11.53,0,20.35,3.2,26.46,9.61Zm-17.81,42.92c2.25-3.26,3.37-8.41,3.37-15.45s-1.12-12.19-3.37-15.45c-2.25-3.26-6.07-4.89-11.46-4.89h-8.31v40.67h8.31c5.39,0,9.21-1.63,11.46-4.89h0Z"/>
    <path class="cls-1" d="m373.48,51.08c6.52,6.71,9.78,16.08,9.78,28.14s-3.26,21.44-9.78,28.14c-6.52,6.71-15.58,10.06-27.19,10.06-7.64,0-14.25-1.5-19.83-4.49-5.58-3-9.87-7.38-12.86-13.15-3-5.77-4.49-12.62-4.49-20.56s1.5-14.79,4.49-20.56c3-5.77,7.28-10.15,12.86-13.14,5.58-3,12.19-4.49,19.83-4.49,11.61,0,20.67,3.35,27.19,10.05Zm-37.41,12.58c-2.25,3.41-3.37,8.59-3.37,15.56s1.12,12.15,3.37,15.56c2.25,3.41,5.66,5.11,10.22,5.11s7.96-1.69,10.17-5.06c2.21-3.37,3.31-8.57,3.31-15.62s-1.11-12.24-3.31-15.62c-2.21-3.37-5.6-5.06-10.17-5.06s-7.98,1.71-10.22,5.11v.02Z"/>
    <path class="cls-1" d="m485.16,116.29h-20.22v-29.66l.45-23.93h-.23l-16.29,53.59h-18.43l-16.07-53.59h-.34l.45,23.93v29.66h-20.22V42.14h32.36l10,35.17,3.71,14.72h.22l3.71-14.72,10-35.17h30.89v74.15h.01Z"/>
    <path class="cls-1" d="m559.98,99.1v17.19h-61.23V42.14h59.77v17.19h-36.85v12.02h29.44v15.95h-29.44v11.8h38.31,0Z"/>
  </g>
</svg>