<svg width="174" height="72" viewBox="0 0 174 72" fill="none" xmlns="http://www.w3.org/2000/svg">
<path d="M53.555 22.8268C60.5825 24.0313 68.4269 24.4655 76.6515 24.2974C72.1026 14.3112 66.9341 4.98327 62.1176 -3.09814C56.9632 -3.09814 52.2453 -3.26622 48.0203 -3.36426C48.0203 -3.36426 41.7674 20.8099 53.555 22.8268Z" fill="#EBF0F7"/>
<path d="M141.731 -15.0949C130.099 -10.3469 117.537 -7.46166 105.186 -5.6549C109.298 2.46852 112.917 11.1522 116.044 19.7658C128.113 17.3148 139.577 14.0934 148.97 10.4379L150.731 5.5218C151.773 2.52454 150.35 -3.20387 147.168 -8.7222C145.745 -11.1172 143.928 -13.2461 141.731 -15.0529V-15.1089V-15.0949Z" fill="#EBF0F7"/>
<path d="M-6.40987 24.1417C3.85679 24.632 13.7291 24.3098 22.3339 22.8252C34.1357 20.8644 27.8686 -3.36585 27.8686 -3.36585C21.9396 -3.19778 14.9262 -2.98768 7.23676 -2.98768C-2.25532 -2.98768 -12.7332 -3.30982 -23.4928 -4.45831C-39.7307 -6.20904 -56.5179 -9.9206 -71.1222 -17.4418C-71.2348 -17.4978 -71.3897 -17.6098 -71.5024 -17.6659C-87.0362 -26.0134 -80.9382 -44.7813 -80.7269 -45.4956C-80.9945 -45.2715 -81.3325 -45.1174 -81.6001 -44.8934C-81.7127 -44.8373 -81.7691 -44.7813 -81.8676 -44.7253C-82.6845 -44.123 -83.5154 -43.5208 -84.2759 -42.8765C-84.3322 -42.8205 -84.4449 -42.7644 -84.5012 -42.7084C-85.2758 -42.0501 -85.9799 -41.4479 -86.6982 -40.7476C-86.8108 -40.6355 -86.9235 -40.5235 -87.0221 -40.4255C-87.684 -39.7672 -88.2896 -39.1089 -88.8811 -38.4646C-89.0501 -38.2966 -89.1487 -38.1425 -89.3177 -37.9744C-89.8669 -37.3162 -90.4161 -36.6579 -90.9091 -35.9576C-91.0781 -35.7335 -91.1766 -35.5794 -91.3456 -35.3553C-91.8385 -34.641 -92.3315 -33.9407 -92.768 -33.2264C-92.8807 -33.0023 -92.9934 -32.8483 -93.092 -32.6242C-93.5285 -31.8539 -93.9651 -31.0415 -94.3594 -30.2292C-94.4158 -30.0611 -94.5284 -29.907 -94.5848 -29.739C-94.965 -28.8146 -95.3593 -27.9322 -95.6833 -26.9518C-95.6833 -26.8958 -95.6833 -26.7837 -95.7396 -26.6857C-96.0635 -25.6492 -96.4015 -24.5568 -96.6691 -23.4643C-99.8519 -10.0467 -91.0781 2.23652 -80.2622 7.25063C-68.5168 12.7129 -51.9549 17.615 -34.4495 20.7243C-25.1828 22.363 -15.6344 23.5115 -6.4662 24.0017L-6.40987 24.1137V24.1417Z" fill="#EBF0F7"/>
<path d="M89.6462 71.8832C89.6462 71.225 89.5899 70.5667 89.5336 69.9224C83.6045 67.2473 78.1262 63.0455 72.8027 58.5776H66.3808C58.5928 58.5776 50.6921 63.2136 42.5098 69.4882C50.7907 76.3091 59.1279 83.9423 67.9722 89.5727L74.5631 88.2561C74.5631 88.2561 78.9008 87.3318 82.9567 84.6006C87.7309 81.3792 89.9279 77.2335 89.6462 71.8272V71.8832Z" fill="#EBF0F7"/>
<path d="M110.342 20.8633C107.159 12.0816 103.37 3.29992 99.1455 -4.89354C94.484 -14.0114 89.2169 -22.3029 83.6118 -29.0117C75.9787 -38.1856 58.0508 -20.7202 58.0508 -20.7202C61.1209 -15.7061 64.853 -9.75358 68.6977 -3.1568C73.4719 4.96663 78.4151 14.1965 82.7949 24.0146C89.3859 38.8609 94.5403 55.1778 95.3008 71.5367V71.9709C95.7937 89.8144 75.7111 93.7921 75.5984 93.7921C75.7674 93.8481 75.866 93.9041 76.035 94.0162C76.3589 94.1842 76.6406 94.2823 76.9645 94.4503C77.2884 94.6184 77.6264 94.7165 77.9503 94.8845C78.1193 94.9406 78.2743 95.0526 78.4996 95.1086C78.8235 95.2767 79.2178 95.3747 79.5417 95.4868C79.7107 95.5428 79.8656 95.5988 80.091 95.7109C80.4149 95.8229 80.7529 95.935 81.0768 96.033C81.3021 96.089 81.5134 96.2011 81.7387 96.2571C82.0063 96.3692 82.288 96.4252 82.5555 96.5232C82.8231 96.6353 83.1611 96.6913 83.4287 96.7473C83.654 96.8033 83.8653 96.8594 84.0906 96.9154C84.4709 97.0274 84.8089 97.0835 85.1891 97.1815C85.3581 97.1815 85.513 97.2375 85.6257 97.2935C86.0623 97.4056 86.4988 97.4616 86.9495 97.5176H87.2171C87.71 97.5737 88.2029 97.6857 88.7522 97.7417H88.8648C89.4141 97.7978 89.9633 97.8538 90.5126 97.9098C92.8222 98.0779 95.1178 97.9658 97.4837 97.6857C98.033 97.6297 98.5822 97.5176 99.1315 97.4196H99.3005C99.7934 97.3076 100.343 97.1955 100.836 97.0975C100.948 97.0975 101.005 97.0975 101.103 97.0414C101.709 96.8734 102.314 96.7193 102.92 96.5512C116.2 92.5735 122.51 78.8758 121.467 67.0268C120.369 54.1974 116.313 37.4463 110.271 20.8633H110.328H110.342Z" fill="#EBF0F7"/>
<path d="M65.8874 52.506C59.9021 47.1558 54.1984 41.9736 48.551 38.8643C48.551 38.8643 48.4384 38.8083 48.382 38.7522C47.8891 38.4861 47.3962 38.206 46.847 37.9819C46.678 37.9259 46.523 37.8138 46.354 37.7578C45.9175 37.5337 45.5372 37.3797 45.0866 37.2116C44.8612 37.0995 44.5937 37.0435 44.3683 36.9455C44.0444 36.8334 43.6501 36.6793 43.3262 36.5673C43.0023 36.4553 42.7206 36.3992 42.3967 36.3012C42.1291 36.2452 41.8474 36.1331 41.5235 36.0771C41.1433 35.9651 40.7489 35.909 40.3687 35.853C40.1434 35.853 39.9321 35.797 39.7068 35.741C39.1012 35.6849 38.4956 35.6289 37.89 35.6289C37.2845 35.6289 36.6789 35.6289 36.0733 35.741C35.848 35.741 35.6367 35.797 35.4114 35.853C35.0312 35.909 34.6368 35.9651 34.2566 36.0771C33.989 36.1331 33.7073 36.2452 33.3834 36.3012C33.0595 36.3572 32.7779 36.4693 32.4539 36.5673C32.13 36.6653 31.7357 36.7914 31.4118 36.9455C31.1864 37.0575 30.9189 37.1135 30.6935 37.2116C30.257 37.3797 29.8767 37.5897 29.426 37.7578C29.257 37.8138 29.1021 37.9259 28.9331 37.9819C28.4402 38.206 27.891 38.4721 27.3981 38.7522C27.3981 38.7522 27.2854 38.8083 27.2291 38.8643C21.5817 42.0296 15.878 47.1558 9.89265 52.506C9.72365 52.6181 9.62507 52.7721 9.45607 52.8842C0.625904 60.9096 -8.80984 69.2571 -19.5694 72.0863C-22.034 72.7446 -24.5689 73.0667 -27.1462 73.0667C-34.1174 73.0667 -41.9617 71.372 -45.6937 67.0161C-46.7359 78.8511 -40.4266 92.5489 -27.1462 96.5406C-17.5414 99.4258 -8.38735 97.7451 -0.0360146 93.9775C-0.0360146 93.9775 0.0766525 93.9775 0.132988 93.9215C13.6247 87.5908 25.7503 75.3077 37.876 65.8257C47.1991 58.5146 56.4799 52.8982 66.2959 52.8982C66.1269 52.7861 66.0283 52.6321 65.8593 52.52L65.8874 52.506Z" fill="#EBF0F7"/>
<path d="M172.559 -23.341C172.292 -24.3774 172.01 -25.4139 171.686 -26.3383C171.574 -26.6044 171.517 -26.8285 171.419 -27.1086C171.193 -27.7668 170.926 -28.4251 170.644 -29.0694C167.743 -35.7222 162.912 -40.9044 157.209 -45.0641C157.04 -45.1762 156.885 -45.2882 156.716 -45.3863C144.478 -53.9019 127.634 -58.2577 113.255 -64.0001C102.228 -68.37 92.6795 -73.5522 87.7926 -82.0117C87.7926 -81.7876 87.68 -81.6336 87.68 -81.4095C86.0322 -73.5522 84.3845 -66.129 84.4409 -59.6443V-59.4762C84.4409 -58.874 84.4408 -58.3277 84.4972 -57.7815V-57.2913C84.4972 -56.8571 84.6098 -56.3669 84.6662 -55.9327C84.6662 -55.6666 84.7788 -55.4425 84.7788 -55.1624C84.8352 -54.7842 84.8915 -54.4481 85.0042 -54.0699C85.0605 -53.7478 85.1732 -53.4677 85.2718 -53.1456C85.3281 -52.8794 85.4408 -52.5993 85.4971 -52.2772C85.6098 -51.899 85.7647 -51.5629 85.8773 -51.1847C85.9337 -50.9606 86.0463 -50.7505 86.1027 -50.5825C86.328 -50.0362 86.5956 -49.49 86.9195 -48.9438C87.2434 -48.3976 87.5814 -47.9073 87.9053 -47.4171C88.018 -47.2491 88.1729 -47.095 88.3419 -46.9269C88.5672 -46.6048 88.8348 -46.3247 89.1165 -46.0025C89.3418 -45.7784 89.5531 -45.5684 89.7221 -45.3443C89.9474 -45.1202 90.1586 -44.9101 90.4403 -44.686C90.722 -44.4619 90.9895 -44.1958 91.2571 -43.9717C91.4825 -43.8036 91.6374 -43.6495 91.8627 -43.4815C92.1866 -43.2154 92.5809 -42.9352 92.9612 -42.6691C93.1302 -42.5571 93.2288 -42.445 93.3977 -42.347C93.8343 -42.0249 94.3273 -41.7447 94.8202 -41.4226C94.8202 -41.4226 94.9328 -41.3666 94.9892 -41.3106C100.58 -37.9772 107.889 -35.6942 115.565 -33.2292C115.734 -33.1731 115.945 -33.1171 116.114 -33.0611C127.521 -29.4616 139.492 -25.5259 147.336 -17.6686C149.153 -15.8618 150.688 -13.901 151.998 -11.6601C155.448 -5.65153 157.927 1.92566 155.998 7.33194C166.799 2.31783 175.587 -9.96535 172.404 -23.383L172.573 -23.327L172.559 -23.341Z" fill="#EBF0F7"/>
</svg>
