<?xml version="1.0" encoding="utf-8"?>
<!-- Generator: Adobe Illustrator 26.1.0, SVG Export Plug-In . SVG Version: 6.00 Build 0)  -->
<svg version="1.1" id="Layer_1" xmlns="http://www.w3.org/2000/svg" xmlns:xlink="http://www.w3.org/1999/xlink" x="0px" y="0px"
	 viewBox="0 0 2601.4 2672.2" style="enable-background:new 0 0 2601.4 2672.2;" xml:space="preserve">
<style type="text/css">
	.st0{fill:#2D58A7;}
</style>
<g>
	<g>
		<g>
			<path class="st0" d="M514.5,2544.6c-5.9,12.9-11.8,25.9-17.8,38.8c-6.9,15.1-14,30.2-20.8,45.4c-1.5,3.3-3.3,4.5-6.8,4.3
				c-6.5-0.3-13-0.3-19.5,0c-4.1,0.2-6.2-1.1-7.9-5c-12.1-27-24.4-53.9-36.6-80.9c-0.5-1.2-1.1-2.3-2.3-4.6c0,42.7,0,84.1,0,126
				c-11.3,0-22.4,0-33.9,0c-0.1-1.9-0.4-3.8-0.4-5.8c0-57.8,0-115.6-0.1-173.5c0-4.9,1.4-6.3,6.2-6.1c11.2,0.3,22.3,0.3,33.5,0
				c4.1-0.1,5.8,1.4,7.4,4.9c14,31.6,28.1,63.2,42.2,94.8c0.5,1.2,1.1,2.4,2,4.5c1.1-2.3,1.9-3.8,2.6-5.3c14-31.3,28.1-62.5,42-93.8
				c1.6-3.7,3.5-5.2,7.8-5.1c10.7,0.3,21.3,0.3,32,0c4.6-0.1,5.9,1.3,5.9,5.8c-0.2,49.8-0.1,99.6-0.1,149.5c0,8.7-0.1,17.3,0.1,26
				c0.1,3.5-1.1,4.7-4.6,4.6c-8.2-0.2-16.3-0.3-24.5,0c-4.4,0.2-5.6-1.2-5.6-5.6c0.2-38,0.1-76,0.1-114c0-1.6,0-3.2,0-4.8
				C515,2544.8,514.8,2544.7,514.5,2544.6z"/>
			<path class="st0" d="M0,2483.7c1.9-0.1,3.3-0.3,4.8-0.3c22.3,0,44.7-0.5,67,0.2c11,0.4,22.2,2,33,4.6
				c22.6,5.6,36.4,20.7,41.5,43.2c6.2,27.4,6.9,55.1,0.2,82.6c-7.6,30.8-28.3,47.5-58.8,52.8c-8.5,1.5-17.2,2-25.8,2.1
				c-18.8,0.3-37.6,0.1-56.5,0.1c-1.6,0-3.3,0-5.3,0C0,2607,0,2545.5,0,2483.7z M36,2575.8c0,18,0,36,0,54c0,2.5-0.4,5.3,3.5,5.1
				c13.5-0.5,27-0.1,40.3-1.7c16-1.9,26.6-11.3,30.3-27.5c4.6-20.6,4.6-41.3-0.1-61.8c-3.4-14.9-12.8-24.5-28.5-25.8
				c-13.6-1.1-27.2-1.2-40.8-2c-3.8-0.2-4.8,1.1-4.8,4.8C36.1,2539.2,36,2557.5,36,2575.8z"/>
			<path class="st0" d="M341.8,2568.7c-0.7,23.2-1.7,40.1-7.1,56.4c-7.3,22-21.9,36.6-44.4,42.5c-24.8,6.6-49.7,6-74.3-1.1
				c-20.2-5.8-32.9-19.3-38.6-39.4c-7.5-26.4-8-53.2-4-80.1c1.4-9.6,4.2-19.2,7.9-28.1c7.2-17.5,20.8-28.5,39-33.7
				c23.5-6.6,47.2-6.5,71-1.1c25.6,5.8,40.4,22.2,45.5,47.2C339.5,2545.6,340.7,2560.3,341.8,2568.7z M305.2,2577.4
				c-1.1-12.9-1.6-23.2-3.1-33.4c-2.6-18.3-11.2-27.4-29.1-29.5c-10.5-1.3-21.3-1.3-31.8-0.1c-17.9,2-26.4,10.5-30.3,28.1
				c-3.5,15.6-3.8,31.4-2.7,47.2c0.6,9.4,2.4,18.8,4.8,27.9c2.4,9.1,9,15,18.3,17.3c14.6,3.5,29.3,3.7,44,0.8
				c13.4-2.6,22.4-10.3,25-23.8C302.7,2599.7,303.9,2587.3,305.2,2577.4z"/>
			<path class="st0" d="M710,2668.9c-42.2,0-83.6,0-125.4,0c0-61.7,0-123.3,0-185.2c1.8-0.1,3.4-0.3,5-0.3c37.5,0,75,0.1,112.5-0.1
				c4.3,0,5.9,1,5.7,5.5c-0.3,7.5-0.2,15,0,22.5c0.1,3.7-1.2,4.8-4.9,4.8c-25.2-0.1-50.3-0.1-75.5-0.1c-2,0-3.9,0-6.7,0
				c0,5.4,0,10.3,0,15.3c0,7.5,0.2,15-0.1,22.5c-0.1,3.7,1.1,4.8,4.8,4.8c21.7-0.2,43.3,0.1,65-0.2c5.1-0.1,6.7,1.5,6.4,6.5
				c-0.4,6.5-0.3,13,0,19.5c0.2,4.3-1,5.8-5.5,5.7c-21.5-0.2-43-0.1-64.5-0.1c-1.8,0-3.6,0-6.1,0c0,6.1,0,11.7,0,17.3
				c0,7.2,0.3,14.3-0.1,21.5c-0.3,5,1.6,6.1,6.3,6.1c25.2-0.2,50.3-0.1,75.5-0.1c7.7,0,7.7,0,7.7,7.5
				C710,2651,710,2659.7,710,2668.9z"/>
		</g>
		<g>
			<path class="st0" d="M801.5,2483.4c11.9,0,23.4,0.5,34.8-0.2c7.3-0.4,10.6,1.9,13.5,8.7c13.1,30.7,27,61.1,40.6,91.7
				c0.5,1,1,2,1.8,3.7c1-1.8,1.7-3,2.3-4.3c14.1-31.4,28.3-62.8,42.1-94.3c1.8-4.2,4-5.6,8.5-5.4c10.7,0.4,21.3,0.3,32,0
				c3.8-0.1,5.2,0.8,5.2,4.9c-0.1,58.7-0.1,117.3,0,176c0,4.1-1.5,5-5.2,4.9c-8.2-0.2-16.3-0.3-24.5,0c-4.2,0.2-5-1.5-4.9-5.2
				c0.1-38.7,0.1-77.3,0.1-116c0-1,0-2,0-4.4c-1.2,2.2-1.9,3.3-2.4,4.5c-12.3,26.8-24.6,53.5-36.8,80.3c-1.5,3.3-3.3,4.8-7.1,4.7
				c-6.7-0.3-13.3-0.3-20,0c-3.8,0.2-5.6-1.3-7.1-4.6c-12.1-27-24.4-53.9-36.7-80.9c-0.6-1.3-1.2-2.5-2.5-5.1c0,42.9,0,84.3,0,126.2
				c-11.3,0-22.4,0-33.8,0C801.5,2607,801.5,2545.5,801.5,2483.4z"/>
			<path class="st0" d="M1343.9,2669c-14.8,0-28.2,0.1-41.5-0.2c-1.6,0-3.6-2.1-4.6-3.7c-12.2-18.3-24.3-36.6-36.2-55.1
				c-1.9-3-4-4.3-7.6-4.1c-7,0.3-13.9,0.1-21.4,0.1c-0.1,2.4-0.3,4.3-0.3,6.2c0,17.2-0.1,34.3,0.1,51.5c0,4.1-1.1,5.5-5.3,5.4
				c-10.1-0.3-20.3-0.1-30.8-0.1c0-61.9,0-123.4,0-185.3c1.5-0.1,3-0.3,4.4-0.3c23.5,0,47-0.5,70.5,0.3c10.7,0.3,21.5,2.2,31.9,5.1
				c20.6,5.7,32.5,21.4,34.4,43c1.1,12.2,0.9,24.2-2.9,36c-5,15.7-15.6,25.9-30.9,31.7c-1.8,0.7-3.7,1.4-6.2,2.4
				C1312.8,2624.1,1327.9,2646,1343.9,2669z M1232.6,2515.2c0,21,0,40.3,0,60.8c15.5-0.6,30.6-0.3,45.5-2.1
				c14.1-1.7,19.8-8.5,22.3-22.4c0.6-3.2,0.4-6.6,0.3-10c-0.3-12.7-7-21.8-19.5-23.3C1265.3,2516.4,1249.2,2516.2,1232.6,2515.2z"/>
			<path class="st0" d="M1402.4,2590c0,26.5,0,52.4,0,79.1c-8.6,0-16.7,0-24.8,0c-11.7,0-11.7,0-11.7-11.8c0-55.8,0-111.6,0-167.5
				c0-6.5,0-6.5,6.5-6.5c9.8,0,19.6,0,29.9,0c0,25.5,0,50.4,0,76.1c5.8,0,11.1,0.4,16.3-0.2c1.8-0.2,3.7-2.6,5-4.3
				c17.4-22.5,34.8-45.1,52-67.8c2.2-2.9,4.4-3.9,7.9-3.8c12.5,0.2,24.9,0.1,39,0.1c-24.2,30.7-47.6,60.3-71.3,90.3
				c24.4,31.4,48.7,62.8,73.6,94.9c-2.6,0.2-4.2,0.4-5.8,0.4c-11.5,0-23-0.2-34.5,0.1c-4.4,0.1-6.9-1.5-9.4-4.9
				c-17.1-23.2-34.4-46.2-51.5-69.4c-2.6-3.6-5.3-5.4-9.8-5C1410.2,2590.3,1406.6,2590,1402.4,2590z"/>
			<path class="st0" d="M1652.4,2590.1c-25.6,0-50.5,0-76,0c0,6.6,0,12.7,0,18.8c0,6.7,0.3,13.4-0.1,20c-0.3,5.1,1.6,6.1,6.2,6
				c25.3-0.2,50.7-0.1,76-0.1c7.8,0,7.8,0,7.8,7.5c0,7.5-0.1,15,0,22.5c0.1,3.3-1.2,4.3-4.4,4.3c-39.2-0.1-78.3-0.1-117.5,0
				c-3.4,0-4.6-1-4.6-4.5c0.1-59,0.1-118,0-177c0-2.7,0.5-4.3,3.8-4.3c39.2,0.1,78.3,0.1,117.5,0.1c0.5,0,1,0.2,1.8,0.4
				c0,10.5,0,21,0,32.1c-28.7,0-57.3,0-86.2,0c0,14.3,0,28,0,42.3c1.9,0.1,3.8,0.3,5.8,0.3c21.3,0,42.7,0.1,64-0.1
				c4.4,0,6.3,0.9,6,5.8C1652.1,2572.5,1652.4,2580.9,1652.4,2590.1z"/>
			<path class="st0" d="M2600.9,2668.8c-41.7,0-83.1,0-124.9,0c0-61.8,0-123.3,0-185.4c2,0,3.8,0,5.6,0c37.2,0,74.3,0.1,111.5-0.1
				c4.4,0,6.3,1,6.1,5.7c-0.3,7.3-0.2,14.7,0,22c0.1,3.8-1.1,5.1-5.1,5.1c-25.5-0.2-51,0-76.5-0.2c-4.6,0-5.6,1.5-5.5,5.7
				c0.2,10.3,0.3,20.7,0,31c-0.2,5,1.7,6.1,6.3,6c21.3-0.2,42.7,0,64-0.2c4.6,0,6.3,1.3,6,5.9c-0.3,6.7-0.4,13.3,0,20
				c0.3,4.8-1.6,5.8-6,5.8c-21.7-0.2-43.3,0-65-0.2c-4.3,0-5.4,1.4-5.3,5.4c0.2,11,0.3,22,0,33c-0.1,5,1.3,6.6,6.4,6.6
				c25.3-0.2,50.7-0.1,76-0.1c7.1,0,7.1,0,7.1,7c0,8.3,0,16.7-0.1,25C2601.3,2667.3,2601.1,2667.8,2600.9,2668.8z"/>
			<path class="st0" d="M1883.3,2613.1c0,17.2-0.2,33.5,0.1,49.8c0.1,5.2-1.5,6.5-6.4,6.3c-9.8-0.4-19.6-0.1-29.9-0.1
				c-0.1-2.2-0.3-4-0.3-5.7c0-58.2,0-116.3-0.1-174.5c0-4.4,1.2-5.6,5.6-5.6c22.7,0.2,45.3-0.4,68,0.4c11.2,0.4,22.5,2.2,33.4,5.1
				c17,4.6,28,16.1,32.6,33.3c4,15.2,4.1,30.6,0.6,45.9c-5.9,25.3-23,38.8-47.6,42.7c-12.6,2-25.5,1.7-38.3,2.3
				C1895.3,2613.3,1889.6,2613.1,1883.3,2613.1z M1883.6,2581.9c14.5-0.6,28.5-0.6,42.4-1.9c10.8-1,20.6-5.5,23.4-17
				c2-7.9,2.6-16.5,1.9-24.6c-0.8-10.4-7-17.5-17.6-19.6c-5.8-1.2-11.8-2.1-17.7-2.3c-10.7-0.4-21.5-0.1-32.4-0.1
				C1883.6,2538.1,1883.6,2559.4,1883.6,2581.9z"/>
			<path class="st0" d="M999.7,2669.1c1.9-5,3.4-9.1,5-13.3c21.3-55.7,42.7-111.4,63.9-167.2c1.6-4.2,3.6-5.5,7.9-5.4
				c9.3,0.3,18.7,0,28,0.2c1.6,0.1,4.1,1.6,4.6,3.1c22.7,60,45.3,120,67.8,180c0.2,0.4,0.1,1,0.2,2.4c-2.7,0-5.2,0-7.7,0
				c-8.5,0-17-0.1-25.5,0.1c-3.2,0.1-4.8-0.9-5.8-4c-3.3-9.9-7-19.7-10.3-29.7c-0.9-2.8-2.4-3.9-5.4-3.9c-22.7,0.1-45.3,0.1-68,0
				c-3.1,0-4.4,1.3-5.3,4c-3.2,9.8-6.8,19.4-9.9,29.3c-1,3.3-2.6,4.4-6,4.3C1022.4,2668.9,1011.5,2669.1,999.7,2669.1z
				 M1061.8,2601.1c18.1,0,35.7,0,53.8,0c-9.1-27.1-18.1-53.8-27.1-80.4C1079.6,2547.5,1070.8,2574.2,1061.8,2601.1z"/>
			<path class="st0" d="M2133.4,2669.1c4.7-12.2,9-23.5,13.3-34.8c18.7-48.7,37.4-97.4,55.9-146.2c1.4-3.6,3-4.8,6.8-4.7
				c9.3,0.3,18.7,0.2,28,0c3.1-0.1,4.8,0.8,5.9,3.8c22.2,59.3,44.5,118.5,66.8,177.8c0.4,1.1,0.6,2.2,1.2,4.2c-3.4,0-6.3,0-9.2,0
				c-8,0-16-0.2-24,0.1c-3.7,0.1-5.3-1.3-6.4-4.6c-3.1-9.5-6.7-18.8-9.8-28.3c-1.1-3.3-2.5-4.8-6.3-4.8c-22.2,0.2-44.3,0.2-66.5,0
				c-3.6,0-5.3,1.2-6.4,4.6c-3,9.5-6.5,18.8-9.6,28.3c-1.1,3.3-2.6,4.8-6.3,4.7C2156.2,2668.9,2145.4,2669.1,2133.4,2669.1z
				 M2222.3,2520.8c-9,27-17.8,53.5-26.7,80.3c18.1,0,35.7,0,53.8,0C2240.2,2574.2,2231.3,2547.7,2222.3,2520.8z"/>
			<path class="st0" d="M2452.4,2628.6c0,10,0.1,19.9-0.1,29.9c0,1-1.6,2.5-2.7,2.9c-23.8,9.6-48.4,13.4-73.8,8.9
				c-8.7-1.6-17.5-4.2-25.5-7.9c-14.4-6.7-22-19.4-26.4-34c-6.5-21.3-7.7-43.1-6.3-65.2c0.8-13.5,3-26.8,8-39.4
				c9.5-23.8,27.8-36.7,52.4-41.1c22.3-4,44.7-2.6,67.1,0c1.3,0.1,3.2,2.4,3.2,3.7c0.3,8.3,0.1,16.7,0.2,25c0,3-1.3,3.7-4,3.5
				c-11-0.6-21.9-1.4-32.9-1.5c-8.3,0-16.6,0.4-24.8,1.6c-16.2,2.4-25.8,12.1-29.2,28c-4.4,21.1-4.6,42.3-0.6,63.4
				c4.2,22.2,14.4,29.2,38.2,30.9c17.6,1.2,34.8-2,51.4-7.8c1.3-0.4,2.5-0.8,3.8-1.1C2450.9,2628.3,2451.4,2628.5,2452.4,2628.6z"/>
			<path class="st0" d="M1770.4,2515.9c0,51.4,0,101.8,0,153.2c-3.8,0-7.2,0-10.6,0c-6.8,0-13.7-0.3-20.5,0.1
				c-4.5,0.3-5.6-1.3-5.5-5.6c0.1-46.5,0.1-93,0.1-139.5c0-2.5,0-4.9,0-8c-2.8,0-5.1,0-7.4,0c-14.3,0-28.7-0.2-43,0.1
				c-4.5,0.1-5.8-1.4-5.6-5.7c0.3-7,0.4-14,0-21c-0.3-4.8,1.2-6.2,6.1-6.2c39.5,0.2,79,0.1,118.5,0.1c7.7,0,15.3,0,23.5,0
				c0,10.8,0,21.4,0,32.5C1807.6,2515.9,1789.4,2515.9,1770.4,2515.9z"/>
			<path class="st0" d="M2013,2668.6c0-61.7,0-123.1,0-185.2c11.3,0,22.4-0.1,33.5,0.1c0.9,0,2.2,1.6,2.6,2.7c0.5,1.5,0.2,3.3,0.2,5
				c0,45.7,0,91.3,0,137c0,6.6,0,6.6,6.5,6.6c22.5,0,45,0.1,67.5-0.1c4.7,0,6.5,1.3,6.2,6.2c-0.4,8-0.2,16-0.1,24
				c0,2.8-0.7,4.2-3.9,4.2c-36.8-0.1-73.6-0.1-110.5-0.1C2014.5,2669,2014,2668.8,2013,2668.6z"/>
		</g>
	</g>
	<path class="st0" d="M1451,1543.5c67.6,11.1,143.1,15.3,221.8,13.9c-43.8-93.5-93.5-180.7-139.6-256.5
		c-49.4-0.3-95.2-1.3-135.6-2.2C1397.7,1298.6,1337.4,1524.9,1451,1543.5z"/>
	<path class="st0" d="M2298.5,1188.4c-111.7,44.4-232.4,71.8-351.4,88.3c39.3,76.1,74.4,157.2,104.3,238.2
		c116.3-23,226.2-53.3,316.8-87.5l16.8-46c10.3-28.1-3.6-81.7-34.4-133.5C2337.1,1225.2,2319.4,1205.8,2298.5,1188.4L2298.5,1188.4z
		"/>
	<path class="st0" d="M506.3,1885.7l32.8,37.1c19.9,22.7,74.9,37.8,136.6,37.8c27,0,53.3-5.2,79.2-13.9
		c16.2-115.9,52-230.8,96.7-339c-86.1-5-176.3-16-265.2-31.6c-37.7,109-65.3,216.4-80.1,309.5l0,0V1885.7z"/>
	<path class="st0" d="M861.2,1058.2c-43.8,51.2-85.3,112.5-123.4,179.4c95.2,9.1,185.6,11.1,262,11.1c12.7,0,25,0,37.3-0.3
		c25-41.3,48.7-79.2,69.8-112.5c0,0-172.3-163.8-245.7-77.8l0,0V1058.2z"/>
	<path class="st0" d="M277,1119.3c5.6,2.8,11.4,5.3,17.1,8c51-35,112.3-60,175.3-81.5l30.9-51.9c37.4-62.8,36.6-148.4,23.1-243.4
		c-97,34.6-200.9,66.3-290.8,111.3l-21,59.3c-4.9,14.3-45.2,143.2,65.2,198.3h0.1L277,1119.3z"/>
	<path class="st0" d="M1590,806.2c-23.8-62.3-57.9-127.5-98.6-193c-61.7,83.6-114.7,168.7-159.5,245.4
		c24.6,41.6,46.4,80.5,65.8,114.9C1397.7,973.4,1630.2,910.7,1590,806.2z"/>
	<path class="st0" d="M875.8,199.4c-13.4,22.7-22.1,47.3-27.2,73.3c95.5,71.5,180.3,159.1,254.8,250.5
		c48.4-71.1,103.3-140.9,160.8-206.6c-78.6-86.1-160.8-163.1-236.7-222l-49.6,9c-30.2,5.5-71.2,43.9-102.2,95.6l0,0V199.4z"/>
	<path class="st0" d="M874,1555.5c98.6,4.8,193.4,1.5,276.4-12c113.6-18.6,53.3-244.9,53.3-244.9c-56.8,1.4-124.4,3.5-198.6,3.6
		c-91,0-192.1-2.8-295.4-13.7c-156.1-16.5-317.3-51.2-458.1-121.5c-1.3-0.7-2.5-1.4-3.8-2.1c-149.1-78-90.8-253.9-88.4-260.6
		c-2.9,2-5.8,3.8-8.5,5.6c-0.9,0.6-1.7,1.1-2.5,1.7c-7.9,5.6-15.6,11.5-23.1,17.5c-0.7,0.6-1.3,1.1-2,1.5
		c-7.2,5.9-14.2,12-20.8,18.3c-1,1-2,2-3.2,2.9c-6.2,6-12.3,12.2-18.1,18.5c-1.3,1.5-2.7,3.1-4,4.6c-5.3,6.2-10.5,12.5-15.5,19
		c-1.4,1.8-2.7,3.8-4.2,5.7c-4.8,6.6-9.2,13.3-13.6,20.2c-1.2,1.8-2.2,3.8-3.3,5.7c-4.3,7.3-8.4,14.7-12,22.5
		c-0.7,1.5-1.3,3.1-2,4.5c-3.9,8.4-7.5,17.1-10.7,26c-0.3,0.7-0.4,1.5-0.7,2.4c-3.3,9.8-6.5,19.9-9,30.4
		c-30.5,125.7,53.8,240.7,157.9,287.9c112.9,51.1,272.3,97,440.3,126c89.2,15.4,180.8,26.2,269.2,30.4h0.1V1555.5z"/>
	<path class="st0" d="M548.1,1020.6c1.9-0.6,3.8-1.1,5.5-1.7c73.6-23.1,143.9-44.8,197.5-75.9c0.6-0.3,1-0.6,1.6-1
		c4.8-2.8,9.4-5.6,13.9-8.5c1.4-1,2.7-1.8,4-2.8c3.6-2.5,7.2-4.9,10.5-7.6c2-1.5,3.8-3.1,5.8-4.6c2.7-2.2,5.5-4.3,8.1-6.7
		c2.3-2.1,4.5-4.2,6.6-6.3c2-2,4-3.9,5.9-5.9c2.6-2.7,4.9-5.6,7.2-8.4c1.3-1.7,2.7-3.2,4-4.8c3.5-4.6,6.8-9.4,9.7-14.3
		c2.9-4.9,5.6-10.1,7.9-15.3c0.9-1.8,1.4-3.9,2.3-5.7c1.4-3.4,2.7-6.7,3.9-10.2c0.9-2.7,1.6-5.3,2.3-8c0.9-2.9,1.7-5.7,2.5-8.8
		c0.7-3.4,1.3-6.7,2-10.1c0.4-2.4,0.9-4.8,1.3-7.1c0.6-4.2,1-8.4,1.4-12.7c0.1-1.5,0.3-3.2,0.4-4.8c0.4-5.2,0.6-10.5,0.7-16v-1.7
		c0.9-60.6-14.9-130.6-31.1-203.9c-0.4-1.7-0.7-3.5-1.2-5.3c-24.4-108.9-49.3-223.9-21.1-324c6.4-22.8,15.5-44.8,27.9-65.8
		c33.4-56.1,85.4-111.5,139.7-121.5c-94.2-63.8-239.3-77-336.3,11.5c-70.2,64-100.4,145.7-108.7,230.7v1.4
		C510.9,433,555.3,588.8,576.4,731c16.3,109.3,18.9,210.5-28.2,289.7l0,0L548.1,1020.6z"/>
	<path class="st0" d="M1797.7,2002.8c-0.3-6-0.7-12.2-1.2-18.2c-56.9-25.2-110-64.1-160.7-106.4H1574c-75,0-150.9,43.5-229.2,102.3
		c79.3,64,159.7,135.3,244.8,188.2l63.6-12.2c0,0,41.8-8.5,80.5-34c45.7-30.1,66.8-69.1,64.3-119.8H1797.7z"/>
	<path class="st0" d="M1996.7,1525.2c-30.8-82.4-67.1-164.7-107.5-241c-45.1-85.1-95.2-162.9-149-225.9
		c-73.4-85.9-245.7,77.8-245.7,77.8c29.8,47,65.3,102.6,102.5,164.7c45.7,76.3,93.5,162.5,135.4,254.6
		c63.3,139.1,112.9,291.8,120.4,445.1v4.2c4.9,167-188.3,204.3-189.2,204.5c1.4,0.7,2.9,1.3,4.2,2c2.9,1.3,5.8,2.7,8.8,3.9
		c3.2,1.4,6.4,2.7,9.5,3.9c1.7,0.7,3.3,1.4,5.1,2c3.3,1.3,6.8,2.5,10.1,3.8c1.7,0.6,3.5,1.3,5.2,1.8c3.2,1.1,6.2,2.1,9.4,3.1
		c2.2,0.7,4.3,1.4,6.5,2.1c2.6,0.8,5.3,1.5,7.9,2.4c2.7,0.8,5.6,1.5,8.4,2.2c2,0.6,4.2,1.1,6.2,1.5c3.5,0.8,7.1,1.7,10.5,2.4
		c1.4,0.3,2.9,0.6,4.5,1c4.2,0.8,8.4,1.5,12.6,2.2c0.9,0,1.7,0.3,2.7,0.4c4.8,0.7,9.7,1.4,14.6,2h1.2c5.3,0.6,10.7,1.1,16,1.4l0,0
		c22,1.4,44.2,0.7,66.8-2.2h0.4c5.2-0.7,10.4-1.5,15.8-2.5c0.4,0,1,0,1.4-0.3c4.9-1,9.8-2,14.7-3.1c0.9,0,1.6-0.3,2.5-0.6
		c5.8-1.4,11.4-2.9,17.2-4.6c127.6-37.2,188.4-165.4,178.5-276.4c-10.8-120.2-49.4-276.8-107.5-432.3l0,0L1996.7,1525.2z"/>
	<path class="st0" d="M1569.6,1821.2c-57.5-50.2-112.1-98.4-166.8-127.9c-0.6-0.3-1-0.6-1.6-0.8c-4.9-2.7-9.8-5-14.6-7.4
		c-1.6-0.7-3-1.4-4.6-2c-4-1.8-8.1-3.5-12.1-5.2c-2.3-0.8-4.6-1.7-6.9-2.5c-3.3-1.1-6.6-2.4-10-3.4c-3-0.8-6.1-1.5-9-2.4
		c-2.7-0.7-5.5-1.5-8.2-2.1c-3.8-0.8-7.5-1.3-11.3-1.8c-2-0.3-4.2-0.7-6.2-1c-5.9-0.6-11.7-1-17.6-1c-5.9,0-11.7,0.3-17.6,1
		c-2,0.3-4.2,0.7-6.2,1c-3.8,0.6-7.5,1-11.3,1.8c-2.7,0.6-5.5,1.4-8.2,2.1c-3,0.7-6.1,1.4-9,2.4c-3.3,1-6.6,2.2-10,3.4
		c-2.3,0.8-4.6,1.5-6.9,2.5c-4,1.5-8.1,3.4-12.1,5.2c-1.6,0.7-3,1.3-4.6,2c-4.9,2.2-9.8,4.8-14.6,7.4c-0.6,0.3-1,0.6-1.6,0.8
		c-54.6,29.5-109.1,77.7-166.6,127.8c-1.4,1.3-2.9,2.5-4.3,3.8c-85.1,74.9-175.6,153.3-279.2,179.7c-23.6,6-47.7,9.4-72.7,9.4
		c-66.9,0-142.5-15.8-178.5-56.5c-10,110.8,50.7,239.2,178.5,276.4c92.3,26.9,180.5,11.3,260.6-24.2c0.4,0,0.9-0.4,1.3-0.6
		c129.5-59.2,246.5-174.3,363.2-263.1c89.6-68.3,178.8-121.2,273.1-121.2c-1.4-1.3-2.7-2.4-4.2-3.6l0,0L1569.6,1821.2z"/>
	<path class="st0" d="M1827.9,535.6c37.4,62.8,114.3,104.8,206.1,141.1c17.5-98.5,41.2-201.7,46-299.4l-42.6-47.2
		c0,0-62.1-66.6-137.1-66.6c-25,0-48.7,7.3-72.7,22.1c-5.2,3.2-10.4,6.7-15.6,10.1c5.9,60.3-2.3,124.3-14.7,188l30.9,51.9l0,0
		L1827.9,535.6z"/>
	<path class="st0" d="M1011.4,806.2c-40.2,104.6,192.3,167.3,192.3,167.3c27.2-48.4,59.1-106.1,96-168.4
		c45.4-76.4,98.6-159.7,160-240.9c92.8-122.6,204.5-240.6,337.7-323.5c1.3-0.8,2.5-1.4,3.8-2.1C1948,151,2078,294.3,2078.6,295
		c0-1.5-0.3-2.9-0.4-4.5c-0.3-3.1-0.6-6.2-0.9-9.2c-0.4-3.4-0.9-6.6-1.3-9.8c-0.3-1.8-0.4-3.5-0.7-5.3c-0.6-3.5-1.2-6.9-1.7-10.4
		c-0.3-1.7-0.6-3.5-0.9-5.2c-0.6-3.2-1.3-6.3-1.9-9.4c-0.4-2.1-0.9-4.3-1.4-6.4c-0.6-2.7-1.3-5.2-1.9-7.8c-0.7-2.8-1.4-5.5-2.2-8.3
		c-0.6-2-1.2-4.1-1.7-6c-1-3.4-2-6.7-3.2-10.1c-0.4-1.4-0.9-2.8-1.4-4.2c-1.3-3.9-2.7-7.8-4.2-11.8c-0.3-0.8-0.6-1.7-1-2.5
		c-1.7-4.3-3.6-8.8-5.5-13.2c0-0.4-0.3-0.7-0.4-1.1c-2.2-4.8-4.3-9.5-6.8-14.1l0,0c-9.7-19-21.4-37.5-35.4-54.9c0,0,0-0.1,0-0.3
		c-3.3-4.1-6.6-8.1-10.3-12c-0.3-0.3-0.6-0.7-0.9-1c-3.3-3.6-6.8-7.3-10.3-10.9c-0.6-0.6-1-1.1-1.6-1.7c-4-4.1-8.2-8.1-12.7-12.2
		c-97.1-88.5-242.2-75.3-336.3-11.5c-102.2,69.1-222.8,179.9-332.8,306.4c-58.4,67-113.7,138.6-161.9,210.6
		c-53.6,80.3-98.1,161.4-127.5,237.9l0,0L1011.4,806.2z"/>
	<path class="st0" d="M2594.9,1111.3c-2.3-9.8-5.3-19.2-8.4-28.4c-0.9-2.4-1.6-4.8-2.5-7.1c-2.3-6.3-4.9-12.2-7.5-18.2
		c-27.7-62.4-74.1-111-129-149.6c-1.4-1-3-2.1-4.6-3.1c-117.8-79.6-279.6-120.5-417.9-174c-105.8-41-197.7-89.3-244.9-168.5
		c-0.4,1.8-0.9,3.6-1.2,5.5c-16,73.3-31.9,143.2-31.1,203.8v1.7c0,5.5,0.3,10.8,0.7,16c0,1.7,0.3,3.2,0.4,4.8
		c0.4,4.3,0.9,8.5,1.4,12.7c0.3,2.4,0.9,4.8,1.3,7.1c0.6,3.4,1.2,6.9,2,10.1c0.7,2.9,1.6,5.9,2.5,8.8c0.7,2.7,1.4,5.3,2.3,8
		c1.2,3.5,2.6,6.9,3.9,10.2c0.7,2,1.4,3.9,2.3,5.7c2.3,5.2,5.1,10.4,7.9,15.3c2.9,4.9,6.2,9.7,9.7,14.3c1.3,1.7,2.7,3.2,4,4.8
		c2.3,2.8,4.6,5.7,7.2,8.4c1.9,2,3.9,3.9,5.9,5.9c2.2,2.1,4.3,4.3,6.6,6.3c2.6,2.2,5.3,4.5,8.1,6.7c1.9,1.5,3.8,3.1,5.8,4.6
		c3.5,2.5,6.9,5,10.5,7.6c1.4,1,2.7,2,4,2.8c4.5,2.9,9.1,5.7,13.9,8.5c0.6,0.3,1,0.6,1.6,1c53.6,31.1,124,52.6,197.7,75.9
		c1.9,0.6,3.6,1.1,5.5,1.7c109.5,34,224.9,70.7,300.3,144.3c17.2,16.8,32.4,35.3,44.8,56.3c33.4,56.1,57.1,127.5,38.7,177.9
		c104.2-47.2,188.4-162.2,157.9-287.9v0.4L2594.9,1111.3z"/>
</g>
</svg>
